<svg width="60" height="60" viewBox="0 0 60 60" fill="none" xmlns="http://www.w3.org/2000/svg">
<g id="Union">
<path fill-rule="evenodd" clip-rule="evenodd" d="M53.533 5.72174C45.9415 -1.90724 33.5886 -1.90725 25.9972 5.72174C19.2127 12.5398 18.4982 23.1863 23.8502 30.8151L18.518 36.1737C17.2168 37.4813 17.2168 39.5976 18.518 40.9053C19.8201 42.2139 21.9289 42.2139 23.231 40.9053L28.5612 35.5486C36.1538 40.926 46.7487 40.207 53.533 33.3891C61.1236 25.761 61.1236 13.3498 53.533 5.72174ZM30.71 10.442C35.697 5.43035 43.8218 5.42961 48.8207 10.4423C53.8085 15.4666 53.808 23.6337 48.8198 28.6578C44.6451 32.8528 38.2657 33.5357 33.3734 30.7126L35.141 28.9363C36.4422 27.6287 36.4422 25.5124 35.141 24.2047C33.8391 22.8964 31.7302 22.8966 30.4281 24.2047L28.6635 25.969C25.8437 21.0512 26.5244 14.6378 30.71 10.442Z" fill="black"/>
<path fill-rule="evenodd" clip-rule="evenodd" d="M17.6102 26.881C16.3082 25.5725 14.1995 25.5724 12.8974 26.8808L0.975902 38.85C-0.325252 40.1576 -0.325329 42.2738 0.975843 43.5815C2.27792 44.8901 4.38665 44.8901 5.68877 43.5815L17.6101 31.6126C18.9113 30.305 18.9114 28.1886 17.6102 26.881Z" fill="black"/>
<path d="M32.4676 41.8233C31.2097 40.5471 29.1633 40.5143 27.865 41.725H27.8619L27.7919 41.7953L27.7661 41.8212L27.7627 41.8247L27.7609 41.8265L15.8437 53.7913C14.5425 55.099 14.5424 57.2151 15.8436 58.5228C17.1457 59.8314 19.2545 59.8314 20.5566 58.5228L32.4667 46.5538C33.7675 45.2463 33.7678 43.131 32.4676 41.8233Z" fill="black"/>
</g>
</svg>
