<svg xmlns="http://www.w3.org/2000/svg" width="262" height="60" fill="none" viewBox="0 0 262 60"><path fill="black" fill-rule="evenodd" d="M53.533 5.72174C45.9415 -1.90724 33.5886 -1.90725 25.9972 5.72174C19.2127 12.5398 18.4982 23.1863 23.8502 30.8151L18.518 36.1737C17.2168 37.4813 17.2168 39.5976 18.518 40.9053C19.8201 42.2139 21.9289 42.2139 23.231 40.9053L28.5612 35.5486C36.1538 40.926 46.7487 40.207 53.533 33.3891C61.1236 25.761 61.1236 13.3498 53.533 5.72174ZM30.71 10.442C35.697 5.43035 43.8218 5.42961 48.8207 10.4423C53.8085 15.4666 53.808 23.6337 48.8198 28.6578C44.6451 32.8528 38.2657 33.5357 33.3734 30.7126L35.141 28.9363C36.4422 27.6287 36.4422 25.5124 35.141 24.2047C33.8391 22.8964 31.7302 22.8966 30.4281 24.2047L28.6635 25.969C25.8437 21.0512 26.5244 14.6378 30.71 10.442Z" clip-rule="evenodd"/><path fill="black" fill-rule="evenodd" d="M17.6102 26.881C16.3082 25.5725 14.1995 25.5724 12.8974 26.8808L0.975902 38.85C-0.325252 40.1576 -0.325329 42.2738 0.975843 43.5815C2.27792 44.8901 4.38665 44.8901 5.68877 43.5815L17.6101 31.6126C18.9113 30.305 18.9114 28.1886 17.6102 26.881Z" clip-rule="evenodd"/><path fill="black" d="M32.4676 41.8233C31.2097 40.5471 29.1633 40.5143 27.865 41.725H27.8619L27.7919 41.7953L27.7661 41.8212L27.7627 41.8247L27.7609 41.8265L15.8437 53.7913C14.5425 55.099 14.5424 57.2151 15.8436 58.5228C17.1457 59.8314 19.2545 59.8314 20.5566 58.5228L32.4667 46.5538C33.7675 45.2463 33.7678 43.131 32.4676 41.8233Z"/><path fill="black" fill-rule="evenodd" d="M89.731 29.6813C89.6795 28.0455 88.706 26.5506 87.3397 25.8177C88.4837 25.1719 89.4043 23.9522 89.4043 22.2612C89.4043 20.917 88.8709 19.7793 87.947 18.981C87.026 18.1852 85.7332 17.7392 84.2285 17.7392H76.2471V34.3756H84.4191C86.0167 34.3756 87.3457 33.9241 88.2789 33.1014C89.2155 32.2759 89.731 31.0959 89.731 29.6891V29.6852V29.6813ZM202.416 17.7392H195.17V34.3756H198.194V28.1264H200.843L205.119 34.3756H208.749L204.097 27.8386C205.112 27.6344 206.071 27.1753 206.805 26.4406C207.636 25.6073 208.163 24.4335 208.163 22.9191C208.163 21.3731 207.578 20.0712 206.556 19.1583C205.536 18.2476 204.098 17.7392 202.416 17.7392ZM240.032 17.7392H237.008V34.3756H240.032V17.7392ZM252.875 17.7392H246.637V34.3756H252.875C255.527 34.3756 257.809 33.5366 259.43 32.0716C261.053 30.6047 262 28.5228 262 26.0711C262 23.6206 261.068 21.5319 259.451 20.0577C257.837 18.5851 255.555 17.7392 252.875 17.7392ZM146.7 34.7045C143.17 34.7045 141.063 33.2764 139.93 32.0241L139.638 31.731L141.482 29.5444L141.838 29.9019L141.84 29.9049C142.601 30.7232 144.256 32.0192 146.781 32.0192C148.121 32.0192 149 31.7053 149.539 31.2747C150.073 30.8476 150.294 30.2896 150.294 29.7439C150.294 29.3632 150.188 29.0623 150.001 28.8109C149.811 28.5553 149.529 28.3384 149.16 28.1466C148.434 27.7684 147.438 27.5179 146.317 27.2361L146.229 27.2139L146.071 27.1727C144.764 26.8314 143.351 26.4622 142.254 25.7914C141.679 25.4394 141.181 24.9989 140.827 24.4265C140.472 23.8524 140.271 23.1591 140.271 22.3161C140.271 19.4335 142.984 17.4925 146.564 17.4925C149.146 17.4925 151.285 18.2486 152.866 19.8399L153.164 20.1396L151.315 22.266L150.963 21.9122C149.872 20.7884 148.251 20.1504 146.427 20.1504C145.496 20.1504 144.732 20.375 144.208 20.7401C143.689 21.1019 143.404 21.5995 143.404 22.179C143.404 22.7246 143.75 23.1189 144.43 23.4593C145.113 23.8015 146.057 24.0486 147.114 24.325L147.116 24.3253L147.208 24.3484C148.538 24.6828 150.066 25.067 151.268 25.8064C152.517 26.5752 153.428 27.7372 153.428 29.6068C153.428 30.8329 152.975 32.1157 151.893 33.0895C150.811 34.0625 149.125 34.7045 146.7 34.7045ZM222.259 20.0956H222.26C223.998 20.0823 225.429 20.6838 226.426 21.7196C227.424 22.7565 228.005 24.2473 228.005 26.0437C228.005 27.8102 227.412 29.2949 226.406 30.3366C225.401 31.3777 223.968 31.9918 222.259 31.9918C220.52 31.9918 219.089 31.3836 218.091 30.3472C217.093 29.31 216.512 27.8257 216.512 26.0437C216.512 24.2616 217.093 22.7774 218.091 21.7402C219.089 20.7038 220.52 20.0956 222.259 20.0956ZM189.165 17.7392H177.179V34.3208H189.165V31.6629H180.203V27.1944H189.001V24.5366H180.203V20.397H189.165V17.7392ZM171.746 17.7392H157.989V18.0456L158.02 20.397H163.355V34.3756H166.38V20.397H171.746V17.7392ZM86.5974 29.5246C86.5974 30.2256 86.3393 30.7702 85.8899 31.1441C85.4348 31.5224 84.7608 31.7451 83.9018 31.7451H79.2173V27.2493H83.9018C84.7735 27.2493 85.4464 27.4783 85.897 27.8651C86.3434 28.2478 86.5974 28.8064 86.5974 29.5246ZM79.2173 24.5092V20.397H83.8197C84.6064 20.397 85.2259 20.6174 85.6448 20.9782C86.06 21.3361 86.2979 21.8485 86.2979 22.4805C86.2979 23.1117 86.0607 23.6089 85.6478 23.9527C85.23 24.3007 84.6097 24.5092 83.8197 24.5092H79.2173ZM205.03 22.9191C205.03 23.6867 204.732 24.3247 204.227 24.7734C203.721 25.2241 202.992 25.4959 202.116 25.4959H198.194V20.397H202.143C203.035 20.397 203.756 20.6632 204.251 21.1026C204.744 21.5398 205.03 22.1634 205.03 22.9191ZM258.894 26.0711C258.894 27.764 258.291 29.1701 257.248 30.1539C256.205 31.1388 254.702 31.7177 252.875 31.7177H249.661V20.397H252.875C254.731 20.397 256.233 20.9636 257.269 21.9435C258.303 22.9221 258.894 24.3341 258.894 26.0711ZM222.259 17.4651C217.146 17.4651 213.406 21.0763 213.406 26.0711C213.406 31.0659 217.146 34.6771 222.259 34.6771C227.372 34.6771 231.112 31.0659 231.112 26.0711C231.112 21.1042 227.372 17.4651 222.259 17.4651ZM126.257 17.4651C121.144 17.4651 117.404 21.0763 117.404 26.0711C117.404 31.0659 121.144 34.6771 126.257 34.6771C131.37 34.6771 135.11 31.0659 135.11 26.0711C135.11 21.0763 131.37 17.4651 126.257 17.4651ZM126.257 31.9918C124.519 31.9918 123.087 31.3836 122.09 30.3472C121.091 29.31 120.51 27.8257 120.51 26.0437C120.51 24.2616 121.091 22.7774 122.09 21.7402C123.087 20.7038 124.519 20.0956 126.257 20.0956C127.995 20.0956 129.427 20.7038 130.425 21.7402C131.423 22.7774 132.004 24.2616 132.004 26.0437C132.004 27.8102 131.411 29.2949 130.405 30.3366C129.399 31.3777 127.967 31.9918 126.257 31.9918ZM104.235 17.4651C99.1223 17.4651 95.3819 21.0763 95.3819 26.0711C95.3819 31.0659 99.1223 34.6771 104.235 34.6771C109.348 34.6771 113.088 31.0659 113.088 26.0711C113.088 21.0763 109.348 17.4651 104.235 17.4651ZM104.235 31.9918C102.497 31.9918 101.065 31.3836 100.068 30.3472C99.069 29.31 98.4882 27.8257 98.4882 26.0437C98.4882 24.2616 99.069 22.7774 100.068 21.7402C101.065 20.7038 102.497 20.0956 104.235 20.0956C105.973 20.0956 107.405 20.7038 108.403 21.7402C109.401 22.7774 109.982 24.2616 109.982 26.0437C109.982 27.8102 109.389 29.2949 108.382 30.3366C107.377 31.3777 105.944 31.9918 104.235 31.9918Z" clip-rule="evenodd"/><path fill="black" d="M81.8222 51.2524C81.1108 51.2524 80.4535 51.1313 79.8502 50.8892C79.2469 50.6378 78.7247 50.2887 78.2835 49.8417C77.8422 49.3948 77.4956 48.8687 77.2435 48.2634C77.0003 47.6582 76.8788 46.9971 76.8788 46.2801C76.8788 45.5631 77.0003 44.902 77.2435 44.2968C77.4956 43.6916 77.8422 43.1655 78.2835 42.7185C78.7337 42.2716 79.2604 41.9271 79.8637 41.685C80.467 41.4336 81.1244 41.3079 81.8357 41.3079C82.52 41.3079 83.1638 41.4289 83.7671 41.671C84.3704 41.9038 84.8792 42.2576 85.2934 42.7325L84.6586 43.3889C84.2714 42.9792 83.8437 42.6859 83.3754 42.509C82.9072 42.3228 82.403 42.2297 81.8627 42.2297C81.2954 42.2297 80.7687 42.3321 80.2824 42.537C79.7962 42.7325 79.373 43.0165 79.0128 43.3889C78.6526 43.7521 78.369 44.1804 78.1619 44.6739C77.9638 45.1581 77.8648 45.6935 77.8648 46.2801C77.8648 46.8667 77.9638 47.4068 78.1619 47.9003C78.369 48.3845 78.6526 48.8128 79.0128 49.1853C79.373 49.5484 79.7962 49.8324 80.2824 50.0373C80.7687 50.2328 81.2954 50.3306 81.8627 50.3306C82.403 50.3306 82.9072 50.2374 83.3754 50.0512C83.8437 49.865 84.2714 49.567 84.6586 49.1573L85.2934 49.8138C84.8792 50.2887 84.3704 50.6471 83.7671 50.8892C83.1638 51.1313 82.5155 51.2524 81.8222 51.2524Z"/><path fill="black" d="M87.5884 51.0613V41.4993H88.5905V50.1871H93.8993V51.0613H87.5884Z"/><path fill="black" d="M99.5479 51.2524C98.8216 51.2524 98.1459 51.1313 97.5208 50.8892C96.9048 50.6378 96.367 50.2887 95.9073 49.8417C95.4568 49.3855 95.1029 48.8594 94.8455 48.2634C94.5973 47.6582 94.4731 46.9971 94.4731 46.2801C94.4731 45.5631 94.5973 44.9067 94.8455 44.3108C95.1029 43.7055 95.4568 43.1794 95.9073 42.7325C96.367 42.2762 96.9048 41.9271 97.5208 41.685C98.1367 41.4336 98.8124 41.3079 99.5479 41.3079C100.274 41.3079 100.945 41.4336 101.561 41.685C102.177 41.9271 102.71 42.2716 103.161 42.7185C103.621 43.1655 103.975 43.6916 104.223 44.2968C104.48 44.902 104.609 45.5631 104.609 46.2801C104.609 46.9971 104.48 47.6582 104.223 48.2634C103.975 48.8687 103.621 49.3948 103.161 49.8417C102.71 50.2887 102.177 50.6378 101.561 50.8892C100.945 51.1313 100.274 51.2524 99.5479 51.2524ZM99.5479 50.3306C100.127 50.3306 100.66 50.2328 101.148 50.0373C101.644 49.8324 102.072 49.5484 102.43 49.1853C102.798 48.8128 103.083 48.3845 103.285 47.9003C103.487 47.4068 103.588 46.8667 103.588 46.2801C103.588 45.6935 103.487 45.1581 103.285 44.6739C103.083 44.1804 102.798 43.7521 102.43 43.3889C102.072 43.0165 101.644 42.7325 101.148 42.537C100.66 42.3321 100.127 42.2297 99.5479 42.2297C98.9687 42.2297 98.4309 42.3321 97.9345 42.537C97.438 42.7325 97.0059 43.0165 96.6382 43.3889C96.2796 43.7521 95.9947 44.1804 95.7832 44.6739C95.5809 45.1581 95.4798 45.6935 95.4798 46.2801C95.4798 46.8574 95.5809 47.3928 95.7832 47.8863C95.9947 48.3798 96.2796 48.8128 96.6382 49.1853C97.0059 49.5484 97.438 49.8324 97.9345 50.0373C98.4309 50.2328 98.9687 50.3306 99.5479 50.3306Z"/><path fill="black" d="M110.735 51.2525C109.488 51.2525 108.505 50.898 107.788 50.1888C107.071 49.4796 106.712 48.4297 106.712 47.039V41.4993H107.746V46.9976C107.746 48.1396 108.007 48.9823 108.528 49.5257C109.05 50.0691 109.786 50.3408 110.735 50.3408C111.695 50.3408 112.435 50.0691 112.956 49.5257C113.478 48.9823 113.739 48.1396 113.739 46.9976V41.4993H114.745V47.039C114.745 48.4297 114.386 49.4796 113.669 50.1888C112.961 50.898 111.983 51.2525 110.735 51.2525Z"/><path fill="black" d="M117.804 51.0613V41.4993H121.686C122.703 41.4993 123.592 41.7042 124.355 42.114C125.127 42.5147 125.726 43.0747 126.153 43.7942C126.579 44.5136 126.793 45.3423 126.793 46.2803C126.793 47.2183 126.579 48.047 126.153 48.7664C125.726 49.4858 125.127 50.0505 124.355 50.4603C123.592 50.861 122.703 51.0613 121.686 51.0613H117.804ZM118.812 50.1871H121.631C122.476 50.1871 123.207 50.0231 123.824 49.6953C124.45 49.3583 124.936 48.8985 125.281 48.3156C125.626 47.7237 125.799 47.0452 125.799 46.2803C125.799 45.5062 125.626 44.8278 125.281 44.2449C124.936 43.6621 124.45 43.2068 123.824 42.8789C123.207 42.542 122.476 42.3735 121.631 42.3735H118.812V50.1871Z"/><path fill="black" d="M136.805 51.2524C136.077 51.2524 135.403 51.1313 134.784 50.8892C134.174 50.6378 133.641 50.2887 133.185 49.8417C132.739 49.3948 132.389 48.8687 132.134 48.2634C131.888 47.6582 131.765 46.9971 131.765 46.2801C131.765 45.5631 131.888 44.902 132.134 44.2968C132.389 43.6916 132.744 43.1655 133.199 42.7185C133.654 42.2716 134.187 41.9271 134.797 41.685C135.417 41.4336 136.091 41.3079 136.819 41.3079C137.548 41.3079 138.212 41.4243 138.813 41.657C139.424 41.8898 139.943 42.2437 140.371 42.7185L139.742 43.375C139.342 42.9653 138.9 42.672 138.417 42.4951C137.935 42.3181 137.416 42.2297 136.86 42.2297C136.268 42.2297 135.722 42.3321 135.221 42.537C134.729 42.7325 134.296 43.0165 133.923 43.3889C133.559 43.7521 133.272 44.1804 133.063 44.6739C132.862 45.1581 132.762 45.6935 132.762 46.2801C132.762 46.8574 132.862 47.3928 133.063 47.8863C133.272 48.3798 133.559 48.8128 133.923 49.1853C134.296 49.5484 134.729 49.8324 135.221 50.0373C135.722 50.2328 136.264 50.3306 136.846 50.3306C137.393 50.3306 137.907 50.2468 138.39 50.0792C138.882 49.9115 139.332 49.6276 139.742 49.2272L140.316 50.0093C139.861 50.419 139.328 50.7309 138.718 50.9451C138.108 51.15 137.47 51.2524 136.805 51.2524ZM139.346 49.8836V46.2801H140.316V50.0093L139.346 49.8836Z"/><path fill="black" d="M141.709 51.0613L146.087 41.4993H147.085L151.463 51.0613H150.396L146.374 42.0867H146.784L142.763 51.0613H141.709ZM143.433 48.5069L143.734 47.6873H149.301L149.602 48.5069H143.433Z"/><path fill="black" d="M152.993 51.0613V41.4993H153.827L158.204 48.9577H157.767L162.103 41.4993H162.937V51.0613H161.966V43.0155H162.199L158.204 49.8456H157.726L153.704 43.0155H153.964V51.0613H152.993Z"/><path fill="black" d="M165.997 51.0613V41.4993H167.145V51.0613H165.997Z"/><path fill="black" d="M170.204 51.0613V41.4993H171.042L177.674 49.8046H177.234V41.4993H178.237V51.0613H177.399L170.781 42.756H171.22V51.0613H170.204Z"/><path fill="black" d="M185.572 51.2524C184.843 51.2524 184.169 51.1313 183.55 50.8892C182.94 50.6378 182.407 50.2887 181.952 49.8417C181.506 49.3948 181.155 48.8687 180.9 48.2634C180.654 47.6582 180.531 46.9971 180.531 46.2801C180.531 45.5631 180.654 44.902 180.9 44.2968C181.155 43.6916 181.51 43.1655 181.965 42.7185C182.421 42.2716 182.954 41.9271 183.564 41.685C184.183 41.4336 184.857 41.3079 185.585 41.3079C186.314 41.3079 186.979 41.4243 187.58 41.657C188.19 41.8898 188.709 42.2437 189.137 42.7185L188.509 43.375C188.108 42.9653 187.666 42.672 187.184 42.4951C186.701 42.3181 186.182 42.2297 185.626 42.2297C185.034 42.2297 184.488 42.3321 183.987 42.537C183.495 42.7325 183.063 43.0165 182.689 43.3889C182.325 43.7521 182.038 44.1804 181.829 44.6739C181.628 45.1581 181.528 45.6935 181.528 46.2801C181.528 46.8574 181.628 47.3928 181.829 47.8863C182.038 48.3798 182.325 48.8128 182.689 49.1853C183.063 49.5484 183.495 49.8324 183.987 50.0373C184.488 50.2328 185.03 50.3306 185.613 50.3306C186.159 50.3306 186.674 50.2468 187.156 50.0792C187.648 49.9115 188.099 49.6276 188.509 49.2272L189.082 50.0093C188.627 50.419 188.094 50.7309 187.484 50.9451C186.874 51.15 186.236 51.2524 185.572 51.2524ZM188.112 49.8836V46.2801H189.082V50.0093L188.112 49.8836Z"/></svg>