<svg xmlns="http://www.w3.org/2000/svg" width="75" height="111" fill="none" viewBox="0 0 75 111"><g id="Group 1995"><g id="XMLID 49"><g id="XMLID 91"><path id="XMLID 110" fill="#6B99D1" d="M74.4514 82.4315L47.902 97.7533C47.5652 97.9678 47.1059 98.0597 46.6771 98.0597C46.2178 98.0597 45.7891 97.9678 45.4523 97.7533L18.9335 82.4315C18.5966 82.2477 18.4129 81.9719 18.4129 81.7267C18.4129 81.5429 18.5048 81.359 18.6885 81.1751C18.7497 81.1138 18.8416 81.0526 18.9335 80.9913L45.4829 65.6695C46.1566 65.2711 47.259 65.2711 47.9633 65.6695L74.4821 80.9913C75.1557 81.3896 75.1557 82.0332 74.4514 82.4315Z" opacity="0.15"/><path id="XMLID 106" fill="#DCEEFF" d="M74.4505 80.2248L47.9011 95.5466C47.5642 95.7611 47.1049 95.8531 46.6762 95.8531C46.2169 95.8531 45.7881 95.7611 45.4513 95.5773L18.9019 80.2555C18.5651 80.041 18.3813 79.7958 18.3813 79.5507C18.3813 79.2749 18.5651 79.0297 18.9019 78.8459L22.4847 76.7621L45.4207 63.5241C46.0944 63.1258 47.1968 63.1258 47.9011 63.5241L74.4198 78.8459C75.1548 79.183 75.1548 79.8265 74.4505 80.2248Z"/><path id="XMLID 104" fill="#A5CBFA" d="M46.7078 90.6745V95.8227C46.2484 95.8227 45.8197 95.7307 45.4829 95.5469L18.9335 80.2251C18.5966 80.0106 18.4129 79.7654 18.4129 79.5203V75.0463C18.4129 74.8625 18.5048 74.6786 18.6885 74.4948L22.5163 76.7011L46.7078 90.6745Z"/><path id="XMLID 102" fill="#C8E2FF" d="M46.7048 90.6745V95.8227C47.1641 95.8227 47.5928 95.7307 47.9297 95.5469L74.4791 80.2251C74.8159 80.0106 74.9996 79.7654 74.9996 79.5203V75.0463C74.9996 74.8625 74.9078 74.6786 74.724 74.4948L70.8963 76.7011L46.7048 90.6745Z"/><path id="XMLID 100" fill="#DCEEFF" d="M74.4512 75.7513L47.9018 91.0731C47.5649 91.2876 47.1056 91.3796 46.6769 91.3796C46.2176 91.3796 45.7889 91.2876 45.452 91.0731L18.9332 75.7513C18.5964 75.5675 18.4127 75.2917 18.4127 75.0465C18.4127 74.8627 18.5045 74.6788 18.6883 74.495C18.7495 74.4337 18.8414 74.3724 18.9332 74.3111L45.4826 58.9893C46.1563 58.591 47.2587 58.591 47.963 58.9893L74.4818 74.3111C75.1555 74.7401 75.1555 75.3836 74.4512 75.7513Z"/><g id="XMLID 95"><path id="Vector" fill="white" d="M46.7078 59.0205C47.1059 59.0205 47.5039 59.1125 47.7795 59.2657L74.2983 74.5875C74.5127 74.71 74.6658 74.8939 74.6658 75.0471C74.6658 75.2003 74.5433 75.3535 74.2983 75.5068L47.7489 90.8285C47.4733 90.9818 47.0752 91.0737 46.6771 91.0737C46.2484 91.0737 45.881 90.9818 45.6054 90.8285L19.0866 75.5068C18.8416 75.3842 18.7191 75.231 18.7191 75.0471C18.7191 74.9552 18.7804 74.8326 18.9029 74.7407C18.9641 74.6794 19.0253 74.6488 19.0866 74.6181L45.636 59.2963C45.881 59.1125 46.2791 59.0205 46.7078 59.0205ZM46.7078 58.7141C46.2484 58.7141 45.8197 58.806 45.4829 59.0205L18.9335 74.3423C18.8416 74.4036 18.7497 74.4649 18.6885 74.5262C18.5048 74.6794 18.4129 74.8633 18.4129 75.0778C18.4129 75.3536 18.5966 75.5987 18.9335 75.7826L45.4523 91.1043C45.7891 91.3188 46.2484 91.4108 46.6771 91.4108C47.1365 91.4108 47.5652 91.3188 47.902 91.1043L74.4514 75.7826C75.1251 75.3842 75.1251 74.7407 74.4514 74.3423L47.9327 59.0205C47.5958 58.8367 47.1365 58.7141 46.7078 58.7141Z"/></g><path id="XMLID 94" fill="#344593" d="M45.8802 62.1457L24.3222 74.587C23.8629 74.8628 23.8629 75.2611 24.3222 75.5369L45.8802 87.9782C46.3395 88.254 47.0745 88.254 47.5338 87.9782L69.0918 75.5369C69.5511 75.2611 69.5511 74.8628 69.0918 74.587L47.5338 62.1457C47.0745 61.8699 46.3395 61.8699 45.8802 62.1457Z"/><path id="XMLID 93" fill="#1E3779" d="M69.0896 74.5868L47.5316 62.1455C47.3172 62.023 47.011 61.9617 46.7048 61.9617V62.789L68.9365 75.6287L69.0896 75.5368C69.5183 75.261 69.5183 74.832 69.0896 74.5868Z"/><path id="XMLID 92" fill="#031F60" d="M46.707 61.9312C46.4008 61.9312 46.1252 61.9924 45.8802 62.115L24.3222 74.5563C23.8629 74.8321 23.8629 75.2304 24.3222 75.5062L24.4753 75.5982L46.707 62.7585V61.9312Z"/></g><g id="Group"><path id="Vector_2" fill="#F0D87A" d="M61.4324 47.622C61.462 47.9475 61.0575 48.2534 60.5149 48.3027C59.9723 48.352 59.5185 48.135 59.479 47.8094C59.4494 47.4838 59.8539 47.178 60.3965 47.1287C60.9391 47.0794 61.393 47.2964 61.4324 47.622Z"/><g id="Group_2"><g id="Group_3"><path id="Vector_3" fill="#2D383B" d="M42.6089 36.1088C42.4609 35.3886 41.8591 34.9151 41.1192 34.9348C40.1918 34.9545 38.7416 35.1716 36.7093 35.9805C34.677 36.7994 33.3846 37.6774 32.6151 38.3384C32.0034 38.8613 31.7272 39.69 31.9245 40.3905C31.9245 40.3905 34.1245 50.8381 35.7227 53.8569C37.8636 57.9018 42.4708 60.6642 42.8161 60.8714C43.0134 60.4471 45.5587 54.8139 45.5094 49.9403C45.4699 46.2999 42.6089 36.1187 42.6089 36.1187V36.1088Z"/><path id="Vector_4" fill="#4A4748" d="M42.8656 36.1779C42.7177 35.4577 42.1159 34.9842 41.3759 35.0039C40.4486 35.0236 38.9983 35.2407 36.966 36.0497C34.9337 36.8685 33.6413 37.7465 32.8718 38.4075C32.2601 38.9304 31.9839 39.7591 32.1812 40.4595C32.1812 40.4595 34.3813 50.9072 35.9795 53.926C38.1203 57.9709 42.7275 60.7333 43.0728 60.9405C43.2701 60.5162 45.8154 54.883 45.7661 50.0094C45.7266 46.369 42.8656 36.1878 42.8656 36.1878V36.1779Z"/><path id="Vector_5" fill="#383637" d="M42.7865 59.7273C41.356 58.7604 38.278 56.4519 36.6896 53.4528C35.1604 50.5622 32.9802 40.2822 32.9604 40.1737V40.154L32.9505 40.1343C32.842 39.7495 32.9999 39.2957 33.3353 39.0096C33.9963 38.4374 35.1999 37.5988 37.1631 36.8096C39.1264 36.0203 40.4878 35.8427 41.2869 35.823C41.6914 35.823 42.017 36.0696 42.1058 36.4643V36.484L42.1157 36.5037C42.1453 36.6024 44.9569 46.6357 44.9865 50.1281C45.026 53.7487 43.5363 57.8923 42.7865 59.7273Z"/><path id="Vector_6" fill="#88B8B4" d="M36.9168 45.6883C36.6899 44.9582 37.2522 44.5242 37.4298 44.3466C37.6074 44.169 39.1464 43.3995 39.6101 44.2282C40.0738 45.0569 40.9913 47.987 41.0307 48.4803C41.0702 48.9834 36.9168 45.6883 36.9168 45.6883Z"/><path id="Vector_7" fill="#88B8B4" d="M39.5014 44.3762C38.8799 43.4883 37.1337 44.8202 36.9265 45.5601C36.7292 46.2902 39.5804 50.3153 39.9947 50.6014C40.4091 50.8875 41.2378 48.9835 41.149 48.6974C41.0602 48.4113 39.8073 44.8103 39.5014 44.3762Z"/><path id="Vector_8" fill="#88B8B4" d="M39.5013 44.0902C39.9847 44.2777 41.0502 47.6024 41.0502 48.4113C40.843 48.2338 39.7479 44.6624 39.6887 44.5933C39.6295 44.5243 39.5013 44.1001 39.5013 44.1001V44.0902Z"/><path id="Vector_9" fill="#5C7D7B" d="M37.5972 43.2024C37.3111 43.597 36.6304 43.6661 36.7981 44.4948C36.9658 45.3235 39.6986 49.4966 39.8466 49.8123C39.9945 50.128 40.2806 50.6706 40.2806 50.6706L40.7443 50.9567C40.7443 50.9567 41.3264 50.6805 41.4941 50.3155C41.6618 49.9505 41.6421 49.2401 41.6421 49.2401L41.2179 48.5101L40.8134 48.2634C40.8134 48.2634 39.2941 43.8634 39.0968 43.4885C38.8995 43.1136 37.5972 43.2024 37.5972 43.2024Z"/><path id="Vector_10" fill="#88B8B4" d="M37.9525 45.7378C37.4197 45.7378 37.0942 45.215 37.0942 45.215C37.0942 45.215 36.9265 45.4616 37.0153 45.876C37.104 46.2903 39.8269 50.4832 39.9848 50.6016C40.1426 50.72 40.3991 50.7594 40.7247 50.6312C40.8431 50.5818 40.4978 50.2069 39.9946 49.3289C39.1659 47.9083 37.9525 45.7378 37.9525 45.7378Z"/><path id="Vector_11" fill="#222A2C" d="M40.2016 45.3235C40.0438 46.3792 37.4985 46.8626 36.9953 46.7047L35.624 47.3953L35.9101 48.4016L37.2518 47.7603C37.2518 47.7603 38.0411 48.1155 39.3335 47.5334C40.6259 46.9514 40.5864 46.4186 40.5864 46.4186L40.5075 46.1818L41.2375 45.8563L40.9514 44.8599L40.1622 45.2249L40.1918 45.294L40.2016 45.3235Z"/><path id="Vector_12" fill="#222A2C" d="M41.3463 48.5002C41.1884 49.5558 38.6431 50.0392 38.14 49.8814L36.7687 50.5719L37.0548 51.5782L38.3965 50.937C38.3965 50.937 39.1857 51.2921 40.4781 50.7101C41.7705 50.128 41.7311 49.5953 41.7311 49.5953L41.6521 49.3585L42.3822 49.0329L42.0961 48.0365L41.3068 48.4015L41.3364 48.4706L41.3463 48.5002Z"/></g><g id="Group_4"><path id="Vector_13" fill="#3F4F52" d="M40.7347 75.2063C41.0701 74.0915 41.2378 73.0161 41.5042 73.026C41.7706 73.026 42.9939 73.322 43.1518 74.0323C43.3294 73.3713 44.0002 72.4439 44.385 72.3749C44.4244 70.4314 44.7894 70.0367 44.7894 70.0367V72.0888C44.7894 72.0888 45.6872 71.487 47.1276 71.8224C47.2361 72.2861 47.1276 72.9273 46.0226 73.6179C44.9177 74.3085 44.2468 74.6341 44.0693 74.8807C43.9015 75.1274 43.2307 75.8673 42.3033 76.1632C41.376 76.4592 40.7248 75.8772 40.7248 75.8772C40.7248 75.8772 40.6459 75.4529 40.7248 75.2063H40.7347Z"/><path id="Vector_14" fill="#3F4F52" d="M55.7798 75.7981C53.9251 75.2851 51.6461 76.2322 51.6461 76.2322C51.6461 76.2322 51.7842 74.6537 51.4685 72.3945C50.6004 74.1407 50.995 76.0152 50.7878 76.4394C50.7089 76.5282 50.6398 76.6071 50.5708 76.686L49.1797 76.6959C49.1797 76.6959 48.9726 76.9031 48.7456 77.1497C48.351 76.9524 48.0353 76.8932 47.986 77.0708C47.8577 77.4852 47.9761 79.5372 48.055 79.7838C48.055 79.7838 48.3214 80.0009 48.6766 80.1982C49.0219 80.3955 49.4362 80.3264 49.821 80.2672C49.9196 80.2475 50.0972 80.1686 50.3044 80.0601C50.7977 79.8529 51.4192 79.4089 51.6954 79.261C51.7645 79.2215 51.9322 79.1623 52.1591 79.0834C52.2972 79.0341 52.465 78.9749 52.6524 78.9058C53.3923 78.6296 54.3591 78.2349 54.8426 77.8009C55.6318 77.1004 55.839 76.5085 55.7897 75.7981H55.7798Z"/><g id="Group_5"><g id="Group_6"><path id="Vector_15" fill="#452F21" d="M38.0313 38.7332C37.9524 38.9207 36.9757 41.2292 36.6501 43.5181C36.512 44.475 37.4196 44.8203 37.4196 44.8203C37.4196 44.8203 38.7021 45.501 39.4421 44.5835C39.886 44.0311 40.7344 40.4203 40.7344 40.4203L38.0214 38.7234L38.0313 38.7332Z"/><path id="Vector_16" fill="#7CA8A5" d="M50.561 76.1928C50.7681 76.1336 53.5305 75.6008 53.8265 75.591C54.1224 75.5811 54.5664 76.0843 54.6058 76.3408C54.6453 76.5973 54.5171 76.9327 54.4973 77.0609C54.4776 77.1892 54.4283 77.426 53.8363 77.8206C53.2444 78.2152 52.169 78.5605 51.8632 78.6789C51.5574 78.7973 50.1959 79.7049 49.8112 79.774C49.4264 79.843 49.0417 79.8332 48.6668 79.7049C48.1044 79.5175 47.9762 79.2018 47.9762 79.2018C47.9762 79.2018 48.1538 77.5345 48.1834 77.347C48.213 77.1596 49.1798 76.1928 49.1798 76.1928H50.5708H50.561Z"/><path id="Vector_17" fill="#428CFF" d="M43.5266 71.704C43.5562 71.9407 43.941 72.0295 43.941 72.0295C43.941 72.0295 45.1742 71.7631 45.48 71.7829C45.7858 71.8026 46.2692 71.9703 46.3087 72.1775C46.3482 72.3946 46.289 72.6116 46.289 72.6116L45.6576 73.2726C45.6576 73.2726 44.4836 73.8448 44.1284 74.1605C43.7733 74.4762 42.6289 75.6009 42.2244 75.6995C41.8199 75.7982 41.0109 75.591 40.8136 75.3937C40.6163 75.1964 40.8136 74.8807 40.8136 74.8807C40.8136 74.8807 40.7643 73.5192 40.9813 73.2726C41.1983 73.0259 42.027 72.2762 42.027 72.2762L43.5266 71.6941V71.704Z"/><path id="Vector_18" fill="#5C7D7B" d="M41.2972 48.9245C41.0604 49.7433 40.8434 50.651 40.7645 52.042C40.6855 53.4331 40.7842 56.4421 41.1887 57.6259C41.5932 58.8098 40.9618 60.7237 41.6622 63.0816C41.899 63.8708 43.9609 64.2358 44.6614 64.0287C45.352 63.8215 45.8058 63.1112 45.9636 62.7462C46.1313 62.3811 46.0623 55.3864 46.0623 55.3864C46.0623 55.3864 45.4506 49.8815 45.1251 49.3685C44.7995 48.8554 41.2972 48.9245 41.2972 48.9245Z"/><path id="Vector_19" fill="#5C7D7B" d="M42.3228 60.99C42.017 62.1147 41.8098 62.6375 41.8098 62.6375C41.8098 62.6375 41.2278 63.1801 41.0699 65.0053C40.8134 67.8663 40.9417 72.582 40.9811 73.2825C41.0403 74.4269 42.3229 74.0618 42.8556 73.9731C43.3883 73.8843 44.1381 73.4403 44.3058 73.0161C44.4735 72.5919 44.9175 65.6761 45.9928 62.4895C46.3776 61.3747 42.3228 60.9801 42.3228 60.9801V60.99Z"/><path id="Vector_20" fill="#3F4F52" d="M45.7662 60.832C45.2828 62.2527 44.8783 62.7558 44.8783 62.7558C44.8783 62.7558 45.0263 64.8078 45.3716 65.0052C45.9142 63.7226 46.368 61.8383 46.368 61.1379C46.368 60.4374 45.7662 60.8419 45.7662 60.8419V60.832Z"/><path id="Vector_21" fill="#3F4F52" d="M45.1839 63.3281C43.635 63.624 42.4215 63.4958 41.6126 62.9236C41.583 63.0124 41.5336 63.0617 41.5336 63.0617C41.5336 63.0617 41.8296 63.5353 43.0924 63.6734C44.3552 63.8115 45.1148 63.6142 45.1148 63.6142L45.174 63.3182L45.1839 63.3281Z"/><path id="Vector_22" fill="#5C7D7B" d="M43.6551 49.9009C43.6157 50.2659 42.9843 53.6301 43.2704 55.4454C43.5565 57.2606 44.0498 57.9512 44.5036 58.2373C44.9574 58.5234 45.7762 58.6418 45.7762 58.6418C45.7762 58.6418 46.0722 65.3011 47.1574 66.5935C47.6901 67.2248 51.3404 67.9648 51.4982 65.8437C51.666 63.7226 51.6265 58.8095 51.3503 56.136C51.074 53.4624 50.1368 49.3287 50.0579 49.0426C49.979 48.7565 43.6551 49.9009 43.6551 49.9009Z"/><path id="Vector_23" fill="#5C7D7B" d="M47.9955 65.0051C47.6897 65.0841 47.2852 65.1235 47.1372 66.3666C47.0977 66.7217 46.7031 67.3334 46.7919 68.6554C47.0287 71.9702 48.0054 77.4456 48.1731 77.6725C48.4197 77.9783 49.6431 78.225 50.4816 77.8797C51.3202 77.5344 51.3498 76.7254 51.3498 76.7254C51.3498 76.7254 50.9058 68.537 51.5076 65.8437C51.5964 65.4294 48.0054 65.0051 48.0054 65.0051H47.9955Z"/><path id="Vector_24" fill="#452F21" d="M41.0408 40.3611C40.7941 41.5055 40.4982 42.2454 40.143 42.4921C39.7879 42.7288 37.8345 41.7423 37.6175 40.9432C37.4004 40.144 39.63 35.961 39.8964 35.6355C40.1726 35.3099 40.3699 34.5305 42.0964 34.7772C43.231 34.9449 41.0408 40.3611 41.0408 40.3611Z"/><path id="Vector_25" fill="#222A2C" d="M51.725 52.1406C50.7582 49.9011 40.7348 50.9567 40.7348 50.9567V51.2428C39.3043 53.946 38.0514 61.059 40.498 62.4106C41.6227 63.0321 44.0496 60.8025 43.9411 58.6321C42.9743 60.1218 44.76 64.1568 46.299 64.4627C48.9035 64.9757 51.7053 61.2958 50.5807 54.7747C50.117 57.5962 51.1923 62.0259 52.1887 61.2268C53.1852 60.4276 52.6919 54.3899 51.7152 52.1603L51.725 52.1406Z"/><path id="Vector_26" fill="#88B8B4" d="M41.4157 46.9612C40.5475 48.8455 39.8273 50.4437 39.8766 52.2688C40.4883 52.9496 42.0372 53.6796 43.4085 54.0841C44.9179 54.5281 46.526 54.6366 47.4041 54.6464C50.3637 54.6464 52.0803 53.3047 52.3566 52.6536C51.3503 47.5334 50.0579 47.4347 49.8606 47.2571C49.6633 47.0697 41.4157 46.971 41.4157 46.971V46.9612Z"/><path id="Vector_27" fill="#5C7D7B" d="M50.4915 48.5397C50.4915 48.5397 49.2682 49.5559 47.4529 49.5855C44.513 49.6447 41.9874 48.6088 41.6322 48.0267C41.4744 47.7604 41.1784 47.0698 40.4582 44.8698C40.2905 44.3469 40.1228 43.607 39.9847 42.7684C39.886 42.2061 39.8071 41.6043 39.7479 41.0025C39.5605 39.2661 39.5309 37.5101 39.7973 36.6813C40.3004 35.1226 40.9121 35.4777 40.9121 35.4777C40.9121 35.4777 41.3955 34.8562 42.7964 34.728C44.1973 34.5898 48.2422 35.7934 49.7417 37.4311C51.2512 39.0688 50.4817 48.5397 50.4817 48.5397H50.4915Z"/><path id="Vector_28" fill="#5C7D7B" d="M40.202 43.8534C40.202 43.8534 41.1294 47.0893 41.5141 48.0068C41.8989 48.9243 45.5787 50.266 47.9267 49.901C50.2747 49.5458 50.6496 48.796 50.6398 48.1054C50.6299 47.4148 50.0281 40.8542 50.0281 40.8542L40.2119 43.8534H40.202Z"/><path id="Vector_29" fill="url(#paint0_linear_1246_18336)" d="M43.0432 33.3368C43.1024 33.7018 43.1517 34.4417 43.0432 34.8758C42.9346 35.3099 42.6584 35.4184 42.6781 35.5861C42.6979 35.7538 44.0988 36.2175 44.4934 36.257C44.888 36.2964 46.6046 36.3162 46.6441 36.257C46.6836 36.1978 46.7625 34.9251 46.9598 34.7377C47.1472 34.5502 47.828 34.639 48.1042 34.3036C48.3804 33.9682 48.5284 32.3206 48.5087 31.8668C48.4988 31.4228 48.6271 29.5286 48.4988 29.0847C48.3607 28.6407 47.8871 28.6802 47.8871 28.6802L43.053 33.3466L43.0432 33.3368Z"/><path id="Vector_30" fill="#88B8B4" d="M42.974 34.9153C42.974 34.9153 42.5991 34.8561 42.4511 35.2113C42.3032 35.5665 42.2933 35.6355 42.313 35.8525C42.3426 36.0696 43.5857 36.6813 44.6709 36.7799C45.766 36.8884 47.0485 36.4543 47.0781 36.1584C47.1274 35.5566 46.8413 35.014 46.8413 35.014C46.8413 35.014 46.0817 35.6651 45.618 35.7243C45.1543 35.7835 43.487 35.675 42.974 34.9153Z"/><path id="Vector_31" fill="#202459" d="M47.0387 32.2022C46.7624 32.4291 46.723 32.7448 46.5454 33.5045C46.3678 34.2641 45.4602 34.5108 44.9669 34.5108C44.4736 34.5108 43.4279 34.2838 43.1023 34.0668C42.7669 33.8498 42.0763 32.0838 41.9579 31.0775C41.8395 30.0712 41.6225 28.3152 43.2996 27.4667C44.8387 26.1645 46.6441 26.1645 48.1338 27.7923C48.7356 29.0156 48.6862 29.8049 48.6862 29.8049C48.6862 29.8049 48.4396 30.7717 48.3903 30.8605C48.3311 30.9591 48.1831 32.0148 48.1831 32.0148L47.7786 32.3798C47.7786 32.3798 47.7391 31.6201 47.5714 31.4919C47.4037 31.3735 47.0288 32.2022 47.0288 32.2022H47.0387Z"/><path id="Vector_32" fill="url(#paint1_linear_1246_18336)" d="M47.433 32.9127C47.433 32.9127 47.1469 33.2086 47.0779 32.8535C47.0088 32.5082 46.7819 31.6203 47.2456 31.4032C47.7092 31.1862 47.5218 31.7387 47.5119 31.9557C47.5021 32.1728 47.433 32.9028 47.433 32.9028V32.9127Z"/><path id="Vector_33" fill="#7FA136" d="M61.1069 47.7109L59.7257 47.5728L59.2127 43.3602L60.8997 43.222L61.1069 47.7109Z"/><path id="Vector_34" fill="#5C7D7B" d="M52.593 48.6875C52.3365 48.1844 52.376 46.6059 53.2244 46.3099C54.0728 46.0139 58.5518 45.8462 58.6011 45.6687C58.4729 45.422 58.5025 45.2247 58.5025 45.2247C58.5025 45.2247 58.611 44.3368 58.7491 44.1888C58.8872 44.0408 59.2917 44.0112 59.3608 44.0014C59.4299 43.9915 59.5581 44.2973 59.5581 44.2973L60.0218 44.2184C60.0218 44.2184 61.0083 43.9422 61.1859 43.9915C61.3536 44.0408 61.6003 44.4157 61.6003 44.4157C61.6003 44.4157 61.3339 44.5834 61.3635 44.6426C61.3832 44.7018 61.5904 45.1063 61.5509 45.2543C61.5115 45.4023 61.4622 45.4812 61.4622 45.4812C61.4622 45.4812 61.6496 45.8068 61.6693 45.9054C61.6891 46.0041 61.5509 46.2211 61.5509 46.2211C61.5509 46.2211 61.6003 46.5664 61.4227 46.7736C61.2451 46.9808 60.9393 47.1781 60.9196 47.2077C60.89 47.2373 60.0119 47.4445 59.8837 47.3951L59.7554 47.3458C59.7554 47.3458 53.254 50.0786 52.5141 49.6247C52.1688 49.4077 52.6226 48.6974 52.6226 48.6974L52.593 48.6875Z"/><path id="Vector_35" fill="#452F21" d="M48.1044 44.6132C48.4497 45.2052 51.0936 49.1415 52.2183 49.5756C53.343 50.0097 55.0793 48.3523 54.5071 46.9711C54.2999 46.4581 52.4255 43.0643 52.4255 43.0643L48.1044 44.6132Z"/><path id="Vector_36" fill="#452F21" d="M48.2918 37.9241C47.8972 38.2397 47.3151 39.7886 47.4039 40.4694C47.4927 41.1501 49.2093 45.4515 49.3869 45.8165C49.5645 46.1914 52.8201 44.7313 52.8102 44.4649C52.8004 44.1887 50.2847 38.6442 49.9098 38.2595C49.5349 37.8649 48.2918 37.9241 48.2918 37.9241Z"/></g><path id="Vector_37" fill="#428CFF" d="M49.2488 37.3126C47.8084 36.6911 46.1411 38.7332 46.7923 40.5978C47.4434 42.4624 47.8676 43.0346 48.5582 43.1925C49.2488 43.3503 51.4981 42.8669 51.8533 41.5548C52.2085 40.2328 49.2488 37.3126 49.2488 37.3126Z"/><path id="Vector_38" fill="#222A2C" d="M41.879 34.3628C39.8763 34.3924 37.8243 36.987 37.696 38.3781C37.5086 40.3709 39.7185 41.6238 39.7974 41.4068C39.1364 36.5529 40.2216 35.9314 40.4387 35.6552C40.6656 35.3888 41.879 34.3628 41.879 34.3628Z"/><path id="Vector_39" fill="#7CA8A5" d="M39.9948 42.7683C39.5607 42.6795 39.1069 42.5118 38.7418 42.2454C37.9131 41.6535 36.897 40.5288 36.749 39.3745C36.601 38.2301 37.2719 37.8454 38.1894 37.0364C38.1499 37.1054 37.7849 37.6776 37.7849 38.0722C37.7849 38.4965 37.9723 39.5225 38.8602 40.4104C39.1562 40.7064 39.4719 40.8839 39.7481 40.9925C39.8073 41.5943 39.8961 42.1961 39.9849 42.7584L39.9948 42.7683Z"/></g><path id="Vector_40" fill="#88B8B4" d="M51.7643 39.6311C50.5114 36.5432 49.436 36.0302 48.1239 36.2373C46.8118 36.4445 44.1777 38.9701 46.2396 42.7585C49.0907 41.3872 51.7643 39.6311 51.7643 39.6311Z"/><path id="Vector_41" fill="#222A2C" d="M47.838 37.0857C45.3815 38.674 45.7564 42.2552 47.986 45.0669C50.1367 45.7181 52.534 44.1198 52.8103 43.3306C52.6327 40.4893 51.7053 38.9108 50.5905 37.579C49.4757 36.2471 47.838 37.0955 47.838 37.0955V37.0857Z"/><path id="Vector_42" fill="#88B8B4" d="M42.8065 34.7277C41.9778 33.9384 40.863 34.4317 40.3401 34.777C39.8271 35.1223 38.8208 36.4245 39.6101 38.2102C39.8074 36.3752 40.9321 35.507 41.3069 35.2209C41.8792 34.7869 42.8065 34.7178 42.8065 34.7178V34.7277Z"/><path id="Vector_43" fill="#7CA8A5" d="M49.6828 78.6197C50.0379 77.9686 49.3868 77.4654 50.7877 75.9461C50.9949 75.5219 50.6003 73.6474 51.4685 71.9012C51.7842 74.1605 51.646 75.7389 51.646 75.7389C51.646 75.7389 53.8165 74.851 55.6712 75.3641C55.8389 76.1829 55.6219 76.6071 54.8326 77.3076C54.0434 78.008 51.9617 78.6197 51.6855 78.7677C51.4093 78.9255 50.7779 79.3596 50.2846 79.5767C49.7913 79.7838 49.6729 78.6197 49.6729 78.6197H49.6828Z"/><path id="Vector_44" fill="#7CA8A5" d="M50.2947 77.939C49.5942 77.0116 48.1045 76.173 47.9664 76.5874C47.8381 77.0017 47.8875 78.9749 47.9664 79.2116C48.0453 79.4583 50.2947 77.939 50.2947 77.939Z"/><path id="Vector_45" fill="#7CA8A5" d="M40.8039 73.5881C40.8237 72.424 41.2282 72.5325 41.4945 72.5424C41.7609 72.5424 42.9842 72.8384 43.1421 73.5487C43.3196 72.8877 43.9905 71.9603 44.3753 71.9011C44.4147 69.9576 44.7798 69.563 44.7798 69.563V71.615C44.7798 71.615 45.6775 71.0132 47.1179 71.3487C47.2264 71.8123 47.1179 72.5819 46.013 73.2626C44.908 73.9532 44.2372 74.1604 44.0596 74.3971C43.8919 74.6438 43.221 75.3837 42.2936 75.6797C41.3663 75.9756 40.7151 75.2061 40.7151 75.2061L40.7941 73.5881H40.8039Z"/><path id="Vector_46" fill="#3F4F52" d="M50.1266 66.5542C48.2126 67.2251 46.9696 66.2977 46.9696 66.2977L47.1274 66.6332C47.1274 66.6332 47.9759 67.1067 49.1499 67.0672C50.3337 67.0376 50.4423 66.6628 50.4423 66.6628L50.1266 66.5345V66.5542Z"/><path id="Vector_47" fill="#3F4F52" d="M51.5965 63.4268C51.3301 64.8277 50.6198 66.2779 50.1265 66.5541C50.7974 67.59 51.2709 67.7577 51.2709 67.7577C51.2709 67.7577 51.7839 66.9685 51.9615 65.4887C52.0996 64.3245 51.5965 63.4366 51.5965 63.4366V63.4268Z"/><path id="Vector_48" fill="#5C7D7B" d="M46.6539 26.332C45.0458 25.4244 43.4377 25.898 42.688 26.7957C41.9382 27.7033 41.07 29.3509 41.2081 31.1366C41.3462 32.9222 41.8296 34.3725 41.9184 34.6092C42.0072 34.8362 43.2897 35.655 44.7597 35.7241C45.6772 35.7734 46.3283 35.3097 46.3283 35.3097C46.3283 35.3097 47.2952 34.5205 47.236 33.1787C47.1866 32.0245 47.7687 31.4819 48.0647 31.5509C48.3606 31.62 47.0485 34.7474 49.071 35.3492C48.7158 33.4254 49.0512 30.8209 48.923 29.124C48.7849 27.4172 46.6638 26.332 46.6638 26.332H46.6539Z"/><path id="Vector_49" fill="#496362" d="M48.9032 29.1141C48.8834 28.7984 48.7848 28.5123 48.6565 28.246C48.6269 28.5123 48.035 29.9626 47.6503 30.4558C47.2655 30.9491 47.1767 31.2352 47.1767 31.4917C47.1767 31.5805 47.3543 32.0442 47.3444 32.2317C47.6305 31.8962 47.887 31.5016 48.0547 31.5411C48.183 31.5707 48.0153 32.1725 47.9363 32.8926C48.252 32.8532 48.6171 32.7743 48.8933 32.6756C48.9032 31.3931 48.9821 30.1007 48.9032 29.1141Z"/><path id="Vector_50" fill="#80ADAB" d="M49.6532 33.8004L49.3868 35.7242C49.3868 35.7242 48.4003 35.6847 47.8675 34.7179C47.5025 33.5143 47.5913 31.4129 47.7294 31.1071C47.8675 30.8111 48.8146 29.4299 48.785 28.5618C48.785 28.5618 48.5482 27.9994 48.3509 27.7627C48.2029 27.5851 48.1635 27.5357 48.1635 27.5259C48.2128 27.5259 48.5778 27.6147 48.6962 27.6739C48.8245 27.7429 49.229 27.9797 49.2684 28.4828L49.3967 30.2389C49.3967 30.2389 49.3671 30.4856 49.2684 30.7618C49.2586 30.7914 49.2388 30.8111 49.2388 30.8111L49.2585 31.0873C49.2585 31.0873 49.4263 31.1466 49.4855 31.5017C49.4855 31.5313 49.4855 31.551 49.4855 31.5806L49.6532 33.8103V33.8004Z"/><path id="Vector_51" fill="#5C7D7B" d="M48.1734 34.7278C47.8083 33.5242 47.8971 31.4228 48.0352 31.117C48.1734 30.821 49.1204 29.4398 49.0908 28.5717C49.0908 28.5717 48.8541 28.0093 48.6568 27.7725C48.5976 27.7035 48.5581 27.6541 48.5285 27.6246C48.3805 27.5851 48.1931 27.5358 48.1536 27.5358C48.1536 27.5456 48.1931 27.595 48.3411 27.7725C48.5384 28.0093 48.7752 28.5717 48.7752 28.5717C48.8048 29.4398 47.8478 30.821 47.7195 31.117C47.5814 31.4228 47.4926 33.5242 47.8577 34.7278C48.3904 35.6946 49.377 35.734 49.377 35.734V35.6847C49.0514 35.5959 48.5088 35.369 48.1635 34.7376L48.1734 34.7278Z"/><path id="Vector_52" fill="#80ADAB" d="M47.7592 27.1114C47.2659 25.7105 44.1681 25.0988 43.221 26.2827C42.264 27.4666 40.6066 29.7554 42.1161 33.8595C41.2775 29.7061 43.0434 27.802 43.8031 26.845C44.7008 25.819 47.2166 26.6773 47.769 27.1114H47.7592Z"/><path id="Vector_53" fill="#7CA8A5" d="M52.5139 41.318C52.9677 41.9001 53.4215 43.3996 53.3624 43.7942C53.3032 44.1889 52.7408 44.9683 51.2117 45.4813C49.6726 45.9943 47.5713 45.6588 47.3937 45.2741C46.8609 44.1297 46.9596 43.4687 46.9596 43.4687L47.3641 44.179C47.3641 44.179 49.2287 44.8597 50.965 44.1297C52.7014 43.3996 52.731 42.5315 52.731 42.5315L52.5139 41.318Z"/><path id="Vector_54" fill="#606060" d="M49.4951 31.5805C49.5543 32.3303 48.8045 32.7644 48.8045 32.7644C48.8045 32.7644 48.7947 32.6855 48.7848 32.5572C48.7848 32.5178 48.7848 32.4586 48.7749 32.4093C48.7552 32.1922 48.7256 31.8963 48.7059 31.5608C48.9722 31.403 49.14 31.0873 49.2485 30.811L49.2682 31.0873C49.2682 31.0873 49.4359 31.1465 49.4951 31.5016C49.4951 31.5312 49.4951 31.551 49.4951 31.5805Z"/><path id="Vector_55" fill="#8FBFBE" d="M49.4952 31.5807C49.5544 32.3305 48.8046 32.7646 48.8046 32.7646C48.8046 32.7646 48.7947 32.6856 48.7849 32.5574C48.7849 32.5179 48.775 32.4587 48.7651 32.4094C48.9822 32.2318 49.3176 31.8668 49.2782 31.3637C49.2782 31.3045 49.2683 31.1959 49.2584 31.0874C49.2584 31.0874 49.4261 31.1466 49.4853 31.5018C49.4853 31.5314 49.4853 31.5511 49.4853 31.5807H49.4952Z"/><path id="Vector_56" fill="#668A89" d="M47.5516 28.1277C47.4825 28.6802 46.6736 29.0354 45.7363 28.917C44.7991 28.8084 44.0987 28.2658 44.1677 27.7134C44.2368 27.1609 45.0458 26.8057 45.983 26.9241C46.9202 27.0327 47.6207 27.5753 47.5516 28.1277Z"/><path id="Vector_57" fill="#7CA8A5" d="M61.4424 45.4812C61.4424 45.4812 61.4917 45.4023 61.5312 45.2543C61.5707 45.1063 61.3635 44.7018 61.3438 44.6426C61.324 44.5834 61.5805 44.4157 61.5805 44.4157C61.5805 44.4157 61.3438 44.0507 61.1662 43.9915C60.9985 43.9422 60.002 44.2184 60.002 44.2184L59.5384 44.2973C59.5384 44.2973 59.4101 43.9915 59.341 44.0014C59.272 44.0112 58.8675 44.0408 58.7294 44.1888C58.5913 44.3368 58.4827 45.2247 58.4827 45.2247C58.4827 45.2247 58.4532 45.422 58.5814 45.6687C59.6666 46.083 59.5976 46.9512 59.489 47.4247C59.6272 47.3754 59.7061 47.3458 59.7061 47.3458L59.8343 47.3951C59.9626 47.4445 60.8406 47.2373 60.8702 47.2077C60.8899 47.1781 61.1958 46.9808 61.3734 46.7736C61.5509 46.5664 61.5016 46.2211 61.5016 46.2211C61.5016 46.2211 61.6397 45.9942 61.62 45.9054C61.6003 45.8068 61.4128 45.4812 61.4128 45.4812H61.4424Z"/><path id="Vector_58" fill="#F0D050" d="M60.6928 43.9717H59.0452C58.4336 43.9717 58.0291 43.6856 58.1376 43.3502C58.2461 43.0147 58.8282 42.7286 59.4399 42.7286H61.0874C61.6991 42.7286 62.1036 43.0147 61.995 43.3502C61.8865 43.6856 61.3045 43.9717 60.6928 43.9717Z"/><path id="Vector_59" fill="#F0D87A" d="M60.6928 43.6758H59.0452C58.4336 43.6758 58.0291 43.3897 58.1376 43.0543C58.2461 42.7188 58.8282 42.4327 59.4399 42.4327H61.0874C61.6991 42.4327 62.1036 42.7188 61.995 43.0543C61.8865 43.3897 61.3045 43.6758 60.6928 43.6758Z"/><path id="Vector_60" fill="#FCFDFF" d="M60.7323 42.9654L59.9036 43.1134L59.1933 42.9852L57.0722 21.7939L57.8121 19.7715L59.1341 21.715L60.7323 42.9654Z"/><path id="Vector_61" fill="#E9EAEB" d="M57.8121 19.7715L59.9036 43.1134L59.1933 42.9852L57.0722 21.7939L57.8121 19.7715Z"/><path id="Vector_62" fill="#88B8B4" d="M58.5417 45.5504C58.0484 45.5504 53.9936 45.9351 54.4573 46.1029C55.3255 46.4284 55.2959 47.9773 54.773 48.7468C54.26 49.5163 53.4017 49.5755 53.4017 49.5755C53.4017 49.5755 53.3524 49.9307 54.1811 49.7728C55.0197 49.6249 59.0448 47.8096 59.3605 47.563C59.6663 47.3163 59.765 47.2374 59.8242 46.9513C59.8932 46.6553 59.8242 46.2015 59.4296 45.876C59.0251 45.5405 58.5417 45.5405 58.5417 45.5405V45.5504Z"/></g></g><path id="Vector_63" fill="#2D383B" d="M50.2351 37.4407C49.2781 36.7303 48.0351 37.2828 48.0351 37.2828C47.6405 37.5788 47.2261 37.9142 47.0485 38.4174C47.157 38.4766 47.384 38.6541 47.4826 38.7331C48.5185 39.5026 49.4163 41.1699 49.7911 42.1169C50.1562 42.1071 50.5113 42.038 50.8172 41.8999C51.9616 41.3869 52.0208 40.6174 52.0109 40.282C52.001 39.9465 51.2019 38.1411 50.245 37.4308L50.2351 37.4407Z"/><path id="Vector_64" fill="#3C4A4F" d="M50.4225 38.2399C50.314 38.5654 49.8306 38.7036 49.3274 38.5457C48.8243 38.3879 48.5086 37.9834 48.6171 37.6578C48.7256 37.3323 49.209 37.1941 49.7122 37.352C50.2055 37.5098 50.531 37.9143 50.4225 38.2399Z"/></g><path id="XMLID 51" fill="url(#paint2_linear_1246_18336)" d="M48.1764 12.2574C47.7477 12.5332 47.2271 12.6251 46.6759 12.6251H46.6453C46.6453 12.6251 46.6453 12.6251 46.6759 12.6251V88.1921C47.0128 88.1921 47.3496 88.1002 47.6559 87.8857L68.7851 75.6895C69.1832 75.475 69.367 75.2912 69.367 75.0154V0L48.1764 12.2574Z" opacity="0.3"/><path id="XMLID 50" fill="url(#paint3_linear_1246_18336)" d="M46.6768 12.6251C46.5543 12.6251 46.4318 12.6251 46.3094 12.6251C46.3094 12.6251 46.3094 12.6251 46.2787 12.6251C46.1562 12.6251 46.0338 12.5945 45.9113 12.5639C45.85 12.5332 45.7582 12.5332 45.6969 12.5026C45.6663 12.5026 45.605 12.4719 45.5438 12.4719C45.4213 12.4413 45.2988 12.38 45.207 12.3187L23.9858 0V74.9847C23.9858 75.2299 24.1389 75.4138 24.3839 75.567L45.6969 87.8857C46.0338 88.1002 46.34 88.1921 46.6462 88.1921H46.6768V12.6251Z" opacity="0.5"/></g><g id="Group_7"><g id="Group_8"><g id="Group_9"><path id="Vector_65" fill="#202459" d="M27.3095 98.2467C27.2429 98.2467 27.0097 98.3333 26.9164 98.4798C26.8298 98.6264 26.7832 99.0395 26.7832 99.1128C26.7832 99.1861 27.1496 99.5059 27.4761 99.5259C27.8025 99.5458 28.5421 99.3993 28.602 99.3393C28.662 99.2793 28.8019 99.1261 28.8019 99.1261C28.8019 99.1261 29.6814 99.0795 29.8946 99.1061C30.1078 99.1328 30.7607 98.9595 31.0139 98.7797C31.267 98.5998 31.4336 98.5065 31.5135 98.1867C31.5868 97.8736 31.4602 97.727 31.4602 97.727L31.1937 97.6071L27.3028 98.2467H27.3095Z"/><path id="Vector_66" fill="#202459" d="M25.6041 97.447C25.5241 97.4936 25.3376 97.7201 25.3376 97.8667C25.3376 98.0199 25.3109 98.3131 25.3509 98.3997C25.3909 98.4863 26.217 98.7128 26.4369 98.6662C26.6567 98.6196 27.0431 98.2331 27.1231 98.1665C27.203 98.0999 27.2763 97.88 27.2763 97.88C27.2763 97.88 27.7694 97.4936 28.0159 97.4736C28.2624 97.4536 29.1885 97.1338 29.3017 97.0406C29.415 96.9473 29.475 96.7141 29.4483 96.7008C29.4217 96.6874 29.1885 96.5542 29.1885 96.5542L25.6041 97.447Z"/><path id="Vector_67" fill="#5C2658" d="M25.7104 96.5676C25.7104 96.5676 25.4839 97.587 25.4972 97.7735C25.5105 97.9601 26.0902 98.1533 26.4899 98.0733C26.8897 97.9934 27.3627 97.4537 27.3627 97.4537L28.9217 96.6476L28.8884 96.1346C28.8884 96.1346 27.2694 95.948 27.1961 95.9413C27.1228 95.9347 25.7104 96.5676 25.7104 96.5676Z"/><path id="Vector_68" fill="#5C2658" d="M29.4147 96.9474C29.4014 96.9007 29.1416 96.6409 28.9817 96.6676C28.8218 96.6942 27.8091 96.7075 27.6625 96.9674C27.5159 97.2272 27.2561 98.1866 27.1828 98.5197C27.1095 98.8529 27.5159 98.9328 27.8091 99.0327C28.1022 99.1327 28.7351 98.7729 28.7351 98.7729C28.7351 98.7729 30.2875 98.7396 30.6339 98.6263C30.9871 98.5131 31.4401 98.0334 31.4401 98.0334L31.4068 97.4337L30.3608 97.034L29.4147 96.954V96.9474Z"/><path id="Vector_69" fill="#2F3D7D" d="M28.2621 91.5573C28.1422 92.2569 27.5426 96.8806 27.5026 97.3004C27.4626 97.7268 28.6686 97.8001 29.1283 97.7867C29.588 97.7668 29.8345 97.3937 29.8345 97.3937L30.7539 91.2175L28.2621 91.5573Z"/><path id="Vector_70" fill="#4F40FF" d="M29.5948 96.8208L29.4682 96.8074L30.1344 91.5774L30.261 91.5974L29.5948 96.8208Z"/><path id="Vector_71" fill="#2F3D7D" d="M25.8239 92.2571C25.8372 92.8834 25.3375 96.5744 25.4108 96.9675C25.4841 97.3606 26.8033 97.4006 27.0165 97.234C27.2297 97.0674 27.4762 97.0008 27.5695 96.4678C27.6627 95.9348 28.1957 92.2038 28.249 91.6242C28.3023 91.0446 26.8033 91.0446 26.8033 91.0446L25.8239 92.2571Z"/></g><g id="Group_10"><g id="Group_11"><path id="Vector_72" fill="#76A5DF" d="M14.5306 81.2506L12.4919 80.0713C12.2721 79.9447 12.0789 79.9314 11.9323 80.018L0.246277 86.8071C0.386189 86.7271 0.586061 86.7338 0.805923 86.8604L2.84465 88.0397C3.27771 88.2928 3.63082 88.8991 3.62416 89.3921L3.60418 97.014C3.60418 97.2605 3.51755 97.4338 3.37764 97.5204L15.0636 90.7313C15.2036 90.6514 15.2902 90.4781 15.2902 90.225L15.3102 82.6031C15.3102 82.1034 14.9637 81.4971 14.5306 81.2506Z"/><path id="Vector_73" fill="#A5CBFA" d="M2.84498 88.0396C3.27804 88.2928 3.63115 88.899 3.62449 89.3921L3.6045 97.0139C3.6045 97.5136 3.25138 97.7135 2.81832 97.4603L0.779602 96.2811C0.346541 96.0279 -0.00656973 95.4216 9.27582e-05 94.9286L0.0200794 87.3067C0.0200794 86.807 0.373186 86.6072 0.806248 86.8603L2.84498 88.0396Z"/></g><g id="Group_12"><path id="Vector_74" fill="#C20051" d="M14.1444 100.059L25.6904 93.3429L25.6838 96.0412L14.1377 102.75L14.1444 100.059Z"/><path id="Vector_75" fill="#FA006D" d="M4.2374 94.3357L15.7835 87.6199L25.6906 93.3429L14.1445 100.059L4.2374 94.3357Z"/><path id="Vector_76" fill="#76A5DF" d="M14.1443 100.059L14.1377 102.75L4.22388 97.0272L4.2372 94.3356L14.1443 100.059Z"/></g><g id="Group_13"><path id="Vector_77" fill="url(#paint4_linear_1246_18336)" d="M24.4979 91.1644L20.114 91.1044L15.9432 88.6926C15.3436 88.3461 14.6041 88.3461 14.0045 88.6926L10.8331 90.5181L6.64908 90.4648V93.1498C6.64908 93.1498 6.64908 93.1564 6.64908 93.1631C6.64908 93.2897 6.71571 93.4096 6.8423 93.4829L15.2104 98.3132C15.81 98.6597 16.5495 98.6597 17.1492 98.3132L24.318 94.1758C24.4512 94.1025 24.5112 93.9693 24.5112 93.836V91.1577L24.4979 91.1644Z"/><path id="Vector_78" fill="#87B9F7" d="M15.2038 95.6282L6.83569 90.7979C6.58252 90.6513 6.58252 90.2849 6.83569 90.1383L14.0045 86.0009C14.6042 85.6545 15.3437 85.6545 15.9433 86.0009L24.3114 90.8312C24.5646 90.9778 24.5646 91.3442 24.3114 91.4908L17.1426 95.6282C16.5429 95.9747 15.8034 95.9747 15.2038 95.6282Z"/></g><g id="Group_14"><path id="Vector_79" fill="#C20051" d="M24.0519 105.775L35.6047 99.066L35.598 101.758L24.0453 108.473L24.0519 105.775Z"/><path id="Vector_80" fill="#FA006D" d="M14.1448 100.059L25.6909 93.3429L35.6046 99.066L24.0519 105.775L14.1448 100.059Z"/><path id="Vector_81" fill="#76A5DF" d="M24.0517 105.775L24.0451 108.473L14.1379 102.75L14.1446 100.059L24.0517 105.775Z"/></g><g id="Group_15"><path id="Vector_82" fill="url(#paint5_linear_1246_18336)" d="M34.5318 96.954L30.1479 96.8941L25.9772 94.4822C25.3776 94.1358 24.6381 94.1358 24.0384 94.4822L20.8671 96.3078L16.683 96.2545V98.9394V98.9528C16.683 99.0794 16.7497 99.1993 16.8763 99.2726L25.2443 104.103C25.844 104.449 26.5835 104.449 27.1831 104.103L34.352 99.9655C34.4852 99.8922 34.5452 99.7589 34.5452 99.6257V96.9474L34.5318 96.954Z"/><path id="Vector_83" fill="#87B9F7" d="M25.2309 101.418L16.8628 96.5876C16.6096 96.441 16.6096 96.0746 16.8628 95.928L24.0316 91.7906C24.6312 91.4441 25.3708 91.4441 25.9704 91.7906L34.3385 96.6209C34.5917 96.7675 34.5917 97.1339 34.3385 97.2805L27.1697 101.418C26.57 101.764 25.8305 101.764 25.2309 101.418Z"/></g></g><g id="Group_16"><path id="Vector_84" fill="#344593" d="M20.5072 88.0597C20.3473 88.2862 19.8942 88.5327 19.7077 89.6853C19.5211 90.8379 19.7676 92.4236 20.214 92.9899C20.6604 93.5562 21.833 93.996 22.5192 93.8227C23.2055 93.6495 28.3356 90.8779 28.4289 90.1784C28.5221 89.4721 28.3689 88.606 28.0824 88.3129C27.7959 88.0197 23.5186 88.2396 23.5186 88.2396L20.5005 88.0597H20.5072Z"/><path id="Vector_85" fill="url(#paint6_linear_1246_18336)" d="M30.0612 79.8647C29.9813 79.9113 29.8947 80.0179 29.9013 80.0912C29.9013 80.1645 30.0279 80.2778 30.0279 80.2778C30.0279 80.2778 29.8347 80.3044 29.8347 80.431C29.8347 80.5576 29.928 80.6309 29.928 80.6309L29.7681 80.7441L29.828 80.9174L29.7814 81.0506C29.7814 81.0506 30.0612 81.1106 30.2211 81.0506C30.381 80.9907 30.341 80.7908 30.341 80.7908L30.4143 80.491L30.441 80.2045L30.3877 79.8847L30.0679 79.858L30.0612 79.8647Z"/><path id="Vector_86" fill="#344593" d="M30.3876 89.5388C29.9279 89.1857 29.235 89.0258 28.662 89.2056C28.089 89.3855 25.8371 89.8852 25.8371 89.8852L25.0243 89.0724C25.0243 89.0724 21.5465 89.0724 21.3199 89.8719C21.0934 90.6781 20.7403 93.1099 21.3066 93.6295C21.8729 94.1492 23.3853 94.9087 24.971 94.2358C26.5566 93.5629 28.7819 92.3903 28.9418 92.3303C29.1017 92.2704 30.6008 91.6175 30.7074 91.3576C30.814 91.0978 30.8606 89.9052 30.3809 89.5321L30.3876 89.5388Z"/><path id="Vector_87" fill="#344593" d="M21.4331 93.8093C20.9134 92.9832 21.1599 90.6513 21.1733 90.5514L21.2998 90.5647C21.2998 90.5647 21.0467 92.9499 21.5397 93.7427L21.4331 93.8093Z"/><path id="Vector_88" fill="#344593" d="M23.0188 93.8094C22.8789 93.8094 22.7523 93.796 22.6856 93.7494C22.5124 93.6295 22.086 92.9632 22.0394 92.89V92.87L21.8595 91.8373L21.9794 91.9172C21.9794 91.9172 22.6257 92.337 23.6384 92.337H23.6917V92.3903C23.8049 93.2631 23.745 93.6695 23.7383 93.6828V93.7294L23.685 93.7361C23.5984 93.7494 23.2719 93.8027 23.0121 93.8027L23.0188 93.8094ZM22.1593 92.8367C22.2926 93.0432 22.6323 93.5629 22.7656 93.6495C22.8655 93.7161 23.3186 93.6761 23.6317 93.6295C23.645 93.5096 23.6717 93.1298 23.5917 92.4702C22.8122 92.4569 22.2659 92.217 22.0394 92.0971L22.166 92.8433L22.1593 92.8367Z"/><path id="Vector_89" fill="#344593" d="M20.2074 92.6632L20.1807 92.6166C20.1807 92.6166 19.9609 92.2701 19.8809 92.0503C19.7877 91.8038 19.6811 90.7444 19.6744 90.6978L19.6611 90.5779L20.6804 91.1109L20.7471 92.4367L20.2141 92.6566L20.2074 92.6632ZM19.8076 90.8044C19.841 91.0909 19.9276 91.8238 19.9942 92.0037C20.0542 92.1636 20.1941 92.4034 20.254 92.5033L20.6071 92.3568L20.5538 91.1908L19.8076 90.7977V90.8044Z"/><path id="Vector_90" fill="#344593" d="M25.0578 93.3496C24.9512 93.3496 24.8713 93.323 24.8246 93.2697C24.4315 92.79 24.5581 90.0051 24.5648 89.8851H24.6914C24.6514 90.6846 24.6181 92.8233 24.9246 93.1897C25.1378 93.4496 27.0232 92.4902 28.1559 91.9172C29.022 91.4775 29.5683 91.2043 29.7482 91.191C29.8881 91.1777 30.0014 91.2176 30.088 91.3042C30.2745 91.5041 30.2279 91.8772 30.2279 91.8972L30.1013 91.8839C30.1013 91.8839 30.1413 91.5508 29.9947 91.3975C29.9414 91.3376 29.8615 91.3176 29.7615 91.3242C29.595 91.3376 28.922 91.6773 28.2158 92.0438C26.7168 92.8033 25.5708 93.3696 25.0645 93.3696L25.0578 93.3496Z"/><path id="Vector_91" fill="#F20025" d="M20.0808 82.3965C20.0341 81.7636 19.9475 81.4238 20.1141 80.8642C20.2807 80.2978 20.7071 80.0047 21.1867 80.018C21.6664 80.0313 22.1062 80.1379 22.4326 80.3911C22.7591 80.6443 20.0741 82.3965 20.0741 82.3965H20.0808Z"/><path id="Vector_92" fill="url(#paint7_linear_1246_18336)" d="M28.6752 80.5176C28.4554 80.6575 26.7498 81.2838 25.6571 81.3704C24.5645 81.457 24.3913 81.6302 24.4512 81.9567C24.5179 82.2831 26.1502 82.6362 26.7032 82.5097C27.2561 82.3831 28.8352 81.6235 28.9817 81.6036C29.135 81.5902 29.3348 81.5702 29.4747 81.4836C29.6147 81.397 29.7946 81.1372 29.7946 81.1372C29.7946 81.1372 30.2076 81.0772 30.2743 81.0306C30.3409 80.9773 30.3342 80.7241 30.3342 80.7241L30.4075 80.4376L30.1477 79.5981C30.1477 79.5981 29.4614 79.6315 29.3015 79.7381C29.1416 79.8447 28.6619 80.5176 28.6619 80.5176H28.6752Z"/><g id="Group_17"><path id="Vector_93" fill="#46474A" d="M31.8401 80.1579L30.1012 79.1518C30.1012 79.1518 30.0479 79.1318 30.0212 79.1318L29.7814 79.1518C29.7814 79.1518 29.8347 79.1518 29.8613 79.1718L31.6002 80.1779C31.6802 80.2245 31.7268 80.3511 31.6935 80.4577L31.3271 81.6569C31.3071 81.7302 31.2538 81.7768 31.1938 81.7835L31.4337 81.7635C31.4936 81.7635 31.5403 81.7102 31.5669 81.6369L31.9334 80.4377C31.9667 80.3311 31.9267 80.2045 31.8401 80.1579Z"/><g id="Group_18"><path id="Vector_94" fill="#515457" d="M31.5935 80.1846C31.6734 80.2312 31.7201 80.3578 31.6868 80.4644L31.3203 81.6637C31.287 81.7703 31.1937 81.8169 31.1138 81.7703L29.3749 80.7642C29.2949 80.7176 29.2483 80.591 29.2816 80.4844L29.648 79.2852C29.6813 79.1786 29.7746 79.1319 29.8546 79.1786L31.5935 80.1846Z"/><path id="Vector_95" fill="#5681FF" d="M31.1805 81.7101C31.1805 81.7101 31.1605 81.7101 31.1472 81.7035L29.4083 80.6974C29.355 80.6641 29.3284 80.5775 29.3483 80.5042L29.7148 79.305C29.7281 79.2583 29.7547 79.2317 29.7881 79.2317L31.5603 80.2444C31.6136 80.2777 31.6402 80.3643 31.6202 80.4443L31.2538 81.6435C31.2405 81.6901 31.2138 81.7168 31.1805 81.7168V81.7101Z"/></g></g><path id="Vector_96" fill="#202459" d="M25.8439 89.8851C25.8439 89.8851 25.6374 90.698 24.3448 91.0511C23.0523 91.4042 21.7465 90.9511 21.2468 90.7446C20.7471 90.5381 19.8144 90.0784 19.7011 89.6919C19.5945 89.3055 20.1675 88.0663 20.1675 88.0663C20.1675 88.0663 25.5308 88.5127 25.6907 89.0723C25.8506 89.632 25.8439 89.8851 25.8439 89.8851Z"/><path id="Vector_97" fill="#DDA951" d="M23.3451 91.4575L22.1725 91.2842C22.0459 91.2643 21.946 91.151 21.946 91.0311V90.3781C21.946 90.2582 22.0459 90.1716 22.1725 90.1916L23.3451 90.3648C23.4717 90.3848 23.5717 90.4981 23.5717 90.618V91.2709C23.5717 91.3908 23.4717 91.4775 23.3451 91.4575Z"/><path id="Vector_98" fill="#344593" d="M21.3131 91.1176C21.2798 90.4847 21.3264 89.8584 21.4463 89.2388L21.7995 89.3054C21.6862 89.8984 21.6462 90.498 21.6729 91.0976L21.3131 91.1176Z"/><path id="Vector_99" fill="#344593" d="M19.7142 90.3648C19.6609 89.8185 19.7009 89.2655 19.8408 88.7391L20.1873 88.8324C20.0607 89.3254 20.0207 89.8318 20.0673 90.3381L19.7076 90.3715L19.7142 90.3648Z"/><path id="Vector_100" fill="#344593" d="M25.5906 90.9911H25.2308C25.2374 90.5781 25.2308 90.165 25.2241 89.7652C25.2241 89.6986 25.2108 89.6786 25.2108 89.6786L25.3773 89.3655C25.5039 89.4254 25.5772 89.552 25.5839 89.7519C25.5972 90.1583 25.5972 90.5781 25.5906 90.9911Z"/><path id="Vector_101" fill="#D90021" d="M22.426 80.3244C21.6131 80.0246 21.0868 79.9513 20.6737 80.3577C20.314 80.7109 20.1074 81.0107 20.0341 81.7968C19.9675 82.583 20.0208 83.9022 20.0874 84.4085C20.1474 84.9216 19.7143 88.7058 19.7343 88.9257C19.7543 89.1456 20.5138 89.8518 21.9329 90.2915C23.492 90.7712 25.7972 90.4514 25.7839 89.1722C25.7772 87.8997 25.9504 86.314 26.1436 85.741C26.3368 85.1681 27.1097 82.7696 26.8698 82.5963C26.63 82.4231 25.091 81.6902 24.6512 81.3505C24.2115 81.004 22.4326 80.3244 22.4326 80.3244H22.426Z"/><path id="Vector_102" fill="url(#paint8_linear_1246_18336)" d="M22.479 78.3856C22.439 79.0785 22.439 79.385 22.3524 79.7181C22.2658 80.0512 21.8994 80.471 21.9527 80.6509C21.9993 80.8308 22.6189 81.1705 23.3051 81.3038C23.9914 81.437 24.571 81.3904 24.6443 81.3504C24.7176 81.3038 24.8642 80.4843 24.8908 80.3977C24.9175 80.3111 25.1773 80.451 25.4105 80.2844C25.6437 80.1179 25.9568 79.0652 26.0168 78.8587C26.0767 78.6588 26.4632 77.4662 26.2699 76.8199C26.0767 76.1737 24.8908 76.2603 24.4777 76.247C24.0647 76.2403 22.4657 78.379 22.4657 78.379L22.479 78.3856Z"/><path id="Vector_103" fill="#202459" d="M25.9435 78.519C25.9435 78.519 25.4971 78.8921 25.4438 79.1319C25.3905 79.3718 25.2306 79.4251 25.2306 79.4251C25.2306 79.4251 25.144 78.9187 25.0241 78.8721C24.8975 78.8255 24.6443 79.2652 24.551 79.4384C24.4644 79.6183 24.2379 79.9514 23.7315 79.8515C23.2252 79.7516 22.9254 79.6716 22.5922 79.5317C22.2591 79.3918 22.1858 79.0387 22.1259 78.8055C22.0659 78.5723 21.8261 77.6595 22.0259 76.6468C22.2191 75.6341 22.7588 75.4343 23.2518 75.3477C23.9381 74.8213 25.0574 75.1411 25.4971 75.3743C25.9368 75.6075 26.5364 76.0672 26.5431 76.5203C26.5564 76.9666 26.2966 77.4863 26.2499 77.6529C26.21 77.8194 25.9368 78.519 25.9368 78.519H25.9435Z"/><path id="Vector_104" fill="url(#paint9_linear_1246_18336)" d="M25.0908 79.6116C24.9376 79.7049 24.851 79.4318 24.9442 79.0853C25.0375 78.7389 25.0775 78.5989 25.1774 78.6189C25.284 78.6456 25.3307 78.972 25.3307 78.972C25.3307 78.972 25.2041 79.5384 25.0908 79.605V79.6116Z"/><path id="Vector_105" fill="url(#paint10_linear_1246_18336)" d="M30.341 79.6582C30.321 79.545 30.2677 79.4717 30.1211 79.5583C29.9745 79.6449 29.8879 79.7049 29.8879 79.7049C29.8879 79.7049 29.5015 79.7515 29.4216 79.8181C29.3416 79.8848 28.9019 80.1646 28.8419 80.2645C28.782 80.3645 28.6287 80.5177 28.782 80.7042C28.9352 80.8908 29.1217 80.8508 29.315 80.7042C29.5082 80.5643 29.7014 80.2512 29.7014 80.2512L30.1145 79.9647C30.1145 79.9647 30.3476 79.7182 30.341 79.6449V79.6582Z"/><path id="Vector_106" fill="url(#paint11_linear_1246_18336)" d="M31.3536 80.3845C31.187 80.258 31.1071 80.3579 31.0538 80.4712C31.0072 80.5844 30.8006 81.0574 30.7806 81.1707C30.7606 81.284 30.6274 82.0235 30.6873 82.27C30.7473 82.5165 30.7473 82.5965 30.7407 82.7364C30.734 82.8763 29.4148 85.015 29.3215 85.2348C29.2283 85.4547 29.9944 86.9538 30.3009 86.6006C30.6074 86.2475 31.4402 83.6358 31.5535 83.2161C31.6667 82.7964 31.7933 82.6365 31.84 82.5698C31.8866 82.4965 32.1198 82.1035 32.1331 81.9102C32.1531 81.717 32.1331 81.5305 32.1331 81.5305C32.1331 81.5305 32.0398 81.1574 31.9732 81.1374C31.9132 81.1174 31.9532 81.0708 31.9532 81.0708C31.9532 81.0708 32.1598 80.691 32.1731 80.6044C32.1931 80.5178 31.8666 80.3979 31.8599 80.3779C31.8599 80.3579 31.74 80.5911 31.74 80.5911C31.74 80.5911 31.207 81.4239 31.187 81.3773C31.167 81.3373 31.1937 81.0641 31.1937 81.0641L31.3336 80.6644V80.3779L31.3536 80.3845Z"/><path id="Vector_107" fill="url(#paint12_linear_1246_18336)" d="M30.3277 85.8609C30.2944 85.4412 29.7947 85.1614 29.415 84.9615C29.0352 84.7683 28.0825 84.2153 27.9492 84.162C27.816 84.1087 27.0231 85.228 27.1897 85.7943C27.3563 86.3606 28.8087 86.6604 29.3617 86.7337C29.9146 86.807 30.1412 86.6804 30.2611 86.6471C30.381 86.6071 30.3277 85.8609 30.3277 85.8609Z"/><path id="Vector_108" fill="#F20025" d="M28.8886 85.0016C28.762 85.5013 28.4622 86.0543 28.2357 86.3474C28.0092 86.6406 27.5894 86.5806 27.5894 86.5806C27.5894 86.5806 26.6034 85.921 26.0904 85.4746C25.5774 85.0283 25.8705 84.4753 26.0104 83.8623C26.1503 83.2494 26.6767 82.6164 26.9032 82.6831C27.1231 82.7497 28.8553 84.4286 28.8686 84.5885C28.882 84.7484 28.8886 85.0016 28.8886 85.0016Z"/></g><g id="Group_19"><path id="Vector_109" fill="#A5CBFA" d="M16.443 90.5447C16.443 90.5447 16.4363 90.4981 16.4296 90.4781C16.4163 90.4315 16.4097 90.3915 16.3963 90.3449C16.3963 90.3249 16.383 90.3049 16.3763 90.2782C16.2031 89.7652 15.8167 89.3122 15.3103 89.039L7.48859 84.4619C7.29537 84.3619 7.0955 84.3686 6.94893 84.4619L4.05075 85.9143L6.85565 87.3068L7.1488 92.6901L13.8712 96.6809L13.9778 99.9588L16.8361 98.5331L16.4896 90.8112C16.4896 90.7646 16.4896 90.7246 16.4763 90.678C16.463 90.6313 16.463 90.5914 16.4563 90.5447H16.443Z"/><path id="Vector_110" fill="#487BBA" d="M13.9712 99.9589L4.23733 94.3357L3.86423 86.3208C3.84425 85.921 4.25065 85.6878 4.63042 85.8877L12.4522 90.4648C13.1318 90.8246 13.5848 91.5108 13.6248 92.2304L13.9712 99.9522V99.9589Z"/></g><g id="Group_20"><path id="Vector_111" fill="#A5CBFA" d="M26.1769 96.1612C26.1769 96.1612 26.1702 96.1145 26.1635 96.0946C26.1502 96.0479 26.1435 96.0079 26.1302 95.9613C26.1302 95.9413 26.1169 95.9213 26.1102 95.8947C25.937 95.3817 25.5506 94.9286 25.0442 94.6555L17.2225 90.0783C17.0293 89.9784 16.8294 89.9851 16.6828 90.0783L13.7846 91.5308L16.5895 92.9232L16.8827 98.3065L23.6051 102.297L23.7117 105.575L26.5699 104.15L26.2235 96.4277C26.2235 96.381 26.2235 96.3411 26.2102 96.2944C26.2102 96.2478 26.1968 96.2078 26.1902 96.1612H26.1769Z"/><path id="Vector_112" fill="#487BBA" d="M23.7051 105.575L13.9712 99.9522L13.5981 91.9372C13.5781 91.5375 13.9845 91.3043 14.3643 91.5041L22.1861 96.0813C22.8656 96.441 23.3187 97.1273 23.3587 97.8468L23.7051 105.569V105.575Z"/></g><g id="Group_21"><path id="Vector_113" fill="#C8E2FF" d="M37.5033 94.5089L35.4646 93.3296C35.2447 93.203 35.0515 93.1897 34.9049 93.2763L23.2189 100.065C23.3588 99.9855 23.5587 99.9921 23.7786 100.119L25.8173 101.298C26.2504 101.551 26.6035 102.157 26.5968 102.65L26.5768 110.272C26.5768 110.519 26.4902 110.692 26.3503 110.779L38.0363 103.99C38.1762 103.91 38.2628 103.736 38.2628 103.483L38.2828 95.8614C38.2828 95.3617 37.9364 94.7554 37.5033 94.5089Z"/><path id="Vector_114" fill="#A5CBFA" d="M25.8174 101.305C26.2505 101.558 26.6036 102.164 26.5969 102.657L26.5769 110.279C26.5769 110.779 26.2238 110.979 25.7907 110.725L23.752 109.546C23.319 109.293 22.9658 108.687 22.9725 108.194L22.9925 100.572C22.9925 100.072 23.3456 99.8722 23.7787 100.125L25.8174 101.305Z"/></g><g id="Vector_115" opacity="0.36" style="mix-blend-mode:screen"><path fill="#7BCC2F" d="M54.113 40.3163H54.0597C53.8058 40.3163 53.6 40.5221 53.6 40.776V48.1514C53.6 48.4053 53.8058 48.6111 54.0597 48.6111H54.113C54.3669 48.6111 54.5727 48.4053 54.5727 48.1514V40.776C54.5727 40.5221 54.3669 40.3163 54.113 40.3163Z"/></g><g id="Vector_116" opacity="0.36" style="mix-blend-mode:screen"><path fill="#7BCC2F" d="M36.8237 43.2278H36.7704C36.5166 43.2278 36.3107 43.4336 36.3107 43.6875V51.0629C36.3107 51.3168 36.5166 51.5226 36.7704 51.5226H36.8237C37.0776 51.5226 37.2834 51.3168 37.2834 51.0629V43.6875C37.2834 43.4336 37.0776 43.2278 36.8237 43.2278Z"/></g><g id="Vector_117" opacity="0.36" style="mix-blend-mode:screen"><path fill="#7BCC2F" d="M55.2189 90.2184C54.9524 90.2184 54.7325 89.9985 54.7325 89.732V87.5534C54.7325 87.2869 54.9524 87.067 55.2189 87.067C55.4854 87.067 55.7052 87.2869 55.7052 87.5534V89.732C55.7052 89.9985 55.4854 90.2184 55.2189 90.2184Z"/></g><g id="Vector_118" opacity="0.36" style="mix-blend-mode:screen"><path fill="#7BCC2F" d="M40.7613 55.8731C40.4948 55.8731 40.275 55.6533 40.275 55.3868V51.2427C40.275 50.9762 40.4948 50.7563 40.7613 50.7563C41.0278 50.7563 41.2477 50.9762 41.2477 51.2427V55.3868C41.2477 55.6533 41.0278 55.8731 40.7613 55.8731Z"/></g><g id="Vector_119" opacity="0.36" style="mix-blend-mode:screen"><path fill="#7BCC2F" d="M50.9947 55.3868H50.9414C50.6875 55.3868 50.4817 55.5927 50.4817 55.8466V63.2219C50.4817 63.4758 50.6875 63.6816 50.9414 63.6816H50.9947C51.2486 63.6816 51.4544 63.4758 51.4544 63.2219V55.8466C51.4544 55.5927 51.2486 55.3868 50.9947 55.3868Z"/></g></g><path id="Vector_120" fill="#4F40FF" d="M25.464 91.2908C25.464 91.2908 25.4107 91.2908 25.4041 91.2908L25.424 91.1642C25.424 91.1642 25.5773 91.1909 25.7039 91.0643C25.8171 90.951 25.9237 90.6979 25.8305 90.0982L25.957 90.0782C26.037 90.6046 25.9837 90.9644 25.7905 91.1576C25.6705 91.2708 25.5373 91.2908 25.464 91.2908Z"/></g></g><defs><linearGradient id="paint0_linear_1246_18336" x1="42.6781" x2="48.558" y1="32.4785" y2="32.4785" gradientUnits="userSpaceOnUse"><stop offset="0.12" stop-color="#FF9A8A"/><stop offset="1" stop-color="#FFBCBA"/></linearGradient><linearGradient id="paint1_linear_1246_18336" x1="46.9693" x2="47.5613" y1="32.1925" y2="32.1925" gradientUnits="userSpaceOnUse"><stop offset="0.12" stop-color="#FF9A8A"/><stop offset="1" stop-color="#FFBCBA"/></linearGradient><linearGradient id="paint2_linear_1246_18336" x1="74.3068" x2="48.3438" y1="72.7471" y2="27.0472" gradientUnits="userSpaceOnUse"><stop stop-color="#FF3333"/><stop offset="1" stop-color="#FF3333" stop-opacity="0"/></linearGradient><linearGradient id="paint3_linear_1246_18336" x1="19.1327" x2="39.9592" y1="72.9263" y2="35.9128" gradientUnits="userSpaceOnUse"><stop stop-color="#FF3333"/><stop offset="1" stop-color="#FF3333" stop-opacity="0"/></linearGradient><linearGradient id="paint4_linear_1246_18336" x1="24.4979" x2="6.64242" y1="93.5096" y2="93.5096" gradientUnits="userSpaceOnUse"><stop offset="0.43" stop-color="#C20051"/><stop offset="0.54" stop-color="#ED1174"/></linearGradient><linearGradient id="paint5_linear_1246_18336" x1="34.5252" x2="16.6697" y1="99.2992" y2="99.2992" gradientUnits="userSpaceOnUse"><stop offset="0.43" stop-color="#C20051"/><stop offset="0.54" stop-color="#ED1174"/></linearGradient><linearGradient id="paint6_linear_1246_18336" x1="29.7866" x2="30.4039" y1="80.4565" y2="80.5105" gradientUnits="userSpaceOnUse"><stop offset="0.12" stop-color="#FF9A8A"/><stop offset="1" stop-color="#FFBCBA"/></linearGradient><linearGradient id="paint7_linear_1246_18336" x1="24.5312" x2="30.3387" y1="80.7457" y2="81.2538" gradientUnits="userSpaceOnUse"><stop offset="0.12" stop-color="#FF9A8A"/><stop offset="1" stop-color="#FFBCBA"/></linearGradient><linearGradient id="paint8_linear_1246_18336" x1="22.1159" x2="26.1911" y1="78.615" y2="78.9715" gradientUnits="userSpaceOnUse"><stop offset="0.12" stop-color="#FF9A8A"/><stop offset="1" stop-color="#FFBCBA"/></linearGradient><linearGradient id="paint9_linear_1246_18336" x1="24.9147" x2="25.3129" y1="79.1141" y2="79.1489" gradientUnits="userSpaceOnUse"><stop offset="0.12" stop-color="#FF9A8A"/><stop offset="1" stop-color="#FFBCBA"/></linearGradient><linearGradient id="paint10_linear_1246_18336" x1="29.0833" x2="29.9331" y1="79.8832" y2="80.3964" gradientUnits="userSpaceOnUse"><stop offset="0.12" stop-color="#FF9A8A"/><stop offset="1" stop-color="#FFBCBA"/></linearGradient><linearGradient id="paint11_linear_1246_18336" x1="29.4767" x2="31.9856" y1="83.3856" y2="83.6051" gradientUnits="userSpaceOnUse"><stop offset="0.12" stop-color="#FF9A8A"/><stop offset="1" stop-color="#FFBCBA"/></linearGradient><linearGradient id="paint12_linear_1246_18336" x1="27.1805" x2="30.3995" y1="85.3246" y2="85.6063" gradientUnits="userSpaceOnUse"><stop offset="0.12" stop-color="#FF9A8A"/><stop offset="1" stop-color="#FFBCBA"/></linearGradient></defs></svg>