<svg width="76" height="102" viewBox="0 0 76 102" fill="none" xmlns="http://www.w3.org/2000/svg">
<path d="M0 17.9594L0.0250575 36.1585L23.1785 23.5942L23.1535 5.56287L0 17.9594Z" fill="#DCEEFF" fill-opacity="0.5"/>
<path d="M17.6157 17.8963L17.6506 44.0168L49.8844 25.9837L49.8495 0.104126L17.6157 17.8963Z" fill="#DCEEFF"/>
<path d="M49.9201 0V2.44342L17.6863 20.4765V17.7922L49.9201 0Z" fill="#2B3D89"/>
<path d="M47.9436 5.00293L48 25.51L20.6774 41.0029L20 20.6086L47.9436 5.00293Z" fill="#4495B6"/>
<path d="M34.4856 18.8283C33.8191 18.458 33 18.94 33 19.7024V25.397C33 26.3135 34.1302 26.7472 34.7433 26.0659L38.16 22.2696C38.5899 21.7919 38.4641 21.0386 37.9024 20.7265L34.4856 18.8283Z" fill="#F8F9FB"/>
<path d="M47.5486 2.47795C47.5486 2.61561 47.6532 2.75327 47.8277 2.75327C47.9672 2.75327 48.1067 2.65002 48.1067 2.47795C48.1067 2.34029 48.0021 2.20264 47.8277 2.20264C47.6881 2.20264 47.5486 2.34029 47.5486 2.47795Z" fill="#F8F9FB"/>
<path d="M46.7101 2.85637C46.7101 2.99403 46.8148 3.13169 46.9892 3.13169C47.1288 3.13169 47.2683 3.02844 47.2683 2.85637C47.2683 2.71871 47.1637 2.58105 46.9892 2.58105C46.8497 2.58105 46.7101 2.71871 46.7101 2.85637Z" fill="#F8F9FB"/>
<path d="M48.3127 2.09929C48.3127 2.23695 48.4173 2.3746 48.5918 2.3746C48.7313 2.3746 48.8709 2.27136 48.8709 2.09929C48.8709 1.96163 48.7662 1.82397 48.5918 1.82397C48.4173 1.82397 48.2778 1.96163 48.3127 2.09929Z" fill="#F8F9FB"/>
<path d="M7.41864 53.869L7.45353 79.9895L39.6873 61.9564L39.6524 36.0768L7.41864 53.869Z" fill="#DCEEFF"/>
<path d="M39.7229 35.9729V38.4163L7.48907 56.4494V53.7651L39.7229 35.9729Z" fill="#2B3D89"/>
<path d="M37.6303 45.1956L37.5954 43.5781L20.6412 52.87L20.711 54.5907L37.6303 45.1956Z" fill="#AAD1FC"/>
<path d="M32.3996 59.4438V61.1301L22.0736 66.9462V65.2255L32.3996 59.4438Z" fill="#AAD1FC"/>
<path d="M38.5401 58.9961V60.7168L28.2141 66.4984V64.8121L38.5401 58.9961Z" fill="#AAD1FC"/>
<path d="M15.7556 68.356V70.2143L8.77856 74.5161V72.6578L15.7556 68.356Z" fill="#AAD1FC"/>
<path d="M16.0358 71.2821V73.1405L9.09363 77.4767V75.5839L16.0358 71.2821Z" fill="#AAD1FC"/>
<path d="M38.3949 56.1741V57.8948L33.2319 60.7856V59.0993L38.3949 56.1741Z" fill="#AAD1FC"/>
<path d="M15.7207 66.7732L15.7556 55.3821L8.77856 59.2021V70.9374L15.7207 66.7732Z" fill="#FF3333"/>
<path d="M37.3516 38.4504C37.3516 38.588 37.4562 38.7257 37.6306 38.7257C37.7702 38.7257 37.9097 38.6224 37.9097 38.4504C37.9097 38.3127 37.8051 38.175 37.6306 38.175C37.4911 38.175 37.3516 38.3127 37.3516 38.4504Z" fill="#F8F9FB"/>
<path d="M36.5131 38.8293C36.5131 38.9669 36.6178 39.1046 36.7922 39.1046C36.9317 39.1046 37.0713 39.0013 37.0713 38.8293C37.0713 38.6916 36.9666 38.554 36.7922 38.554C36.6527 38.554 36.5131 38.6916 36.5131 38.8293Z" fill="#F8F9FB"/>
<path d="M38.1229 38.0722C38.1229 38.2098 38.2276 38.3475 38.402 38.3475C38.5415 38.3475 38.6811 38.2443 38.6811 38.0722C38.6811 37.9345 38.5764 37.7969 38.402 37.7969C38.2276 37.7969 38.1229 37.9345 38.1229 38.0722Z" fill="#F8F9FB"/>
<path d="M17.4651 65.9474C17.4651 65.9474 18.9651 58.3763 21.0931 58.0321C23.2211 57.688 22.663 60.2691 24.4421 59.3054C26.2212 58.3074 26.3259 52.0784 28.5585 52.0784C28.5585 52.0784 29.7097 51.6655 30.3028 53.8336C30.861 56.0017 31.5238 57.1029 32.8494 55.9328C34.2099 54.7627 34.5588 50.9772 35.9193 50.8395C37.2798 50.7019 38.117 53.7303 38.117 54.3498L17.4651 65.9474Z" fill="#FF3333"/>
<path opacity="0.15" d="M27.1543 75.8739L34.6922 71.4836C39.828 68.5016 46.9518 67.8389 50.5137 69.9098C54.1584 71.9806 52.9159 76.1224 47.7801 79.0216L40.2422 83.4118C35.1064 86.311 28.0655 87.0565 24.4207 84.9857C20.776 82.9148 22.0185 78.7731 27.1543 75.8739Z" fill="#6B99D1"/>
<path d="M38.2543 79.4359C38.2543 79.4359 38.5857 79.9329 40.1595 79.2703C41.8162 78.6076 42.2304 77.7792 42.2304 77.7792C42.2304 77.7792 41.8162 74.4659 40.8222 75.2942C39.8282 76.1225 38.2543 79.4359 38.2543 79.4359Z" fill="#291D51"/>
<path d="M42.3121 67.9219C42.3121 69.6614 42.2293 70.9868 42.892 71.8979C43.5546 72.8091 43.6375 73.4718 43.6375 73.4718C43.6375 73.4718 41.6494 73.7203 40.7383 75.0457C39.7442 76.371 39.8271 77.6964 38.9159 77.9449C38.0047 78.1934 36.4308 77.1165 36.4308 77.1165C36.4308 77.1165 37.4249 77.1165 37.7562 75.874C38.1704 74.6315 39.0816 72.0636 39.1644 71.4009C39.1644 70.7383 39.1644 68.0875 39.1644 68.0875L42.3121 67.9219Z" fill="#FFA8A7"/>
<path d="M42.3123 72.3947C41.4839 72.4775 40.1586 73.3887 39.7444 74.3827C39.3302 75.3767 38.5847 76.7021 38.0049 77.0334C37.425 77.3648 36.5138 76.8678 35.6855 76.8678C34.8571 76.8678 34.2773 77.2819 34.1945 77.8618C34.1945 77.8618 36.8452 79.1043 37.6735 79.5185C38.5019 79.9327 39.1645 79.9327 39.7444 78.276C40.4071 76.6193 40.5727 75.7081 41.0697 76.7849C41.5667 77.9446 41.8153 80.4297 41.8153 80.4297C41.8153 80.4297 42.4779 80.6782 42.8093 80.0155C42.8093 80.0155 42.8093 78.8558 42.8921 77.779C43.0578 76.7849 43.969 75.4596 43.8861 74.2171C43.969 73.0574 43.3063 72.3119 42.3123 72.3947Z" fill="#2D2979"/>
<path d="M41.1528 51.4377C41.1528 51.4377 40.9043 52.6802 40.9043 53.6742C42.0639 56.7391 42.5609 66.0994 42.3124 69.827C42.3124 69.827 40.6558 70.4897 39.0819 69.4956C39.0819 69.4956 36.8454 60.4666 35.52 54.5854C35.023 52.4317 36.9282 50.6093 39.0819 51.0235L41.1528 51.4377Z" fill="#AACAF9"/>
<path d="M29.7228 82.6664C29.7228 82.6664 30.0541 83.1634 31.628 82.5007C33.2847 81.8381 33.6988 81.0097 33.6988 81.0097C33.6988 81.0097 33.2847 77.6963 32.2907 78.5247C31.2966 79.353 29.7228 82.6664 29.7228 82.6664Z" fill="#291D51"/>
<path d="M33.8638 71.1523C33.8638 72.8919 33.781 74.2172 34.4437 75.1284C35.1063 76.0396 35.1892 76.7023 35.1892 76.7023C35.1892 76.7023 33.2011 76.9508 32.2899 78.2761C31.2959 79.6015 31.3788 80.9268 30.4676 81.1753C29.5564 81.4239 27.9825 80.347 27.9825 80.347C27.9825 80.347 28.9766 80.347 29.3079 79.1045C29.7221 77.862 30.6333 75.2941 30.7161 74.6314C30.7161 73.9687 30.7161 71.318 30.7161 71.318L33.8638 71.1523Z" fill="#FFA8A7"/>
<path d="M33.864 75.5425C33.0357 75.6254 31.7103 76.5365 31.2961 77.5306C30.882 78.5246 30.1365 79.8499 29.5566 80.1813C28.9768 80.5126 28.0656 80.0156 27.2372 80.0156C26.4089 80.0156 25.8291 80.4298 25.7462 81.0096C25.7462 81.0096 28.3969 82.2521 29.2253 82.6663C30.0536 83.0805 30.7163 83.0805 31.2961 81.4238C31.9588 79.7671 32.1245 78.8559 32.6215 79.9328C33.1185 81.0924 33.367 83.5775 33.367 83.5775C33.367 83.5775 34.0297 83.826 34.361 83.1633C34.361 83.1633 34.361 82.0036 34.4439 80.9268C34.6095 79.9328 35.5207 78.6074 35.4379 77.3649C35.4379 76.2052 34.7752 75.4597 33.864 75.5425Z" fill="#2D2979"/>
<path d="M32.539 54.9993H34.03C34.03 54.9993 35.1069 55.5791 35.1069 56.5731C36.2665 58.3955 34.3613 65.9334 33.8643 73.2229C33.8643 73.2229 32.539 74.3826 30.6338 73.4714C30.6338 73.4714 29.4741 61.3775 29.2256 58.5612" fill="#C4D9FF"/>
<path opacity="0.15" d="M74.6203 88.0504L55.8168 77.199C54.6571 76.5364 52.7519 76.5364 51.5923 77.199L32.7059 88.0504C31.5463 88.7131 31.5463 89.7899 32.7059 90.4526L51.5923 101.304C52.7519 101.967 54.6571 101.967 55.8168 101.304L74.7031 90.4526C75.78 89.7899 75.78 88.7131 74.6203 88.0504Z" fill="#6B99D1"/>
<path d="M74.6207 65.4367L55.8172 54.5025C54.6575 53.8398 52.7523 53.8398 51.5926 54.5025L32.7063 65.4367C31.5466 66.0994 31.5466 67.1762 32.7063 67.8389L51.5926 78.6902C52.7523 79.3529 54.6575 79.3529 55.8172 78.6902L74.7035 67.8389C75.7804 67.1762 75.7804 66.0994 74.6207 65.4367Z" fill="#DCEEFF"/>
<path d="M53.6631 54.8337C54.3258 54.8337 54.9056 54.9994 55.3198 55.2479L74.2061 66.0992C74.5375 66.2649 74.7031 66.5134 74.7031 66.5962C74.7031 66.6791 74.6203 66.9276 74.2061 67.0933L55.4027 78.0274C54.9885 78.2759 54.3258 78.4416 53.746 78.4416C53.0833 78.4416 52.5034 78.2759 52.0893 78.0274L33.1201 67.1761C32.7888 67.0104 32.6231 66.7619 32.6231 66.6791C32.6231 66.5963 32.7059 66.3477 33.1201 66.1821L52.0064 55.3307C52.4206 54.9994 53.0005 54.8337 53.6631 54.8337ZM53.6631 54.0054C52.9176 54.0054 52.1721 54.171 51.5923 54.5024L32.7059 65.4366C31.5463 66.0992 31.5463 67.1761 32.7059 67.8388L51.5923 78.6901C52.1721 79.0215 52.9176 79.1871 53.6631 79.1871C54.4086 79.1871 55.1542 79.0215 55.734 78.6901L74.6203 67.8388C75.78 67.1761 75.78 66.0992 74.6203 65.4366L55.8168 54.5024C55.237 54.171 54.4086 54.0054 53.6631 54.0054Z" fill="white"/>
<path d="M75.5309 85.6484C75.5309 86.1454 75.1996 86.5595 74.6197 86.8909L55.8162 97.8251C55.2364 98.1564 54.5737 98.3221 53.7454 98.3221V79.2701C54.5737 79.2701 55.2364 79.1044 55.8162 78.7731L74.7025 67.9217C75.1996 67.6732 75.6137 67.259 75.6137 66.6792V85.6484H75.5309Z" fill="#C8E2FF"/>
<path d="M31.7946 85.6482C31.7946 86.1452 32.1259 86.5594 32.7057 86.8907L51.5921 97.742C52.1719 98.0734 52.8346 98.2391 53.6629 98.2391V79.1871C52.8346 79.1871 52.1719 79.0214 51.5921 78.6901L32.7057 67.8387C32.2087 67.5902 31.7946 67.176 31.7946 66.5962V85.6482Z" fill="#A5CBFA"/>
<path d="M47.9482 29.8176C47.9482 29.8176 46.043 28.7407 46.2087 27.084C46.3744 25.4273 48.9422 21.3684 53.4153 23.3564C57.6399 24.2676 47.9482 29.8176 47.9482 29.8176Z" fill="#543354"/>
<path d="M57.7219 37.604C55.5682 37.4383 55.7339 37.2726 55.5682 36.5271C55.4854 36.2786 55.4025 34.3734 55.4025 34.3734C55.5682 34.2078 55.8995 33.5451 55.8995 33.5451C57.3077 32.7167 58.3017 31.2257 58.4674 29.4033C58.7987 26.3385 56.5622 23.6877 53.5802 23.3564C50.7638 23.0251 48.6101 25.0959 48.0302 27.8295C47.6989 29.1548 47.4504 31.9712 48.2787 34.2078C48.7757 35.4503 49.1899 36.3615 50.3496 36.2786C50.5981 36.2786 51.0123 36.1958 51.5093 36.113C51.5921 36.5271 51.5921 37.107 51.5921 37.6868C51.5921 38.2667 51.675 38.5152 50.5981 39.1778C49.5213 39.8405 52.2548 41.1659 53.9943 41.083C55.7339 40.9174 57.7219 39.9233 58.3017 38.7637C58.8816 37.4383 58.7987 37.6868 57.7219 37.604Z" fill="#FFA8A7"/>
<path d="M56.5623 33.1309L54.74 33.2138H52.7519L52.0893 32.4683C52.0893 32.4683 51.9236 34.7876 51.3437 35.3675C50.7639 35.9473 49.9356 36.1958 49.8527 36.2787C50.0184 36.3615 50.1841 36.3615 50.4326 36.3615C50.6811 36.3615 51.0952 36.2787 51.5923 36.1958C51.6751 36.61 51.6751 37.1898 51.6751 37.7697C51.6751 38.3495 51.7579 38.598 50.6811 39.2607C49.6042 39.9234 52.3378 41.2487 54.0773 41.1659C55.8168 41.0002 57.8049 40.0062 58.3847 38.8465C58.9645 37.604 58.8817 37.7697 57.8877 37.6868C55.734 37.5212 55.8997 37.3555 55.734 36.61C55.6512 36.3615 55.5683 34.4563 55.5683 34.4563C55.734 34.2906 56.0653 33.6279 56.0653 33.6279C56.1482 33.4623 56.3967 33.2966 56.5623 33.1309Z" fill="#F28F8F"/>
<path d="M41.155 51.4374C43.1431 52.1829 55.8996 57.2358 55.8996 57.2358C55.8996 57.2358 55.4026 66.7618 52.5034 65.1879L39.4155 57.65L35.8536 55.2478C35.5223 52.1829 39.0013 50.6919 41.155 51.4374Z" fill="#AACAF9"/>
<path d="M29.226 58.5612C28.8946 55.4135 31.711 53.674 33.8647 54.5023C35.8527 55.2478 47.7809 60.3007 47.7809 60.3007L61.6972 58.8926C62.8569 65.188 57.9696 67.673 54.242 69.4126C51.757 70.5722 47.2011 70.3237 44.3847 68.7499L32.0423 60.3007" fill="#C4D9FF"/>
<path d="M27.0728 54.5023C27.0728 54.8336 27.2385 55.1649 27.5698 55.3306L36.2675 60.3835C36.516 60.5492 36.9301 60.5492 37.1787 60.3835L49.4382 53.3426C49.6867 53.1769 49.9352 52.8456 49.9352 52.5142V52.4314L27.0728 54.5023Z" fill="#C8E2FF"/>
<path d="M38.7521 59.1408L48.1125 53.7566C48.1953 53.7566 48.1953 53.7566 48.1953 53.7566C48.1953 53.8394 48.1125 53.9223 48.1125 53.9223L38.7521 59.3065C38.6693 59.3065 38.6693 59.3065 38.6693 59.3065C38.6693 59.2237 38.6693 59.1408 38.7521 59.1408Z" fill="#A5CBFA"/>
<path d="M27.5698 55.3306L36.2675 60.3835C36.4331 60.4663 36.5988 60.5492 36.7645 60.5492V54.5851H27.0728C27.0728 54.8336 27.2385 55.1649 27.5698 55.3306Z" fill="#A5CBFA"/>
<path d="M36.0196 60.2178L36.2681 60.3835C36.5166 60.5491 36.9308 60.5491 37.1793 60.3835L37.4278 60.2178V59.6379H35.9368V60.2178H36.0196Z" fill="#B7D6FD"/>
<path d="M36.4331 59.9695C36.5987 60.0523 36.8472 60.0523 37.0958 59.9695L49.8523 52.5972C50.018 52.5144 50.018 52.3487 49.8523 52.2658L40.492 46.8816L27.0728 54.5024L36.4331 59.9695Z" fill="#EFF6FE"/>
<path d="M28.6469 54.668L28.3155 54.5023C28.2327 54.5023 28.2327 54.4195 28.3155 54.4195L40.1609 47.5442C40.2437 47.5442 40.3266 47.5442 40.3266 47.5442L40.6579 47.7099C40.7408 47.7099 40.7408 47.7927 40.6579 47.7927L28.8126 54.668C28.8126 54.668 28.7297 54.668 28.6469 54.668Z" fill="#D2EAFF"/>
<path d="M44.6343 54.5024L44.5514 54.5852L40.4097 56.9046L38.1732 55.662V55.5792L42.3149 53.177L44.6343 54.5024Z" fill="#97C3F4"/>
<path d="M44.5517 54.5852L40.41 56.9046L38.1735 55.6621L42.3152 53.2599L44.5517 54.5852Z" fill="#D2EAFF"/>
<path d="M41.9856 53.5084C42.5655 53.8398 42.814 55.4136 40.3289 56.9047L40.4946 56.9875L44.5535 54.6681L42.317 53.3428L41.9856 53.5084Z" fill="#AAD1FC"/>
<path d="M45.3796 50.6089L33.6171 57.4014C33.5343 57.4014 33.4514 57.4014 33.4514 57.4014L29.3097 54.9992C29.2268 54.9992 29.2268 54.9163 29.3097 54.9163L41.0722 48.1239C41.1551 48.1239 41.2379 48.1239 41.2379 48.1239L45.4625 50.5261C45.4625 50.5261 45.4625 50.6089 45.3796 50.6089Z" fill="#97C3F4"/>
<path d="M45.3801 50.6089L33.6175 57.4013C33.5347 57.4013 33.4519 57.4013 33.4519 57.4013L29.3101 54.9991L41.0726 48.2067C41.1555 48.2067 41.2383 48.2067 41.2383 48.2067L45.3801 50.6089Z" fill="#AAD1FC"/>
<path d="M27.0734 54.5024L40.4098 46.7988V36.3616L40.327 36.1131L40.2441 36.0303C39.9956 35.8646 39.5815 35.8646 39.333 36.0303L27.0734 43.0712C26.8249 43.2369 26.5764 43.5682 26.5764 43.8996V53.7569C26.7421 54.2539 26.8249 54.3367 27.0734 54.5024Z" fill="#A5CBFA"/>
<path d="M28.3151 44.3964L40.409 36.6928V36.3615L40.3262 36.113L40.2433 36.0301C39.9948 35.8645 39.5807 35.8645 39.3321 36.0301L27.0726 43.0711C26.9069 43.1539 26.8241 43.3196 26.7413 43.4024L28.3151 44.3964Z" fill="#C8E2FF"/>
<path d="M26.6598 44.3965L27.4881 44.8935L28.4822 43.5681L27.4881 42.9883L27.1568 43.154C26.9083 43.3196 26.7426 43.651 26.7426 43.8995V44.3965H26.6598Z" fill="#B7D6FD"/>
<path d="M40.1623 36.1128L27.323 43.4851C27.1573 43.5679 27.0745 43.7336 27.0745 43.8993V54.585L40.4109 46.8813V36.2785C40.4109 36.1128 40.2452 36.03 40.1623 36.1128Z" fill="#DCEEFF"/>
<path d="M40.1623 36.1128L27.323 43.4851C27.1573 43.5679 27.0745 43.7336 27.0745 43.8993V54.585L40.4109 46.8813V36.2785C40.4109 36.1128 40.2452 36.03 40.1623 36.1128Z" fill="#DCEEFF"/>
<path opacity="0.2" d="M40.1633 36.1128L38.6723 36.9412L38.1753 37.1897C38.1753 39.8404 37.9268 46.55 27.2411 52.8454V54.4193L40.4118 46.7985V36.2785C40.4118 36.1128 40.2461 36.03 40.1633 36.1128Z" fill="#94C3FB"/>
<path opacity="0.2" d="M27.0745 54.5023V54.1709L40.4109 46.4673V46.7986L27.0745 54.5023Z" fill="#94C3FB"/>
<path d="M40.0789 46.3018V36.6101L39.9132 36.7758V46.2189L40.0789 46.3018Z" fill="#1E3779"/>
<path d="M39.9125 36.7755V46.2187L27.4873 53.3425V43.8993L39.9125 36.7755Z" fill="#344593"/>
<path d="M40.0782 46.3016L27.4873 53.5082V53.3425L39.9125 46.2188L40.0782 46.3016Z" fill="#031F60"/>
<path d="M39.9125 36.7755L38.173 37.7695C38.0901 40.6687 37.2618 46.8813 27.4873 52.6798V53.3425L39.9125 46.2187V36.7755Z" fill="#2B3D89"/>
<path d="M55.7344 37.2727C56.1485 37.7697 56.2314 38.101 55.1545 38.5152C53.2493 39.3435 51.427 38.4323 51.427 38.4323C51.427 38.4323 49.6874 39.3435 48.2793 40.3375C44.883 42.7398 44.0547 46.633 47.4509 48.0412C47.6994 49.615 48.6934 51.6859 48.6934 52.5971C48.5278 55.3306 47.6994 56.159 47.1196 62.4544C48.5278 64.0283 51.8411 64.9395 54.8232 64.0283C58.6336 62.8686 60.7045 60.0522 61.6985 58.8097C61.1186 54.9165 58.8821 52.4314 58.8821 51.3546C58.9649 47.13 60.456 44.4793 60.0418 40.5861C59.7933 38.3495 58.9649 37.4383 57.7224 37.1898C57.1426 37.107 56.1485 37.1898 55.7344 37.2727Z" fill="#F5FBFB"/>
<path d="M30.387 51.8516C30.9668 52.183 31.6295 52.3486 32.4579 52.9285C33.2034 53.4255 33.5347 53.5911 34.2802 53.7568C35.1914 53.9225 37.1794 53.7568 39.9958 53.3426C42.8122 52.9285 44.4689 51.6859 45.3801 50.4434C47.3681 47.5442 47.1196 44.148 47.8651 41.5801C48.3621 39.7577 49.8532 39.4264 50.6815 40.0891C51.3442 40.6689 52.0897 42.9883 51.427 46.4674C50.93 49.0352 49.439 52.68 47.2024 54.3367C45.7943 55.4135 43.6406 56.2419 42.0667 56.5732C39.416 57.0702 37.3451 57.153 34.7772 57.2359C34.1146 57.2359 33.5347 57.4844 32.2922 57.7329C30.9668 57.9814 29.393 57.8985 28.3161 57.4844C27.2393 57.0702 26.9908 56.8217 26.9079 56.5732C26.9079 56.2419 27.1564 56.159 27.6535 56.2418C28.1505 56.3247 28.9788 56.656 30.0557 56.5732C30.0557 56.5732 28.9788 56.3247 28.3161 56.159C27.6535 55.9933 27.0736 55.662 26.6594 55.4135C26.1624 55.0822 26.1624 54.2538 26.6594 54.3367C27.1564 54.4195 27.4878 54.668 28.4818 54.9165C29.393 55.165 30.0557 55.165 30.0557 55.165C30.0557 55.165 29.0616 54.8337 28.2333 54.3367C27.405 53.9225 27.1564 53.5083 27.0736 53.2598C26.9079 53.0113 27.0736 52.5143 27.6535 52.7628C28.1505 53.0113 28.8131 53.5083 29.89 53.7568C30.7183 53.9225 31.2982 53.9225 31.2153 53.7568C31.1325 53.5911 30.6355 53.5911 30.1385 53.0941C29.6415 52.68 29.3101 51.9344 29.6415 51.6859C29.8072 51.4374 29.7243 51.4374 30.387 51.8516Z" fill="#FFA8A7"/>
<path d="M56.5626 33.7936C57.9708 32.551 58.385 31.3085 58.5506 29.4862C58.882 26.4213 56.6454 23.7706 53.6634 23.4392C51.6754 23.2736 49.6045 23.9362 48.6105 26.4213C48.6105 26.4213 48.7761 26.7526 49.2732 26.8354C49.2732 26.8354 49.1075 27.4981 49.6045 27.9951C49.9358 28.3265 50.2672 28.9063 50.2672 29.569C50.2672 30.066 50.1843 30.8943 50.35 31.3914C50.5985 32.054 51.344 31.9712 51.344 31.9712C51.344 31.9712 51.4269 30.8115 51.5097 29.7347C51.841 28.9891 53.2492 28.8235 53.4977 29.8175C53.7462 30.7287 53.4977 31.3085 53.1664 31.9712C52.9179 32.4682 52.5037 32.7167 52.0895 32.551C52.0895 33.8764 52.5865 34.5391 53.8291 34.8704C54.9887 35.2018 55.1544 34.7876 55.7343 34.4562C56.0656 34.2077 56.5626 33.7936 56.5626 33.7936Z" fill="#543354"/>
<path d="M52.0909 32.4682V45.4733C52.0909 45.4733 53.6647 46.7986 56.1498 45.6389C58.6348 44.4792 58.552 43.9822 58.552 42.6569V28.8235C58.552 28.8235 55.7356 32.1369 53.7476 32.7996C52.2566 33.3794 52.0909 32.4682 52.0909 32.4682Z" fill="#543354"/>
<path d="M49.852 39.6748C50.846 39.7576 51.84 40.3375 51.9229 44.4792C52.0885 48.621 49.6035 52.5142 47.6155 54.2537C45.6274 55.9932 41.5685 57.2358 37.6753 57.0701C37.6753 57.0701 36.2671 55.7447 37.4268 53.6739C37.4268 53.6739 40.326 53.3425 42.1484 52.597C43.9707 51.8515 45.5446 50.7747 46.6214 47.2128C47.6983 43.568 47.1184 39.7576 49.852 39.6748Z" fill="#E4F2F2"/>
</svg>
