<svg width="68" height="101" viewBox="0 0 68 101" fill="none" xmlns="http://www.w3.org/2000/svg">
<g id="Group 840">
<g id="XMLID 178">
<path id="XMLID 67" opacity="0.15" d="M28.805 57.4137L10.7445 67.8305C9.79755 68.3717 9.79755 69.251 10.7445 69.7921L28.8726 80.209C29.8196 80.7502 31.3754 80.7502 32.3223 80.209L50.4504 69.7921C51.3974 69.251 51.3974 68.3717 50.4504 67.8305L32.2547 57.4137C31.3077 56.8725 29.7519 56.8725 28.805 57.4137Z" fill="#6B99D1"/>
<path id="XMLID 65" d="M51.0587 12.8374V64.313C51.0587 65.3952 50.3146 66.7481 49.3676 67.2892L32.2542 77.165C31.7807 77.4355 31.1719 77.5708 30.5632 77.5708C29.9544 77.5708 29.3456 77.4355 28.8721 77.165L11.6911 67.2892C10.7441 66.7481 10 65.3952 10 64.313V12.8374H51.0587Z" fill="#C8E2FF"/>
<path id="XMLID 63" d="M30.5632 12.8374V77.5708C29.9544 77.5708 29.3456 77.4355 28.8721 77.165L11.6911 67.2892C10.7441 66.7481 10 65.3952 10 64.313V12.8374H30.5632Z" fill="#A5CBFA"/>
<path id="XMLID 61" d="M28.805 1.40585L10.7445 11.8904C9.79755 12.4315 9.79755 13.3108 10.7445 13.852L28.8726 24.2689C29.8196 24.81 31.3754 24.81 32.3223 24.2689L50.4504 13.852C51.3974 13.3108 51.3974 12.4315 50.4504 11.8904L32.2547 1.40585C31.3077 0.864716 29.7519 0.864716 28.805 1.40585Z" fill="#DCEEFF"/>
<g id="XMLID 57">
<path id="XMLID 60" d="M33.2008 28.1922V72.1595C33.2008 72.9035 33.7419 73.1741 34.3507 72.8359L34.5536 72.7006L48.2173 64.7865C48.5555 64.5835 48.8261 64.313 49.029 63.9071L47.7438 63.0278L33.539 27.0422C33.3361 27.3804 33.2008 27.7863 33.2008 28.1922Z" fill="#031F60"/>
<path id="XMLID 59" d="M49.3678 19.0607V18.8577C49.3678 18.1137 48.8266 17.8431 48.2179 18.1813L48.1502 18.249L34.3513 26.1631C34.013 26.366 33.7425 26.6366 33.5396 27.0424L47.6767 63.2309L48.9619 63.975C49.1649 63.6367 49.3001 63.2309 49.3001 62.825V19.0607H49.3678Z" fill="#1E3779"/>
<path id="XMLID 58" d="M48.1492 62.0132C48.1492 62.3514 48.0139 62.7572 47.811 63.1631C47.608 63.5013 47.3375 63.8395 46.9993 64.0424L33.3356 71.8889L33.2679 71.9565V28.1922C33.2679 27.8539 33.4032 27.4481 33.6062 27.0422C33.8091 26.704 34.0796 26.3658 34.4179 26.1629L48.1492 18.2488V62.0132Z" fill="#344593"/>
</g>
<g id="XMLID 53">
<path id="XMLID 56" d="M27.8567 28.1924V72.1597C27.8567 72.9038 27.3155 73.1743 26.7068 72.8361L26.5038 72.7008L12.8401 64.7867C12.5019 64.5838 12.2314 64.3132 12.0284 63.9074L13.3136 63.028L27.5185 26.9749C27.7214 27.3807 27.8567 27.7866 27.8567 28.1924Z" fill="#031F60"/>
<path id="XMLID 55" d="M11.6906 19.0604V18.8575C11.6906 18.1134 12.2317 17.8429 12.8405 18.1811L12.9081 18.2487L26.6394 26.1628C26.9776 26.3658 27.2482 26.6363 27.4511 27.0422L13.314 63.2306L12.0288 63.9747C11.8258 63.5689 11.6906 63.163 11.6906 62.8248V19.0604Z" fill="#1E3779"/>
<path id="XMLID 54" d="M12.9088 62.0134C12.9088 62.3516 13.0441 62.7575 13.247 63.1633C13.4499 63.5015 13.7205 63.8397 14.0587 64.0427L27.7224 71.9568L27.7901 72.0244V28.1924C27.7901 27.8542 27.6548 27.4483 27.4518 27.0425C27.2489 26.7043 26.9783 26.3661 26.6401 26.1631L12.9088 18.249V62.0134Z" fill="#344593"/>
</g>
<path id="XMLID 51" d="M28.805 1.40585L10.7445 11.8904C9.79755 12.4315 9.79755 13.3108 10.7445 13.852L28.8726 24.2689C29.8196 24.81 31.3754 24.81 32.3223 24.2689L50.4504 13.852C51.3974 13.3108 51.3974 12.4315 50.4504 11.8904L32.2547 1.40585C31.3077 0.864716 29.7519 0.864716 28.805 1.40585Z" fill="#FF3333"/>
<path id="XMLID 50" d="M28.805 1.40585L10.7445 11.8904C9.79755 12.4315 9.79755 13.3108 10.7445 13.852L28.8726 24.2689C29.8196 24.81 31.3754 24.81 32.3223 24.2689L50.4504 13.852C51.3974 13.3108 51.3974 12.4315 50.4504 11.8904L32.2547 1.40585C31.3077 0.864716 29.7519 0.864716 28.805 1.40585Z" stroke="white" stroke-miterlimit="10"/>
<g id="XMLID 42">
<g id="XMLID 45">
<path id="XMLID 48" d="M22.3121 38.9474L23.2591 38.4062C23.462 38.2709 23.5973 38.0004 23.5973 37.7974V32.7919C23.5973 32.5214 23.5297 32.1832 23.3267 31.9802L19.1329 34.3477L22.3121 38.9474Z" fill="#C8E2FF"/>
<path id="XMLID 46" d="M22.8513 31.2361L16.4253 27.5834C16.29 27.5158 16.0194 27.5158 15.8165 27.5834L14.8019 28.1922L19.131 34.4153L23.3924 31.9125C23.2571 31.642 23.0542 31.3714 22.8513 31.2361Z" fill="#A5CBFA"/>
</g>
<path id="XMLID 43" d="M15.4112 28.2599L21.7019 31.9126C22.1754 32.1832 22.5813 32.8596 22.5813 33.4007V38.4062C22.5813 38.9474 22.1754 39.1503 21.7019 38.8797L15.4112 35.2271C14.9377 34.9565 14.5319 34.2801 14.5319 33.739V28.7334C14.5319 28.1923 14.9377 27.9894 15.4112 28.2599Z" fill="#DCEEFF"/>
</g>
<g id="XMLID 34">
<g id="XMLID 37">
<path id="XMLID 40" d="M37.1239 36.3768L36.0416 35.7681C35.8387 35.6328 35.7034 35.3622 35.7034 35.1593V33.2653C35.7034 32.9947 35.771 32.6565 35.9739 32.4536L39.2884 34.3476L37.1239 36.3768Z" fill="#C8E2FF"/>
<path id="XMLID 38" d="M36.5141 31.7771L44.5635 27.1098C44.6987 27.0422 44.9693 27.0422 45.1722 27.1098L46.3222 27.7862L39.1521 34.2799L35.8376 32.3859C36.1082 32.1153 36.3111 31.9124 36.5141 31.7771Z" fill="#A5CBFA"/>
</g>
<path id="XMLID 35" d="M45.7134 27.8538L37.7316 32.4534C37.2581 32.724 36.8523 33.4004 36.8523 33.9415V35.8355C36.8523 36.3766 37.2581 36.5796 37.7316 36.309L45.7134 31.7094C46.1869 31.4388 46.5927 30.7624 46.5927 30.2212V28.3273C46.5927 27.7861 46.1869 27.5155 45.7134 27.8538Z" fill="#DCEEFF"/>
</g>
<g id="XMLID 26">
<g id="XMLID 29">
<path id="XMLID 32" d="M37.1239 45.2379L36.0416 44.5615C35.8387 44.4262 35.7034 44.1557 35.7034 43.9528V42.0588C35.7034 41.7882 35.771 41.45 35.9739 41.2471L39.2884 43.141L37.1239 45.2379Z" fill="#C8E2FF"/>
<path id="XMLID 30" d="M36.5166 40.5706L44.566 35.9033C44.7013 35.8356 44.9719 35.8356 45.1748 35.9033L46.3247 36.5797L39.1547 43.0733L35.9078 41.247C36.1108 40.9764 36.3137 40.7059 36.5166 40.5706Z" fill="#A5CBFA"/>
</g>
<path id="XMLID 27" d="M45.7134 36.6474L37.7316 41.2471C37.2581 41.5176 36.8523 42.194 36.8523 42.7352V44.6292C36.8523 45.1703 37.2581 45.3732 37.7316 45.1026L45.7134 40.503C46.1869 40.2324 46.5927 39.556 46.5927 39.0149V37.1209C46.5927 36.5798 46.1869 36.3768 45.7134 36.6474Z" fill="#DCEEFF"/>
</g>
<g id="XMLID 18">
<g id="XMLID 21">
<path id="XMLID 24" d="M37.1239 54.0316L36.0416 53.4229C35.8387 53.2876 35.7034 53.017 35.7034 52.8141V50.9201C35.7034 50.6495 35.771 50.3113 35.9739 50.1084L39.2884 52.0024L37.1239 54.0316Z" fill="#C8E2FF"/>
<path id="XMLID 22" d="M36.5166 49.4319L44.566 44.7646C44.7013 44.697 44.9719 44.697 45.1748 44.7646L46.3247 45.441L39.1547 51.9347L35.9078 50.0407C36.1108 49.7701 36.3137 49.5672 36.5166 49.4319Z" fill="#A5CBFA"/>
</g>
<path id="XMLID 19" d="M45.7134 45.4409L37.7316 50.0405C37.2581 50.3111 36.8523 50.9875 36.8523 51.5286V53.4226C36.8523 53.9638 37.2581 54.1667 37.7316 53.8961L45.7134 49.3641C46.1869 49.0935 46.5927 48.4171 46.5927 47.876V45.982C46.5927 45.4409 46.1869 45.1703 45.7134 45.4409Z" fill="#DCEEFF"/>
</g>
<g id="XMLID 10">
<g id="XMLID 13">
<path id="XMLID 16" d="M37.1239 62.8927L36.0416 62.2163C35.8387 62.081 35.7034 61.8105 35.7034 61.6075V59.7136C35.7034 59.443 35.771 59.1048 35.9739 58.9019L39.2884 60.7958L37.1239 62.8927Z" fill="#C8E2FF"/>
<path id="XMLID 14" d="M36.5166 58.2254L44.566 53.5581C44.7013 53.4904 44.9719 53.4904 45.1748 53.5581L46.3247 54.2345L39.1547 60.7281L35.9078 58.8341C36.1108 58.5636 36.3137 58.3606 36.5166 58.2254Z" fill="#A5CBFA"/>
</g>
<path id="XMLID 11" d="M45.7134 54.3022L37.7316 58.9018C37.2581 59.1724 36.8523 59.8488 36.8523 60.39V62.2839C36.8523 62.8251 37.2581 63.028 37.7316 62.7574L45.7134 58.1578C46.1869 57.8872 46.5927 57.2108 46.5927 56.6697V54.7757C46.5927 54.2345 46.1869 54.0316 45.7134 54.3022Z" fill="#DCEEFF"/>
</g>
<path id="XMLID 8" d="M38.0036 33.5357L39.0859 32.9269C39.1535 32.8593 39.2212 32.9269 39.2212 32.9946V34.2121C39.2212 34.2798 39.1535 34.4151 39.0859 34.4827L38.0036 35.0915C37.936 35.1591 37.8683 35.0915 37.8683 35.0238V33.8063C37.8683 33.7386 37.936 33.6034 38.0036 33.5357Z" fill="#FF3333"/>
<path id="XMLID 6" d="M38.0036 42.3971L39.0859 41.7883C39.1535 41.7206 39.2212 41.7883 39.2212 41.8559V43.0735C39.2212 43.1411 39.1535 43.2764 39.0859 43.344L38.0036 43.9528C37.936 44.0205 37.8683 43.9528 37.8683 43.8852V42.6C37.8683 42.5323 37.936 42.3971 38.0036 42.3971Z" fill="#FF3333"/>
<path id="XMLID 4" d="M38.0036 51.1905L39.0859 50.5817C39.1535 50.5141 39.2212 50.5817 39.2212 50.6494V51.8669C39.2212 51.9346 39.1535 52.0699 39.0859 52.1375L38.0036 52.7463C37.936 52.8139 37.8683 52.7463 37.8683 52.6786V51.4611C37.8683 51.3258 37.936 51.2581 38.0036 51.1905Z" fill="#FF3333"/>
<path id="XMLID 2" d="M38.0036 60.0516L39.0859 59.4428C39.1535 59.3752 39.2212 59.4428 39.2212 59.5105V60.728C39.2212 60.7957 39.1535 60.9309 39.0859 60.9986L38.0036 61.5397C37.936 61.6074 37.8683 61.5397 37.8683 61.4721V60.2545C37.8683 60.1869 37.936 60.0516 38.0036 60.0516Z" fill="#FF3333"/>
</g>
<g id="XMLID 1">
<path id="XMLID 67_2" opacity="0.15" d="M19.805 77.4137L1.7446 87.8305C0.797616 88.3717 0.797616 89.251 1.7446 89.7921L19.8727 100.209C20.8196 100.75 22.3754 100.75 23.3224 100.209L41.4505 89.7921C42.3974 89.251 42.3974 88.3717 41.4505 87.8305L23.2548 77.4137C22.3078 76.8725 20.752 76.8725 19.805 77.4137Z" fill="#6B99D1"/>
<path id="XMLID 65_2" d="M42.0587 32.8374V84.313C42.0587 85.3952 41.3146 86.7481 40.3676 87.2892L23.2542 97.165C22.7807 97.4355 22.1719 97.5708 21.5632 97.5708C20.9544 97.5708 20.3456 97.4355 19.8721 97.165L2.69105 87.2892C1.74406 86.7481 1 85.3952 1 84.313V32.8374H42.0587Z" fill="#C8E2FF"/>
<path id="XMLID 63_2" d="M21.5632 32.8374V97.5708C20.9544 97.5708 20.3456 97.4355 19.8721 97.165L2.69105 87.2892C1.74406 86.7481 1 85.3952 1 84.313V32.8374H21.5632Z" fill="#A5CBFA"/>
<path id="XMLID 61_2" d="M19.805 21.4059L1.7446 31.8904C0.797616 32.4315 0.797616 33.3108 1.7446 33.852L19.8727 44.2689C20.8196 44.81 22.3754 44.81 23.3224 44.2689L41.4505 33.852C42.3974 33.3108 42.3974 32.4315 41.4505 31.8904L23.2548 21.4059C22.3078 20.8647 20.752 20.8647 19.805 21.4059Z" fill="#DCEEFF"/>
<g id="XMLID 57_2">
<path id="XMLID 60_2" d="M24.2008 48.1922V92.1595C24.2008 92.9035 24.7419 93.1741 25.3507 92.8359L25.5536 92.7006L39.2173 84.7865C39.5555 84.5835 39.8261 84.313 40.029 83.9071L38.7438 83.0278L24.539 47.0422C24.3361 47.3804 24.2008 47.7863 24.2008 48.1922Z" fill="#031F60"/>
<path id="XMLID 59_2" d="M40.3678 39.0607V38.8577C40.3678 38.1137 39.8266 37.8431 39.2179 38.1813L39.1502 38.249L25.3513 46.1631C25.013 46.366 24.7425 46.6366 24.5396 47.0424L38.6767 83.2309L39.9619 83.975C40.1649 83.6367 40.3001 83.2309 40.3001 82.825V39.0607H40.3678Z" fill="#1E3779"/>
<path id="XMLID 58_2" d="M39.1492 82.0132C39.1492 82.3514 39.0139 82.7572 38.811 83.1631C38.608 83.5013 38.3375 83.8395 37.9993 84.0424L24.3356 91.8889L24.2679 91.9565V48.1922C24.2679 47.8539 24.4032 47.4481 24.6062 47.0422C24.8091 46.704 25.0796 46.3658 25.4179 46.1629L39.1492 38.2488V82.0132Z" fill="#344593"/>
</g>
<g id="XMLID 53_2">
<path id="XMLID 56_2" d="M18.8567 48.1924V92.1597C18.8567 92.9038 18.3155 93.1743 17.7068 92.8361L17.5038 92.7008L3.84015 84.7867C3.50194 84.5838 3.23137 84.3132 3.02844 83.9074L4.31364 83.028L18.5185 46.9749C18.7214 47.3807 18.8567 47.7866 18.8567 48.1924Z" fill="#031F60"/>
<path id="XMLID 55_2" d="M2.69055 39.0604V38.8575C2.69055 38.1134 3.23169 37.8429 3.84047 38.1811L3.90811 38.2487L17.6394 46.1628C17.9776 46.3658 18.2482 46.6363 18.4511 47.0422L4.31396 83.2306L3.02876 83.9747C2.82584 83.5689 2.69055 83.163 2.69055 82.8248V39.0604Z" fill="#1E3779"/>
<path id="XMLID 54_2" d="M3.90881 82.0134C3.90881 82.3516 4.0441 82.7575 4.24702 83.1633C4.44995 83.5015 4.72052 83.8397 5.05873 84.0427L18.7224 91.9568L18.7901 92.0244V48.1924C18.7901 47.8542 18.6548 47.4483 18.4518 47.0425C18.2489 46.7043 17.9783 46.3661 17.6401 46.1631L3.90881 38.249V82.0134Z" fill="#344593"/>
</g>
<path id="XMLID 51_2" d="M19.805 21.4059L1.7446 31.8904C0.797616 32.4315 0.797616 33.3108 1.7446 33.852L19.8727 44.2689C20.8196 44.81 22.3754 44.81 23.3224 44.2689L41.4505 33.852C42.3974 33.3108 42.3974 32.4315 41.4505 31.8904L23.2548 21.4059C22.3078 20.8647 20.752 20.8647 19.805 21.4059Z" fill="#FF3333"/>
<path id="XMLID 50_2" d="M19.805 21.4059L1.7446 31.8904C0.797616 32.4315 0.797616 33.3108 1.7446 33.852L19.8727 44.2689C20.8196 44.81 22.3754 44.81 23.3224 44.2689L41.4505 33.852C42.3974 33.3108 42.3974 32.4315 41.4505 31.8904L23.2548 21.4059C22.3078 20.8647 20.752 20.8647 19.805 21.4059Z" stroke="white" stroke-miterlimit="10"/>
<g id="XMLID 42_2">
<g id="XMLID 45_2">
<path id="XMLID 48_2" d="M13.3121 58.9474L14.2591 58.4062C14.462 58.2709 14.5973 58.0004 14.5973 57.7974V52.7919C14.5973 52.5214 14.5297 52.1832 14.3267 51.9802L10.1329 54.3477L13.3121 58.9474Z" fill="#C8E2FF"/>
<path id="XMLID 46_2" d="M13.8513 51.2361L7.42529 47.5834C7.29 47.5158 7.01944 47.5158 6.81651 47.5834L5.80188 48.1922L10.131 54.4153L14.3924 51.9125C14.2571 51.642 14.0542 51.3714 13.8513 51.2361Z" fill="#A5CBFA"/>
</g>
<path id="XMLID 43_2" d="M6.41121 48.2599L12.7019 51.9126C13.1754 52.1832 13.5813 52.8596 13.5813 53.4007V58.4062C13.5813 58.9474 13.1754 59.1503 12.7019 58.8797L6.41121 55.2271C5.93771 54.9565 5.53186 54.2801 5.53186 53.739V48.7334C5.53186 48.1923 5.93771 47.9894 6.41121 48.2599Z" fill="#DCEEFF"/>
</g>
<g id="XMLID 34_2">
<g id="XMLID 37_2">
<path id="XMLID 40_2" d="M28.1239 56.3768L27.0416 55.7681C26.8387 55.6328 26.7034 55.3622 26.7034 55.1593V53.2653C26.7034 52.9947 26.771 52.6565 26.9739 52.4536L30.2884 54.3476L28.1239 56.3768Z" fill="#C8E2FF"/>
<path id="XMLID 38_2" d="M27.5141 51.7771L35.5635 47.1098C35.6987 47.0422 35.9693 47.0422 36.1722 47.1098L37.3222 47.7862L30.1521 54.2799L26.8376 52.3859C27.1082 52.1153 27.3111 51.9124 27.5141 51.7771Z" fill="#A5CBFA"/>
</g>
<path id="XMLID 35_2" d="M36.7134 47.8538L28.7316 52.4534C28.2581 52.724 27.8523 53.4004 27.8523 53.9415V55.8355C27.8523 56.3766 28.2581 56.5796 28.7316 56.309L36.7134 51.7094C37.1869 51.4388 37.5927 50.7624 37.5927 50.2212V48.3273C37.5927 47.7861 37.1869 47.5155 36.7134 47.8538Z" fill="#DCEEFF"/>
</g>
<g id="XMLID 26_2">
<g id="XMLID 29_2">
<path id="XMLID 32_2" d="M28.1239 65.2379L27.0416 64.5615C26.8387 64.4262 26.7034 64.1557 26.7034 63.9528V62.0588C26.7034 61.7882 26.771 61.45 26.9739 61.2471L30.2884 63.141L28.1239 65.2379Z" fill="#C8E2FF"/>
<path id="XMLID 30_2" d="M27.5166 60.5706L35.566 55.9033C35.7013 55.8356 35.9719 55.8356 36.1748 55.9033L37.3247 56.5797L30.1547 63.0733L26.9078 61.247C27.1108 60.9764 27.3137 60.7059 27.5166 60.5706Z" fill="#A5CBFA"/>
</g>
<path id="XMLID 27_2" d="M36.7134 56.6474L28.7316 61.2471C28.2581 61.5176 27.8523 62.194 27.8523 62.7352V64.6292C27.8523 65.1703 28.2581 65.3732 28.7316 65.1026L36.7134 60.503C37.1869 60.2324 37.5927 59.556 37.5927 59.0149V57.1209C37.5927 56.5798 37.1869 56.3768 36.7134 56.6474Z" fill="#DCEEFF"/>
</g>
<g id="XMLID 18_2">
<g id="XMLID 21_2">
<path id="XMLID 24_2" d="M28.1239 74.0316L27.0416 73.4229C26.8387 73.2876 26.7034 73.017 26.7034 72.8141V70.9201C26.7034 70.6495 26.771 70.3113 26.9739 70.1084L30.2884 72.0024L28.1239 74.0316Z" fill="#C8E2FF"/>
<path id="XMLID 22_2" d="M27.5166 69.4319L35.566 64.7646C35.7013 64.697 35.9719 64.697 36.1748 64.7646L37.3247 65.441L30.1547 71.9347L26.9078 70.0407C27.1108 69.7701 27.3137 69.5672 27.5166 69.4319Z" fill="#A5CBFA"/>
</g>
<path id="XMLID 19_2" d="M36.7134 65.4409L28.7316 70.0405C28.2581 70.3111 27.8523 70.9875 27.8523 71.5286V73.4226C27.8523 73.9638 28.2581 74.1667 28.7316 73.8961L36.7134 69.3641C37.1869 69.0935 37.5927 68.4171 37.5927 67.876V65.982C37.5927 65.4409 37.1869 65.1703 36.7134 65.4409Z" fill="#DCEEFF"/>
</g>
<g id="XMLID 10_2">
<g id="XMLID 13_2">
<path id="XMLID 16_2" d="M28.1239 82.8927L27.0416 82.2163C26.8387 82.081 26.7034 81.8105 26.7034 81.6075V79.7136C26.7034 79.443 26.771 79.1048 26.9739 78.9019L30.2884 80.7958L28.1239 82.8927Z" fill="#C8E2FF"/>
<path id="XMLID 14_2" d="M27.5166 78.2254L35.566 73.5581C35.7013 73.4904 35.9719 73.4904 36.1748 73.5581L37.3247 74.2345L30.1547 80.7281L26.9078 78.8341C27.1108 78.5636 27.3137 78.3606 27.5166 78.2254Z" fill="#A5CBFA"/>
</g>
<path id="XMLID 11_2" d="M36.7134 74.3022L28.7316 78.9018C28.2581 79.1724 27.8523 79.8488 27.8523 80.39V82.2839C27.8523 82.8251 28.2581 83.028 28.7316 82.7574L36.7134 78.1578C37.1869 77.8872 37.5927 77.2108 37.5927 76.6697V74.7757C37.5927 74.2345 37.1869 74.0316 36.7134 74.3022Z" fill="#DCEEFF"/>
</g>
<path id="XMLID 8_2" d="M29.0036 53.5357L30.0859 52.9269C30.1535 52.8593 30.2212 52.9269 30.2212 52.9946V54.2121C30.2212 54.2798 30.1535 54.4151 30.0859 54.4827L29.0036 55.0915C28.936 55.1591 28.8683 55.0915 28.8683 55.0238V53.8063C28.8683 53.7386 28.936 53.6034 29.0036 53.5357Z" fill="#FF3333"/>
<path id="XMLID 6_2" d="M29.0036 62.3971L30.0859 61.7883C30.1535 61.7206 30.2212 61.7883 30.2212 61.8559V63.0735C30.2212 63.1411 30.1535 63.2764 30.0859 63.344L29.0036 63.9528C28.936 64.0205 28.8683 63.9528 28.8683 63.8852V62.6C28.8683 62.5323 28.936 62.3971 29.0036 62.3971Z" fill="#FF3333"/>
<path id="XMLID 4_2" d="M29.0036 71.1905L30.0859 70.5817C30.1535 70.5141 30.2212 70.5817 30.2212 70.6494V71.8669C30.2212 71.9346 30.1535 72.0699 30.0859 72.1375L29.0036 72.7463C28.936 72.8139 28.8683 72.7463 28.8683 72.6786V71.4611C28.8683 71.3258 28.936 71.2581 29.0036 71.1905Z" fill="#FF3333"/>
<path id="XMLID 2_2" d="M29.0036 80.0516L30.0859 79.4428C30.1535 79.3752 30.2212 79.4428 30.2212 79.5105V80.728C30.2212 80.7957 30.1535 80.9309 30.0859 80.9986L29.0036 81.5397C28.936 81.6074 28.8683 81.5397 28.8683 81.4721V80.2545C28.8683 80.1869 28.936 80.0516 29.0036 80.0516Z" fill="#FF3333"/>
</g>
<g id="XMLID 5">
<path id="XMLID 39" d="M66.6485 47.5403C66.7766 48.5719 68.0581 52.9561 67.8018 54.568C67.5455 56.1154 63.1884 58.9523 63.1884 58.9523L62.6117 56.2444L64.4699 54.4391C64.7903 54.1167 64.9825 53.6009 64.9184 53.1496L64.3417 49.4745L66.6485 47.5403Z" fill="#FFA8A7"/>
<path id="XMLID 38_3" d="M64.406 52.8917L62.6119 44.8324C62.3556 41.8021 65.1108 42.1244 65.7516 43.156C66.3923 44.1876 67.6739 51.0864 67.7379 51.7311C67.9942 53.2785 67.9942 54.0522 67.8661 54.697C67.7379 55.3417 66.2001 57.147 63.2526 58.9523L62.6759 56.2444L64.406 52.8917Z" fill="#6A89CE"/>
<path id="XMLID 36" d="M63.9568 90.9963C63.9568 90.9963 64.0209 91.4476 64.149 92.0279C64.2772 92.4792 64.2772 93.0595 63.7645 93.2529C63.2519 93.4463 62.6753 93.3818 62.3549 92.9305C61.9704 92.3502 61.7141 91.7055 61.1374 91.1252C60.5608 90.6094 59.8559 90.0292 59.6637 89.191C59.4715 88.4173 59.5996 87.966 60.1122 87.9015C60.753 87.837 61.7782 88.3528 62.2908 88.7397C62.6112 89.062 63.9568 90.9963 63.9568 90.9963Z" fill="#2D2979"/>
<path id="XMLID 34_3" d="M57.0362 95.3805C57.0362 95.3805 57.1003 95.9608 57.1003 96.4766C57.1644 96.9279 57.2926 97.7016 57.1644 98.024C57.0362 98.3463 56.2673 98.6042 55.3062 98.6042C54.7295 98.6042 53.5762 99.0556 53.1917 99.4424C52.615 99.9582 51.2694 100.152 50.5005 99.8937C49.7316 99.6358 48.8346 99.3135 48.7064 98.9266C48.5783 98.5398 48.9627 98.4108 50.885 97.5082C52.8073 96.6055 54.2169 96.0252 54.9218 94.9937L57.0362 95.3805Z" fill="#2D2979"/>
<path id="XMLID 33" d="M64.4061 80.8092C64.0857 78.2947 63.5731 76.8118 63.5731 76.8118C63.5731 76.8118 63.8294 73.3302 63.9576 70.1065C64.0858 66.5604 64.278 62.1116 64.3421 61.2734L52.9366 63.8524C52.9366 63.8524 53.6414 77.5855 53.7696 79.3908C53.8977 81.1961 54.0259 83.7106 54.2181 85.9672C54.4744 88.8686 54.7307 95.3805 54.7307 95.3805C55.9481 96.0897 57.0374 95.8318 57.0374 95.8318C57.0374 95.8318 57.9986 87.7725 58.1908 85.7093C58.383 82.9369 57.6782 80.5513 57.6782 80.5513C57.6782 80.5513 57.9986 77.0052 58.2549 74.0394C58.5112 71.4604 58.8315 69.8486 58.8315 68.6235L59.0878 68.4946C59.0878 68.4946 59.3442 73.5881 59.4723 75.3289C59.6005 77.1342 59.8568 78.875 60.3694 82.1632C60.8179 85.0646 61.8431 91.0607 61.8431 91.0607C63.0605 91.7699 63.8935 91.1252 63.8935 91.1252C63.8935 91.1252 64.7265 83.3237 64.4061 80.8092Z" fill="#C4D9FF"/>
<path id="XMLID 32_3" d="M58.8944 68.4945C58.8944 68.4945 61.4574 67.1405 62.7389 65.9155C62.7389 65.9155 61.5215 67.7208 59.9837 68.559C59.9837 68.559 59.407 74.8775 59.407 74.7485L59.0866 68.559L58.8944 68.4945Z" fill="#AACAF9"/>
<path id="XMLID 31" d="M62.7401 42.4469C61.843 42.5114 61.2023 42.7048 61.1382 42.4469C61.0741 42.2535 60.9459 41.0929 60.9459 41.0929C61.0741 40.835 61.1382 40.5771 61.1382 40.5771C62.2275 39.9324 62.9964 38.7719 63.1245 37.3534C63.3808 34.9679 61.6508 32.9047 59.3441 32.6468C57.1655 32.3889 55.4995 34.0007 55.051 36.1284C54.7947 37.16 54.6025 39.2877 55.1151 41.1574C55.3714 42.189 55.6277 42.4469 56.0762 42.5759C56.2043 42.6403 57.2296 42.7048 57.5499 42.7048C57.5499 42.7048 57.6781 43.3496 57.7422 43.8009C57.8062 44.2522 57.8062 44.4456 56.9733 44.9614C56.1403 45.4772 58.2548 46.5088 59.6004 46.4443C60.9459 46.3154 62.4838 45.5417 62.9323 44.639C63.3808 43.6074 63.3167 42.3824 62.7401 42.4469Z" fill="#FFA8A7"/>
<path id="XMLID 30_3" d="M62.7398 42.447C61.8427 42.5114 61.202 42.7049 61.1379 42.447C61.0738 42.2535 60.9457 41.093 60.9457 41.093C61.0738 40.8351 61.1379 40.5772 61.1379 40.5772C61.5224 40.3193 61.8427 40.0614 62.1631 39.6746L59.2797 40.6417L58.4467 40.4483L58.1264 40.2548L57.9341 39.868C57.9341 39.9325 57.806 41.222 57.5497 41.6088C57.2934 42.0601 56.5245 42.5114 56.14 42.5759C56.14 42.5759 56.14 42.5759 56.2041 42.5759C56.3322 42.6404 57.3575 42.7049 57.6778 42.7049C57.6778 42.7049 57.806 43.3496 57.8701 43.8009C57.9341 44.1878 57.9341 44.3812 57.2934 44.8325L58.4467 45.7352L61.9709 45.6707C62.035 45.6062 62.1631 45.5417 62.2272 45.4773L63.2524 43.8654C63.3165 43.0917 63.1883 42.447 62.7398 42.447Z" fill="#F28F8F"/>
<path id="XMLID 29_3" d="M61.5854 40.7062C62.6746 39.7391 62.995 38.772 63.1232 37.3535C63.3795 34.968 61.6494 32.9048 59.3427 32.6469C57.8049 32.5179 56.5875 33.1627 55.8185 34.3232C55.8185 34.3232 55.9467 34.6456 56.203 34.9035C56.203 34.9035 56.0108 35.4193 56.3311 35.8706C56.5874 36.1285 56.5874 36.4509 56.5874 36.9022C56.5874 37.2891 56.5234 37.9983 56.5874 38.4496C56.6515 39.0943 57.3564 39.2233 57.3564 39.2233C57.3564 39.2233 57.4204 37.8049 57.4845 37.6759C57.7408 37.1601 58.6379 37.0312 58.9582 37.7404C59.2146 38.3206 59.0864 38.9009 58.8942 39.4812C58.7019 40.0615 58.1253 40.0615 57.869 39.868C57.869 40.1259 57.7408 41.0931 58.7019 41.4154C59.599 41.6733 60.4961 41.4154 60.9446 41.1575C61.2009 41.0286 61.5854 40.7062 61.5854 40.7062Z" fill="#543354"/>
<path id="XMLID 28" d="M56.2035 34.9034C56.2035 34.9034 55.1142 35.0324 54.089 33.8718C53.0637 32.7113 53.6404 31.6152 54.8579 32.131C56.0753 32.6468 58.1257 32.3244 59.1509 32.2599C60.1761 32.131 62.9314 32.7113 62.611 34.9679L56.2035 34.9034Z" fill="#543354"/>
<path id="XMLID 27_3" d="M61.522 42.576C61.7783 43.1563 61.1376 43.93 59.5357 44.4458C57.9338 44.9616 57.7416 44.3168 57.7416 44.3168C57.7416 44.3168 55.3708 45.4129 54.5378 45.9931C53.5767 46.7024 53.1281 48.7011 53 52.0538C52.8718 55.9222 52.5514 63.6592 52.6796 64.6263C52.6796 64.6263 53.7689 65.271 54.7941 63.7881C55.3708 64.7552 56.4601 65.5934 57.8697 65.9803C60.1764 66.6895 63.3802 65.7868 64.918 62.7565C64.918 59.3394 63.9569 56.5025 64.4695 54.5038C65.751 49.9906 66.3918 48.1853 65.751 45.155C65.2384 42.7049 64.5336 42.3826 63.5725 42.3826C62.6754 42.3826 61.522 42.576 61.522 42.576Z" fill="#7FA8E6"/>
<path id="XMLID 26_3" d="M61.0104 41.8665C61.0104 41.8665 61.1386 41.8021 61.3308 41.8665C61.523 41.9955 61.9715 42.4468 61.9715 42.4468C61.9715 42.4468 62.0997 43.4139 60.9463 44.1232C59.793 44.8324 58.3833 45.2192 56.9736 44.51C56.9736 44.51 57.2299 43.6074 57.3581 43.4139C57.4222 43.2205 57.6144 43.2205 57.6144 43.2205C57.6144 43.2205 57.9988 43.6718 59.3444 43.2205C60.7541 42.7692 61.0104 42.06 61.0104 42.06V41.8665Z" fill="#6A89CE"/>
<path id="XMLID 24_3" d="M49.2837 55.8577C51.206 56.3735 51.6545 55.1485 51.9108 54.1169C52.5516 51.6669 52.8719 49.4747 53.3205 48.0563C53.8331 46.4444 54.4098 46.1865 55.2427 45.8641C56.1398 45.4773 56.9728 46.251 56.6524 48.3787C56.268 50.8287 55.8194 52.5695 54.9224 55.4709C54.6661 56.2446 54.1535 57.5985 53.3205 58.2433C52.3593 59.0814 50.8215 59.017 48.5789 58.4367C47.6177 58.1788 46.5285 57.5985 44.7343 56.7603C44.2217 56.5024 43.8373 56.3735 42.9402 55.9222C41.9791 55.4709 41.0179 54.7616 40.5053 54.0524C39.9927 53.3432 39.9287 53.0208 40.0568 52.8274C40.185 52.634 40.3772 52.6984 40.6976 52.9563C40.9539 53.2787 41.3383 53.7945 42.1072 54.2458C42.1072 54.2458 41.5305 53.6011 41.1461 53.2142C40.8257 52.8274 40.5694 52.3761 40.4413 51.9892C40.249 51.6024 40.6335 51.0221 40.8898 51.28C41.1461 51.6024 41.2742 51.8603 41.7869 52.505C42.2354 53.0208 42.6839 53.3432 42.6839 53.3432C42.6839 53.3432 42.1713 52.634 41.8509 51.9892C41.5305 51.3445 41.5305 51.0221 41.5305 50.7642C41.5305 50.5708 41.8509 50.3129 42.1072 50.6997C42.3635 51.0866 42.5558 51.6669 43.1324 52.3116C43.581 52.7629 43.9654 53.0208 43.9654 52.8919C43.9654 52.7629 43.7091 52.505 43.5169 51.9892C43.3887 51.4734 43.5169 50.8932 43.8373 50.8287C44.1577 50.7642 44.0936 50.7642 44.2858 51.28C44.5421 51.7958 44.8625 52.1182 45.1829 52.8919C45.4392 53.5366 45.5673 53.7945 45.9518 54.2458C46.4644 54.8261 47.4896 55.3419 49.2837 55.8577Z" fill="#FFA8A7"/>
<path id="XMLID 23" d="M48.0658 55.4064L46.9765 54.8906C46.3357 55.1485 45.8231 56.2446 46.0153 57.4051L47.2969 57.9209L48.0658 55.4064Z" fill="#F5FBFB"/>
<path id="XMLID 21_3" d="M55.3702 45.4128C54.0887 45.5417 53.5761 45.9286 52.9353 48.701C52.3586 51.4734 51.9742 54.1813 51.4616 54.7616C51.013 55.3419 50.7567 56.2445 47.8733 55.1484C47.8733 55.1484 46.5277 55.6642 46.6559 57.9208C46.6559 57.9208 48.1937 58.5011 49.9237 58.888C51.6538 59.2103 53.2557 59.0814 54.345 56.8892C55.3702 54.6971 56.5235 50.3773 56.7158 48.6365C56.9721 46.8957 56.5235 45.2838 55.3702 45.4128Z" fill="#6A89CE"/>
<path id="XMLID 6_3" opacity="0.15" d="M49.5398 93.1886L54.9862 90.0293C58.7026 87.9017 63.8286 87.3859 66.4557 88.8688C69.0828 90.4162 68.1858 93.382 64.4694 95.5096L59.023 98.6689C55.3066 100.797 50.1805 101.312 47.5534 99.8294C44.9904 98.2821 45.8234 95.3162 49.5398 93.1886Z" fill="#6B99D1"/>
</g>
</g>
</svg>
