<svg width="101" height="141" viewBox="0 0 101 141" fill="none" xmlns="http://www.w3.org/2000/svg">
<g id="data" clip-path="url(#clip0_1246_18099)">
<g id="art">
<path id="Vector" d="M50.5 41.3783L15.2334 20.9744L50.4999 0.577628L85.7665 20.9815L50.5 41.3783Z" fill="white" stroke="#ECECEC"/>
<path id="Vector_2" d="M50.4999 122.478L14.2348 101.497L50.4999 80.5225L86.765 101.497L50.4999 122.478Z" fill="white"/>
<path id="Vector_3" d="M86.765 20.9817V101.497L50.4999 122.478V41.956L86.765 20.9817Z" fill="#F3F3F3"/>
<path id="Subtract" fill-rule="evenodd" clip-rule="evenodd" d="M50.4997 81.4972V122.478L86.7648 101.497V60.5156L50.4997 81.4972Z" fill="#FF3333"/>
<path id="Vector_4" d="M14.2348 20.9741V101.497L50.4999 122.478V41.9557L14.2348 20.9741Z" fill="#C7C7C7"/>
<path id="Subtract_2" fill-rule="evenodd" clip-rule="evenodd" d="M50.5002 81.5043L14.235 60.5227V101.497L50.5002 122.478V81.5043Z" fill="#FF3333"/>
<g id="Group" opacity="0.9">
<path id="Vector_5" opacity="0.95" d="M16.6905 26.3232V98.6955L48.044 116.832V44.4526L16.6905 26.3232Z" fill="white"/>
</g>
<g id="Group_2">
<path id="Vector_6" opacity="0.5" d="M50.4999 36.4399H40.9736L14.2348 20.9741L43.328 4.15112H50.4999V36.4399Z" fill="#A6A6A6"/>
</g>
<path id="Vector_7" d="M50.4998 34.5893L24.1884 19.3702L50.4998 4.15112L76.8184 19.3702L50.4998 34.5893Z" fill="#ECECEC"/>
<path id="Vector_8" d="M76.8186 19.3704V21.221L50.4999 36.4401V34.5894L76.8186 19.3704Z" fill="#F7F7F7"/>
<path id="Vector_9" d="M24.1884 19.3704V21.221L50.4998 36.4401V34.5894L24.1884 19.3704Z" fill="#A6A6A6"/>
<path id="Vector_10" d="M40.2926 19.6099L39.1262 18.9422L39.2276 18.3906L50.0362 12.0911L51.5358 12.8023L51.2605 13.274L40.2926 19.6099Z" fill="#494949"/>
<path id="Vector_11" d="M50.0944 12.5989L51.2607 13.2739L52.0069 12.8384L50.0944 11.728L38.3803 18.5066L39.1337 18.942L50.0944 12.5989Z" fill="#A6A6A6"/>
<path id="Vector_12" d="M43.8352 21.6564L42.6688 20.9815L42.763 20.4299L53.5715 14.1304L55.0711 14.8489L54.7958 15.3134L43.8352 21.6564Z" fill="#494949"/>
<path id="Vector_13" d="M53.6296 14.6386L54.796 15.3135L55.5494 14.878L53.6296 13.7749L41.9156 20.5462L42.669 20.9816L53.6296 14.6386Z" fill="#A6A6A6"/>
<path id="Vector_14" d="M47.3704 23.6958L46.2041 23.0208L46.2982 22.4692L57.114 16.1697L58.6136 16.8882L58.3311 17.3527L47.3704 23.6958Z" fill="#494949"/>
<path id="Vector_15" d="M57.1646 16.6779L58.3309 17.3528L59.0843 16.9174L57.1646 15.8142L45.4577 22.5855L46.2039 23.021L57.1646 16.6779Z" fill="#A6A6A6"/>
<path id="Vector_16" d="M50.9057 25.7353L49.7393 25.0604L49.8407 24.5088L60.6493 18.2092L62.1489 18.9277L61.8736 19.3922L50.9057 25.7353Z" fill="#494949"/>
<path id="Vector_17" d="M60.7071 18.7172L61.8734 19.3921L62.6196 18.9567L60.7071 17.8535L48.993 24.6248L49.7464 25.0603L60.7071 18.7172Z" fill="#A6A6A6"/>
<g id="Group_3" opacity="0.51">
<path id="Vector_18" d="M14.2348 88.7741L50.4999 66.8346V41.9557L14.2348 20.9741V88.7741Z" fill="white"/>
</g>
<path id="Vector_19" d="M49.0656 45.5775C49.038 45.0753 48.8924 44.5868 48.6406 44.1517C48.3888 43.7165 48.038 43.3472 47.6168 43.0736C47.4712 42.9665 47.2996 42.9005 47.1199 42.8826C46.9402 42.8647 46.759 42.8956 46.5953 42.972L45.5739 43.5744H46.2041C46.1959 43.6782 46.1959 43.7826 46.2041 43.8864C46.2323 44.3885 46.3782 44.8768 46.6299 45.3118C46.8816 45.7468 47.2321 46.1163 47.653 46.3903C47.7518 46.4469 47.8562 46.4932 47.9645 46.5282L47.6675 47.0798L48.6744 46.4919C48.813 46.3863 48.9218 46.2466 48.9904 46.0864C49.0589 45.9261 49.0849 45.7508 49.0656 45.5775Z" fill="url(#paint0_linear_1246_18099)"/>
<path id="Vector_20" d="M48.0658 46.1799C48.0658 47.1016 47.4138 47.4717 46.617 47.0145C46.1961 46.7405 45.8456 46.371 45.5939 45.936C45.3422 45.501 45.1963 45.0127 45.1681 44.5106C45.1681 43.5889 45.8128 43.2115 46.617 43.676C47.0382 43.9496 47.389 44.3189 47.6408 44.7541C47.8926 45.1892 48.0382 45.6777 48.0658 46.1799Z" fill="url(#paint1_linear_1246_18099)"/>
<path id="Vector_21" d="M47.421 45.8242C47.421 46.354 47.0515 46.55 46.5879 46.3032C46.3451 46.1444 46.1435 45.9299 45.9999 45.6775C45.8563 45.4251 45.7747 45.142 45.7621 44.8517C45.7621 44.3219 46.1315 44.126 46.5879 44.3727C46.8329 44.5299 47.0366 44.7438 47.1816 44.9965C47.3266 45.2491 47.4087 45.533 47.421 45.8242Z" fill="#3F38FC"/>
<path id="Vector_22" d="M18.6466 26.853C18.6184 26.351 18.4726 25.8626 18.2208 25.4276C17.9691 24.9926 17.6186 24.6231 17.1978 24.3491C17.0512 24.2495 16.8813 24.1898 16.7048 24.1758C16.5283 24.1618 16.3511 24.194 16.1908 24.2693L15.1693 24.8717H15.7996C15.7914 24.9755 15.7914 25.0799 15.7996 25.1838C15.8284 25.6857 15.9745 26.1738 16.2261 26.6087C16.4778 27.0436 16.828 27.4132 17.2485 27.6876C17.3448 27.7442 17.4468 27.7904 17.5527 27.8255L17.263 28.3771L18.2627 27.7892C18.4033 27.6809 18.5129 27.5372 18.5803 27.3728C18.6478 27.2084 18.6706 27.0291 18.6466 26.853Z" fill="url(#paint2_linear_1246_18099)"/>
<path id="Vector_23" d="M17.6397 27.4555C17.6397 28.3772 16.995 28.7546 16.1909 28.2901C15.7692 28.017 15.4181 27.6477 15.1663 27.2125C14.9144 26.7773 14.7691 26.2885 14.742 25.7862C14.742 24.8645 15.3867 24.4944 16.1909 24.9516C16.6117 25.2256 16.9622 25.5951 17.2139 26.0301C17.4657 26.4651 17.6115 26.9534 17.6397 27.4555Z" fill="url(#paint3_linear_1246_18099)"/>
<path id="Vector_24" d="M17.0023 27.0999C17.0023 27.6297 16.6328 27.8256 16.1764 27.5789C15.9314 27.4218 15.7277 27.2078 15.5827 26.9552C15.4377 26.7025 15.3556 26.4186 15.3433 26.1274C15.3433 25.5976 15.7128 25.4016 16.1764 25.6484C16.4193 25.8072 16.6208 26.0217 16.7644 26.2741C16.9081 26.5265 16.9896 26.8096 17.0023 27.0999Z" fill="#3F38FC"/>
<path id="Vector_25" d="M49.0656 117.688C49.0369 117.186 48.8907 116.698 48.6391 116.263C48.3874 115.829 48.0372 115.459 47.6168 115.185C47.4716 115.076 47.2994 115.01 47.1193 114.994C46.9391 114.977 46.7578 115.01 46.5953 115.09L45.5739 115.685H46.2041C46.1963 115.789 46.1963 115.894 46.2041 115.997C46.2312 116.5 46.3766 116.988 46.6284 117.424C46.8802 117.859 47.2313 118.228 47.653 118.501C47.7502 118.561 47.855 118.607 47.9645 118.639L47.6675 119.191L48.6744 118.61C48.8125 118.502 48.9209 118.361 48.9893 118.2C49.0578 118.039 49.084 117.863 49.0656 117.688Z" fill="url(#paint4_linear_1246_18099)"/>
<path id="Vector_26" d="M48.0658 118.291C48.0658 119.213 47.4138 119.59 46.617 119.126C46.1953 118.852 45.8442 118.483 45.5924 118.048C45.3405 117.613 45.1951 117.124 45.1681 116.622C45.1681 115.7 45.8128 115.33 46.617 115.787C47.0374 116.062 47.3876 116.431 47.6393 116.866C47.8909 117.301 48.0371 117.789 48.0658 118.291Z" fill="url(#paint5_linear_1246_18099)"/>
<path id="Vector_27" d="M47.421 117.935C47.421 118.472 47.0515 118.661 46.5879 118.421C46.3463 118.261 46.1456 118.046 46.0022 117.794C45.8587 117.542 45.7765 117.26 45.7621 116.97C45.7621 116.44 46.1315 116.244 46.5879 116.491C46.8311 116.648 47.0335 116.861 47.1784 117.112C47.3232 117.363 47.4064 117.645 47.421 117.935Z" fill="#3F38FC"/>
<path id="Vector_28" d="M18.6468 98.964C18.6186 98.4619 18.4727 97.9736 18.221 97.5386C17.9692 97.1036 17.6187 96.7341 17.1979 96.4601C17.0503 96.3542 16.8771 96.2896 16.6963 96.2731C16.5155 96.2565 16.3336 96.2885 16.1692 96.3658L15.1477 96.9609H15.778C15.7705 97.0648 15.7705 97.1691 15.778 97.273C15.8056 97.7751 15.9513 98.2637 16.203 98.6988C16.4548 99.1339 16.8056 99.5032 17.2269 99.7768C17.323 99.8355 17.425 99.8841 17.5311 99.922L17.2414 100.474L18.2411 99.8857C18.3818 99.7797 18.493 99.6392 18.564 99.4779C18.635 99.3165 18.6635 99.1395 18.6468 98.964Z" fill="url(#paint6_linear_1246_18099)"/>
<path id="Vector_29" d="M17.6397 99.5663C17.6397 100.495 16.995 100.865 16.1909 100.401C15.7688 100.128 15.4174 99.7591 15.1655 99.3238C14.9136 98.8885 14.7685 98.3995 14.742 97.8971C14.742 96.9754 15.3867 96.6052 16.1909 97.0625C16.6117 97.3365 16.9622 97.7059 17.2139 98.141C17.4657 98.576 17.6115 99.0643 17.6397 99.5663Z" fill="url(#paint7_linear_1246_18099)"/>
<path id="Vector_30" d="M17.0023 99.2178C17.0023 99.7476 16.6328 99.9435 16.1764 99.6968C15.933 99.5379 15.7307 99.3235 15.5859 99.0713C15.4411 98.819 15.3579 98.5359 15.3433 98.2453C15.3433 97.7155 15.7128 97.5195 16.1764 97.7663C16.418 97.9264 16.6187 98.1412 16.7621 98.3934C16.9056 98.6455 16.9878 98.9279 17.0023 99.2178Z" fill="#3F38FC"/>
<path id="Vector_31" d="M81.3319 40.4319V42.5583L55.9405 57.2476V55.1139L81.3319 40.4319Z" fill="#494949"/>
<path id="Vector_32" d="M81.3319 49.4312V51.5576L55.9405 66.2469V64.1132L81.3319 49.4312Z" fill="#494949"/>
<path id="Vector_33" d="M81.3319 58.4304V60.5569L55.9405 75.2462V73.1124L81.3319 58.4304Z" fill="#494949"/>
<path id="Vector_34" d="M81.3319 67.4299V69.5564L55.9405 84.2457V82.1119L81.3319 67.4299Z" fill="white"/>
<path id="Vector_35" d="M81.3319 76.4292V78.5557L55.9405 93.2377V91.1112L81.3319 76.4292Z" fill="white"/>
<path id="Vector_36" d="M81.3319 85.4285V87.5549L55.9405 102.244V100.11L81.3319 85.4285Z" fill="white"/>
<g id="Group 1994">
<path id="Vector_37" d="M27.9991 53.5461L21.2039 49.6198V48.1248L27.9991 52.0511V53.5461Z" fill="#FF3333"/>
<path id="Vector_38" d="M31.4835 55.5636L29.0421 54.1484V52.6533L31.4835 54.0685V55.5636Z" fill="#FF3333"/>
<path id="Vector_39" d="M34.1854 57.1315L32.5264 56.1662V54.6711L34.1854 55.6364V57.1315Z" fill="#FF3333"/>
<path id="Vector_40" d="M24.9055 55.1789L21.2037 53.038V51.5356L24.9055 53.6839V55.1789Z" fill="#FF3333"/>
<path id="Vector_41" d="M30.4834 58.4013L25.9485 55.7741V54.2791L30.4834 56.9063V58.4013Z" fill="#FF3333"/>
<path id="Vector_42" d="M33.1856 59.9693L31.5194 59.0041V57.509L33.1856 58.467V59.9693Z" fill="#FF3333"/>
<path id="Vector_43" d="M35.7574 61.4496L34.0912 60.4916V58.9966L35.7574 59.9546V61.4496Z" fill="#FF3333"/>
<path id="Vector_44" d="M23.8841 58.0025L21.2037 56.4494V54.9543L23.8841 56.5075V58.0025Z" fill="#FF3333"/>
<path id="Vector_45" d="M25.8398 59.1272L24.9198 58.6047V57.1096L25.8398 57.6394V59.1272Z" fill="#FF3333"/>
<path id="Vector_46" d="M28.5418 60.6949L26.8756 59.7297V58.2346L28.5418 59.1999V60.6949Z" fill="#FF3333"/>
<path id="Vector_47" d="M31.0922 65.5863L21.2037 59.8674V58.3723L31.0922 64.0913V65.5863Z" fill="#FF3333"/>
<path id="Vector_48" d="M34.5839 67.6041L32.1353 66.1889V64.6938L34.5839 66.1091V67.6041Z" fill="#FF3333"/>
<path id="Vector_49" d="M23.8841 64.8317L21.2037 63.2858V61.7908L23.8841 63.3366V64.8317Z" fill="#FF3333"/>
<path id="Vector_50" d="M30.1719 68.4677L24.9198 65.434V63.939L30.1719 66.9726V68.4677Z" fill="#FF3333"/>
<path id="Vector_51" d="M32.874 70.035L31.2078 69.0698V67.5747L32.874 68.54V70.035Z" fill="#FF3333"/>
<path id="Vector_52" d="M26.6876 69.8683L21.2037 66.6967V65.2017L26.6876 68.3732V69.8683Z" fill="#FF3333"/>
<path id="Vector_53" d="M31.6933 72.7643L27.7234 70.4709V68.9758L31.6933 71.2692V72.7643Z" fill="#FF3333"/>
<path id="Vector_54" d="M35.4097 74.9123L32.7293 73.3664V71.8713L35.4097 73.4245V74.9123Z" fill="#FF3333"/>
<path id="Vector_55" d="M23.0582 71.189L21.2037 70.1149V68.6199L23.0582 69.694V71.189Z" fill="#FF3333"/>
<path id="Vector_56" d="M26.5426 73.2068L24.0941 71.7916V70.2893L26.5426 71.7118V73.2068Z" fill="#FF3333"/>
<path id="Vector_57" d="M31.5193 76.0878L27.5784 73.8017V72.3066L31.5193 74.5928V76.0878Z" fill="#FF3333"/>
<path id="Vector_58" d="M26.876 76.8138L21.2037 73.5334V72.0383L26.876 75.3187V76.8138Z" fill="#FF3333"/>
<path id="Vector_59" d="M33.229 80.4859L27.9116 77.416V75.9209L33.229 78.9908V80.4859Z" fill="#FF3333"/>
<path id="Vector_60" d="M35.9313 82.0536L34.2651 81.0883V79.5933L35.9313 80.5585V82.0536Z" fill="#FF3333"/>
<path id="Vector_61" d="M38.5247 83.549L36.8586 82.591V81.0959L38.5247 82.0539V83.549Z" fill="#FF3333"/>
<path id="Vector_62" d="M24.6013 78.9114L21.2037 76.9518V75.4568L24.6013 77.4163V78.9114Z" fill="#FF3333"/>
<path id="Vector_63" d="M38.8144 59.8092L43.5305 62.5308V61.0357L38.8144 58.3069V59.8092Z" fill="#FF3333"/>
<path id="Vector_64" d="M39.8288 63.808L43.5306 65.949V64.454L39.8288 62.313V63.808Z" fill="#FF3333"/>
<path id="Vector_65" d="M40.8501 67.8144L43.5305 69.3675V67.8725L40.8501 66.3193V67.8144Z" fill="#FF3333"/>
<path id="Vector_66" d="M39.6332 70.5287L43.5307 72.7786V71.2835L39.6332 69.0337V70.5287Z" fill="#FF3333"/>
<path id="Vector_67" d="M40.8501 74.651L43.5305 76.1968V74.7018L40.8501 73.1487V74.651Z" fill="#FF3333"/>
<path id="Vector_68" d="M40.1331 77.6484L43.5306 79.6152V78.1201L40.1331 76.1533V77.6484Z" fill="#FF3333"/>
<path id="Vector_69" d="M41.6758 81.9594L43.5304 83.0335V81.5312L41.6758 80.4644V81.9594Z" fill="#FF3333"/>
<path id="Vector_70" d="M39.9445 84.3688L43.5304 86.4445V84.9494L39.9445 82.8738V84.3688Z" fill="#FF3333"/>
<path id="Vector_71" d="M40.1331 87.8959L43.5306 89.8627V88.3677L40.1331 86.4009V87.8959Z" fill="#FF3333"/>
<path id="Vector_72" d="M27.0857 80.3482L25.6368 79.5136V78.0186L27.0857 78.8532V80.3482Z" fill="#FF3333"/>
<path id="Vector_73" d="M31.3745 82.8376L28.1218 80.9506V79.4556L31.3745 81.3353V82.8376Z" fill="#FF3333"/>
<path id="Vector_74" d="M34.0693 94.326L28.5781 91.1472V89.6521L34.0693 92.8309V94.326Z" fill="#FF3333"/>
<path id="Vector_75" d="M37.8294 96.5038L35.6706 95.2482V93.7532L37.8294 95.0087V96.5038Z" fill="#FF3333"/>
</g>
<path id="Subtract_3" opacity="0.6" fill-rule="evenodd" clip-rule="evenodd" d="M29.6482 110.415L50.4999 122.479L71.3517 110.415L81.2304 116.128L50.5 133.902L19.7695 116.128L29.6482 110.415Z" fill="#494949"/>
<path id="Subtract_4" fill-rule="evenodd" clip-rule="evenodd" d="M23.6707 106.956L23.0803 106.615L9.22904 114.626C8.96746 114.779 8.7504 114.997 8.59956 115.26C8.44871 115.523 8.36932 115.821 8.36932 116.124C8.36932 116.428 8.44871 116.726 8.59956 116.989C8.7504 117.252 8.96746 117.47 9.22904 117.623L48.9062 140.579C49.3922 140.855 49.9413 141 50.5 141C51.0586 141 51.6077 140.855 52.0937 140.579L91.7709 117.63C92.0324 117.477 92.2492 117.257 92.3998 116.994C92.5505 116.73 92.6297 116.432 92.6297 116.128C92.6297 115.824 92.5505 115.526 92.3998 115.263C92.2492 114.999 92.0324 114.779 91.7709 114.626L77.9196 106.615L77.3257 106.958L91.4739 115.141C91.6469 115.241 91.7906 115.385 91.8905 115.558C91.9904 115.731 92.043 115.928 92.043 116.128C92.043 116.328 91.9904 116.525 91.8905 116.698C91.7906 116.871 91.6469 117.015 91.4739 117.115L51.804 140.064C51.4061 140.289 50.9569 140.407 50.5 140.407C50.043 140.407 49.5939 140.289 49.196 140.064L9.52603 117.115C9.35302 117.015 9.20933 116.871 9.10943 116.698C9.00953 116.525 8.95693 116.328 8.95693 116.128C8.95693 115.928 9.00953 115.731 9.10943 115.558C9.20933 115.385 9.35302 115.241 9.52603 115.141L23.6707 106.956Z" fill="#FF3333"/>
</g>
</g>
<defs>
<linearGradient id="paint0_linear_1246_18099" x1="45.5739" y1="44.9896" x2="49.0656" y2="44.9896" gradientUnits="userSpaceOnUse">
<stop stop-color="#C0D6FF"/>
<stop offset="0.3" stop-color="#C5DBFF"/>
<stop offset="0.65" stop-color="#D3E9FF"/>
<stop offset="1" stop-color="#E9FFFF"/>
</linearGradient>
<linearGradient id="paint1_linear_1246_18099" x1="45.1464" y1="45.3452" x2="48.0368" y2="45.3452" gradientUnits="userSpaceOnUse">
<stop stop-color="#5778FF"/>
<stop offset="0.18" stop-color="#5C7DFF"/>
<stop offset="0.39" stop-color="#6A8AFF"/>
<stop offset="0.61" stop-color="#82A0FF"/>
<stop offset="0.85" stop-color="#A3BEFF"/>
<stop offset="1" stop-color="#BCD5FF"/>
</linearGradient>
<linearGradient id="paint2_linear_1246_18099" x1="15.1549" y1="26.2651" x2="18.6466" y2="26.2651" gradientUnits="userSpaceOnUse">
<stop stop-color="#C0D6FF"/>
<stop offset="0.3" stop-color="#C5DBFF"/>
<stop offset="0.65" stop-color="#D3E9FF"/>
<stop offset="1" stop-color="#E9FFFF"/>
</linearGradient>
<linearGradient id="paint3_linear_1246_18099" x1="14.7348" y1="26.6209" x2="17.618" y2="26.6209" gradientUnits="userSpaceOnUse">
<stop stop-color="#5778FF"/>
<stop offset="0.18" stop-color="#5C7DFF"/>
<stop offset="0.39" stop-color="#6A8AFF"/>
<stop offset="0.61" stop-color="#82A0FF"/>
<stop offset="0.85" stop-color="#A3BEFF"/>
<stop offset="1" stop-color="#BCD5FF"/>
</linearGradient>
<linearGradient id="paint4_linear_1246_18099" x1="45.5739" y1="117.101" x2="49.0656" y2="117.101" gradientUnits="userSpaceOnUse">
<stop stop-color="#C0D6FF"/>
<stop offset="0.3" stop-color="#C5DBFF"/>
<stop offset="0.65" stop-color="#D3E9FF"/>
<stop offset="1" stop-color="#E9FFFF"/>
</linearGradient>
<linearGradient id="paint5_linear_1246_18099" x1="45.1464" y1="117.456" x2="48.0368" y2="117.456" gradientUnits="userSpaceOnUse">
<stop stop-color="#5778FF"/>
<stop offset="0.18" stop-color="#5C7DFF"/>
<stop offset="0.39" stop-color="#6A8AFF"/>
<stop offset="0.61" stop-color="#82A0FF"/>
<stop offset="0.85" stop-color="#A3BEFF"/>
<stop offset="1" stop-color="#BCD5FF"/>
</linearGradient>
<linearGradient id="paint6_linear_1246_18099" x1="15.155" y1="98.3761" x2="18.6468" y2="98.3761" gradientUnits="userSpaceOnUse">
<stop stop-color="#C0D6FF"/>
<stop offset="0.3" stop-color="#C5DBFF"/>
<stop offset="0.65" stop-color="#D3E9FF"/>
<stop offset="1" stop-color="#E9FFFF"/>
</linearGradient>
<linearGradient id="paint7_linear_1246_18099" x1="14.7348" y1="98.7317" x2="17.618" y2="98.7317" gradientUnits="userSpaceOnUse">
<stop stop-color="#5778FF"/>
<stop offset="0.18" stop-color="#5C7DFF"/>
<stop offset="0.39" stop-color="#6A8AFF"/>
<stop offset="0.61" stop-color="#82A0FF"/>
<stop offset="0.85" stop-color="#A3BEFF"/>
<stop offset="1" stop-color="#BCD5FF"/>
</linearGradient>
<clipPath id="clip0_1246_18099">
<rect width="101" height="141" fill="white"/>
</clipPath>
</defs>
</svg>
