<svg width="101" height="141" viewBox="0 0 101 141" fill="none" xmlns="http://www.w3.org/2000/svg">
<path d="M50.1308 133.649L19.4004 115.875L50.1308 98.1016L80.8613 115.875L50.1308 133.649Z" fill="#344593"/>
<path d="M50.1306 140.747C49.572 140.747 49.0229 140.602 48.5369 140.326L8.85971 117.37C8.59813 117.218 8.38108 116.999 8.23023 116.736C8.07938 116.473 8 116.175 8 115.872C8 115.568 8.07938 115.27 8.23023 115.007C8.38108 114.744 8.59813 114.526 8.85971 114.373L48.5369 91.4245C49.0222 91.1463 49.5716 91 50.1306 91C50.6897 91 51.2391 91.1463 51.7244 91.4245L91.4016 114.373C91.6631 114.527 91.8799 114.746 92.0305 115.01C92.1811 115.273 92.2604 115.571 92.2604 115.875C92.2604 116.179 92.1811 116.477 92.0305 116.741C91.8799 117.004 91.6631 117.224 91.4016 117.377L51.7244 140.326C51.2384 140.602 50.6893 140.747 50.1306 140.747ZM50.1306 91.5914C49.6742 91.5926 49.2255 91.71 48.8267 91.9325L9.15671 114.888C8.98369 114.988 8.84001 115.132 8.74011 115.305C8.6402 115.478 8.58761 115.675 8.58761 115.875C8.58761 116.075 8.6402 116.272 8.74011 116.445C8.84001 116.618 8.98369 116.762 9.15671 116.862L48.8267 139.811C49.2245 140.036 49.6737 140.154 50.1306 140.154C50.5876 140.154 51.0368 140.036 51.4346 139.811L91.1046 116.862C91.2776 116.762 91.4213 116.618 91.5212 116.445C91.6211 116.272 91.6737 116.075 91.6737 115.875C91.6737 115.675 91.6211 115.478 91.5212 115.305C91.4213 115.132 91.2776 114.988 91.1046 114.888L51.4274 91.9398C51.0334 91.711 50.586 91.5908 50.1306 91.5914Z" fill="#FF3333"/>
<path d="M38.5925 68.176C38 67.8303 37.062 67.8303 36.4695 68.176L3.38992 87.3819C2.79744 87.7275 2.79744 88.2706 3.38992 88.6162L59.2796 120.906C59.872 121.251 60.8101 121.251 61.4026 120.906L94.4822 101.7C95.0746 101.354 95.0746 100.811 94.4822 100.466L38.5925 68.176Z" fill="#CDDCFB"/>
<path d="M37.1609 74.3975C37.3091 74.4962 37.5066 74.4962 37.6547 74.3975L39.9752 73.0644C40.1233 72.9657 40.1233 72.8669 39.9752 72.7682L37.6547 71.4351C37.5066 71.3364 37.3091 71.3364 37.1609 71.4351L34.8404 72.7682C34.6923 72.8669 34.6923 72.9657 34.8404 73.0644L37.1609 74.3975ZM38.1978 74.99C38.0497 74.8912 38.0497 74.7925 38.1978 74.6937L40.5183 73.3607C40.6664 73.2619 40.8639 73.2619 41.012 73.3607L43.3325 74.6937C43.4806 74.7925 43.4806 74.8912 43.3325 74.99L41.012 76.323C40.8639 76.4218 40.6664 76.4218 40.5183 76.323L38.1978 74.99ZM41.5551 76.9155C41.407 76.8167 41.407 76.718 41.5551 76.6193L43.8756 75.2862C44.0237 75.1875 44.2212 75.1875 44.3693 75.2862L46.6898 76.6193C46.838 76.718 46.838 76.8167 46.6898 76.9155L44.3693 78.2485C44.2212 78.3473 44.0237 78.3473 43.8756 78.2485L41.5551 76.9155ZM28.2245 76.9155C28.0764 76.8167 28.0764 76.718 28.2245 76.6193L30.545 75.2862C30.6931 75.1875 30.8906 75.1875 31.0388 75.2862L33.3593 76.6193C33.5074 76.718 33.5074 76.8167 33.3593 76.9155L31.0388 78.2485C30.8906 78.3473 30.6931 78.3473 30.545 78.2485L28.2245 76.9155ZM39.284 79.4829L36.9635 78.1498C36.8153 78.0511 36.8153 77.9523 36.9635 77.8536L39.284 76.5205C39.4321 76.4218 39.6296 76.4218 39.7777 76.5205L42.0982 77.8536C42.2463 77.9523 42.2463 78.0511 42.0982 78.1498L39.7777 79.4829C39.6789 79.5816 39.4321 79.5816 39.284 79.4829ZM33.853 77.2117C34.0011 77.113 34.1986 77.113 34.3467 77.2117L36.6672 78.5448C36.8153 78.6435 36.8153 78.7423 36.6672 78.841L34.3467 80.1741C34.1986 80.2728 34.0011 80.2728 33.853 80.1741L31.5325 78.841C31.3844 78.7423 31.3844 78.6435 31.5325 78.5448L33.853 77.2117ZM48.2204 80.7665C48.0723 80.6678 48.0723 80.5691 48.2204 80.4703L50.5409 79.1373C50.689 79.0385 50.8865 79.0385 51.0346 79.1373L53.3551 80.4703C53.5032 80.5691 53.5032 80.6678 53.3551 80.7665L51.0346 82.0996C50.8865 82.1983 50.689 82.1983 50.5409 82.0996L48.2204 80.7665ZM45.9986 83.3339L43.6781 82.0009C43.53 81.9021 43.53 81.8034 43.6781 81.7046L45.9986 80.3716C46.1467 80.2728 46.3442 80.2728 46.4923 80.3716L48.8129 81.7046C48.961 81.8034 48.961 81.9021 48.8129 82.0009L46.4923 83.3339C46.3442 83.4327 46.1467 83.4327 45.9986 83.3339ZM51.5777 82.6921C51.4296 82.5933 51.4296 82.4946 51.5777 82.3958L53.8982 81.0628C54.0463 80.964 54.2438 80.964 54.3919 81.0628L56.7125 82.3958C56.8606 82.4946 56.8606 82.5933 56.7125 82.6921L54.3919 84.0251C54.2438 84.1239 54.0463 84.1239 53.8982 84.0251L51.5777 82.6921ZM41.0614 84.0745C40.9132 84.1732 40.7158 84.1732 40.5676 84.0745L38.2471 82.7414C38.099 82.6427 38.099 82.5439 38.2471 82.4452L40.5676 81.1122C40.7158 81.0134 40.9132 81.0134 41.0614 81.1122L43.3819 82.4452C43.53 82.5439 43.53 82.6427 43.3819 82.7414L41.0614 84.0745ZM23.8304 82.6921C23.9785 82.7908 23.9785 82.8896 23.8304 82.9883L21.5592 84.3214C21.4111 84.4201 21.2136 84.4201 21.0655 84.3214L18.3006 82.7414C18.1525 82.6427 18.1525 82.5439 18.3006 82.4452L20.5718 81.1122C20.7199 81.0134 20.9174 81.0134 21.0655 81.1122L23.8304 82.6921ZM52.1208 83.6302C52.2689 83.7289 52.2689 83.8276 52.1208 83.9264L49.8003 85.2594C49.6522 85.3582 49.4547 85.3582 49.3066 85.2594L46.9861 83.9264C46.838 83.8276 46.838 83.7289 46.9861 83.6302L49.3066 82.2971C49.4547 82.1983 49.6522 82.1983 49.8003 82.2971L52.1208 83.6302ZM54.8857 84.6176C54.7375 84.5189 54.7375 84.4201 54.8857 84.3214L57.2062 82.9883C57.3543 82.8896 57.5518 82.8896 57.6999 82.9883L60.0204 84.3214C60.1685 84.4201 60.1685 84.5189 60.0204 84.6176L57.6999 85.9507C57.5518 86.0494 57.3543 86.0494 57.2062 85.9507L54.8857 84.6176ZM44.4187 86C44.2706 86.0988 44.0731 86.0988 43.925 86L41.6045 84.667C41.4564 84.5682 41.4564 84.4695 41.6045 84.3707L43.925 83.0377C44.0731 82.9389 44.2706 82.9389 44.4187 83.0377L46.7392 84.3707C46.8873 84.4695 46.8873 84.5682 46.7392 84.667L44.4187 86ZM26.1015 85.8519C26.2496 85.9507 26.2496 86.0494 26.1015 86.1481L25.4103 86.5431C25.2622 86.6419 25.0647 86.6419 24.9166 86.5431L22.1517 84.9632C22.0036 84.8645 22.0036 84.7657 22.1517 84.667L22.8429 84.272C22.991 84.1732 23.1885 84.1732 23.3366 84.272L26.1015 85.8519ZM55.4781 85.5557C55.6263 85.6544 55.6263 85.7532 55.4781 85.8519L53.1576 87.185C53.0095 87.2837 52.812 87.2837 52.6639 87.185L50.3434 85.8519C50.1953 85.7532 50.1953 85.6544 50.3434 85.5557L52.6639 84.2226C52.812 84.1239 53.0095 84.1239 53.1576 84.2226L55.4781 85.5557ZM47.2329 84.9138C47.381 84.8151 47.5785 84.8151 47.7267 84.9138L50.0472 86.2469C50.1953 86.3456 50.1953 86.4444 50.0472 86.5431L47.7267 87.8762C47.5785 87.9749 47.381 87.9749 47.2329 87.8762L44.9124 86.5431C44.7643 86.4444 44.7643 86.3456 44.9124 86.2469L47.2329 84.9138ZM31.4831 87.1356C31.6312 87.2343 31.6312 87.3331 31.4831 87.4318L29.212 88.7649C29.0639 88.8636 28.8664 88.8636 28.7182 88.7649L25.9534 87.185C25.8053 87.0862 25.8053 86.9875 25.9534 86.8887L28.2245 85.5557C28.3726 85.4569 28.5701 85.4569 28.7182 85.5557L31.4831 87.1356ZM58.8355 87.4812C58.9836 87.5799 58.9836 87.6787 58.8355 87.7774L56.515 89.1105C56.3668 89.2092 56.1694 89.2092 56.0212 89.1105L53.7007 87.7774C53.5526 87.6787 53.5526 87.5799 53.7007 87.4812L56.0212 86.1481C56.1694 86.0494 56.3668 86.0494 56.515 86.1481L58.8355 87.4812ZM40.9133 88.123C40.7651 88.0243 40.7651 87.9256 40.9133 87.8268L43.2338 86.4938C43.3819 86.395 43.5794 86.395 43.7275 86.4938L46.048 87.8268C46.1961 87.9256 46.1961 88.0243 46.048 88.123L43.7275 89.4561C43.5794 89.5548 43.3819 89.5548 43.2338 89.4561L40.9133 88.123ZM61.6003 88.518C61.4522 88.4193 61.4522 88.3205 61.6003 88.2218L63.9208 86.8887C64.069 86.79 64.2664 86.79 64.4146 86.8887L66.7351 88.2218C66.8832 88.3205 66.8832 88.4193 66.7351 88.518L64.4146 89.8511C64.2664 89.9498 64.069 89.9498 63.9208 89.8511L61.6003 88.518ZM62.1928 89.4067C62.3409 89.5055 62.3409 89.6042 62.1928 89.703L59.8723 91.036C59.7242 91.1348 59.5267 91.1348 59.3786 91.036L57.0581 89.703C56.9099 89.6042 56.9099 89.5055 57.0581 89.4067L59.3786 88.0737C59.5267 87.9749 59.7242 87.9749 59.8723 88.0737L62.1928 89.4067ZM47.0848 91.3816C46.9367 91.4804 46.7392 91.4804 46.5911 91.3816L44.2706 90.0486C44.1225 89.9498 44.1225 89.8511 44.2706 89.7523L46.5911 88.4193C46.7392 88.3205 46.9367 88.3205 47.0848 88.4193L49.4053 89.7523C49.5534 89.8511 49.5534 89.9498 49.4053 90.0486L47.0848 91.3816ZM64.9083 90.4436C64.7602 90.3448 64.7602 90.2461 64.9083 90.1473L67.2288 88.8143C67.3769 88.7155 67.5744 88.7155 67.7225 88.8143L70.043 90.1473C70.1911 90.2461 70.1911 90.3448 70.043 90.4436L67.7225 91.7766C67.5744 91.8754 67.3769 91.8754 67.2288 91.7766L64.9083 90.4436ZM53.8982 88.7649C54.0463 88.6661 54.2438 88.6661 54.3919 88.7649L56.7125 90.0979C56.8606 90.1967 56.8606 90.2954 56.7125 90.3942L54.3919 91.7272C54.2438 91.826 54.0463 91.826 53.8982 91.7272L51.5777 90.3942C51.4296 90.2954 51.4296 90.1967 51.5777 90.0979L53.8982 88.7649ZM65.5008 91.3323C65.6489 91.431 65.6489 91.5297 65.5008 91.6285L63.1802 92.9616C63.0321 93.0603 62.8346 93.0603 62.6865 92.9616L60.366 91.6285C60.2179 91.5297 60.2179 91.431 60.366 91.3323L62.6865 89.9992C62.8346 89.9005 63.0321 89.9005 63.1802 89.9992L65.5008 91.3323ZM38.889 91.3816C39.0371 91.4804 39.0371 91.5791 38.889 91.6779L36.5685 93.0109C36.4204 93.1097 36.2229 93.1097 36.0748 93.0109L33.063 91.2829C32.9149 91.1841 32.9149 91.0854 33.063 90.9867L35.3835 89.6536C35.5317 89.5548 35.7291 89.5548 35.8773 89.6536L38.889 91.3816ZM57.2555 90.7398C57.4037 90.641 57.6012 90.641 57.7493 90.7398L60.0698 92.0728C60.2179 92.1716 60.2179 92.2703 60.0698 92.3691L57.7493 93.7021C57.6012 93.8009 57.4037 93.8009 57.2555 93.7021L54.935 92.3691C54.7869 92.2703 54.7869 92.1716 54.935 92.0728L57.2555 90.7398ZM42.5919 92.9122C42.4438 92.8134 42.4438 92.7147 42.5919 92.6159L44.9124 91.2829C45.0605 91.1841 45.258 91.1841 45.4062 91.2829L47.7267 92.6159C47.8748 92.7147 47.8748 92.8134 47.7267 92.9122L45.4062 94.2452C45.258 94.344 45.0112 94.344 44.9124 94.2452L42.5919 92.9122ZM68.8581 93.2578C69.0062 93.3565 69.0062 93.4553 68.8581 93.554L66.5376 94.8871C66.3895 94.9858 66.192 94.9858 66.0439 94.8871L63.7233 93.554C63.5752 93.4553 63.5752 93.3565 63.7233 93.2578L66.0439 91.9247C66.192 91.826 66.3895 91.826 66.5376 91.9247L68.8581 93.2578ZM71.6229 94.2946C71.4748 94.1959 71.4748 94.0971 71.6229 93.9984L73.9434 92.6653C74.0916 92.5666 74.2891 92.5666 74.4372 92.6653L76.7577 93.9984C76.9058 94.0971 76.9058 94.1959 76.7577 94.2946L74.4372 95.6277C74.2891 95.7264 74.0916 95.7264 73.9434 95.6277L71.6229 94.2946ZM60.6129 92.6653C60.761 92.5666 60.9585 92.5666 61.1066 92.6653L63.4271 93.9984C63.5752 94.0971 63.5752 94.1959 63.4271 94.2946L61.1066 95.6277C60.9585 95.7264 60.761 95.7264 60.6129 95.6277L58.2924 94.2946C58.1443 94.1959 58.1443 94.0971 58.2924 93.9984L60.6129 92.6653ZM69.4012 96.862L67.0807 95.5289C66.9326 95.4302 66.9326 95.3314 67.0807 95.2327L69.4012 93.8996C69.5493 93.8009 69.7468 93.8009 69.8949 93.8996L72.2154 95.2327C72.3635 95.3314 72.3635 95.4302 72.2154 95.5289L69.8949 96.862C69.7468 96.9113 69.4999 96.9113 69.4012 96.862ZM74.9803 96.2201C74.8322 96.1214 74.8322 96.0226 74.9803 95.9239L77.3008 94.5908C77.4489 94.4921 77.6464 94.4921 77.7945 94.5908L80.115 95.9239C80.2631 96.0226 80.2631 96.1214 80.115 96.2201L77.7945 97.5532C77.6464 97.6519 77.4489 97.6519 77.3008 97.5532L74.9803 96.2201ZM63.9208 94.5908C64.069 94.4921 64.2664 94.4921 64.4146 94.5908L66.7351 95.9239C66.8832 96.0226 66.8832 96.1214 66.7351 96.2201L64.4146 97.5532C64.2664 97.6519 64.069 97.6519 63.9208 97.5532L61.6003 96.2201C61.4522 96.1214 61.4522 96.0226 61.6003 95.9239L63.9208 94.5908ZM49.2572 96.7632C49.1091 96.6645 49.1091 96.5657 49.2572 96.467L51.5777 95.1339C51.7258 95.0352 51.9233 95.0352 52.0714 95.1339L54.3919 96.467C54.5401 96.5657 54.5401 96.6645 54.3919 96.7632L52.0714 98.0963C51.9233 98.195 51.6765 98.195 51.5777 98.0963L49.2572 96.7632ZM75.5234 97.1582C75.6715 97.257 75.6715 97.3557 75.5234 97.4545L73.2029 98.7875C73.0547 98.8862 72.8573 98.8862 72.7091 98.7875L70.3886 97.4545C70.2405 97.3557 70.2405 97.257 70.3886 97.1582L72.7091 95.8251C72.8573 95.7264 73.0547 95.7264 73.2029 95.8251L75.5234 97.1582ZM67.8213 99.4787C67.6731 99.5775 67.4757 99.5775 67.3275 99.4787L65.007 98.1457C64.8589 98.0469 64.8589 97.9482 65.007 97.8494L67.3275 96.5164C67.4757 96.4176 67.6731 96.4176 67.8213 96.5164L70.1418 97.8494C70.2899 97.9482 70.2899 98.0469 70.1418 98.1457L67.8213 99.4787ZM70.6355 98.4419C70.7836 98.3432 70.9811 98.3432 71.1292 98.4419L73.4497 99.7749C73.5978 99.8737 73.5978 99.9724 73.4497 100.071L71.1292 101.404C70.9811 101.503 70.7836 101.503 70.6355 101.404L68.315 100.071C68.1669 99.9724 68.1669 99.8737 68.315 99.7749L70.6355 98.4419ZM55.9719 100.614C55.8237 100.516 55.8237 100.417 55.9719 100.318L58.2924 98.985C58.4405 98.8862 58.638 98.8862 58.7861 98.985L61.1066 100.318C61.2547 100.417 61.2547 100.516 61.1066 100.614L58.7861 101.947C58.638 102.046 58.3911 102.046 58.2924 101.947L55.9719 100.614ZM88.9033 101.009C89.0514 101.108 89.0514 101.207 88.9033 101.305L86.5828 102.639C86.4347 102.737 86.2372 102.737 86.0891 102.639L81.6456 100.071C81.4974 99.9724 81.4974 99.8737 81.6456 99.7749L83.9661 98.4419C84.1142 98.3432 84.3117 98.3432 84.4598 98.4419L88.9033 101.009ZM74.4866 103.33C74.3384 103.429 74.1409 103.429 73.9928 103.33L71.6723 101.997C71.5242 101.898 71.5242 101.799 71.6723 101.7L73.9928 100.367C74.1409 100.269 74.3384 100.269 74.4866 100.367L76.8071 101.7C76.9552 101.799 76.9552 101.898 76.8071 101.997L74.4866 103.33ZM58.243 102.54C58.3911 102.639 58.3911 102.737 58.243 102.836L55.9225 104.169C55.7744 104.268 55.5769 104.268 55.4288 104.169L37.1116 93.6034C36.9635 93.5046 36.9635 93.4059 37.1116 93.3071L39.4321 91.9741C39.5802 91.8754 39.7777 91.8754 39.9258 91.9741L58.243 102.54ZM85.546 102.935C85.6941 103.034 85.6941 103.132 85.546 103.231L83.2255 104.564C83.0774 104.663 82.8799 104.663 82.7318 104.564L80.4112 103.231C80.2631 103.132 80.2631 103.034 80.4112 102.935L82.7318 101.602C82.8799 101.503 83.0774 101.503 83.2255 101.602L85.546 102.935ZM70.4874 104.86C70.3393 104.959 70.1418 104.959 69.9937 104.86L67.6731 103.527C67.525 103.429 67.525 103.33 67.6731 103.231L69.9937 101.898C70.1418 101.799 70.3393 101.799 70.4874 101.898L72.8079 103.231C72.956 103.33 72.956 103.429 72.8079 103.527L70.4874 104.86ZM62.6372 104.465C62.489 104.367 62.489 104.268 62.6372 104.169L64.9577 102.836C65.1058 102.737 65.3033 102.737 65.4514 102.836L67.7719 104.169C67.92 104.268 67.92 104.367 67.7719 104.465L65.4514 105.798C65.3033 105.897 65.0564 105.897 64.9577 105.798L62.6372 104.465ZM82.238 104.86C82.3861 104.959 82.3861 105.058 82.238 105.157L79.9175 106.49C79.7694 106.588 79.5719 106.588 79.4238 106.49L74.9803 103.922C74.8322 103.823 74.8322 103.725 74.9803 103.626L77.3008 102.293C77.4489 102.194 77.6464 102.194 77.7945 102.293L82.238 104.86ZM62.2422 104.86C62.3903 104.959 62.3903 105.058 62.2422 105.157L59.9217 106.49C59.7735 106.588 59.5761 106.588 59.4279 106.49L56.4162 104.762C56.2681 104.663 56.2681 104.564 56.4162 104.465L58.7367 103.132C58.8848 103.034 59.0823 103.034 59.2304 103.132L62.2422 104.86ZM75.6221 108.711C75.7702 108.81 75.7702 108.909 75.6221 109.008L73.3016 110.341C73.1535 110.439 72.9066 110.439 72.8079 110.341L65.9945 106.391C65.8464 106.292 65.8464 106.193 65.9945 106.095L68.315 104.762C68.4631 104.663 68.6606 104.663 68.8087 104.762L75.6221 108.711ZM68.9568 108.711C69.1049 108.81 69.1049 108.909 68.9568 109.008L66.6363 110.341C66.4882 110.439 66.2907 110.439 66.1426 110.341L63.8221 109.008C63.674 108.909 63.674 108.81 63.8221 108.711L66.1426 107.378C66.2907 107.28 66.4882 107.28 66.6363 107.378L68.9568 108.711ZM31.5325 74.99C31.3844 74.8912 31.3844 74.7925 31.5325 74.6937L33.853 73.3607C34.0011 73.2619 34.1986 73.2619 34.3467 73.3607L38.7902 75.928C38.9384 76.0268 38.9384 76.1255 38.7902 76.2243L36.4697 77.5573C36.3216 77.6561 36.1241 77.6561 35.976 77.5573L31.5325 74.99ZM44.8631 78.841C44.7149 78.7423 44.7149 78.6435 44.8631 78.5448L47.1836 77.2117C47.3317 77.113 47.5292 77.113 47.6773 77.2117L49.9978 78.5448C50.1459 78.6435 50.1459 78.7423 49.9978 78.841L47.6773 80.1741C47.5292 80.2728 47.3317 80.2728 47.1836 80.1741L44.8631 78.841ZM42.6413 81.4084L40.3208 80.0753C40.1727 79.9766 40.1727 79.8778 40.3208 79.7791L42.6413 78.446C42.7894 78.3473 42.9869 78.3473 43.135 78.446L45.4555 79.7791C45.6036 79.8778 45.6036 79.9766 45.4555 80.0753L43.135 81.4084C43.0363 81.5071 42.7894 81.5071 42.6413 81.4084ZM24.9166 78.841C24.7684 78.7423 24.7684 78.6435 24.9166 78.5448L27.2371 77.2117C27.3852 77.113 27.5827 77.113 27.7308 77.2117L32.7174 80.0753C32.8655 80.1741 32.8655 80.2728 32.7174 80.3716L30.3969 81.7046C30.2488 81.8034 30.0513 81.8034 29.9032 81.7046L24.9166 78.841ZM37.704 82.0996C37.5559 82.1983 37.3584 82.1983 37.2103 82.0996L34.8898 80.7665C34.7417 80.6678 34.7417 80.5691 34.8898 80.4703L37.2103 79.1373C37.3584 79.0385 37.5559 79.0385 37.704 79.1373L40.0246 80.4703C40.1727 80.5691 40.1727 80.6678 40.0246 80.7665L37.704 82.0996ZM30.8906 82.2971C30.7425 82.1983 30.7425 82.0996 30.8906 82.0009L33.2111 80.6678C33.3593 80.5691 33.5568 80.5691 33.7049 80.6678L36.0254 82.0009C36.1735 82.0996 36.1735 82.1983 36.0254 82.2971L33.7049 83.6302C33.5568 83.7289 33.3593 83.7289 33.2111 83.6302L30.8906 82.2971ZM30.9894 82.9883C31.1375 83.087 31.1375 83.1858 30.9894 83.2845L28.7182 84.6176C28.5701 84.7163 28.3726 84.7163 28.2245 84.6176L21.6086 80.8159C21.4605 80.7172 21.4605 80.6184 21.6086 80.5197L23.8797 79.1866C24.0279 79.0879 24.2253 79.0879 24.3735 79.1866L30.9894 82.9883ZM34.248 84.2226C34.0999 84.1239 34.0999 84.0251 34.248 83.9264L36.5685 82.5933C36.7166 82.4946 36.9141 82.4946 37.0622 82.5933L39.3827 83.9264C39.5308 84.0251 39.5308 84.1239 39.3827 84.2226L37.0622 85.5557C36.9141 85.6544 36.7166 85.6544 36.5685 85.5557L34.248 84.2226ZM27.6814 84.9138C27.8295 85.0126 27.8295 85.1113 27.6814 85.2101L26.9902 85.6051C26.8421 85.7038 26.6446 85.7038 26.4965 85.6051L23.7316 84.0251C23.5835 83.9264 23.5835 83.8276 23.7316 83.7289L24.4228 83.3339C24.571 83.2352 24.7684 83.2352 24.9166 83.3339L27.6814 84.9138ZM29.212 85.1607C29.0639 85.0619 29.0639 84.9632 29.212 84.8645L31.4831 83.5314C31.6312 83.4327 31.8287 83.4327 31.9768 83.5314L34.2973 84.8645C34.4455 84.9632 34.4455 85.0619 34.2973 85.1607L32.0262 86.4938C31.8781 86.5925 31.6806 86.5925 31.5325 86.4938L29.212 85.1607ZM37.5559 86.1481C37.4078 86.0494 37.4078 85.9507 37.5559 85.8519L39.8764 84.5189C40.0245 84.4201 40.222 84.4201 40.3702 84.5189L42.6907 85.8519C42.8388 85.9507 42.8388 86.0494 42.6907 86.1481L40.3702 87.4812C40.222 87.5799 40.0245 87.5799 39.8764 87.4812L37.5559 86.1481ZM58.243 86.5925C58.0949 86.4938 58.0949 86.395 58.243 86.2963L60.5635 84.9632C60.7116 84.8645 60.9091 84.8645 61.0572 84.9632L63.3777 86.2963C63.5259 86.395 63.5259 86.4938 63.3777 86.5925L61.0572 87.9256C60.9091 88.0243 60.7116 88.0243 60.5635 87.9256L58.243 86.5925ZM35.3835 88.4687C35.2354 88.5674 34.9886 88.5674 34.8898 88.4687L32.668 87.185L32.6187 87.1356C32.4706 87.0368 32.4706 86.9381 32.6187 86.8394L34.8898 85.5063C35.0379 85.4076 35.2354 85.4076 35.3835 85.5063L37.704 86.8394C37.8522 86.9381 37.8522 87.0368 37.704 87.1356L35.3835 88.4687ZM50.5903 86.8394C50.7384 86.7406 50.9359 86.7406 51.084 86.8394L53.4045 88.1724C53.5526 88.2712 53.5526 88.3699 53.4045 88.4687L51.084 89.8017C50.9359 89.9005 50.7384 89.9005 50.5903 89.8017L48.2698 88.4687C48.1216 88.3699 48.1216 88.2712 48.2698 88.1724L50.5903 86.8394ZM38.7409 90.3942C38.5927 90.4929 38.3953 90.4929 38.2471 90.3942L35.9266 89.0611C35.7785 88.9624 35.7785 88.8636 35.9266 88.7649L38.2471 87.4318C38.3953 87.3331 38.5927 87.3331 38.7409 87.4318L41.0614 88.7649C41.2095 88.8636 41.2095 88.9624 41.0614 89.0611L38.7409 90.3942ZM34.8898 89.0611C35.0379 89.1599 35.0379 89.2586 34.8898 89.3574L32.5693 90.6904C32.4212 90.7892 32.2237 90.7892 32.0756 90.6904L29.7551 89.3574C29.607 89.2586 29.607 89.1599 29.7551 89.0611L32.0756 87.7281C32.2237 87.6293 32.4212 87.6293 32.5693 87.7281L34.8898 89.0611ZM39.2346 90.9867C39.0865 90.8879 39.0865 90.7892 39.2346 90.6904L41.5551 89.3574C41.7032 89.2586 41.9007 89.2586 42.0488 89.3574L44.3693 90.6904C44.5174 90.7892 44.5174 90.8879 44.3693 90.9867L42.0488 92.3197C41.9007 92.4184 41.6538 92.4184 41.5551 92.3197L39.2346 90.9867ZM50.4421 93.3071C50.294 93.4059 50.0965 93.4059 49.9484 93.3071L47.6279 91.9741C47.4798 91.8754 47.4798 91.7766 47.6279 91.6779L49.9484 90.3448C50.0965 90.2461 50.294 90.2461 50.4421 90.3448L52.7627 91.6779C52.9108 91.7766 52.9108 91.8754 52.7627 91.9741L50.4421 93.3071ZM68.2656 92.3691C68.1175 92.2703 68.1175 92.1716 68.2656 92.0728L70.5861 90.7398C70.7342 90.641 70.9317 90.641 71.0798 90.7398L73.4003 92.0728C73.5485 92.1716 73.5485 92.2703 73.4003 92.3691L71.0798 93.7021C70.9317 93.8009 70.7342 93.8009 70.5861 93.7021L68.2656 92.3691ZM53.7501 95.2327C53.602 95.3314 53.4045 95.3314 53.2564 95.2327L50.9359 93.8996C50.7878 93.8009 50.7878 93.7021 50.9359 93.6034L53.2564 92.2703C53.4045 92.1716 53.602 92.1716 53.7501 92.2703L56.0706 93.6034C56.2187 93.7021 56.2187 93.8009 56.0706 93.8996L53.7501 95.2327ZM45.8999 94.8377C45.7518 94.739 45.7518 94.6402 45.8999 94.5415L48.2204 93.2084C48.3685 93.1097 48.566 93.1097 48.7141 93.2084L51.0346 94.5415C51.1827 94.6402 51.1827 94.739 51.0346 94.8377L48.7141 96.1708C48.566 96.2695 48.3191 96.2695 48.2204 96.1708L45.8999 94.8377ZM57.1074 97.1582C56.9593 97.257 56.7618 97.257 56.6137 97.1582L54.2932 95.8251C54.1451 95.7264 54.1451 95.6277 54.2932 95.5289L56.6137 94.1959C56.7618 94.0971 56.9593 94.0971 57.1074 94.1959L59.4279 95.5289C59.5761 95.6277 59.5761 95.7264 59.4279 95.8251L57.1074 97.1582ZM60.4648 99.0837C60.3166 99.1825 60.1192 99.1825 59.971 99.0837L57.6505 97.7507C57.5024 97.6519 57.5024 97.5532 57.6505 97.4545L59.971 96.1214C60.1192 96.0226 60.3166 96.0226 60.4648 96.1214L62.7853 97.4545C62.9334 97.5532 62.9334 97.6519 62.7853 97.7507L60.4648 99.0837ZM78.2882 98.1457C78.1401 98.0469 78.1401 97.9482 78.2882 97.8494L80.6087 96.5164C80.7569 96.4176 80.9543 96.4176 81.1025 96.5164L83.423 97.8494C83.5711 97.9482 83.5711 98.0469 83.423 98.1457L81.1025 99.4787C80.9543 99.5775 80.7569 99.5775 80.6087 99.4787L78.2882 98.1457ZM52.6145 98.6888C52.4664 98.59 52.4664 98.4913 52.6145 98.3925L54.935 97.0595C55.0832 96.9607 55.2806 96.9607 55.4288 97.0595L57.7493 98.3925C57.8974 98.4913 57.8974 98.59 57.7493 98.6888L55.4288 100.022C55.2806 100.121 55.0832 100.121 54.935 100.022L52.6145 98.6888ZM76.0665 100.713L73.746 99.38C73.5978 99.2812 73.5978 99.1825 73.746 99.0837L76.0665 97.7507C76.2146 97.6519 76.4121 97.6519 76.5602 97.7507L78.8807 99.0837C79.0288 99.1825 79.0288 99.2812 78.8807 99.38L76.5602 100.713C76.4121 100.762 76.2146 100.762 76.0665 100.713ZM63.8221 101.009C63.674 101.108 63.4765 101.108 63.3284 101.009L61.0079 99.6762C60.8597 99.5775 60.8597 99.4787 61.0079 99.38L63.3284 98.0469C63.4765 97.9482 63.674 97.9482 63.8221 98.0469L66.1426 99.38C66.2907 99.4787 66.2907 99.5775 66.1426 99.6762L63.8221 101.009ZM79.9175 102.639C79.7694 102.737 79.5719 102.737 79.4238 102.639L77.1033 101.305C76.9552 101.207 76.9552 101.108 77.1033 101.009L79.4238 99.6762C79.5719 99.5775 79.7694 99.5775 79.9175 99.6762L82.238 101.009C82.3861 101.108 82.3861 101.207 82.238 101.305L79.9175 102.639ZM64.3158 101.602C64.1677 101.503 64.1677 101.404 64.3158 101.305L66.6363 99.9724C66.7844 99.8737 66.9819 99.8737 67.13 99.9724L69.4506 101.305C69.5987 101.404 69.5987 101.503 69.4506 101.602L67.13 102.935C66.9819 103.034 66.7844 103.034 66.6363 102.935L64.3158 101.602ZM62.1434 103.873C61.9953 103.972 61.7484 103.972 61.6497 103.873L59.3292 102.54C59.1811 102.441 59.1811 102.342 59.3292 102.244L61.6497 100.911C61.7978 100.812 61.9953 100.812 62.1434 100.911L64.4639 102.244C64.6121 102.342 64.6121 102.441 64.4639 102.54L62.1434 103.873ZM78.9301 106.786C79.0782 106.885 79.0782 106.983 78.9301 107.082L76.6096 108.415C76.4614 108.514 76.264 108.514 76.1158 108.415L70.9811 105.453C70.833 105.354 70.833 105.255 70.9811 105.157L73.3016 103.823C73.4497 103.725 73.6472 103.725 73.7953 103.823L78.9301 106.786ZM65.5995 106.786C65.7476 106.885 65.7476 106.983 65.5995 107.082L63.279 108.415C63.1309 108.514 62.9334 108.514 62.7853 108.415L60.4648 107.082C60.3166 106.983 60.3166 106.885 60.4648 106.786L62.7853 105.453C62.9334 105.354 63.1309 105.354 63.279 105.453L65.5995 106.786ZM56.12 106.045C56.4162 106.193 56.4162 106.49 56.12 106.638L49.1585 110.686C48.8622 110.834 48.3685 110.834 48.1216 110.686L33.3593 102.145C33.063 101.997 33.063 101.7 33.3593 101.552L40.3208 97.5038C40.617 97.3557 41.0614 97.3557 41.3576 97.5038L56.12 106.045ZM72.2648 110.637C72.4129 110.736 72.4129 110.834 72.2648 110.933L69.9443 112.266C69.7962 112.365 69.5987 112.365 69.4506 112.266L67.13 110.933C66.9819 110.834 66.9819 110.736 67.13 110.637L69.4506 109.304C69.5987 109.205 69.7962 109.205 69.9443 109.304L72.2648 110.637Z" fill="#494949"/>
<path d="M2.94684 88.0242C2.94684 88.271 3.09496 88.4685 3.39119 88.666L59.2809 120.956C59.8733 121.301 60.8114 121.301 61.4039 120.956L94.4834 101.75C94.5328 101.75 94.5328 101.7 94.5822 101.7C94.6316 101.651 94.6809 101.651 94.6809 101.602C94.7303 101.552 94.7797 101.503 94.7797 101.453C94.829 101.404 94.829 101.355 94.829 101.305C94.829 101.256 94.8784 101.207 94.8784 101.157V103.626C94.8784 103.675 94.8784 103.675 94.8784 103.725V103.774C94.8784 103.823 94.8784 103.823 94.829 103.873C94.829 103.873 94.829 103.922 94.7797 103.922C94.7303 103.971 94.7303 103.971 94.6809 104.021C94.6316 104.07 94.6316 104.07 94.5822 104.12C94.5328 104.12 94.5328 104.169 94.5328 104.169L61.4532 123.375C60.8608 123.72 59.9227 123.72 59.3302 123.375L3.44056 91.0853C3.14433 90.9371 2.9962 90.6903 2.9962 90.4434L2.94684 88.0242Z" fill="#98A4E0"/>
<path d="M38.5934 28.4814C37.7047 27.9876 37.0134 28.3826 37.0134 29.3701L36.9147 68.2262L94.9274 101.75L95.0261 62.894C95.0261 61.8572 94.3349 60.6228 93.4462 60.1291L38.5934 28.4814Z" fill="url(#paint0_linear_1250_577)"/>
<path d="M39.6797 32.1345L39.5809 66.7446L92.2614 97.1581L92.3601 62.548L39.6797 32.1345Z" fill="#FF3333"/>
<path d="M38.2467 28.2837C38.148 28.2343 38.0492 28.2343 37.9999 28.2343C37.9011 28.2343 37.8024 28.2343 37.753 28.2343C37.6543 28.2343 37.6049 28.2837 37.5061 28.3331L39.6292 27.0987C39.6785 27.0987 39.6785 27.0494 39.7279 27.0494C39.7773 27.0494 39.7773 27.0494 39.8266 27H39.876C39.9254 27 39.9254 27 39.9748 27C40.0241 27 40.0241 27 40.0735 27C40.0735 27 40.0735 27 40.1229 27H40.1723C40.2216 27 40.271 27 40.3204 27.0494H40.3698H40.4191H40.4685C40.5179 27.0987 40.6166 27.0987 40.7154 27.1481L95.5682 58.7959C95.6669 58.8453 95.7657 58.944 95.8644 58.9934C95.9138 59.0427 95.9138 59.0427 95.9632 59.0921C96.0126 59.1415 96.0619 59.1909 96.1113 59.2402L96.1607 59.2896L96.21 59.339L96.2594 59.3884C96.3088 59.4377 96.3582 59.4871 96.4075 59.5365L96.4569 59.5858C96.4569 59.5858 96.4569 59.5858 96.4569 59.6352L96.5063 59.6846C96.5556 59.734 96.5556 59.7833 96.605 59.8327C96.6544 59.8821 96.6544 59.9314 96.7038 59.9808C96.7038 60.0302 96.7531 60.0796 96.7531 60.0796C96.7531 60.1289 96.8025 60.1783 96.8025 60.2277C96.8025 60.2771 96.8519 60.3264 96.8519 60.3758C96.8519 60.4252 96.9013 60.4745 96.9013 60.5239C96.9013 60.5733 96.9506 60.6227 96.9506 60.672C96.9506 60.7214 96.9506 60.7214 96.9506 60.7708C96.9506 60.7708 96.9506 60.7708 96.9506 60.8202V60.8695C96.9506 60.9189 97 60.9683 97 61.067C97 61.1164 97 61.1164 97 61.1658V61.2151V61.2645C97 61.3632 97 61.462 97 61.5607L96.9013 99.3801C96.9013 100.022 96.5557 100.664 95.9632 101.009L94.7782 101.701L94.877 62.8444C94.877 62.7457 94.877 62.5976 94.8276 62.4988V62.4494C94.8276 62.3507 94.7782 62.2026 94.7289 62.1038C94.7289 62.1038 94.7289 62.1038 94.7289 62.0545C94.6795 61.9063 94.6301 61.8076 94.5808 61.6595C94.5314 61.5114 94.482 61.4126 94.3833 61.2645C94.3339 61.1658 94.2351 61.0176 94.1364 60.9189C94.1364 60.9189 94.1364 60.9189 94.1364 60.8695C94.087 60.7708 93.9883 60.672 93.8895 60.5733L93.8402 60.5239C93.7908 60.4745 93.692 60.3758 93.6427 60.3264C93.5933 60.2771 93.5933 60.2771 93.5439 60.2277C93.4452 60.1289 93.3464 60.0796 93.2477 60.0302L38.3949 28.3824C38.2961 28.3331 38.1974 28.2837 38.0986 28.2343C38.2961 28.3331 38.2961 28.3331 38.2467 28.2837Z" fill="url(#paint1_linear_1250_577)"/>
<g opacity="0.2">
<path opacity="0.2" d="M84.6074 90.1962L84.6567 67.9292L46.7387 46.0078L46.6893 68.2748L84.6074 90.1962Z" fill="#09285A"/>
</g>
<g opacity="0.2">
<path opacity="0.2" d="M84.707 62.104L46.789 40.2319V43.1943L84.707 65.1157V62.104Z" fill="#09285A"/>
</g>
<path d="M49.8505 51.242C49.7517 51.1927 49.7024 51.242 49.7024 51.3408L49.653 66.4981C49.653 66.5969 49.7024 66.745 49.8011 66.7944L81.5476 85.0128C81.6464 85.0622 81.6957 85.0128 81.6957 84.9141L81.7451 69.7567C81.7451 69.658 81.6957 69.5098 81.597 69.4605C81.4983 69.4111 81.4489 69.4605 81.4489 69.5592L81.3995 79.5818V84.5191L76.4129 81.6555L76.4623 72.5709V66.745C76.4623 66.6462 76.4129 66.4981 76.3141 66.4487C76.2154 66.3994 76.166 66.4488 76.166 66.5475V72.4228L76.1166 81.5074L71.13 78.6438V76.817L71.1794 63.7333C71.1794 63.6345 71.13 63.4864 71.0313 63.437C70.9325 63.3877 70.8832 63.437 70.8832 63.5358L70.8338 76.7182V78.4956L65.8472 75.632V70.6454L65.8965 60.6722C65.8965 60.5734 65.8472 60.4253 65.7484 60.3759C65.6497 60.3266 65.6003 60.3759 65.6003 60.4747L65.5509 70.4479V75.4345L60.5643 72.5709V70.7935L60.6137 57.6111C60.6137 57.5123 60.5643 57.3642 60.4656 57.3148C60.3668 57.2655 60.3175 57.3148 60.3175 57.4136L60.2681 70.4973V72.3734L55.2815 69.5098L55.3308 56.4261V54.55C55.3308 54.4512 55.2815 54.3031 55.1827 54.2537C55.084 54.2044 55.0346 54.2537 55.0346 54.3525V56.1299L54.9852 69.3124L49.9986 66.4487L50.048 55.8337V51.4889C50.048 51.3901 49.9492 51.2914 49.8505 51.242Z" fill="#D3ECFF"/>
<path opacity="0.1" d="M81.3987 79.6801C78.9794 78.1002 78.7819 73.9529 76.5602 72.6692C76.5108 72.6692 76.4614 72.6199 76.4614 72.6199L76.4121 81.7044L81.3987 84.568V79.6801ZM54.9844 56.1295L54.935 69.3119L49.9484 66.4483L49.9978 55.8332C52.2195 57.0182 52.7133 54.7964 54.4907 55.8332C54.6388 55.8826 54.7869 56.0307 54.9844 56.1295ZM76.0665 81.5069L71.0798 78.6433V76.8165C73.4991 77.5571 73.6472 71.6818 76.0665 72.4717V81.5069ZM60.2179 72.373L55.2313 69.5094L55.2806 56.4257C57.6505 58.8943 57.848 68.2257 60.2179 70.4968V72.373ZM65.5007 75.4341L60.5141 72.5705V70.7931C60.6129 70.8425 60.6622 70.8918 60.761 70.9412C62.6371 72.0274 63.5752 69.5094 65.5007 70.4968V75.4341ZM70.7836 76.6684V78.4458L65.797 75.5822V70.5956C67.8212 71.9286 68.4631 75.3354 70.5367 76.5203C70.6355 76.619 70.7342 76.619 70.7836 76.6684Z" fill="#D3ECFF"/>
<path d="M7.51514 15.9117L21.231 8.07739L20.7161 15.9117L12.833 18.3327L7.51514 15.9117Z" fill="#98A4E0"/>
<path d="M81 60.9847C81 55.483 77.1099 48.7964 72.3117 46.0502C71.3989 45.5074 70.3926 45.1371 69.3439 44.9583C67.9395 37.7419 62.9026 30.0888 56.8732 26.6223C55.322 25.6812 53.5789 25.0954 51.7707 24.9077C50.9468 16.1626 44.8192 6.22327 37.3808 1.96224C33.4954 -0.268181 29.9705 -0.528393 27.3678 0.833093L27.2414 0.902805L27.0447 1.01897L18.9557 5.75862L21.6427 7.86822C19.2319 8.91373 17.7058 11.5856 17.7058 15.5725C17.7058 22.891 22.8832 31.7941 29.273 35.4557L68.7072 63.4103L69.9243 71.556L78.4441 66.5747H78.4675L78.519 66.5422C80.0497 65.6315 81 63.7124 81 60.9847Z" fill="url(#paint2_radial_1250_577)"/>
<path d="M18.1038 12.3616L36.6693 1.59049C33.0648 -0.268192 29.8114 -0.426165 27.3678 0.85168L27.2414 0.921364L27.0448 1.03753L18.9557 5.77718L21.6427 7.88678C19.9575 8.61166 18.7076 10.1497 18.1038 12.3616Z" fill="#98A4E0"/>
<path d="M52.3883 44.0382L65.9356 36.1388C63.595 32.1519 60.4165 28.6669 56.8728 26.6362C56.4047 26.3667 55.9366 26.1344 55.4685 25.9299L38.2371 35.9297L52.3883 44.0382Z" fill="#98A4E0"/>
<path d="M22.7708 6.65542L28.8095 10.1126L39.8617 3.64898C39.0744 3.03409 38.2454 2.47363 37.3807 1.97153C36.1721 1.26451 34.8731 0.722182 33.5187 0.359131L22.7708 6.65542Z" fill="#DFE6FF"/>
<path d="M64.4424 33.825L53.6289 40.1491L57.3738 44.3312L67.2043 38.5786C66.4272 36.916 65.5029 35.3253 64.4424 33.825Z" fill="#F2F6FF"/>
<path d="M63.82 51.0318C62.9052 50.493 61.8997 50.123 60.8521 49.9398C59.4478 42.7281 54.4108 35.0704 48.3815 31.6086C46.8289 30.6667 45.0841 30.0809 43.2743 29.894C42.4551 21.1488 36.3274 11.2095 28.889 6.94385C20.8889 2.3622 14.4008 6.07956 14.4008 15.2475C14.4008 15.5588 14.4008 15.8702 14.4242 16.1769C8.57742 13.4864 4.00391 16.5207 4.00391 23.3978C4.00391 30.721 9.18128 39.6241 15.5711 43.2857L63.82 70.9337C68.6182 73.6845 72.5036 71.4541 72.5036 65.957C72.5036 60.46 68.6182 53.7827 63.82 51.0318Z" fill="url(#paint3_linear_1250_577)"/>
<path d="M14.4241 16.1858C14.4241 15.8698 14.4007 15.5585 14.4007 15.2564V15.2192C11.1707 13.9693 8.39476 14.5129 6.64868 16.5157C8.54456 14.9822 11.3065 14.7453 14.4241 16.1858Z" fill="white"/>
<path d="M64.5266 50.3484C63.6128 49.8075 62.6069 49.4374 61.5588 49.2564C60.1544 42.0447 55.1175 34.3869 49.0881 30.9251C47.5356 29.9832 45.7907 29.3974 43.9809 29.2105C43.1383 20.4654 37.0528 10.5261 29.5957 6.26039C24.6102 3.40731 20.2333 3.7744 17.6072 6.6693C20.2614 4.4203 24.3294 4.34596 28.8888 6.94347C36.3272 11.2092 42.4642 21.1485 43.2741 29.8936C45.0839 30.0805 46.8287 30.6663 48.3812 31.6082C54.4106 35.0654 59.4663 42.7278 60.8519 49.9395C61.8995 50.1226 62.905 50.4926 63.8198 51.0314C68.618 53.7823 72.5033 60.4689 72.5033 65.966C72.5033 67.9501 71.9931 69.5021 71.099 70.5523C72.3957 69.5579 73.1868 67.7642 73.1868 65.2829C73.2102 59.7858 69.3248 53.0853 64.5266 50.3484Z" fill="white"/>
<path d="M13.4039 18.3699L17.0318 20.0381L16.8493 16.0744C16.8493 15.7956 16.8493 15.5215 16.8493 15.2473C16.8493 11.7065 17.9259 9.14156 19.8827 8.0217C21.8394 6.90184 24.6106 7.25963 27.7002 9.03003C34.3381 12.8357 40.1288 22.0966 40.8871 30.1168L41.0744 32.1381L43.1154 32.2915C44.5613 32.4525 45.9535 32.9285 47.1927 33.6855C52.4637 36.7105 57.2197 43.7317 58.493 50.3857L58.8113 52.0539L60.5012 52.3141C61.2536 52.452 61.975 52.7227 62.6312 53.1134C66.6804 55.4367 70.1211 61.3195 70.1211 65.9615C70.1211 67.6994 69.6529 68.9726 68.7916 69.4605C67.9303 69.9484 66.5914 69.7253 65.0747 68.8564L16.7837 41.2085C11.1663 37.993 6.42896 29.8426 6.42896 23.4069C6.42896 20.8838 7.17795 18.9601 8.48868 18.1283C9.06749 17.7786 9.73525 17.6012 10.4126 17.6171C11.4527 17.6514 12.473 17.9082 13.4039 18.3699Z" fill="#344593"/>
<path d="M37.4834 48.3877L38.7567 47.7511L37.5021 46.8125L37.4834 48.3877Z" fill="#344593"/>
<path d="M33.6638 31.3202L34.8996 30.7021L34.9184 31.3434L33.6638 31.3202Z" fill="#5793CE"/>
<path d="M41.1158 44.3958L42.4031 43.7545L39.9221 41.4126L41.1158 44.3958Z" fill="#5793CE"/>
<path d="M38.3875 47.7139L32.3722 44.1871C32.2077 44.0744 32.0723 43.9248 31.9772 43.7503C31.882 43.5759 31.8297 43.3817 31.8245 43.1834V36.2598L38.9586 40.4418L38.9258 47.3561C38.9258 47.7325 38.6918 47.8905 38.3875 47.7139Z" fill="#344593"/>
<path d="M34.886 30.7069L28.3792 34.8657C28.103 35.0423 28.323 35.6975 28.7443 35.9437L35.3916 39.8284L42.0389 43.7177C42.4555 43.9593 42.6849 43.5643 42.4087 43.0671L35.944 31.3295C35.6491 30.8184 35.1809 30.5303 34.886 30.7069Z" fill="#344593"/>
<path d="M37.0949 48.3597L31.0655 44.8328C30.901 44.7201 30.7657 44.5705 30.6705 44.3961C30.5753 44.2217 30.523 44.0274 30.5178 43.8291V36.9055L37.6519 41.0876L37.6285 48.0158C37.6473 48.3783 37.3991 48.5362 37.0949 48.3597Z" fill="#F2F6FF"/>
<path d="M33.5935 31.3529L27.0867 35.5117C26.8105 35.6883 27.0305 36.3435 27.4518 36.5897L34.0991 40.4744L40.7464 44.3637C41.163 44.6053 41.3924 44.2104 41.1162 43.7132L34.6515 31.9756C34.3753 31.4644 33.8744 31.1763 33.5935 31.3529Z" fill="#F2F6FF"/>
<defs>
<linearGradient id="paint0_linear_1250_577" x1="77.798" y1="33.1147" x2="57.194" y2="89.3796" gradientUnits="userSpaceOnUse">
<stop stop-color="white"/>
<stop offset="0.2914" stop-color="#FBFDFF"/>
<stop offset="0.6113" stop-color="#EDF7FF"/>
<stop offset="0.9436" stop-color="#D7EEFF"/>
<stop offset="1" stop-color="#D3ECFF"/>
</linearGradient>
<linearGradient id="paint1_linear_1250_577" x1="68.7933" y1="92.6146" x2="66.3276" y2="13.093" gradientUnits="userSpaceOnUse">
<stop stop-color="#98A4E0"/>
<stop offset="0.366428" stop-color="#A0ADE4"/>
<stop offset="0.491428" stop-color="#CDDCFB"/>
<stop offset="0.896428" stop-color="#CDDCFB"/>
</linearGradient>
<radialGradient id="paint2_radial_1250_577" cx="0" cy="0" r="1" gradientUnits="userSpaceOnUse" gradientTransform="translate(49.3506 35.7949) scale(33.9151 33.6654)">
<stop stop-color="#CDDCFB"/>
<stop offset="0.27" stop-color="#CDDCFB"/>
<stop offset="0.64" stop-color="#C6D5FA"/>
<stop offset="1" stop-color="#98A4E0"/>
</radialGradient>
<linearGradient id="paint3_linear_1250_577" x1="4.00391" y1="38.5508" x2="72.5036" y2="38.5508" gradientUnits="userSpaceOnUse">
<stop stop-color="#FAFDFF"/>
<stop offset="1" stop-color="#98A4E0"/>
</linearGradient>
</defs>
</svg>
