<svg width="101" height="141" viewBox="0 0 101 141" fill="none" xmlns="http://www.w3.org/2000/svg">
<path d="M50.1306 133.649L19.4001 115.875L50.1306 98.1016L80.8611 115.875L50.1306 133.649Z" fill="#344593"/>
<path d="M50.1306 140.747C49.572 140.747 49.0229 140.602 48.5369 140.326L8.85971 117.37C8.59813 117.218 8.38108 116.999 8.23023 116.736C8.07938 116.473 8 116.175 8 115.872C8 115.568 8.07938 115.27 8.23023 115.007C8.38108 114.744 8.59813 114.526 8.85971 114.373L48.5369 91.4245C49.0222 91.1463 49.5716 91 50.1306 91C50.6897 91 51.2391 91.1463 51.7244 91.4245L91.4016 114.373C91.6631 114.527 91.8799 114.746 92.0305 115.01C92.1811 115.273 92.2604 115.571 92.2604 115.875C92.2604 116.179 92.1811 116.477 92.0305 116.741C91.8799 117.004 91.6631 117.224 91.4016 117.377L51.7244 140.326C51.2384 140.602 50.6893 140.747 50.1306 140.747ZM50.1306 91.5914C49.6742 91.5926 49.2255 91.71 48.8267 91.9325L9.15671 114.888C8.98369 114.988 8.84001 115.132 8.74011 115.305C8.6402 115.478 8.58761 115.675 8.58761 115.875C8.58761 116.075 8.6402 116.272 8.74011 116.445C8.84001 116.618 8.98369 116.762 9.15671 116.862L48.8267 139.811C49.2245 140.036 49.6737 140.154 50.1306 140.154C50.5876 140.154 51.0368 140.036 51.4346 139.811L91.1046 116.862C91.2776 116.762 91.4213 116.618 91.5212 116.445C91.6211 116.272 91.6737 116.075 91.6737 115.875C91.6737 115.675 91.6211 115.478 91.5212 115.305C91.4213 115.132 91.2776 114.988 91.1046 114.888L51.4274 91.9398C51.0334 91.711 50.586 91.5908 50.1306 91.5914Z" fill="#FF3333"/>
<g clip-path="url(#clip0_1250_485)">
<path d="M75.5125 123.255C74.7803 123.26 74.0584 123.079 73.4119 122.729C72.2468 122.082 71.8776 120.401 71.8633 120.328L72.3687 120.219C72.3687 120.219 72.7021 121.735 73.6592 122.268C74.4658 122.697 75.3935 122.826 76.2833 122.634L76.4195 123.141C76.123 123.217 75.8183 123.255 75.5125 123.255Z" fill="#FF3333"/>
<path d="M76.5199 117.336H76.0324C75.9787 117.296 75.9213 117.26 75.8568 117.219L70.7844 114.231C69.8057 113.654 68.0815 113.727 66.9487 114.392L62.2169 117.176C62.0229 117.286 61.8445 117.422 61.6863 117.581H61.2812V118.509C61.3049 118.707 61.3776 118.895 61.4924 119.056C61.6071 119.217 61.7602 119.346 61.9373 119.43L67.0168 122.422C67.9955 122.995 69.7233 122.922 70.8525 122.257L75.5807 119.477C76.1615 119.13 76.4841 118.688 76.5199 118.272V117.336ZM73.8816 118.432C73.7186 118.526 73.5363 118.579 73.3494 118.587C73.1626 118.595 72.9765 118.559 72.8062 118.48L68.6479 116.032C68.3754 115.871 68.4113 115.59 68.7232 115.404C68.8866 115.311 69.069 115.259 69.2558 115.252C69.4425 115.244 69.6284 115.281 69.7986 115.36L73.9569 117.808C74.2329 117.957 74.197 118.239 73.8816 118.421V118.432Z" fill="#1B1B1B"/>
<path d="M75.8568 116.379L70.7844 113.391C69.8057 112.814 68.0815 112.887 66.9487 113.552L62.2169 116.332C61.0877 116.997 60.9622 118.012 61.9408 118.59L67.0204 121.578C67.999 122.155 69.7269 122.082 70.8561 121.417L75.5843 118.637C76.7135 117.972 76.839 116.957 75.8568 116.379ZM72.8169 117.625L68.6586 115.177C68.3862 115.02 68.422 114.735 68.7339 114.553C68.8972 114.46 69.0794 114.408 69.2661 114.399C69.4528 114.391 69.6388 114.427 69.8093 114.505L73.9676 116.953C74.24 117.114 74.2042 117.395 73.8887 117.581C73.7259 117.674 73.5441 117.726 73.3579 117.733C73.1718 117.741 72.9865 117.704 72.8169 117.625Z" fill="#383838"/>
<path d="M68.7088 121.56C68.1776 121.571 67.6522 121.446 67.1817 121.194L62.6506 118.527C62.4706 118.441 62.3167 118.307 62.205 118.139C62.0934 117.972 62.0281 117.776 62.0161 117.574C62.0161 117.128 62.3352 116.686 62.8944 116.357L67.11 113.888C68.146 113.278 69.7197 113.212 70.6195 113.742L75.1506 116.408C75.3357 116.493 75.4946 116.627 75.6097 116.797C75.7247 116.967 75.7916 117.167 75.803 117.373C75.803 117.819 75.4804 118.261 74.9212 118.589L70.7091 121.07C70.0942 121.404 69.4056 121.573 68.7088 121.56ZM69.0888 113.559C68.4279 113.558 67.7777 113.729 67.1996 114.056L62.984 116.536C62.4821 116.832 62.1953 117.22 62.1953 117.596C62.2077 117.766 62.2649 117.929 62.3608 118.069C62.4567 118.208 62.5878 118.319 62.7402 118.389L67.2713 121.055C68.1209 121.556 69.6122 121.494 70.6015 120.913L74.8136 118.432C75.3155 118.136 75.6058 117.749 75.6058 117.373C75.593 117.203 75.5356 117.039 75.4398 116.899C75.344 116.759 75.2132 116.648 75.061 116.577L70.5299 113.913C70.0859 113.676 69.5897 113.559 69.0888 113.574V113.559Z" fill="#4A4A4A"/>
<path d="M64.3892 120.763V120.949C63.7619 120.646 63.0951 120.343 62.8478 120.237L50.4159 127.595L49.9929 128.709V128.727L50.5235 129.038L52.2083 128.742L52.7137 128.446L54.1763 128.402L65.6259 121.618V120.763H64.3892Z" fill="#BDC1E9"/>
<path d="M64.6545 120.759L65.1348 121.041L65.6331 120.763L63.0664 119.232L50.4159 126.674L49.9929 127.792L63.0449 120.12C63.1153 120.081 63.1937 120.058 63.274 120.055C63.3543 120.052 63.4342 120.068 63.5074 120.102L63.6185 120.164C63.7368 120.233 63.7224 120.358 63.5862 120.438L50.5306 128.135L52.2155 127.84L64.192 120.792C64.2613 120.751 64.3391 120.726 64.4194 120.72C64.4997 120.714 64.5802 120.728 64.6545 120.759Z" fill="#EDF0F7"/>
<path d="M63.6328 120.157L63.5217 120.095C63.4485 120.061 63.3686 120.045 63.2884 120.048C63.2081 120.051 63.1296 120.073 63.0593 120.113L49.9929 127.792V127.81L50.5235 128.121L63.5934 120.449C63.7368 120.35 63.7511 120.226 63.6328 120.157Z" fill="#D1D6EF"/>
<path d="M54.1833 127.485L65.1346 121.041L64.6543 120.759C64.5811 120.726 64.5012 120.71 64.4209 120.713C64.3407 120.716 64.2622 120.738 64.1918 120.778L52.7207 127.529L54.1833 127.485Z" fill="#D1D6EF"/>
<path d="M50.0071 127.792V128.709L50.5305 129.038V128.121L50.0071 127.792Z" fill="#BDC1E9"/>
<path d="M52.2153 127.825V128.742L50.5305 129.038V128.121L52.2153 127.825Z" fill="#ABAFE3"/>
<path d="M52.7207 128.446V127.529L54.1833 127.485V128.402L52.7207 128.446Z" fill="#ABAFE3"/>
<path d="M101 129.882L100.641 129.798C100.292 129.295 99.8334 128.881 99.3008 128.589L84.8077 120.058C82.7537 118.849 79.617 118.717 77.839 119.762L75.0859 121.373C74.774 121.549 74.4988 121.784 74.2758 122.067L73.8922 122.144V123.083C73.8564 123.912 74.4335 124.793 75.5914 125.472L90.0844 134.003C92.1385 135.208 95.2751 135.343 97.0532 134.295L99.7883 132.688C100.602 132.209 100.989 131.566 100.982 130.89L101 129.882ZM81.2301 120.99L77.1866 123.386C77.0193 123.462 76.837 123.498 76.6541 123.489C76.4712 123.481 76.2927 123.43 76.1327 123.339C75.8208 123.156 75.7742 122.879 76.0538 122.718L80.1045 120.325C80.2715 120.248 80.4536 120.212 80.6366 120.22C80.8195 120.228 80.9982 120.279 81.1585 120.369C81.4667 120.551 81.499 120.829 81.2301 120.99Z" fill="#1B1B1B"/>
<path d="M77.8355 118.604L75.086 120.211C73.2936 121.256 73.5338 123.101 75.5878 124.31L90.0809 132.841C92.135 134.05 95.2716 134.182 97.0496 133.133L99.7848 131.526C101.577 130.481 101.337 128.636 99.2829 127.427L84.7898 118.896C82.7501 117.687 79.6135 117.541 77.8355 118.604ZM81.2302 119.828L77.1866 122.21C77.0197 122.286 76.8375 122.322 76.6546 122.315C76.4717 122.307 76.293 122.256 76.1327 122.166C75.8208 121.98 75.7742 121.702 76.0539 121.545L80.1046 119.163C80.2716 119.086 80.454 119.05 80.6371 119.059C80.8202 119.067 80.9988 119.119 81.1585 119.21C81.4668 119.393 81.4991 119.671 81.2302 119.828Z" fill="#344593"/>
<path d="M93.239 127.77L92.1421 128.417L97.5658 131.61L98.6627 130.963C99.9568 130.203 99.7919 128.862 98.3042 127.986C96.8166 127.109 94.5331 127.018 93.239 127.77Z" fill="#FF3333"/>
<path d="M90.5506 129.363L91.6475 128.716L97.0712 131.906L95.9743 132.552C94.6838 133.312 92.3896 133.217 90.9127 132.34C89.4358 131.464 89.2601 130.123 90.5506 129.363Z" fill="#FF3333"/>
<path d="M94.5797 131.551L93.1458 130.707H93.1279C92.9047 130.569 92.6534 130.484 92.3931 130.459C92.1328 130.434 91.8704 130.47 91.6259 130.565C91.2674 130.769 91.3893 131.168 91.8661 131.449H91.8912L93.3251 132.293L94.5797 131.551ZM91.8159 130.663C92.003 130.596 92.2028 130.572 92.4003 130.594C92.5977 130.616 92.7876 130.684 92.9558 130.791L92.031 131.336C91.6582 131.116 91.5757 130.813 91.8159 130.663Z" fill="white"/>
<path d="M93.2641 131.274C93.3931 131.35 93.4075 131.467 93.2963 131.533C93.2261 131.566 93.1492 131.582 93.0719 131.578C92.9946 131.575 92.9192 131.553 92.8518 131.515C92.7228 131.438 92.7084 131.321 92.8231 131.255C92.8929 131.223 92.9692 131.208 93.0457 131.211C93.1223 131.214 93.1971 131.236 93.2641 131.274Z" fill="#FF3333"/>
<path d="M93.7625 131.712L93.5976 131.811L93.0276 131.475L93.1961 131.38L93.7625 131.712Z" fill="#FF3333"/>
<path d="M98.2899 129.37L96.856 128.515L95.7806 129.158C95.4221 128.936 95.311 128.636 95.5655 128.486C95.7853 128.39 96.0312 128.374 96.261 128.442L96.4438 128.333C96.0929 128.209 95.7094 128.224 95.3684 128.373C95.0099 128.578 95.1282 128.972 95.6085 129.257H95.6336L97.0675 130.101L98.2899 129.37Z" fill="white"/>
<path d="M96.9708 129.093C97.1034 129.169 97.1178 129.286 97.003 129.352C96.9332 129.384 96.857 129.399 96.7805 129.396C96.7039 129.393 96.6291 129.372 96.5621 129.334C96.4331 129.257 96.4187 129.14 96.5299 129.074C96.5997 129.042 96.6759 129.027 96.7524 129.03C96.829 129.033 96.9038 129.055 96.9708 129.093Z" fill="#FF3333"/>
<path d="M97.4727 129.531L97.3078 129.63L96.7378 129.294L96.9027 129.195L97.4727 129.531Z" fill="#FF3333"/>
<path d="M89.5468 123.861C91.3033 124.895 91.4969 126.459 89.9734 127.354C88.4499 128.249 85.7972 128.135 84.0478 127.102C82.2985 126.068 82.1013 124.508 83.6212 123.613C85.1412 122.718 87.7939 122.831 89.5468 123.861Z" fill="#FF3333"/>
<path d="M89.3172 124C90.9268 124.946 91.1096 126.378 89.708 127.197C88.3063 128.015 85.8795 127.927 84.2735 126.966C82.6676 126.006 82.4812 124.588 83.8828 123.77C85.2844 122.951 87.7077 123.054 89.3172 124Z" fill="#FF3333"/>
<path d="M85.5605 125.513L84.5425 126.112L85.7183 126.806L86.7399 126.207H86.7435L87.8835 126.243L86.5392 125.45L85.4996 124.84L85.5605 125.513Z" fill="white"/>
<path d="M87.8009 125.691C87.7716 125.705 87.7399 125.712 87.7077 125.712C87.6756 125.712 87.6438 125.705 87.6145 125.691L86.4566 125.008C86.4029 124.975 86.3957 124.928 86.4566 124.899C86.4847 124.883 86.5161 124.875 86.548 124.875C86.5799 124.875 86.6113 124.883 86.6395 124.899L87.8009 125.582C87.8403 125.615 87.8475 125.662 87.8009 125.691Z" fill="white"/>
<path d="M88.5502 125.607C88.5209 125.621 88.4891 125.628 88.457 125.628C88.4249 125.628 88.3931 125.621 88.3638 125.607L86.5965 124.566C86.5428 124.533 86.5356 124.486 86.5965 124.457C86.625 124.442 86.6562 124.435 86.6879 124.435C86.7196 124.435 86.7509 124.442 86.7793 124.457L88.5466 125.494C88.5896 125.531 88.5968 125.578 88.5502 125.607Z" fill="white"/>
<path d="M89.2742 125.483C89.2452 125.497 89.2133 125.505 89.181 125.505C89.1488 125.505 89.1169 125.497 89.0878 125.483L86.808 124.117C86.7542 124.088 86.747 124.037 86.808 124.011C86.8367 123.996 86.8687 123.988 86.9012 123.988C86.9336 123.988 86.9656 123.996 86.9944 124.011L89.2742 125.352C89.3137 125.406 89.3209 125.454 89.2742 125.483Z" fill="white"/>
<path d="M80.6315 118.575C80.7606 118.962 80.4344 119.51 80.1368 119.813C79.721 120.233 78.9037 121.023 78.8714 121.048C78.9619 121.064 79.0548 121.061 79.1438 121.037C79.2329 121.014 79.316 120.972 79.3876 120.913C79.5206 120.825 79.6582 120.744 79.7999 120.672C79.9898 120.529 80.3053 120.277 80.4774 120.117C81.0545 119.58 81.2947 118.944 81.1226 118.41C80.9075 117.742 80.1046 117.314 78.7316 117.183C77.9179 117.097 77.1368 116.811 76.4553 116.35C75.6739 115.813 74.7558 115.52 73.8134 115.506C73.518 115.48 73.2206 115.52 72.9416 115.622C72.6626 115.724 72.4085 115.887 72.1966 116.098C71.9727 116.351 71.8149 116.658 71.7378 116.989C71.9134 117.095 72.0461 117.161 72.2002 117.263C72.239 116.965 72.3638 116.685 72.5587 116.46C72.7203 116.301 72.9143 116.18 73.1268 116.106C73.3393 116.033 73.5651 116.007 73.7883 116.032C74.6488 116.045 75.4866 116.316 76.1972 116.81C76.9402 117.305 77.7881 117.612 78.6707 117.705C79.7963 117.826 80.4917 118.133 80.6315 118.575Z" fill="#FF3333"/>
</g>
<path d="M72.5372 100.431L68.0718 97.8341C70.0375 96.6935 71.6392 93.9269 71.6392 91.6699L76.1046 94.2667C76.1046 96.5236 74.5029 99.2902 72.5372 100.431Z" fill="#333333"/>
<path d="M33.805 122.781L29.3396 120.185L68.0721 97.8335L72.5375 100.43L33.805 122.781Z" fill="#333333"/>
<path d="M26.7913 120.428C27.4465 120.816 28.3444 120.768 29.3395 120.185L33.8048 122.782C32.8098 123.364 31.9119 123.413 31.2566 123.025C29.9219 122.248 28.1503 121.205 26.7913 120.428Z" fill="#333333"/>
<path d="M31.2567 123.024L26.7913 120.428C26.1603 120.064 25.7478 119.263 25.7478 118.146L30.2132 120.743C30.2132 121.86 30.6257 122.66 31.2567 123.024Z" fill="#333333"/>
<path d="M76.0803 94.242L71.6391 91.6696L71.3965 4.81274L75.8619 7.38519L76.0803 94.242Z" fill="#333333"/>
<path d="M71.3967 4.81249C71.3967 3.69614 71.0084 2.91955 70.3774 2.53125L74.8428 5.12799C75.4738 5.51629 75.8621 6.29288 75.8621 7.40923C74.5273 6.63264 72.7315 5.58908 71.3967 4.81249Z" fill="#333333"/>
<path d="M70.3528 2.50729L74.8183 5.10396C74.163 4.71566 73.2651 4.78848 72.2701 5.34665L67.8047 2.74991C68.7997 2.16747 69.6976 2.11899 70.3528 2.50729Z" fill="#333333"/>
<path d="M30.2134 120.743L25.7722 118.146L25.5295 31.2893L29.9707 33.886L30.2134 120.743Z" fill="#333333"/>
<path d="M33.5378 27.6977L29.0967 25.1253L67.8049 2.74976L72.2703 5.3465L33.5378 27.6977Z" fill="#333333"/>
<path d="M29.9705 33.886L25.5051 31.2892C25.5051 29.0322 27.1068 26.2656 29.0726 25.125L33.538 27.7217C31.5722 28.8624 29.9705 31.629 29.9705 33.886Z" fill="#333333"/>
<path d="M71.6149 0.298736C70.7898 -0.162364 69.6734 -0.11389 68.4357 0.614164L28.4413 23.7178C25.9902 25.1253 23.9759 28.5957 24.0002 31.4351L24.2429 119.821C24.2429 121.228 24.7525 122.223 25.5534 122.685L30.0188 125.281C29.2179 124.82 28.7083 123.825 28.7083 122.418L28.4656 34.0319C28.4656 31.2167 30.4556 27.7464 32.9067 26.3145L72.9011 3.21091C74.1388 2.50712 75.2552 2.4343 76.0803 2.8954L71.6149 0.298736Z" fill="url(#paint0_linear_1250_485)"/>
<path d="M72.9014 3.18674C75.3525 1.77917 77.3668 2.91975 77.391 5.73489L77.6337 94.1206C77.6337 96.9358 75.6437 100.406 73.1926 101.838L33.1982 124.942C30.747 126.349 28.7328 125.209 28.7085 122.393L28.4658 34.0076C28.4658 31.1925 30.4558 27.7221 32.907 26.2903L72.9014 3.18674Z" fill="#B8C7CF"/>
<path d="M72.2699 5.34635C74.2356 4.20573 75.8374 5.12792 75.8616 7.38489L76.1043 94.2417C76.1043 96.4987 74.5026 99.2653 72.5369 100.406L33.8044 122.757C31.8386 123.898 30.2369 122.976 30.2127 120.719L29.97 33.8618C29.97 31.6048 31.5717 28.8382 33.5374 27.6976L72.2699 5.34635Z" fill="#323142"/>
<path d="M73.3871 6.00161C75.3528 4.86099 76.9545 5.78326 76.9788 8.04022L77.2215 94.897C77.2215 97.1539 75.6197 99.9205 73.654 101.061L34.9216 123.412C32.9558 124.553 31.3541 123.631 31.3299 121.374L31.0872 34.517C31.0872 32.2601 32.6889 29.4935 34.6546 28.3529L44.8959 22.4556C45.8909 21.8732 46.8616 21.7761 47.5654 22.1887C48.2692 22.6013 49.24 22.5042 50.235 21.9218L57.8553 17.5291C58.8503 16.9467 59.7967 15.9517 60.5005 14.7383C61.2043 13.5248 62.1508 12.5056 63.1458 11.9474L73.3871 6.05019V6.00161Z" fill="#FF3333"/>
<path d="M74.7944 5.1038C74.1391 4.71551 73.2412 4.78833 72.2462 5.3465L62.0049 11.2437C61.0099 11.8262 60.0634 12.8212 59.3596 14.0346C58.6559 15.2481 57.7094 16.2673 56.7144 16.8255L49.0941 21.2181C48.0991 21.8005 47.1283 21.8976 46.4246 21.485C45.7208 21.0724 44.7501 21.1696 43.755 21.752L33.5138 27.6492C31.548 28.7898 29.9463 31.5565 29.9463 33.8134L30.189 120.67C30.189 121.787 30.6015 122.587 31.2325 122.951L32.3489 123.607C31.7179 123.243 31.3053 122.442 31.3053 121.325L31.0627 34.4686C31.0627 32.2117 32.6643 29.4451 34.6301 28.3044L44.8714 22.4072C45.8664 21.8248 46.8371 21.7277 47.5409 22.1403C48.2447 22.5529 49.2155 22.4558 50.2105 21.8733L57.8308 17.4807C58.8258 16.8983 59.7722 15.9033 60.476 14.6899C61.1798 13.4764 62.1263 12.4572 63.1213 11.899L73.3626 6.00172C74.3576 5.41928 75.2555 5.3708 75.9108 5.7591L74.7944 5.1038Z" fill="#2D2F59"/>
<path d="M37.6632 21.8975C37.6632 21.8975 37.4691 22.1401 37.2992 22.2372L36.1344 22.9167L34.387 23.9117L33.5376 24.3971C32.9552 24.7369 32.1058 24.7612 31.5961 24.4699L31.038 24.1544C30.5526 23.8632 30.6011 23.3536 31.1836 23.0381L34.9452 20.8782C35.5276 20.5384 36.377 20.5142 36.8867 20.8054L37.4448 21.1209C37.4448 21.1209 37.639 21.2665 37.6875 21.3393C37.8089 21.5092 37.8089 21.7033 37.6875 21.8975H37.6632Z" fill="#64C95C"/>
<path d="M31.0138 24.154H31.0623C31.0623 24.154 31.1351 24.154 31.1594 24.1055L34.921 21.9456C35.5035 21.6058 36.3529 21.5816 36.8625 21.8728L37.3721 22.164C37.8575 21.8242 37.8818 21.3874 37.4207 21.1205L36.8625 20.805C36.3771 20.5137 35.5035 20.5623 34.921 20.8778L31.1594 23.0377C30.577 23.3774 30.5284 23.8628 31.0138 24.154Z" fill="#B1BFC7"/>
<path d="M37.2749 22.2131L36.11 22.8926L34.3627 23.8876L33.9501 23.6449C33.7317 23.5236 33.6104 23.3537 33.6104 23.1595C33.6104 22.9411 33.7802 22.6985 34.0715 22.5286L34.9209 22.0432C35.5033 21.7035 36.3527 21.6792 36.8624 21.9704L37.2749 22.2131Z" fill="#B8C7CF"/>
<path d="M37.6633 21.3152V21.8733C37.6633 21.8733 37.4692 22.116 37.2993 22.2131L36.1344 22.8926L33.6348 23.1838V21.8005L37.6633 21.3394V21.3152Z" fill="#B8C7CF"/>
<path d="M34.4113 22.5286L33.9745 22.2616C33.4891 21.9704 33.5377 21.4608 34.1201 21.1453L34.9695 20.6599C35.5519 20.3202 36.4013 20.2959 36.911 20.5871L37.3478 20.8541C37.8332 21.1453 37.7846 21.6549 37.2022 21.9704L36.3528 22.4558C35.7703 22.7955 34.9209 22.8199 34.4113 22.5286Z" fill="#E2E6E6"/>
<path d="M26.0635 48.8364V50.0012V50.1954V51.3602L25.8694 51.2389V50.0983V49.8799V48.7393L26.0635 48.8364Z" fill="#B1BFC7"/>
<path d="M26.063 50.0012L27.058 50.5594V50.7778L26.063 50.1954V50.0012Z" fill="#B1BFC7"/>
<path d="M26.8399 48.7391C27.1796 48.9332 27.4466 49.3943 27.4466 49.7826V51.991C27.4466 52.3793 27.1554 52.525 26.8399 52.3308L25.0926 51.3358C24.7528 51.1417 24.4858 50.6805 24.4858 50.2922V48.0839C24.4858 47.6956 24.7771 47.5499 25.0926 47.7441L26.8399 48.7391ZM27.0583 50.7776V50.5592L26.0633 49.9768V48.8362L25.8934 48.7391V49.904L24.8984 49.3215V49.5399L25.8934 50.1224V51.263L26.0633 51.36V50.2194L27.0583 50.8019V50.7776Z" fill="#D8E3E3"/>
<path d="M24.8743 49.5155V49.2971L25.8693 49.8795V50.0979L24.8743 49.5155Z" fill="#B1BFC7"/>
<path d="M27.2285 48.5205L25.4811 47.5255C25.3112 47.4284 25.1656 47.4284 25.0443 47.477L24.656 47.6954C24.656 47.6954 24.9229 47.6468 25.0928 47.7439L26.8402 48.7389C27.1799 48.933 27.4469 49.3941 27.4469 49.7824V51.9909C27.4469 52.185 27.3741 52.3064 27.2527 52.3792L27.641 52.1608C27.641 52.1608 27.8109 51.9666 27.8109 51.7724V49.564C27.8109 49.1757 27.5439 48.7146 27.2042 48.5205H27.2285Z" fill="#B8C7CF"/>
<path d="M26.8399 60.7762C27.1796 60.9703 27.4466 61.4314 27.4466 61.8197V64.0282C27.4466 64.4164 27.1554 64.5621 26.8399 64.3679L25.0926 63.3729C24.7528 63.1788 24.4858 62.7177 24.4858 62.3294V60.121C24.4858 59.7327 24.7771 59.587 25.0926 59.7812L26.8399 60.7762Z" fill="#D8E3E3"/>
<path d="M27.0584 62.5962L24.8743 61.3342V61.5526L27.0584 62.8146V62.5962Z" fill="#B1BFC7"/>
<path d="M27.2285 60.5574L25.4811 59.5623C25.3112 59.4653 25.1656 59.4653 25.0443 59.5138L24.656 59.7322C24.656 59.7322 24.9229 59.6837 25.0928 59.7807L26.8402 60.7758C27.1799 60.9699 27.4469 61.431 27.4469 61.8193V64.0277C27.4469 64.2219 27.3741 64.3432 27.2527 64.416L27.641 64.1976C27.641 64.1976 27.8109 64.0035 27.8109 63.8093V61.6009C27.8109 61.2126 27.5439 60.7515 27.2042 60.5574H27.2285Z" fill="#B8C7CF"/>
<path d="M26.4763 80.1904L26.1122 79.972C25.9423 79.8749 25.7968 79.875 25.6754 79.9235L25.2871 80.1419C25.2871 80.1419 25.554 80.0933 25.7239 80.1904L26.088 80.4088C26.4277 80.603 26.6947 81.0641 26.6947 81.4524V93.9992C26.6704 94.1933 26.5976 94.3147 26.5005 94.3875L26.8888 94.1691C26.8888 94.1691 27.0587 93.9749 27.0587 93.7808V81.2339C27.083 80.8456 26.816 80.3846 26.4763 80.1904Z" fill="#B8C7CF"/>
<path d="M26.0878 80.4332C26.4275 80.6273 26.6945 81.0884 26.6945 81.4767V94.0235C26.6702 94.4118 26.4033 94.5574 26.0635 94.3633L25.6995 94.1448C25.3597 93.9507 25.0928 93.4896 25.0928 93.1013V80.5545C25.117 80.1662 25.384 80.0206 25.7237 80.2148L26.0878 80.4332Z" fill="#D8E3E3"/>
<path d="M28.6841 116.472L24.2188 113.899V114.312L28.6841 116.884V116.472Z" fill="#323142"/>
<path d="M28.4654 39.614L24 37.0415V37.4541L28.4654 40.0266V39.614Z" fill="#323142"/>
<path d="M65.3296 58.0098L64.1358 58.6963C63.3599 59.1439 62.7332 58.6664 62.7332 57.6218V56.7862C62.7332 55.7416 63.3599 54.5479 64.1358 54.1002L65.3296 53.4138C66.1056 52.9661 66.7323 53.4437 66.7323 54.4882V55.3238C66.7323 56.3684 66.1056 57.5621 65.3296 58.0098Z" fill="white"/>
<path d="M71.5076 54.4582L70.3138 55.1447C69.5379 55.5923 68.9111 55.1148 68.9111 54.0702V53.2346C68.9111 52.19 69.5379 50.9963 70.3138 50.5486L71.5076 49.8623C72.2835 49.4146 72.9103 49.8921 72.9103 50.9366V51.7723C72.9103 52.8168 72.2835 54.0106 71.5076 54.4582Z" fill="white"/>
<path d="M65.3296 64.6943L64.1358 65.3808C63.3599 65.8284 62.7332 65.351 62.7332 64.3064V63.4708C62.7332 62.4262 63.3599 61.2324 64.1358 60.7847L65.3296 60.0984C66.1056 59.6507 66.7323 60.1282 66.7323 61.1727V62.0083C66.7323 63.0529 66.1056 64.2466 65.3296 64.6943Z" fill="white"/>
<path d="M71.5076 61.1439L70.3138 61.8302C69.5379 62.2779 68.9111 61.8004 68.9111 60.7559V59.9202C68.9111 58.8757 69.5379 57.6818 70.3138 57.2342L71.5076 56.5478C72.2835 56.1001 72.9103 56.5776 72.9103 57.6222V58.4578C72.9103 59.5023 72.2835 60.6962 71.5076 61.1439Z" fill="white"/>
<path d="M42.1108 70.5437L40.6484 71.4091C40.141 71.7075 39.6934 71.4688 39.6934 70.8719V69.1111C39.6934 68.7828 39.8128 68.3948 40.0515 68.0665L40.2903 67.7084C40.917 66.7236 41.8422 66.2162 42.4987 66.4251L42.7375 66.5147C42.9464 66.6042 43.0956 66.8131 43.0956 67.1414V68.9022C43.0956 69.4991 42.6778 70.2154 42.1406 70.5437H42.1108Z" fill="white"/>
<path d="M42.0511 77.8554L40.6782 78.6612C40.141 78.9895 39.6934 78.6612 39.6934 77.9151V69.8272C39.6934 69.111 40.141 68.2456 40.6782 67.9471L42.0511 67.1413C42.5883 66.813 43.0359 67.1413 43.0359 67.8874V75.9752C43.0359 76.6915 42.5883 77.5569 42.0511 77.8554Z" fill="white"/>
<path d="M46.0503 69.5888V70.8124C46.0503 71.5287 45.6026 72.3942 45.0654 72.6926L37.6939 76.9305C37.1567 77.2588 36.709 76.9305 36.709 76.1844V74.9607C36.709 74.2445 37.1567 73.3791 37.6939 73.0806L45.0654 68.8427C45.6026 68.5144 46.0503 68.8427 46.0503 69.5888Z" fill="white"/>
<path d="M39.694 73.0209V74.722C39.694 75.3189 39.2762 76.0351 38.739 76.3634L37.2169 77.2588C36.9483 77.408 36.6797 77.4379 36.5007 77.2588L36.3216 77.1095C35.7844 76.6917 35.7844 75.6174 36.3216 74.5728L36.5007 74.1849C36.6797 73.8267 36.9483 73.5282 37.2169 73.379L38.739 72.4837C39.2463 72.1853 39.694 72.424 39.694 73.0209Z" fill="white"/>
<path d="M40.6484 75.2296L42.1108 74.3641C42.6182 74.0656 43.0658 74.3044 43.0658 74.9013V76.6621C43.0658 76.9903 42.9465 77.3783 42.7077 77.7066L42.4689 78.0647C41.8422 79.0496 40.917 79.5868 40.2605 79.348L40.0217 79.2585C39.8128 79.169 39.6636 78.9302 39.6636 78.6318V76.871C39.6636 76.2741 40.0814 75.5579 40.6186 75.2296H40.6484Z" fill="white"/>
<path d="M43.0662 72.7526V71.0514C43.0662 70.4545 43.484 69.7383 44.0212 69.41L45.5432 68.5147C45.8118 68.3655 46.0805 68.3357 46.2595 68.5147L46.4386 68.6639C46.9758 69.0817 46.9758 70.1561 46.4386 71.2007L46.2595 71.5887C46.0805 71.9468 45.8118 72.2452 45.5432 72.3944L44.0212 73.2897C43.5138 73.5882 43.0662 73.3494 43.0662 72.7526Z" fill="white"/>
<path d="M51.8705 77.2583L49.9904 78.3626C49.4233 78.6908 48.9458 78.3626 48.9458 77.5568C48.9458 76.7808 49.4233 75.8855 49.9904 75.5572L51.8705 74.453C52.4376 74.1247 52.9151 74.4529 52.9151 75.2587C52.9151 76.0347 52.4376 76.9301 51.8705 77.2583Z" fill="white"/>
<path d="M57.2426 74.1556L59.1228 73.0514C59.6898 72.7231 60.1673 71.7979 60.1673 71.0517C60.1673 70.2758 59.6898 69.9177 59.1228 70.246L57.2426 71.3502C56.6755 71.6785 56.198 72.6037 56.198 73.3498C56.198 74.1258 56.6755 74.4839 57.2426 74.1556Z" fill="white"/>
<defs>
<linearGradient id="paint0_linear_1250_485" x1="6.96377" y1="111.958" x2="71.4693" y2="0.201668" gradientUnits="userSpaceOnUse">
<stop stop-color="#CAE3E3"/>
<stop offset="0.07" stop-color="#E3EBEB"/>
<stop offset="0.62" stop-color="#E9EFEF"/>
<stop offset="0.63" stop-color="#F5F8F8"/>
<stop offset="0.64" stop-color="#FCFDFD"/>
<stop offset="0.67" stop-color="#FEFFFF"/>
<stop offset="0.7" stop-color="#E3EBEB"/>
<stop offset="0.97" stop-color="#E3EBEB"/>
<stop offset="0.99" stop-color="#DAE7E7"/>
<stop offset="1" stop-color="#CDE3E3"/>
</linearGradient>
<clipPath id="clip0_1250_485">
<rect width="51" height="22" fill="white" transform="translate(50 113)"/>
</clipPath>
</defs>
</svg>
