<svg width="211" height="49" viewBox="0 0 211 49" fill="none" xmlns="http://www.w3.org/2000/svg">
<path d="M0 11.2027C0 9.8275 0.250474 8.48403 0.751422 7.17228C1.25237 5.83938 1.98292 4.63342 2.94307 3.5544C3.90322 2.47539 5.0721 1.61852 6.44971 0.983809C7.82732 0.327936 9.39278 0 11.1461 0C13.2334 0 15.0389 0.454879 16.5626 1.36464C18.1072 2.2744 19.2552 3.4592 20.0066 4.91904L16.0617 7.71179C15.7277 6.90782 15.2789 6.28368 14.7154 5.83938C14.1727 5.39508 13.5673 5.0883 12.8994 4.91904C12.2524 4.72863 11.6262 4.63342 11.0209 4.63342C10.0398 4.63342 9.18405 4.83441 8.4535 5.2364C7.72295 5.61723 7.11764 6.13558 6.63756 6.79145C6.15749 7.44732 5.80265 8.17725 5.57305 8.98122C5.34345 9.78519 5.22865 10.5892 5.22865 11.3931C5.22865 12.2817 5.36432 13.1386 5.63567 13.9637C5.90702 14.7889 6.29316 15.5188 6.79411 16.1535C7.31593 16.7882 7.94212 17.296 8.67267 17.6768C9.40322 18.0365 10.2068 18.2163 11.0835 18.2163C11.7097 18.2163 12.3463 18.1105 12.9933 17.899C13.6404 17.6874 14.2353 17.3595 14.778 16.9152C15.3415 16.4497 15.7694 15.8467 16.0617 15.1062L20.2571 17.6133C19.8188 18.7135 19.0987 19.655 18.0968 20.4378C17.0949 21.2206 15.9573 21.8236 14.684 22.2468C13.4317 22.6487 12.1897 22.8497 10.9582 22.8497C9.35103 22.8497 7.86906 22.5218 6.51233 21.8659C5.17647 21.1889 4.01802 20.3003 3.037 19.2001C2.07685 18.0788 1.32543 16.8305 0.782732 15.4553C0.260911 14.0589 0 12.6414 0 11.2027Z" fill="#494949"/>
<path d="M22.8394 22.6593V0.126943H27.9741V18.0894H38.7445V22.6593H22.8394Z" fill="#494949"/>
<path d="M50.4938 22.8497C48.8239 22.8497 47.3107 22.5324 45.9539 21.8977C44.6181 21.2418 43.4596 20.3744 42.4786 19.2953C41.5185 18.1952 40.7775 16.968 40.2556 15.614C39.7338 14.2388 39.4729 12.8212 39.4729 11.3614C39.4729 9.85924 39.7443 8.43113 40.287 7.07707C40.8505 5.72301 41.6228 4.51706 42.6038 3.4592C43.6057 2.38018 44.7851 1.5339 46.1418 0.920336C47.4985 0.306779 48.9805 0 50.5877 0C52.2367 0 53.7291 0.327936 55.0649 0.983809C56.4217 1.61852 57.5801 2.48597 58.5403 3.58614C59.5213 4.68631 60.2727 5.92401 60.7945 7.29922C61.3163 8.65328 61.5773 10.0391 61.5773 11.4566C61.5773 12.9588 61.3059 14.3869 60.7632 15.7409C60.2205 17.095 59.4482 18.3115 58.4463 19.3905C57.4444 20.4484 56.2651 21.2947 54.9084 21.9294C53.5725 22.543 52.101 22.8497 50.4938 22.8497ZM44.7016 11.4249C44.7016 12.2923 44.8268 13.1386 45.0773 13.9637C45.3277 14.7677 45.693 15.487 46.1731 16.1218C46.674 16.7565 47.2898 17.2642 48.0203 17.6451C48.7509 18.0259 49.5858 18.2163 50.5251 18.2163C51.5061 18.2163 52.3619 18.0259 53.0924 17.6451C53.823 17.2431 54.4283 16.7142 54.9084 16.0583C55.3885 15.4024 55.7433 14.6725 55.9729 13.8685C56.2234 13.0434 56.3486 12.2077 56.3486 11.3614C56.3486 10.494 56.2234 9.65825 55.9729 8.85427C55.7224 8.0503 55.3467 7.33096 54.8458 6.69624C54.3448 6.04037 53.7291 5.5326 52.9985 5.17293C52.268 4.81326 51.4435 4.63342 50.5251 4.63342C49.5441 4.63342 48.6883 4.82383 47.9577 5.20466C47.248 5.58549 46.6427 6.10384 46.1418 6.75972C45.6617 7.39443 45.2964 8.12435 45.046 8.94948C44.8164 9.75345 44.7016 10.5786 44.7016 11.4249Z" fill="#494949"/>
<path d="M74.0936 22.8497C72.3194 22.8497 70.8062 22.5535 69.5538 21.9611C68.3014 21.3476 67.2786 20.5225 66.4855 19.4858C65.7132 18.4279 65.1392 17.2325 64.7635 15.8996C64.4086 14.5456 64.2312 13.128 64.2312 11.647V0.126943H69.3659V11.647C69.3659 12.4933 69.4494 13.3184 69.6164 14.1224C69.7834 14.9052 70.0547 15.6034 70.4304 16.217C70.8062 16.8305 71.2862 17.3171 71.8707 17.6768C72.476 18.0365 73.217 18.2163 74.0936 18.2163C74.9912 18.2163 75.7426 18.0365 76.3479 17.6768C76.9532 17.296 77.4333 16.7988 77.7881 16.1852C78.143 15.5505 78.4039 14.8418 78.5708 14.0589C78.7378 13.2761 78.8213 12.4722 78.8213 11.647V0.126943H83.956V11.647C83.956 13.2127 83.7578 14.6725 83.3612 16.0266C82.9855 17.3806 82.401 18.576 81.6078 19.6127C80.8147 20.6282 79.7919 21.4216 78.5395 21.9929C77.308 22.5641 75.8261 22.8497 74.0936 22.8497Z" fill="#494949"/>
<path d="M87.9345 22.6593V0.126943H96.2315C98.6736 0.126943 100.709 0.634715 102.337 1.65026C103.986 2.64465 105.228 3.99871 106.063 5.71244C106.897 7.40501 107.315 9.288 107.315 11.3614C107.315 13.6464 106.856 15.6351 105.937 17.3277C105.019 19.0203 103.725 20.332 102.055 21.263C100.406 22.1939 98.4649 22.6593 96.2315 22.6593H87.9345ZM102.086 11.3614C102.086 10.0497 101.857 8.89659 101.397 7.9022C100.938 6.88666 100.27 6.10384 99.3937 5.55376C98.5171 4.98251 97.463 4.69689 96.2315 4.69689H93.0692V18.0894H96.2315C97.4838 18.0894 98.5379 17.8038 99.3937 17.2325C100.27 16.6401 100.938 15.8361 101.397 14.8206C101.857 13.7839 102.086 12.6308 102.086 11.3614Z" fill="#494949"/>
<path d="M16.907 44.2714V48.8413H1.28368V26.3089H16.6252V30.8789H6.4184V35.2584H15.185V39.4793H6.4184V44.2714H16.907Z" fill="#FF3333"/>
<path d="M25.1612 35.9566V48.8413H20.0264V26.3089H24.0966L34.3974 39.5745V26.3089H39.5321V48.8413H35.3367L25.1612 35.9566Z" fill="#FF3333"/>
<path d="M53.2077 49C51.7466 49 50.3689 48.725 49.0748 48.1749C47.7807 47.6036 46.6431 46.8102 45.6621 45.7947C44.6811 44.758 43.9088 43.5415 43.3452 42.1451C42.8025 40.7275 42.5312 39.1513 42.5312 37.4164C42.5312 35.8508 42.813 34.391 43.3765 33.0369C43.9401 31.6829 44.7228 30.4875 45.7247 29.4508C46.7266 28.4141 47.8955 27.6101 49.2314 27.0389C50.5881 26.4465 52.0492 26.1503 53.6147 26.1503C55.6602 26.1503 57.4657 26.5946 59.0312 27.4832C60.5966 28.3718 61.7551 29.5671 62.5065 31.0693L58.6868 33.989C58.1858 32.9946 57.4553 32.2118 56.4951 31.6405C55.5559 31.0693 54.5331 30.7837 53.4268 30.7837C52.5919 30.7837 51.8196 30.9635 51.1099 31.3232C50.4211 31.6617 49.8158 32.1483 49.294 32.783C48.793 33.3966 48.4069 34.1159 48.1356 34.9411C47.8642 35.7662 47.7285 36.6548 47.7285 37.6069C47.7285 38.5801 47.8746 39.4793 48.1669 40.3044C48.4591 41.1295 48.8661 41.8489 49.3879 42.4624C49.9097 43.0548 50.5255 43.5203 51.2352 43.8588C51.9657 44.1973 52.7693 44.3666 53.646 44.3666C54.7105 44.3666 55.7228 44.1021 56.683 43.5732C57.664 43.0231 58.5615 42.2191 59.3756 41.1613V46.3025C57.6014 48.1008 55.5454 49 53.2077 49ZM59.0625 40.8439H54.7418V37.0674H63.3205V48.8413H59.0625V40.8439Z" fill="#FF3333"/>
<path d="M66.7152 48.8413V26.3089H71.8499V48.8413H66.7152Z" fill="#FF3333"/>
<path d="M81.2365 35.9566V48.8413H76.1018V26.3089H80.172L90.4728 39.5745V26.3089H95.6075V48.8413H91.4121L81.2365 35.9566Z" fill="#FF3333"/>
<path d="M115.482 44.2714V48.8413H99.8589V26.3089H115.2V30.8789H104.994V35.2584H113.76V39.4793H104.994V44.2714H115.482Z" fill="#FF3333"/>
<path d="M134.225 44.2714V48.8413H118.602V26.3089H133.943V30.8789H123.736V35.2584H132.503V39.4793H123.736V44.2714H134.225Z" fill="#FF3333"/>
<path d="M137.344 48.8413V26.3089H147.363C148.407 26.3089 149.367 26.5311 150.244 26.9754C151.141 27.3985 151.914 27.9804 152.561 28.7209C153.208 29.4402 153.709 30.2547 154.064 31.1645C154.439 32.0743 154.627 32.9946 154.627 33.9255C154.627 34.8564 154.481 35.745 154.189 36.5913C153.897 37.4165 153.479 38.1675 152.936 38.8446C152.394 39.5004 151.747 40.0399 150.995 40.4631L155.88 48.8413H150.213L145.954 41.5738H142.479V48.8413H137.344ZM142.479 37.0356H147.176C147.593 37.0356 147.958 36.9087 148.271 36.6548C148.605 36.3797 148.877 36.0095 149.085 35.544C149.294 35.0786 149.399 34.5391 149.399 33.9255C149.399 33.312 149.273 32.783 149.023 32.3387C148.793 31.8733 148.501 31.5136 148.146 31.2597C147.791 31.0058 147.416 30.8789 147.019 30.8789H142.479V37.0356Z" fill="#FF3333"/>
<path d="M158.319 48.8413V26.3089H163.454V48.8413H158.319Z" fill="#FF3333"/>
<path d="M172.841 35.9566V48.8413H167.706V26.3089H171.776L182.077 39.5745V26.3089H187.212V48.8413H183.016L172.841 35.9566Z" fill="#FF3333"/>
<path d="M200.887 49C199.426 49 198.048 48.725 196.754 48.1749C195.46 47.6036 194.323 46.8102 193.342 45.7947C192.361 44.758 191.588 43.5415 191.025 42.1451C190.482 40.7275 190.211 39.1513 190.211 37.4164C190.211 35.8508 190.492 34.391 191.056 33.0369C191.62 31.6829 192.402 30.4875 193.404 29.4508C194.406 28.4141 195.575 27.6101 196.911 27.0389C198.268 26.4465 199.729 26.1503 201.294 26.1503C203.34 26.1503 205.145 26.5946 206.711 27.4832C208.276 28.3718 209.435 29.5671 210.186 31.0693L206.366 33.989C205.865 32.9946 205.135 32.2118 204.175 31.6405C203.235 31.0693 202.213 30.7837 201.106 30.7837C200.271 30.7837 199.499 30.9635 198.789 31.3232C198.101 31.6617 197.495 32.1483 196.973 32.783C196.473 33.3966 196.086 34.1159 195.815 34.9411C195.544 35.7662 195.408 36.6548 195.408 37.6069C195.408 38.5801 195.554 39.4793 195.846 40.3044C196.139 41.1295 196.546 41.8489 197.067 42.4624C197.589 43.0548 198.205 43.5203 198.915 43.8588C199.645 44.1973 200.449 44.3666 201.325 44.3666C202.39 44.3666 203.402 44.1021 204.362 43.5732C205.343 43.0231 206.241 42.2191 207.055 41.1613V46.3025C205.281 48.1008 203.225 49 200.887 49ZM206.742 40.8439H202.421V37.0674H211V48.8413H206.742V40.8439Z" fill="#FF3333"/>
</svg>
