<svg xmlns="http://www.w3.org/2000/svg" width="73" height="113" fill="none" viewBox="0 0 73 113"><g id="Group 841"><g id="XMLID 1"><path id="XMLID 52" fill="#6B99D1" d="M72.4605 84.7042L60.4194 77.8436C59.6928 77.434 58.4472 77.434 57.7206 77.8436L45.6276 84.7042C44.901 85.1138 44.901 85.8306 45.6276 86.2402L57.6687 93.1009C58.3953 93.5105 59.6409 93.5105 60.3675 93.1009L72.4086 86.2402C73.1871 85.8306 73.1871 85.1138 72.4605 84.7042Z" opacity="0.15"/><path id="XMLID 50" fill="#6B99D1" d="M54.2955 91.3602L50.0396 88.9539C47.185 87.3155 43.1886 86.9059 41.1645 88.0835C39.1404 89.2611 39.8151 91.5138 42.7215 93.1522L46.9774 95.5586C49.832 97.1969 53.8284 97.6065 55.8525 96.4289C57.8767 95.2514 57.1501 92.9986 54.2955 91.3602Z" opacity="0.15"/><g id="XMLID 42"><path id="XMLID 48" fill="#DCEEFF" d="M45.3675 71.3414L57.4085 64.4808C58.1352 64.0712 59.3808 64.0712 60.1074 64.4808L72.2004 71.3414C72.927 71.751 72.927 72.4678 72.2004 72.8774L60.1074 79.7381C59.3808 80.1477 58.1352 80.1477 57.4085 79.7381L45.3675 72.8774C44.6409 72.4678 44.6409 71.751 45.3675 71.3414Z"/><g id="XMLID 47"><path id="Vector" fill="white" d="M58.758 64.6856C59.1732 64.6856 59.5884 64.788 59.8479 64.9416L71.889 71.8022C72.0966 71.9046 72.2004 72.0582 72.2004 72.1094C72.2004 72.1606 72.0966 72.3142 71.889 72.4166L59.8479 79.3285C59.5884 79.4821 59.1732 79.5845 58.758 79.5845C58.3428 79.5845 57.9276 79.4821 57.668 79.3285L45.627 72.4678C45.4194 72.3654 45.3156 72.2118 45.3156 72.1606C45.3156 72.1094 45.4194 71.9558 45.627 71.8534L57.668 64.9416C57.9795 64.788 58.3428 64.6856 58.758 64.6856ZM58.758 64.1736C58.2909 64.1736 57.7718 64.276 57.4085 64.4808L45.3675 71.3414C44.6409 71.751 44.6409 72.4678 45.3675 72.8774L57.4085 79.7381C57.7718 79.9429 58.2909 80.0453 58.758 80.0453C59.2251 80.0453 59.7441 79.9429 60.1074 79.7381L72.2004 72.8774C72.927 72.4678 72.927 71.751 72.2004 71.3414L60.1074 64.4808C59.7441 64.276 59.277 64.1736 58.758 64.1736Z"/></g><path id="XMLID 45" fill="#A5CBFA" d="M44.7995 84.1409C44.7995 84.4481 45.0071 84.7041 45.3704 84.9089L57.4115 91.7695C57.7748 91.9743 58.19 92.0767 58.7609 92.0767V80.0962C58.2419 80.0962 57.7748 79.9938 57.4115 79.789L45.3704 72.8771C45.059 72.7235 44.7995 72.4675 44.7995 72.1091V84.1409Z"/><path id="XMLID 43" fill="#C8E2FF" d="M72.722 84.1409C72.722 84.4481 72.5144 84.7041 72.1511 84.9089L60.11 91.7695C59.7467 91.9743 59.3315 92.0767 58.7606 92.0767V80.0962C59.2796 80.0962 59.7467 79.9938 60.11 79.789L72.203 72.8771C72.5144 72.7235 72.7739 72.4675 72.7739 72.1091V84.1409H72.722Z"/></g><g id="XMLID 2"><path id="XMLID 40" fill="#FFA8A7" d="M42.2025 64.7879C42.6696 64.7879 43.0329 64.6343 43.7076 64.6855C44.2785 64.7367 44.6418 64.7367 45.1608 64.6855C45.6798 64.5831 47.0293 63.4567 48.1711 62.3816C49.4686 61.1016 50.6104 59.2584 50.9218 58.2856C51.4409 56.6473 52.2194 53.3193 52.5827 52.193C52.946 51.0666 53.5169 50.8106 54.1916 50.7082C55.022 50.5546 55.541 50.8618 55.2296 52.5002C54.8144 54.1897 54.0359 57.3641 52.9979 59.4632C52.4789 60.4872 51.5447 62.0232 49.8838 63.6615C48.742 64.7879 47.6521 65.5047 46.2507 66.3239C45.8874 66.5799 45.6279 66.8359 45.0051 67.3479C44.3304 67.8599 43.4481 68.3207 42.7215 68.423C41.9948 68.5254 41.7353 68.4742 41.6315 68.3207C41.5277 68.1671 41.6315 68.0135 41.9429 67.9111C42.2544 67.8087 42.8253 67.7575 43.3962 67.3479C43.3962 67.3479 42.7215 67.5527 42.3063 67.6551C41.891 67.7575 41.4758 67.7575 41.1644 67.7575C40.8011 67.7575 40.4897 67.2455 40.8011 67.1943C41.1125 67.0919 41.372 67.0919 41.9948 66.9895C42.5658 66.8359 42.9291 66.6311 42.9291 66.6311C42.9291 66.6311 42.2544 66.7335 41.6315 66.7335C41.0606 66.7335 40.8011 66.6311 40.6454 66.5287C40.4897 66.4263 40.3859 66.1191 40.8011 66.0679C41.1644 66.0167 41.6834 66.1191 42.3582 65.8631C42.8772 65.7095 43.1886 65.5047 43.0848 65.4535C42.981 65.4023 42.7215 65.5047 42.2544 65.4535C41.8391 65.4023 41.4239 65.0439 41.5277 64.8391C41.6834 64.6343 41.7353 64.7879 42.2025 64.7879Z"/><path id="XMLID 39" fill="#E4F2F2" d="M54.2449 50.5035C53.4145 50.3499 52.7398 51.0667 52.3246 52.2443C51.9093 53.4219 51.3903 55.9306 51.0789 56.801C50.7675 57.6714 50.6118 58.3882 50.6118 58.3882C50.6118 58.3882 52.0131 59.5658 53.5183 59.2586C53.5183 59.2586 54.5044 56.6474 54.9715 54.4459C55.4905 52.1931 55.6981 50.8107 54.2449 50.5035Z"/><path id="XMLID 38" fill="#F5FBFB" d="M52.0124 58.7978C51.182 58.5418 50.7149 57.9786 50.7149 57.9786L50.7668 57.6714C50.7668 57.6714 50.6111 57.6714 50.3516 58.337C50.0921 59.0026 50.0402 59.4634 50.144 59.6169C50.7668 60.5385 52.6872 60.9481 53.0505 60.4361C53.31 60.0777 53.9328 59.105 53.7252 58.6954L53.6214 59.0026C53.6214 59.0026 53.0505 59.105 52.0124 58.7978Z"/><path id="XMLID 36" fill="#2D2979" d="M47.1851 86.1894C47.1851 86.1894 47.237 86.6502 47.3408 87.0086C47.4446 87.367 47.5484 87.9814 47.4446 88.2885C47.3927 88.5957 46.5104 89.0053 46.0433 89.0565C45.5762 89.1077 44.7976 89.6197 44.5381 89.9781C44.1229 90.4901 43.0849 90.8485 42.4102 90.7461C41.7355 90.6949 40.957 90.4901 40.8013 90.2341C40.6455 89.9781 40.8532 89.6709 42.2545 88.6469C43.6558 87.6742 44.59 87.0598 45.0571 86.1382L47.1851 86.1894Z"/><path id="XMLID 34" fill="#2D2979" d="M52.3247 95.6609C51.9614 96.1729 51.3386 96.4289 50.7677 96.4801C50.4563 96.5313 50.0929 96.5313 49.7815 96.5313C49.4182 96.5313 48.8992 96.3265 48.9511 95.9169C48.9511 95.7633 49.0549 95.6609 49.1068 95.5585C49.6777 94.8417 50.2486 94.1761 50.7677 93.4082C51.3386 92.589 51.9095 91.7698 52.1171 90.541H54.245C54.245 90.6946 54.2969 90.9506 54.3488 91.2066C54.4007 91.4626 54.4526 91.6674 54.5045 91.8722C54.6083 92.333 54.6602 92.7938 54.4526 93.2546C54.2969 93.5618 53.9336 93.7666 53.6222 93.9713C53.0513 94.4321 52.7399 95.0465 52.3247 95.6609Z"/><path id="XMLID 33" fill="#7FA8E6" d="M62.3388 67.9623C63.1174 72.7238 60.6261 74.1062 58.2906 75.847C56.3702 77.2806 54.5018 78.3557 54.5018 78.3557C54.5018 78.3557 54.7094 79.4821 54.7613 81.7861C54.7613 83.834 54.2423 90.5411 54.2423 90.5411C54.2423 90.5411 53.1004 91.1043 52.1143 90.5411C52.1143 90.5411 51.3877 85.4724 51.0763 82.9124C50.6092 79.2773 50.194 77.6389 50.4016 76.871C50.5573 76.2054 53.6195 72.8774 54.3461 71.7511L47.547 75.6422C47.547 75.6422 47.7546 77.3318 47.7546 78.6117C47.7027 81.3765 47.2356 86.2404 47.2356 86.2404C47.2356 86.2404 46.0938 87.0596 45.1596 86.2404C45.1596 86.2404 43.0316 74.8742 43.0316 73.9014C43.0316 72.3654 49.2598 68.5767 50.6092 67.6551C51.751 66.9384 52.9966 65.9656 52.9966 65.9656L62.3388 67.9623Z"/><path id="XMLID 32" fill="#597BC6" d="M54.2964 71.7509C54.2964 71.7509 53.2064 70.9317 52.7393 69.5493C52.7393 69.5493 52.7912 70.4709 52.9988 71.1877C53.2064 71.9045 47.4973 75.5908 47.4973 75.5908L54.2964 71.7509Z"/><path id="XMLID 31" fill="#FFA8A7" d="M59.5375 49.8379C59.5375 49.8379 59.4337 52.0906 59.4856 52.2954C59.5375 52.5002 60.5236 53.1658 60.835 53.3706C61.1464 53.6266 59.278 55.4186 58.3437 55.8282C57.4095 56.2378 54.555 55.1626 54.5031 53.7802C54.4512 52.3978 55.0221 51.2203 55.4373 51.1691C55.8525 51.1179 59.5375 49.8379 59.5375 49.8379Z"/><path id="XMLID 30" fill="#F28F8F" d="M56.2678 52.4491C55.9564 52.1931 56.6311 51.3227 56.8387 50.9131C57.7729 50.6571 59.5376 49.8892 59.5376 49.8892C59.5376 49.8892 59.5376 50.4012 59.4857 50.7595C59.4857 51.1691 59.2262 51.6299 58.8629 51.8859C58.6034 52.0907 58.292 52.2955 57.8248 52.4491C57.5134 52.5515 56.7349 52.8587 56.2678 52.4491Z"/><path id="XMLID 29" fill="#F5FBFB" d="M59.7967 52.4999C59.7967 52.4999 58.1359 54.9575 55.8003 55.1623C55.0737 54.4455 55.0218 51.9367 56.0079 51.1176C56.0079 51.1176 55.0737 50.4008 54.4509 50.5032C54.4509 50.5032 53.4648 51.0152 52.9977 52.2951C52.5824 53.5751 52.1153 55.1111 52.1672 57.5174C52.2191 60.1798 52.4786 67.2964 52.4267 66.0677C52.4267 66.0677 52.1153 67.3476 54.2433 68.474C56.3193 69.6004 58.2916 70.1636 59.6929 69.8052C60.8866 69.5492 62.1323 68.8324 62.288 67.9108C62.1842 66.2213 61.8208 63.4565 62.0804 61.3062C62.3399 59.207 62.3399 57.4662 62.4437 55.7255C62.5475 54.0359 62.2361 54.0359 61.3537 53.4215C60.2638 52.7047 59.7967 52.4999 59.7967 52.4999Z"/><path id="XMLID 28" fill="#E4F2F2" d="M55.8544 55.1623C55.8544 55.1623 55.6468 54.0871 55.6468 53.4728C55.6987 52.7048 56.2696 51.6808 56.2696 51.6808V51.0664C56.2696 51.0664 55.8025 51.1176 55.4392 51.6296C55.024 52.0904 54.4531 53.1144 54.6088 54.1383C54.6088 54.0871 54.8683 54.6503 55.8544 55.1623Z"/><path id="XMLID 27" fill="#F5FBFB" d="M55.8523 55.1624C55.6966 54.8552 55.3852 53.78 55.2295 53.5752C54.9181 53.4728 54.6586 54.0872 54.6586 54.0872C54.6586 54.0872 54.6586 54.7016 55.0738 55.06C55.3852 55.4184 55.8523 55.1624 55.8523 55.1624Z"/><path id="XMLID 26" fill="#C8DBDA" d="M55.1755 53.5752C55.3312 53.7288 55.6426 54.804 55.7983 55.1624C55.7983 55.1624 55.6426 54.8552 55.435 54.6504C55.2793 54.4456 55.0717 54.036 54.5527 54.0872C54.6046 54.0872 54.8641 53.4728 55.1755 53.5752Z"/><path id="XMLID 25" fill="#543354" d="M60.525 44.9227C60.525 44.9227 60.7326 44.2571 59.8503 43.5403C58.7603 42.7211 57.2552 42.9259 55.6982 43.5403C54.6601 43.9499 53.1031 43.4379 53.4145 44.6155C53.8816 46.3051 57.1514 46.4586 58.6046 45.2811C58.6565 45.2299 59.6946 44.7691 60.525 44.9227Z"/><path id="XMLID 24" fill="#E4F2F2" d="M59.4864 51.6811C59.4345 52.0395 57.566 53.3706 57.1508 53.5754C56.6837 53.729 55.8533 55.1626 55.8533 55.1626C56.528 55.0602 57.047 55.3162 57.566 55.8282C57.566 55.8282 60.213 54.753 60.6282 52.9611C60.6282 52.9611 60.1611 52.0395 60.0573 51.7835C60.0054 51.5275 59.7978 51.2715 59.4864 51.2715V51.6811Z"/><path id="XMLID 23" fill="#F5FBFB" d="M57.5141 55.8279C57.5141 55.8279 57.3065 54.4967 57.047 54.3431C56.7875 54.2407 55.8533 55.1623 55.8533 55.1623C56.2166 55.4695 56.6837 55.7767 57.5141 55.8279Z"/><path id="XMLID 22" fill="#C8DBDA" d="M57.0459 54.343C57.3054 54.4454 57.513 55.8278 57.513 55.8278C57.513 55.8278 56.7864 55.1622 56.5269 55.111C56.3193 55.0598 55.8003 55.2134 55.8003 55.2134C55.8003 55.2134 56.7345 54.2406 57.0459 54.343Z"/><path id="XMLID 20" fill="#FFA8A7" d="M54.3448 46.5097C54.6043 44.769 55.9019 43.4378 57.7184 43.5402C59.6907 43.6426 61.1439 45.281 61.0401 47.2265C60.9882 48.3529 60.3654 49.3257 59.4831 49.8889C59.4831 49.8889 59.3273 50.5033 59.2235 50.6569C58.6007 51.4248 56.6285 51.8856 56.0576 51.7832C55.331 51.6808 54.9677 51.3736 54.6043 50.6057C54.0334 49.1721 54.241 47.3289 54.3448 46.5097Z"/><path id="XMLID 19" fill="#543354" d="M54.6586 45.0758C55.4371 43.9494 56.7865 43.2838 58.2916 43.591C59.7968 43.8982 60.9386 45.1782 61.0943 46.663C61.1981 47.9941 60.5753 49.1717 59.5892 49.8373C59.6411 49.7349 60.5753 48.3525 59.5892 48.0453C59.4335 48.1989 59.3816 48.5061 59.3816 48.7621C59.3816 48.7621 58.9145 48.7109 59.0183 48.1989C59.0702 48.0453 59.0702 47.8917 59.1221 47.7893C59.2259 47.3797 59.1221 46.919 58.8626 46.5606C58.655 46.2534 58.4993 45.895 58.6031 45.4342C58.6031 45.4342 57.4093 45.9462 55.9042 45.639C55.2295 45.4854 54.8143 45.2806 54.6586 45.0758Z"/><path id="XMLID 17" fill="#FFA8A7" d="M60.9881 72.9798C61.3514 72.7238 61.559 72.3654 62.1299 72.007C62.597 71.6998 62.8046 71.5462 63.0641 71.1366C63.3755 70.6758 63.7388 69.0886 63.8945 67.5527C64.1021 65.7607 63.6869 63.4567 63.3755 62.5352C62.7527 60.5896 61.4033 57.9784 60.9881 56.8521C60.5729 55.7257 60.8324 55.2137 61.2995 54.7017C61.8185 54.0873 62.7527 54.0873 63.5831 55.6233C64.4136 57.1081 65.5554 59.924 66.0744 62.1768C66.3339 63.2519 66.5934 65.0439 66.3858 67.3479C66.2301 68.935 65.8149 70.1638 65.2959 71.6998C65.1402 72.1094 65.1402 72.4678 64.9845 73.2869C64.8288 74.1061 64.4136 75.0277 63.8945 75.5397C63.4274 76.0517 63.1679 76.1541 63.0122 76.1029C62.8046 76.0517 62.8046 75.8469 63.0122 75.5909C63.2198 75.3349 63.5831 74.9253 63.7907 74.2597C63.7907 74.2597 63.3755 74.8741 63.116 75.1813C62.8565 75.5397 62.5451 75.7957 62.2856 76.0005C61.9742 76.2053 61.4552 76.0517 61.6628 75.7445C61.8704 75.4885 62.078 75.3349 62.4413 74.8229C62.8046 74.3621 62.9603 73.9525 62.9603 73.9525C62.9603 73.9525 62.4932 74.4645 62.0261 74.8229C61.559 75.1813 61.2995 75.2325 61.1438 75.2837C60.9881 75.3349 60.6767 75.1301 60.9881 74.8229C61.2476 74.5669 61.6628 74.3109 62.078 73.6965C62.3894 73.2869 62.4932 72.9286 62.3894 72.9286C62.2856 72.9286 62.1299 73.1845 61.7147 73.4405C61.3514 73.6453 60.8324 73.6453 60.7286 73.4405C60.5729 73.1845 60.6248 73.2357 60.9881 72.9798Z"/><path id="XMLID 16" fill="#E4F2F2" d="M61.3511 54.241C60.6245 54.5994 60.4688 55.5721 60.8321 56.7497C61.1954 57.9273 62.2853 60.2313 62.5448 61.1528C62.8043 62.0744 63.1157 62.6888 63.1157 62.6888C63.1157 62.6888 64.9323 62.8424 65.9703 61.6648C65.9703 61.6648 65.1918 58.9513 64.2575 56.9033C63.3752 54.8554 62.7005 53.6266 61.3511 54.241Z"/><path id="XMLID 15" fill="#F5FBFB" d="M64.5205 62.1765C63.6901 62.4325 62.9634 62.2789 62.9634 62.2789L62.8596 62.0229C62.8596 62.0229 62.7558 62.1253 62.9115 62.7909C63.1191 63.5077 63.3267 63.8661 63.5344 63.9173C64.5724 64.2757 66.3889 63.5077 66.3889 62.8933C66.3889 62.4837 66.2851 61.3061 65.8699 61.1013L65.9737 61.4085C65.9737 61.4085 65.5585 61.8693 64.5205 62.1765Z"/><path id="XMLID 14" fill="#FFA8A7" d="M59.5363 49.8377C59.5363 49.8377 59.6401 50.0425 59.9515 50.0425C60.5743 50.0937 61.3529 48.9161 60.8338 48.0969C60.5224 47.5849 59.7958 47.7897 59.5363 48.0457V49.8377Z"/><g id="XMLID 3"><g id="XMLID 4"><path id="XMLID 13" fill="#EFF6FE" d="M43.7093 70.4709L49.2108 67.3477C49.3146 67.2965 49.4184 67.2965 49.5222 67.3477L59.1239 72.826L53.4667 76.0516L43.7093 70.4709Z"/><path id="XMLID 12" fill="#AAD1FC" d="M53.5173 75.591L56.4756 73.9014L47.86 68.9863L44.9017 70.6759L53.5173 75.591Z"/><path id="XMLID 11" fill="#AEB5B7" d="M54.9684 70.9316H54.9165L53.4633 71.8019L50.9201 70.3172L50.8682 70.266L52.3734 69.4468L54.9684 70.9316Z"/><path id="XMLID 10" fill="#AAD1FC" d="M54.9175 70.9316L53.4643 71.802L50.9211 70.3172L52.3744 69.498L54.9175 70.9316Z"/><path id="XMLID 9" fill="#C8E2FF" d="M59.1239 72.8259V72.9283C59.1239 73.1331 59.0201 73.2867 58.8644 73.3891L53.7781 76.3075C53.6743 76.3587 53.6224 76.3587 53.5186 76.3587C53.4148 76.3587 53.311 76.3587 53.2591 76.3075L43.9688 71.0852C43.8131 70.9828 43.7093 70.8292 43.7093 70.6244V70.522L53.4667 76.1027L59.1239 72.8259Z"/><path id="XMLID 8" fill="#AAD1FC" d="M53.4667 76.0515V76.4099C53.3629 76.4099 53.2591 76.4099 53.2072 76.3587L43.9688 71.0852C43.8131 70.9828 43.7093 70.8292 43.7093 70.6244V70.522L53.4667 76.0515Z"/><path id="XMLID 7" fill="#EFF6FE" d="M53.3624 76.155C53.2067 76.2062 52.9991 76.2062 52.8434 76.1038L43.605 70.8815C43.4493 70.7791 43.3455 70.6255 43.2936 70.4719L42.3074 64.4816C42.3074 64.4304 42.3074 64.4304 42.3074 64.3792C42.3074 64.2257 42.3593 64.0721 42.515 63.9185L52.0649 69.3456C52.1687 69.3968 52.2725 69.5503 52.2725 69.6527L53.3624 76.155Z"/><path id="XMLID 6" fill="#C8E2FF" d="M53.4647 76.0516L53.4128 76.1028C53.3609 76.1028 53.3609 76.154 53.309 76.154L52.2191 69.7541C52.2191 69.6005 52.1153 69.4981 52.0115 69.4469L42.4617 63.9686C42.5136 63.9174 42.5655 63.9174 42.5655 63.8662L52.1672 69.3445C52.271 69.3957 52.3748 69.5493 52.3748 69.6517L53.4647 76.0516Z"/><path id="XMLID 5" fill="#AAD1FC" d="M48.1722 70.676C48.1203 70.2664 47.7051 69.7544 47.238 69.4985C46.7709 69.2425 46.5114 69.3449 46.5633 69.7544C46.6152 70.164 47.0304 70.676 47.4975 70.932C47.9127 71.188 48.2241 71.0856 48.1722 70.676Z"/></g></g></g></g><g id="XMLID 1_2"><path id="XMLID 32_2" fill="#6B99D1" d="M9.54655 91.3294C1.32864 96.0439 1.32864 103.72 9.54655 108.495C17.7644 113.21 31.0581 113.21 39.2156 108.495C47.4335 103.781 47.4335 96.1044 39.2156 91.3294C30.9977 86.6148 17.704 86.6148 9.54655 91.3294Z" opacity="0.15"/><g id="XMLID 2_2"><path id="XMLID 30_2" fill="url(#paint0_linear_1246_19742)" d="M41.4511 90.7249L41.149 90.1809H40.726C40.1822 89.7578 39.6383 89.3952 39.0341 89.0325C30.937 84.3179 17.7642 84.3179 9.66715 89.0325C9.06289 89.3952 8.45863 89.7578 7.97523 90.1809H7.55225L7.25012 90.7249C5.86033 93.2635 3.56415 96.7088 3.56415 97.4945C3.56415 100.577 5.5582 103.66 9.66715 106.017C17.7642 110.732 30.937 110.732 39.0341 106.017C43.0826 103.66 45.1371 100.577 45.1371 97.555C45.1371 96.5879 43.2034 93.0822 41.4511 90.7249Z"/><path id="XMLID 28_2" fill="url(#paint1_linear_1246_19742)" d="M39.0344 85.4666C38.3093 84.6808 37.4029 84.0159 36.2548 83.3511C29.6684 79.5431 19.0335 79.5431 12.5075 83.3511C11.3594 84.0159 10.453 84.7412 9.72794 85.4666H7.55261V90.1811C7.55261 92.6593 9.18411 95.1375 12.4471 97.0112C19.0335 100.819 29.6684 100.819 36.1944 97.0112C39.4574 95.1375 41.0889 92.6593 41.0889 90.1811V85.4666H39.0344Z"/><path id="XMLID 27_2" fill="#DCEEFF" d="M12.5075 79.1807C5.92109 82.9886 5.92109 89.0934 12.5075 92.9013C19.0939 96.7092 29.7288 96.7092 36.2548 92.9013C42.7808 89.0934 42.8412 82.9886 36.2548 79.1807C29.6684 75.4332 19.0335 75.4332 12.5075 79.1807Z"/><g id="XMLID 26_2"><path id="Vector_2" fill="white" d="M24.351 76.944C28.7621 76.944 32.871 77.9111 35.9528 79.7244C38.9136 81.4168 40.5451 83.7137 40.5451 86.0709C40.5451 88.4282 38.9136 90.6646 35.9528 92.4175C32.871 94.1703 28.7621 95.1978 24.351 95.1978C19.9399 95.1978 15.831 94.2307 12.7493 92.4175C9.7884 90.725 8.1569 88.4282 8.1569 86.0709C8.1569 83.7137 9.7884 81.4773 12.7493 79.7244C15.8914 77.9111 20.0003 76.944 24.351 76.944ZM24.351 76.3396C20.0608 76.3396 15.7705 77.3067 12.4471 79.1804C5.86072 82.9883 5.86072 89.0931 12.4471 92.901C15.7101 94.7747 20.0003 95.7418 24.351 95.7418C28.6412 95.7418 32.9315 94.7747 36.2549 92.901C42.8413 89.0931 42.8413 82.9883 36.2549 79.1804C32.9919 77.3067 28.6412 76.3396 24.351 76.3396Z"/></g><path id="XMLID 25_2" fill="url(#paint2_linear_1246_19742)" d="M7.55261 86.071C7.55261 88.5491 9.18411 91.0273 12.4471 92.901C19.0335 96.709 29.6684 96.709 36.1944 92.901C39.4574 91.0273 41.0889 88.5491 41.0889 86.071V0H7.55261V86.071Z" opacity="0.4"/><path id="XMLID 24_2" fill="#FF3333" d="M7.13024 66.8499C5.49874 65.8828 4.16938 64.8553 3.08171 63.7673C1.08766 61.7122 0.0604258 59.3549 0 57.0581V70.416V70.7787C0.0604258 74.3448 2.47746 77.8505 7.13024 80.5705C10.0307 82.2629 13.4749 83.4113 17.1005 84.0762V70.3556C13.4749 69.6907 10.0307 68.5423 7.13024 66.8499Z" opacity="0.5"/><path id="XMLID 23_2" fill="#FF3333" d="M38.1289 73.2571C39.7604 72.29 41.0898 71.2625 42.1775 70.1745C44.1715 68.1195 45.1988 65.7622 45.2592 63.4653V76.8233V77.1859C45.1988 80.7521 42.7817 84.2578 38.1289 86.9777C35.2285 88.6701 31.7842 89.8185 28.1587 90.4834V76.7628C31.7842 76.0979 35.2285 74.8891 38.1289 73.2571Z" opacity="0.5"/><g id="XMLID 19_2"><path id="XMLID 22_2" fill="#FF3333" d="M31.8445 62.7402V79.4829C27.1313 80.3895 21.9951 80.3895 17.2819 79.5433C13.7168 78.8785 10.3934 77.7905 7.55338 76.1585C6.82827 75.7354 6.16358 75.3123 5.55933 74.8288V58.1465C6.16358 58.63 6.82827 59.0531 7.55338 59.4762C10.3934 61.1082 13.7168 62.2566 17.2819 62.861C22.0556 63.7073 27.1313 63.6468 31.8445 62.7402Z" opacity="0.5"/><path id="XMLID 20_2" fill="white" d="M19.217 66.2461V70.7189V72.8344C22.057 73.197 25.0179 73.2575 27.8579 73.0157V71.9277V66.4274C24.9574 66.6692 22.057 66.6088 19.217 66.2461Z" opacity="0.7"/></g><g id="XMLID 9_2"><path id="XMLID 18" fill="#FF3333" d="M41.6946 47.0852C41.2112 47.5688 40.7278 48.0523 40.1235 48.4754C39.761 48.7172 39.4588 48.959 39.0358 49.2007C38.7941 49.3216 38.6129 49.4425 38.3712 49.6238C36.1354 50.9536 33.4162 51.8602 30.5762 52.4042C29.1864 52.646 27.7967 52.8273 26.3464 52.9482V68.3008C27.7967 68.2403 29.1864 68.059 30.5762 67.7568C33.4162 67.2128 36.075 66.3061 38.3712 64.9764C38.9754 64.6137 39.5797 64.2511 40.0631 63.828C40.6673 63.4049 41.2112 62.9213 41.6342 62.4378C43.0239 61.0476 43.8095 59.4761 44.0512 57.9046V55.7286V42.552C43.8699 44.1235 43.0844 45.6346 41.6946 47.0852Z" opacity="0.5"/><g id="XMLID 10_2" opacity="0.7"><g id="Group" opacity="0.7"><path id="XMLID 14_2" fill="white" d="M34.8067 54.7009V63.5256C34.1421 63.7674 33.4774 64.0092 32.7523 64.1905V55.3658C33.4169 55.1845 34.1421 54.9427 34.8067 54.7009Z" opacity="0.5"/><path id="XMLID 13_2" fill="white" d="M38.7952 52.8271V61.6518C38.6743 61.7123 38.5535 61.7727 38.4326 61.8936C37.8888 62.1958 37.2846 62.4981 36.7407 62.8003V53.9151C37.345 53.6733 37.8888 53.3711 38.4326 53.0085C38.5535 53.0085 38.6743 52.8876 38.7952 52.8271Z" opacity="0.5"/><path id="XMLID 12_2" fill="white" d="M42.7233 49.3215V58.1462C42.4212 58.5693 42.119 58.9924 41.6961 59.3551C41.3939 59.6573 41.0314 60.02 40.6688 60.3222V51.4975C41.0314 51.1953 41.3939 50.8326 41.6961 50.5304C42.119 50.1677 42.4212 49.7446 42.7233 49.3215Z" opacity="0.5"/></g></g></g><path id="XMLID 8_2" fill="#FF3333" d="M29.7898 39.3485V57.1188C28.7021 57.3001 27.5541 57.421 26.406 57.4814C23.7472 57.6628 21.0281 57.4814 18.4298 56.9979C18.0068 56.9374 17.5234 56.8166 17.1004 56.6957V38.9858C17.5234 39.1067 18.0068 39.1672 18.4298 39.2881C21.0281 39.7716 23.7472 39.8925 26.406 39.7716C27.5541 39.6507 28.7021 39.5298 29.7898 39.3485Z" opacity="0.5"/><path id="XMLID 7_2" fill="#FF3333" d="M41.4517 28.7709V43.2168C40.6661 42.4915 39.6993 41.887 38.6721 41.2222C34.684 38.9253 29.6082 37.7165 24.4116 37.5956V23.875C29.9104 23.875 35.4091 25.0839 39.6389 27.5016C40.2432 27.9247 40.9079 28.3478 41.4517 28.7709Z" opacity="0.5"/><g id="XMLID 3_2"><path id="XMLID 6_2" fill="#FF3333" d="M17.9466 31.0072C17.4632 30.9468 16.9798 30.8259 16.4964 30.705C14.4419 30.2819 12.5687 29.617 10.7559 28.7708C10.2121 28.529 9.66826 28.2268 9.12443 27.9246C8.88273 27.8037 8.64102 27.6224 8.39932 27.5015C8.15762 27.3806 7.97634 27.1993 7.73464 27.0784C7.55336 26.9575 7.43251 26.8366 7.25123 26.7158C7.25123 26.7158 7.25123 26.7158 7.19081 26.7158C6.52612 26.2322 5.98229 25.7487 5.43846 25.2047C3.68611 23.3914 2.77973 21.3363 2.7193 19.2812L2.77973 34.8151V35.1173C2.90058 37.2329 3.80696 39.2879 5.61974 41.1012C6.10314 41.6452 6.7074 42.1287 7.37208 42.6123C7.37208 42.6123 7.37208 42.6727 7.43251 42.6727C7.79506 42.9145 8.15762 43.1563 8.52017 43.4585C8.76188 43.5794 9.00358 43.7607 9.24528 43.8816C9.78911 44.1838 10.3329 44.486 10.8768 44.7278C12.6291 45.574 14.5627 46.1784 16.6172 46.662C17.1006 46.7829 17.584 46.9037 18.0674 46.9642C19.2155 47.1455 20.3636 47.3269 21.5117 47.3873L21.4513 31.5512C20.2428 31.3699 19.0947 31.249 17.9466 31.0072Z" opacity="0.5"/><path id="XMLID 4_2" fill="white" d="M9.48829 30.6446C7.91722 30.0402 6.04403 31.5513 6.10445 33.3646C6.16488 35.1779 6.52743 37.4747 9.36744 39.1067C12.5096 40.92 13.9598 38.4418 13.8389 36.3263C13.7181 33.969 12.3283 31.7326 9.48829 30.6446Z" opacity="0.7"/></g></g></g></g><defs><linearGradient id="paint0_linear_1246_19742" x1="3.5879" x2="45.154" y1="97.5671" y2="97.5671" gradientUnits="userSpaceOnUse"><stop stop-color="#6B99D1"/><stop offset="0.0205276" stop-color="#6E9BD3"/><stop offset="0.2361" stop-color="#86B0E4"/><stop offset="0.4632" stop-color="#97BFF0"/><stop offset="0.7077" stop-color="#A2C8F8"/><stop offset="1" stop-color="#A5CBFA"/></linearGradient><linearGradient id="paint1_linear_1246_19742" x1="7.57382" x2="41.1635" y1="90.2001" y2="90.2001" gradientUnits="userSpaceOnUse"><stop stop-color="#A5CBFA"/><stop offset="0.3632" stop-color="#A8CDFA"/><stop offset="0.6668" stop-color="#B3D4FC"/><stop offset="0.9482" stop-color="#C4DFFE"/><stop offset="1" stop-color="#C8E2FF"/></linearGradient><linearGradient id="paint2_linear_1246_19742" x1="24.3677" x2="24.3677" y1="95.5563" y2="-0.578019" gradientUnits="userSpaceOnUse"><stop stop-color="#FF3333" stop-opacity="0.7"/><stop offset="0.904" stop-color="#FF3333" stop-opacity="0.0671924"/><stop offset="1" stop-color="#FF3333" stop-opacity="0"/></linearGradient></defs></svg>