<svg xmlns="http://www.w3.org/2000/svg" width="60" height="102" fill="none" viewBox="0 0 60 102"><g id="Group 1993"><g id="Group"><g id="Group_2"><path id="Vector" fill="#EDF4FF" d="M41.5716 31.6202C41.095 31.3496 40.8245 31.1693 40.3479 30.8473C40.0258 30.6412 39.6652 30.3578 39.4977 30.2161C39.356 30.1001 39.0855 29.8683 38.8794 29.6364C38.815 29.5591 38.7248 29.4561 38.6733 29.3788C38.5831 29.2628 38.4801 29.0954 38.4028 28.9666C38.5573 29.2371 39.4075 29.8683 40.5282 30.5124C40.7987 30.989 41.1465 31.3625 41.5845 31.6073L41.5716 31.6202Z"/><path id="Vector_2" fill="#EDF4FF" d="M42.1773 31.968L41.5848 31.6202C41.1597 31.3755 40.799 31.0019 40.5285 30.5253L41.121 30.8731C41.3916 31.3497 41.7394 31.7233 42.1773 31.968Z"/><path id="Vector_3" fill="#EDF4FF" d="M53.6034 22.5259C53.6034 22.5259 53.6034 22.5517 53.5905 22.5646C53.642 22.8866 53.6678 23.2731 53.6807 23.6209C53.6807 26.9443 51.3491 30.9892 48.4636 32.6638C46.3897 33.8618 44.5862 33.514 43.736 31.9811C43.6072 32.1356 42.435 31.6333 41.1211 30.8732C41.3916 31.3499 41.7394 31.7234 42.1774 31.9682C43.1048 32.5092 43.8906 32.8828 44.5476 33.1275C45.1144 33.3336 45.6039 33.4238 46.0934 33.4109C46.8405 33.398 47.5104 33.1404 47.8324 32.9858C48.3219 32.7668 48.5795 32.5994 48.8758 32.4061C49.1592 32.2258 49.3396 32.0712 49.7131 31.7749C49.8935 31.6204 50.3186 31.221 50.4989 31.0278C50.6148 30.899 50.7694 30.7444 50.8725 30.6156C51.0786 30.358 51.362 29.9973 51.5552 29.7268C51.6582 29.5851 51.7871 29.4047 51.8772 29.2502C51.9674 29.1085 52.0833 28.9152 52.1735 28.7607C52.2637 28.619 52.3667 28.4129 52.444 28.2583C52.4955 28.181 52.663 27.8589 52.9206 27.2277C53.0065 27.0216 53.131 26.6738 53.2942 26.1843C53.3457 26.0298 53.3973 25.8108 53.4359 25.6562C53.5261 25.3084 53.6034 24.8189 53.6291 24.6128C53.6678 24.368 53.6935 23.9043 53.6935 23.5822C53.6935 23.5436 53.6807 23.2087 53.6678 23.0412C53.6678 22.8995 53.6549 22.8609 53.642 22.7707C53.6291 22.6548 53.6162 22.5646 53.6034 22.5131V22.5259Z"/><path id="Vector_4" fill="#EDF4FF" d="M38.4028 28.9922C38.0808 28.4511 37.7458 27.923 37.4238 27.382C37.2177 27.047 37.0116 26.6992 36.8055 26.3643C36.6638 26.1196 36.5092 25.8877 36.3675 25.6429C36.5994 26.0165 37.4882 26.7121 38.596 27.3562L40.5283 30.538C39.4204 29.8939 38.5703 29.2756 38.4028 28.9922Z"/><path id="Vector_5" fill="#EDF4FF" d="M41.1211 30.8729L40.5286 30.5251L38.5963 27.3562L39.1889 27.704L41.1211 30.8729Z"/><path id="Vector_6" fill="#EDF4FF" d="M43.7362 31.9809C43.6073 32.1354 42.4351 31.6331 41.1212 30.873L39.1889 27.6913C40.5029 28.4513 41.6107 28.8506 41.6622 28.5672L43.7362 31.9809Z"/><path id="Vector_7" fill="#EDF4FF" d="M32.7225 30.1128C32.3361 29.881 31.4215 29.3528 30.6357 28.7087C31.0479 29.0437 31.692 29.4816 32.4263 29.9067C32.5164 29.984 32.6195 30.0484 32.7225 30.1128Z"/><path id="Vector_8" fill="#EDF4FF" d="M33.3148 30.4611L32.7222 30.1133C32.6192 30.0489 32.5161 29.9845 32.426 29.9072L33.0185 30.255C33.1087 30.3323 33.2117 30.3967 33.3148 30.4611Z"/><path id="Vector_9" fill="#EDF4FF" d="M50.7563 6.05005C50.8465 6.60396 50.9496 7.14499 51.0397 7.69889C51.0784 7.94365 51.1428 8.27857 51.1814 8.52332C51.3231 9.34774 51.4648 10.1722 51.6065 10.9966C51.6065 11.0095 52.1733 14.2814 52.1733 14.2943C52.212 14.539 52.2764 14.874 52.315 15.1187C52.3537 15.3635 52.4181 15.6984 52.4567 15.9431C52.4954 16.1879 52.5598 16.5228 52.5984 16.7676C52.6371 17.0123 52.7015 17.3472 52.7401 17.592C52.8303 18.0815 52.9204 18.7513 53.0235 19.2408L53.5903 22.5385C53.5903 22.5385 53.5903 22.5643 53.5774 22.5772L50.7306 6.10158C50.7306 6.10158 50.7435 6.07581 50.7435 6.06293L50.7563 6.05005Z"/><path id="Vector_10" fill="#EDF4FF" d="M41.6485 28.6188C41.6485 28.6188 41.6485 28.5931 41.6614 28.5802C40.721 29.8812 39.8708 30.6928 38.9563 31.2209C37.6037 32.0067 36.3928 31.9809 35.5169 31.2596C35.4524 31.4657 34.3317 31.0148 33.0178 30.2548C33.108 30.3321 33.211 30.3965 33.3141 30.4609C34.3446 31.0535 35.2077 31.4657 35.8775 31.6718C36.0965 31.7362 36.2769 31.7748 36.2769 31.7748C36.5345 31.8264 36.5603 31.8264 36.805 31.8392C37.024 31.8521 37.3718 31.8264 37.5521 31.7748C37.7497 31.7319 37.9429 31.6761 38.1318 31.6074C38.2606 31.5687 38.4152 31.4914 38.5312 31.4399C38.6729 31.3755 39.1237 31.1565 39.6132 30.7701C39.858 30.5768 39.9739 30.4738 40.1414 30.3192C40.2702 30.2033 40.4763 29.9843 40.5407 29.9199C40.7081 29.7395 40.8498 29.585 41.0817 29.3145C41.3393 29.0053 41.5068 28.7734 41.6356 28.606L41.6485 28.6188Z"/><path id="Vector_11" fill="#EDF4FF" d="M35.492 31.298C32.8513 32.8181 30.2105 34.351 27.5698 35.871C27.5698 35.871 27.5698 35.871 27.5698 35.8581L35.5306 31.2594C35.5306 31.2594 35.5178 31.2852 35.5049 31.298H35.492Z"/><path id="Vector_12" fill="#EDF4FF" d="M30.919 14.5391C30.9577 14.3974 30.9834 14.1913 31.0092 14.0496C31.0264 13.938 31.035 13.7791 31.035 13.573C31.035 13.7276 31.9367 14.3717 33.1604 15.0801C33.1604 15.2605 33.1475 15.4408 33.1218 15.6212C33.0574 15.9947 32.9414 16.3683 32.7869 16.7419C32.3875 17.6565 31.7048 18.5067 30.9319 18.9446C29.7082 18.2361 28.7034 17.7595 28.5617 17.8368C28.6476 17.7853 28.7807 17.6951 28.961 17.5663C29.077 17.4761 29.2315 17.3473 29.3346 17.2443C29.4376 17.1283 29.5793 16.9866 29.6953 16.8707C29.7726 16.7848 29.8799 16.6431 30.0173 16.4456C30.1075 16.3168 30.2234 16.1364 30.3007 15.9947C30.378 15.853 30.4811 15.6598 30.5455 15.5181C30.597 15.4065 30.6657 15.2433 30.7516 15.0286C30.8031 14.8869 30.8675 14.6808 30.9062 14.5391H30.919Z"/><path id="Vector_13" fill="#EDF4FF" d="M30.9311 18.9446C31.704 18.4937 32.3868 17.6564 32.7861 16.7418C32.9793 16.8578 33.1854 16.9737 33.3786 17.0896C32.9793 18.0042 32.2966 18.8544 31.5237 19.2924C31.3433 19.1893 31.1115 19.0476 30.9311 18.9446Z"/><path id="Vector_14" fill="#EDF4FF" d="M33.7656 15.4282C33.7656 15.9564 33.6239 16.536 33.392 17.09C33.4049 17.0513 33.4178 17.0255 33.4436 16.9611C33.4822 16.8581 33.5208 16.7422 33.5595 16.6391C33.5853 16.5618 33.6239 16.4974 33.6497 16.4201C33.6883 16.3299 33.7012 16.2526 33.7141 16.214C33.7785 15.9306 33.7785 15.6214 33.7785 15.4282H33.7656Z"/><path id="Vector_15" fill="#EDF4FF" d="M32.7994 16.7419C33.0442 16.188 33.1859 15.6083 33.173 15.0802L33.7655 15.428C33.7655 15.9561 33.6239 16.5358 33.392 17.0897C33.1988 16.9738 32.9926 16.8579 32.7994 16.7419Z"/><path id="Vector_16" fill="#EDF4FF" d="M31.0348 12.6971V12.594V12.491C31.0348 12.6455 31.9365 13.2896 33.1602 13.9981V15.0802C31.9365 14.3717 31.0348 13.7276 31.0348 13.573V13.47V13.3669V13.2639V13.1608V13.0578V12.9547V12.8517C31.0348 12.8517 31.0348 12.7744 31.0348 12.7486V12.6971Z"/><path id="Vector_17" fill="#EDF4FF" d="M33.7659 15.4281L33.1734 15.0803V13.9854L33.7659 14.3332V15.4281Z"/><path id="Vector_18" fill="#776A63" d="M35.8911 16.9349C35.8911 16.9349 35.8911 16.9607 35.8782 16.9607C35.8782 18.2102 35.0023 19.7431 33.9073 20.3743C33.9073 20.3743 33.9073 20.4001 33.8944 20.4001C34.6158 19.975 35.0924 19.2794 35.3114 18.9058C35.4918 18.5967 35.6463 18.2489 35.7365 17.9268C35.8138 17.6692 35.8267 17.5661 35.8653 17.3214C35.8782 17.2183 35.8782 17.1539 35.8911 16.9349Z"/><path id="Vector_19" fill="#EDF4FF" d="M33.1734 13.9852C33.1734 12.4008 33.6371 10.5845 34.5002 8.87122C34.6934 8.98715 34.8995 9.10309 35.0928 9.20614C34.2297 10.9323 33.7531 12.7357 33.7659 14.333C33.5856 14.23 33.3537 14.0883 33.1734 13.9852Z"/><path id="Vector_20" fill="#776A63" d="M35.8911 15.8402V15.9433V16.0463V16.1494V16.2524V16.3555V16.4585V16.5616V16.6646V16.7677V16.8707C35.8911 16.8707 35.8911 16.8965 35.8783 16.8965V15.8145C35.8783 15.8145 35.8783 15.8016 35.8783 15.7887L35.8911 15.8402Z"/><path id="Vector_21" fill="#EDF4FF" d="M27.5698 35.871C27.5698 35.871 27.5698 35.871 27.5698 35.8582C26.7067 37.5843 25.4958 39.0013 24.1432 39.7742C23.2673 40.2766 22.4557 40.444 21.5283 40.2894C21.5283 40.341 21.5025 40.3538 21.4123 40.341C21.992 40.444 22.533 40.4183 23.0741 40.2637C23.8598 40.0447 24.491 39.5809 24.7358 39.4135C24.9677 39.246 25.2639 38.9884 25.3155 38.9369C25.4314 38.8338 25.5731 38.6921 25.689 38.5762C25.8823 38.3701 26.0497 38.1897 26.0497 38.1897C26.1012 38.1253 26.1657 38.048 26.2172 37.9836C26.2687 37.9192 26.3331 37.8419 26.3846 37.7775C26.5908 37.507 26.6809 37.3911 26.8613 37.1077C27.222 36.5538 27.4538 36.1029 27.5698 35.871Z"/><path id="Vector_22" fill="#EDF4FF" d="M21.5285 40.3021C20.8587 42.1829 20.1889 44.0636 19.5319 45.9572L21.5414 40.2764V40.3021H21.5285Z"/><path id="Vector_23" fill="#EDF4FF" d="M23.9114 20.5421L24.3752 20.2716L24.8389 20.0011L25.3026 19.7306L25.7664 19.4601L26.2301 19.1896L26.6939 18.9191L27.1576 18.6485L27.6213 18.378L28.0851 18.1075L28.5488 17.837C28.6776 17.7597 29.6824 18.2235 30.919 18.9448L26.2559 21.6371C25.0321 20.9286 24.0274 20.452 23.8857 20.5293L23.9114 20.5421Z"/><path id="Vector_24" fill="#EDF4FF" d="M26.8608 21.9848L26.2683 21.637L30.9314 18.9447L31.5369 19.2925L26.8608 21.9848Z"/><path id="Vector_25" fill="#776A63" d="M37.3468 10.3395C37.1794 10.6358 37.1665 10.6745 37.0119 10.9836C37.0119 10.9836 36.9088 11.2155 36.7929 11.4731C36.5095 12.1816 36.3421 12.787 36.3292 12.8515C36.2519 13.1434 36.1832 13.4397 36.1231 13.7403C36.1102 13.8176 36.0458 14.1525 36.02 14.3457C35.9041 15.1573 35.9041 15.6725 35.9041 15.84C35.9041 15.84 35.9041 15.8658 35.8912 15.8658C35.8912 13.9206 36.5739 11.6535 37.3082 10.3911C37.321 10.3782 37.3468 10.3524 37.3468 10.3267V10.3395Z"/><path id="Vector_26" fill="#EDF4FF" d="M24.6709 21.8046C24.4777 21.7016 24.0397 21.4439 23.6275 21.2378C23.3957 21.1219 23.2926 21.0832 23.0736 20.9802C23.0092 20.9544 22.8417 20.89 22.7387 20.8642C22.7902 20.8642 22.8289 20.8642 22.8804 20.8642C22.919 20.8642 22.9834 20.8642 23.0221 20.8642C23.1123 20.8642 23.2411 20.8256 23.3312 20.7998C23.576 20.7354 23.8336 20.5808 23.9238 20.5422C24.0526 20.4649 25.0574 20.9287 26.294 21.65C25.6757 22.0107 25.1089 22.0494 24.6967 21.8046H24.6709Z"/><path id="Vector_27" fill="#EDF4FF" d="M25.2634 22.1394L24.6708 21.7915C25.083 22.0234 25.6369 21.9976 26.2681 21.637L26.8607 21.9848C26.2424 22.3455 25.6756 22.3841 25.2634 22.1394Z"/><path id="Vector_28" fill="#776A63" d="M33.8941 20.4002L33.4303 20.6707L32.9666 20.9412L32.5028 21.2118L32.0391 21.4823L31.5754 21.7528L31.1116 22.0233L30.6479 22.2938L30.1841 22.5643L29.7204 22.8348L29.2567 23.1054C29.2567 23.1054 29.2696 23.0925 29.2696 23.0796L33.9327 20.3873C33.9327 20.3873 33.9327 20.4131 33.9198 20.4131L33.8941 20.4002Z"/><path id="Vector_29" fill="#776A63" d="M27.363 10.8552C27.363 11.3704 27.0023 12.0016 26.5515 12.2593C26.5515 12.2593 26.5515 12.2335 26.5644 12.2335C26.6159 12.1992 26.6588 12.1734 26.6932 12.1562C26.6932 12.1562 26.7834 12.0789 26.8091 12.0532C26.8478 12.0145 26.8864 11.9759 26.925 11.9372C26.968 11.8771 27.0023 11.8342 27.0281 11.8084C27.0281 11.8084 27.0925 11.7054 27.1183 11.6667C27.144 11.6281 27.1698 11.5637 27.1956 11.5121C27.2299 11.4434 27.2514 11.3919 27.26 11.3576C27.26 11.3576 27.2986 11.2545 27.3115 11.203C27.3115 11.1514 27.3373 11.0999 27.3373 11.0484C27.3373 10.9797 27.3373 10.9282 27.3373 10.8938C27.3373 10.8165 27.3373 10.6877 27.2857 10.6233C27.3244 10.6619 27.3244 10.6748 27.363 10.7135C27.4403 10.7908 27.4532 10.7908 27.5176 10.8552C27.6464 10.9582 27.6464 10.9582 27.7237 11.0226C27.8783 11.1386 27.8783 11.1386 27.9685 11.203C28.1488 11.3318 28.1617 11.3318 28.2647 11.4091C28.4021 11.5035 28.5095 11.5765 28.5868 11.6281C28.6641 11.6796 28.78 11.7526 28.9346 11.847C29.0892 11.9415 29.2137 12.0145 29.3081 12.066C29.2051 12.0016 29.0763 12.0145 28.9217 12.1047C27.6078 11.3447 26.5386 10.5846 26.5386 10.4172C26.9895 10.1596 27.3501 10.3657 27.3501 10.8809L27.363 10.8552Z"/><path id="Vector_30" fill="#776A63" d="M28.5868 11.5895C28.6899 11.654 28.7285 11.6797 28.9346 11.8085C29.0634 11.8858 29.0634 11.8858 29.3082 12.0275C29.4112 12.079 29.4628 12.2079 29.4628 12.3753C29.4628 12.633 29.3211 12.9421 29.1279 13.1482C29.0634 13.2126 28.9862 13.277 28.9218 13.3157C27.698 12.6072 26.6932 12.1306 26.5515 12.2079C26.5515 12.2079 26.5945 12.1821 26.6803 12.1306C26.6803 12.1306 26.7705 12.0533 26.7963 12.0275C26.8349 11.9889 26.8736 11.9502 26.9122 11.9116C26.9509 11.8729 26.9509 11.8729 27.0153 11.7828C27.041 11.7441 27.0797 11.6797 27.1054 11.6411C27.1312 11.6024 27.157 11.538 27.1827 11.4865C27.1827 11.4865 27.2042 11.435 27.2471 11.3319C27.2471 11.3319 27.2858 11.2289 27.2987 11.1773C27.2987 11.1258 27.3244 11.0743 27.3244 11.0228C27.3244 11.0228 27.3244 10.9712 27.3244 10.8682C27.3244 10.675 27.2858 10.6234 27.2729 10.5977C27.2987 10.6234 27.2987 10.6363 27.3502 10.6878C27.3888 10.7265 27.4017 10.7394 27.5048 10.8295C27.5692 10.8811 27.5692 10.8811 27.7109 10.997C27.7624 11.0399 27.844 11.1 27.9556 11.1773C28.0458 11.2417 28.0458 11.2417 28.2519 11.3834C28.3807 11.4736 28.4838 11.538 28.5739 11.6024L28.5868 11.5895Z"/><path id="Vector_31" fill="#776A63" d="M30.0681 12.7359L29.4756 12.3881C29.6688 12.504 29.8749 12.6199 30.0681 12.7359Z"/><path id="Vector_32" fill="#776A63" d="M26.4233 12.3105L26.4878 12.2719L26.5522 12.2332C26.681 12.156 27.6986 12.6197 28.9224 13.3411L28.2268 13.7404C27.003 13.0319 25.9982 12.5553 25.8566 12.6326L25.921 12.5939L25.9854 12.5553L26.0498 12.5166L26.1142 12.478L26.1786 12.4393L26.243 12.4007L26.3074 12.3621C26.3074 12.3621 26.3589 12.3363 26.3718 12.3234L26.4233 12.3105Z"/><path id="Vector_33" fill="#776A63" d="M25.7151 12.7489C25.7151 12.7489 25.6507 12.736 25.5991 12.7231C25.8052 12.736 26.591 13.0581 27.6087 13.6249L27.467 13.5476C27.3382 13.4832 27.3382 13.4703 27.1063 13.3543C27.029 13.3114 26.9131 13.2513 26.7585 13.174C26.6039 13.0967 26.4966 13.0452 26.4364 13.0194C26.3334 12.9679 26.3334 12.9679 26.153 12.8906C26.0629 12.852 26.0629 12.852 25.9083 12.8004C25.8052 12.7618 25.7537 12.7489 25.7151 12.736V12.7489Z"/><path id="Vector_34" fill="#77E2D8" d="M26.5644 10.9708C26.5644 10.9708 26.7061 10.9064 26.8607 10.9193C27.0282 10.9451 27.2472 11.0224 27.4146 11.0868C27.917 11.28 28.6126 11.6278 29.3211 12.04C29.2181 11.9756 29.0892 11.9885 28.9347 12.0787C27.7109 11.3702 26.7061 10.8935 26.5644 10.9708Z"/><path id="Vector_35" fill="#776A63" d="M29.4762 12.3877C29.4762 12.2203 29.4118 12.0914 29.3216 12.0399L29.9142 12.3877C30.0172 12.4392 30.0687 12.5681 30.0687 12.7355C29.8755 12.6196 29.6694 12.5037 29.4762 12.3877L30.0687 12.7355C30.0687 13.0833 29.824 13.5084 29.5277 13.6759L28.9352 13.3281C29.2314 13.1606 29.4762 12.7226 29.4762 12.3877Z"/><path id="Vector_36" fill="#776A63" d="M24.6708 21.8043C24.3488 21.6111 23.8206 21.3019 23.2152 20.864C22.9318 20.6579 22.7514 20.5033 22.6742 20.4389C22.5196 20.3101 22.4423 20.2199 22.3392 20.1168C22.2877 20.0653 22.1074 19.8592 22.0043 19.5758C21.9141 19.3311 21.8884 19.1249 21.8755 18.8416C21.8755 18.9961 22.7772 19.6402 24.001 20.3487C24.001 21.0572 24.2586 21.5467 24.6579 21.7914L24.6708 21.8043Z"/><path id="Vector_37" fill="#776A63" d="M26.926 13.2638C26.6039 13.0963 26.3592 12.9804 26.1016 12.8773C25.7924 12.7485 25.6636 12.7228 25.6121 12.7228C25.7022 12.7228 25.7795 12.6712 25.8697 12.6326C25.9985 12.5553 27.0162 13.0319 28.2399 13.7404C28.0853 13.8306 27.9565 13.8306 27.8535 13.7791C27.5185 13.5858 27.2094 13.4184 26.926 13.2767V13.2638Z"/><path id="Vector_38" fill="#776A63" d="M28.8317 14.0755L28.2392 13.7277L28.9348 13.3284L29.5273 13.6762L28.8317 14.0755Z"/><path id="Vector_39" fill="#77E2D8" d="M29.3216 12.0401L29.9142 12.3879C29.8111 12.3235 29.6823 12.3363 29.5277 12.4265L28.9352 12.0787C29.0897 11.9885 29.2185 11.9885 29.3216 12.0401Z"/><path id="Vector_40" fill="#77E2D8" d="M25.8693 11.3701L25.9337 11.3314L25.9981 11.2928L26.0625 11.2541L26.127 11.2155L26.1914 11.1768L26.2558 11.1382L26.3202 11.0995L26.3846 11.0609L26.449 11.0223L26.5134 10.9836C26.6422 10.9063 27.647 11.3701 28.8836 12.0914L28.188 12.4908C26.9643 11.7823 25.9595 11.3056 25.8178 11.3829L25.8693 11.3701Z"/><path id="Vector_41" fill="#776A63" d="M25.2634 22.1392L24.6708 21.7914C24.2715 21.5595 24.0139 21.0571 24.0139 20.3486L24.6064 20.6964C24.6064 21.4049 24.864 21.8944 25.2634 22.1392Z"/><path id="Vector_42" fill="#776A63" d="M28.4453 14.114L27.8528 13.7662C27.9558 13.8177 28.0847 13.8177 28.2392 13.7275L28.8318 14.0753C28.6772 14.1655 28.5484 14.1655 28.4453 14.114Z"/><path id="Vector_43" fill="#776A63" d="M28.8321 14.0753C28.6775 14.1655 28.5487 14.1655 28.4457 14.114C28.5874 14.1913 28.7419 14.1268 28.8321 14.0753Z"/><path id="Vector_44" fill="#77E2D8" d="M27.8525 13.7662C27.5691 13.5987 27.0281 13.2767 26.4613 12.8774C25.8945 12.478 25.727 12.2719 25.6755 12.2075C25.5209 12.0143 25.5596 11.8597 25.5724 11.7824C25.5724 11.7309 25.6111 11.6665 25.6111 11.6665C25.6111 11.6665 25.624 11.6278 25.6368 11.6021C25.6368 11.5892 25.6626 11.5634 25.6755 11.5505C25.6884 11.5377 25.7012 11.5119 25.7141 11.499C25.7399 11.4733 25.7528 11.4604 25.7528 11.4475C25.7785 11.4217 25.8043 11.396 25.8558 11.3702C25.9846 11.2929 26.9894 11.7567 28.2261 12.478C27.9298 12.6455 27.685 13.0706 27.685 13.4184C27.685 13.5858 27.7494 13.7147 27.8396 13.7662H27.8525Z"/><path id="Vector_45" fill="#776A63" d="M21.8884 18.8544V18.7513V18.6483V18.5452V18.4422V18.3391V18.2361V18.133V18.03V17.9269V17.8239C21.8884 17.9784 22.7901 18.6225 24.0139 19.331V20.4131C22.7901 19.7046 21.8884 19.0605 21.8884 18.9059V18.8544Z"/><path id="Vector_46" fill="#77E2D8" d="M28.8317 12.826L28.2392 12.4782L28.9348 12.0789L29.5273 12.4138L28.8317 12.826Z"/><path id="Vector_47" fill="#77E2D8" d="M28.4454 14.1139L27.8528 13.7661C27.7498 13.7145 27.6982 13.5857 27.6982 13.4183C27.6982 13.0705 27.943 12.6454 28.2393 12.4779L28.8318 12.8257C28.5356 12.9932 28.2908 13.4183 28.2908 13.7661C28.2908 13.9335 28.3552 14.0623 28.4454 14.1139Z"/><path id="Vector_48" fill="#776A63" d="M24.6193 20.7094L24.0267 20.3616L24.0139 19.2795L24.6064 19.6145L24.6193 20.7094Z"/><path id="Vector_49" fill="#423B36" d="M28.8318 14.0754C29.0636 13.9465 29.3084 13.8048 29.5274 13.676C30.8413 14.436 31.9105 15.1961 31.9105 15.3635L31.2149 15.7629C31.2149 15.5954 30.1457 14.8354 28.8318 14.0754Z"/><path id="Vector_50" fill="#423B36" d="M28.4457 14.114C28.5874 14.1913 28.7419 14.1268 28.8321 14.0753C30.146 14.8353 31.2152 15.5953 31.2152 15.7628C31.125 15.8143 31.0349 15.853 30.9447 15.8659C30.9318 15.8015 30.8159 15.6984 30.7644 15.6598C30.6355 15.5438 30.4294 15.4021 30.1589 15.2089C29.7853 14.9513 29.1928 14.5519 28.4457 14.114Z"/><path id="Vector_51" fill="#423B36" d="M32.0907 13.4186C32.0907 13.4186 32.1422 13.4186 32.1679 13.4315C32.0649 13.4315 31.9876 13.4701 31.8845 13.5217C31.8845 13.5217 31.8974 13.5088 31.8974 13.4959C32.3483 13.2382 32.709 13.4444 32.709 13.9596C32.709 14.4749 32.3483 15.1061 31.8974 15.3637C31.8974 15.1963 30.8283 14.4362 29.5143 13.6762C29.5916 13.6376 29.656 13.5732 29.7204 13.5088C29.9137 13.3027 30.0554 12.9935 30.0554 12.7359C30.0554 12.5684 29.9909 12.4396 29.9008 12.3881C30.1326 12.5169 30.1327 12.5298 30.4032 12.6715C30.532 12.7359 30.5449 12.7488 30.7639 12.8647C30.8411 12.9076 30.9528 12.9634 31.0988 13.0321C31.2448 13.1008 31.3478 13.1481 31.4079 13.1738C31.468 13.1996 31.5582 13.2383 31.6784 13.2898C31.7987 13.3413 31.876 13.3671 31.9103 13.3671C32.0005 13.3928 32.052 13.4057 32.0778 13.4186H32.0907Z"/><path id="Vector_52" fill="#77E2D8" d="M31.8982 14.7838L31.8338 14.8224L31.7694 14.8611L31.705 14.8997L31.6406 14.9383L31.5762 14.977L31.5118 15.0156L31.4474 15.0543L31.383 15.0929L31.3186 15.1316L31.2542 15.1702L31.2671 15.1573L31.9627 14.7451C31.9627 14.7451 31.9627 14.7709 31.9498 14.7709L31.8982 14.7838Z"/><g id="Group_3"><path id="Vector_53" fill="#776A63" d="M29.2442 23.0667C29.1025 23.1568 28.9479 23.2084 28.8062 23.2599C28.8062 23.2599 28.8191 23.2599 28.8191 23.2728C28.8191 23.2728 28.8577 23.2599 28.8835 23.247C28.9865 23.2083 29.1153 23.1439 29.2184 23.0924C29.2184 23.0924 29.2313 23.0795 29.2313 23.0667H29.2442Z"/><path id="Vector_54" fill="#776A63" d="M26.7322 22.2425C26.7322 22.513 26.7708 22.7449 26.8223 22.951C26.8223 22.951 26.8352 22.951 26.8481 22.951C26.8223 22.8608 26.7837 22.7191 26.7708 22.6161C26.7579 22.5001 26.7451 22.3327 26.7451 22.2039C26.7451 22.2167 26.7451 22.2296 26.7322 22.2296V22.2425Z"/></g><g id="Group_4"><path id="Vector_55" fill="#515457" d="M24.6189 20.7095C24.6189 21.418 24.8765 21.9075 25.2758 22.1393C25.9328 22.5129 26.4352 22.7705 26.8345 22.9509C26.7701 22.7448 26.7443 22.5129 26.7443 22.2424C26.7443 22.2424 26.7572 22.2424 26.7572 22.2166C26.7572 22.3326 26.7572 22.5 26.783 22.6288C26.7959 22.7319 26.8345 22.8736 26.8603 22.9638C27.3498 23.1956 27.646 23.2858 27.8393 23.3244C27.9552 23.3502 28.0969 23.3631 28.1871 23.376C28.3674 23.376 28.4189 23.376 28.5864 23.3373C28.6637 23.3244 28.7667 23.2987 28.844 23.2729C28.844 23.26 28.844 23.26 28.8312 23.26C28.0325 23.5177 27.4142 23.1183 27.2982 22.2424C27.2982 22.1522 27.2854 22.0363 27.2854 21.9332C27.1437 22.0234 25.9586 21.4695 24.6446 20.7095H24.6189Z"/><path id="Vector_56" fill="#F7FAFC" d="M28.8055 23.2601C28.4448 22.9767 27.9038 22.616 27.2726 22.2424C27.3885 23.1184 28.0068 23.5177 28.8055 23.2601Z"/><g id="Vector_57"><path fill="#7FA8E6" d="M31.0345 12.478C31.0345 12.6326 31.9362 13.2767 33.16 13.9851C33.16 12.4007 33.6366 10.5973 34.4996 8.87114C34.6929 8.98708 34.899 9.09013 35.0922 9.20607C35.2468 8.90979 35.4014 8.61351 35.5688 8.31723C36.638 6.50093 38.1065 4.92937 39.7167 3.98901L42.731 2.24999C44.3927 1.29675 45.8999 1.20658 46.9819 1.83778L46.3894 1.48997C45.9514 1.24522 45.1141 0.768602 44.3026 0.433679C44.0707 0.343508 43.4653 0.0858761 42.8341 0.021468C42.512 -0.0171768 41.9839 -0.0171717 41.3655 0.137408C41.1208 0.201816 40.8116 0.304865 40.5798 0.395036C40.335 0.498089 40.013 0.665547 39.7811 0.794363L39.4848 0.974715L39.1886 1.14217L38.596 1.50286L38.2997 1.67031L38.0034 1.85067L37.7072 2.01812L37.1146 2.37881L36.8183 2.54626C36.6122 2.66649 36.4577 2.76096 36.3546 2.82966C36.2129 2.91983 36.0326 3.04865 35.9037 3.1517C35.7749 3.25476 35.5946 3.39646 35.4658 3.49951C35.2768 3.67127 35.1351 3.80008 35.0407 3.88595C34.9119 4.00189 34.7573 4.16935 34.6285 4.29817C34.5125 4.42698 34.3451 4.60733 34.2291 4.73615C34.0574 4.94225 33.9286 5.09683 33.8427 5.19988C33.7396 5.34158 33.5851 5.5348 33.482 5.6765C33.3661 5.84396 33.2501 6.01142 33.1471 6.17888C33.044 6.33346 32.9281 6.53957 32.825 6.69415C32.7091 6.88737 32.6061 7.0806 32.503 7.27383C32.4128 7.44129 32.2969 7.67315 32.2196 7.8535C32.1423 8.03384 32.0393 8.2657 31.962 8.43316C31.8589 8.69938 31.7816 8.89691 31.7301 9.02573C31.6657 9.20607 31.5884 9.43794 31.5369 9.61828C31.4854 9.79862 31.4209 10.0305 31.3823 10.198C31.3222 10.4556 31.2792 10.6488 31.2535 10.7776C31.2277 10.9451 31.1891 11.177 31.1633 11.3444C31.1504 11.5119 31.1247 11.7309 31.1118 11.8983C31.1118 12.0658 31.0989 12.2848 31.0989 12.4393L31.0345 12.478ZM34.5383 8.79386C34.5383 8.79386 34.5512 8.75521 34.5641 8.74233C34.6929 8.4847 34.8346 8.23994 34.9763 7.99519C34.8217 8.26571 34.68 8.52334 34.5383 8.80673V8.79386Z"/><path fill="#7FA8E6" d="M25.2633 22.1394C25.5725 22.3197 25.946 22.5387 26.3582 22.835C26.4742 22.9123 26.7447 23.0926 26.9379 23.2601C27.3244 24.0587 28.2132 24.2648 29.2308 23.6723L33.894 20.98C35.2852 20.1814 36.393 18.2491 36.393 16.6518V15.5697C36.393 13.7921 37.0113 11.7181 38.1192 9.83743C39.1497 8.09841 40.5409 6.59126 42.0867 5.70243L45.101 3.96341C47.8963 2.34033 50.2408 3.31933 50.7303 6.10176C50.7303 6.10176 50.7431 6.076 50.7431 6.06312C50.653 5.59938 50.5499 5.26445 50.3696 4.86512C50.2794 4.6719 50.1377 4.42715 50.0218 4.25969C49.9574 4.16952 49.8672 4.05359 49.7899 3.96341C49.5838 3.73155 49.558 3.70578 49.2746 3.44815C49.2102 3.38374 48.9655 3.19051 48.7851 3.04881C48.4631 2.80406 48.2828 2.68813 47.8705 2.40473C47.5356 2.18574 47.1749 1.96676 46.956 1.85083C45.8739 1.21963 44.3667 1.3098 42.705 2.26304L39.6907 4.00206C38.0805 4.92953 36.6249 6.51397 35.5428 8.33028C35.4011 8.57503 35.2594 8.83266 35.1306 9.07741C34.2289 10.8422 33.7265 12.6971 33.7265 14.3331C33.7265 14.6938 33.7265 15.0674 33.7265 15.4152C34.0614 15.6084 34.3706 15.7887 34.6798 15.9433C34.976 16.0979 35.2594 16.2396 35.4913 16.3555C35.2466 16.2396 34.976 16.1108 34.6798 15.9433C34.3835 15.7887 34.0614 15.6084 33.7265 15.4152C33.7265 15.5698 33.7265 15.8145 33.6879 16.0464C33.6492 16.3169 33.5848 16.4586 33.5462 16.523C33.5075 16.6003 33.4947 16.6389 33.4431 16.7935C33.3916 16.9352 33.3787 16.9867 33.3401 17.0769C32.9408 17.9915 32.258 18.8417 31.4851 19.2797L26.822 21.9719C27.8525 22.5645 28.7156 23.157 29.0505 23.4662C28.9861 23.4018 28.8959 23.3374 28.7929 23.2601C28.7156 23.2858 28.6125 23.3116 28.5352 23.3245C28.3678 23.3503 28.3162 23.3631 28.1359 23.3631C28.0457 23.3631 27.904 23.3374 27.7881 23.3116C27.6078 23.273 27.2986 23.1699 26.8091 22.9509C26.7833 22.8479 26.7447 22.7062 26.7318 22.6031C26.7189 22.4872 26.706 22.3197 26.706 22.1909C26.706 22.2038 26.706 22.2167 26.6932 22.2167C26.6932 22.4872 26.7318 22.719 26.7833 22.9251C26.384 22.7577 25.8816 22.4872 25.2247 22.1136L25.2633 22.1394ZM29.2051 23.595C29.2051 23.595 29.1793 23.5692 29.1664 23.5564C29.1664 23.5564 29.1922 23.5821 29.2051 23.595Z"/></g></g><path id="Vector_58" fill="#776A63" d="M31.8851 13.5214L31.8207 13.5601L31.7563 13.5987L31.6919 13.6374L31.6274 13.676L31.563 13.7147L31.4986 13.7533L31.4342 13.7919L31.3698 13.8306L31.3054 13.8692L31.241 13.9079C31.241 13.9079 31.2539 13.895 31.2539 13.8821L31.9495 13.4828C31.9495 13.4828 31.9495 13.5085 31.9366 13.5085L31.8851 13.5214Z"/><path id="Vector_59" fill="#515457" d="M27.2599 21.9333C27.1182 22.0234 25.9331 21.4695 24.6191 20.7095V19.6274C25.9331 20.3875 27.1182 20.9414 27.2599 20.8512V21.9333Z"/><path id="Vector_60" fill="#776A63" d="M30.7381 14.359C30.7381 14.359 30.6866 14.4363 30.6737 14.462C30.6737 14.462 30.6737 14.4492 30.6737 14.4363C30.8154 14.2044 31.0086 14.0112 31.2019 13.8953C31.2019 13.8953 31.2019 13.921 31.189 13.921C31.189 13.921 31.146 13.9468 31.0602 13.9983C31.0602 13.9983 30.97 14.0756 30.9442 14.1014C30.9056 14.14 30.8669 14.1787 30.8283 14.2173C30.7768 14.2817 30.751 14.3204 30.7252 14.3461L30.7381 14.359Z"/><path id="Vector_61" fill="#423B36" d="M29.3988 14.6934C29.8625 15.0026 30.2618 15.2731 30.5839 15.5179C30.8802 15.7368 30.9317 15.8141 30.9446 15.8657C30.6225 15.9172 30.4035 15.6982 30.4035 15.2989C30.4035 15.0155 30.5066 14.7063 30.6741 14.4358V14.4616C30.6741 14.4745 30.6612 14.4873 30.6483 14.5002C30.6225 14.5389 30.5968 14.6033 30.571 14.6548C30.5452 14.7063 30.5452 14.7063 30.5066 14.8094C30.4937 14.8609 30.4679 14.9124 30.4551 14.964C30.4551 15.0155 30.4293 15.067 30.4293 15.1185C30.4293 15.1185 30.4293 15.1701 30.4293 15.2731C30.4293 15.4406 30.4551 15.505 30.4937 15.5565C30.4937 15.5436 30.4808 15.5307 30.4422 15.4921C30.4035 15.4535 30.4035 15.4535 30.3134 15.3633C30.3134 15.3633 30.249 15.3118 30.1201 15.2087C30.0429 15.1572 30.03 15.1443 29.8883 15.0284C29.8282 14.9854 29.738 14.921 29.6178 14.8351C29.4975 14.7493 29.3945 14.6806 29.3086 14.629C29.2227 14.5775 29.1068 14.5045 28.9608 14.4101C28.7547 14.2812 28.7418 14.2683 28.4842 14.1138C28.716 14.2555 29.0123 14.4229 29.4245 14.6934H29.3988Z"/><path id="Vector_62" fill="#EDF4FF" d="M26.7451 21.1345V21.2376V21.3406V21.4437V21.5467V21.6498V21.7529V21.8559V21.959V22.062V22.1651C26.7451 22.1651 26.7451 22.1908 26.7322 22.1908V21.1088C26.7322 21.1088 26.7322 21.0959 26.7322 21.083L26.7451 21.1345Z"/><path id="Vector_63" fill="#776A63" d="M21.8892 17.7596C21.8892 17.6695 21.8892 17.5535 21.8892 17.4762C21.8635 17.1156 21.8635 17.0769 21.8506 16.9352C21.812 16.6261 21.812 16.6132 21.7733 16.42C21.7218 16.1623 21.6703 15.9562 21.6703 15.9562C21.6316 15.8274 21.5414 15.4925 21.3869 15.1704C21.2065 14.7969 21.0519 14.6294 21.0133 14.5779C21.0777 14.6423 21.2194 14.7582 21.5672 14.9901C21.6316 15.0416 21.8892 15.2091 22.2757 15.4281C23.3964 16.0721 24.0147 17.4505 24.0276 19.2797C22.8038 18.5712 21.9021 17.9271 21.9021 17.7725L21.8892 17.7596Z"/><path id="Vector_64" fill="#63676B" d="M19.9173 14.2685C23.7947 12.0271 28.8443 9.05143 32.7216 6.81002C33.1854 6.53951 34.4478 6.86155 35.6715 7.58292L22.1845 15.3763C20.9607 14.6678 19.7241 14.3844 19.9173 14.2685Z"/><path id="Vector_65" fill="#776A63" d="M22.2624 15.4282L22.8549 15.776C23.9756 16.4201 24.5939 17.7984 24.6068 19.6276L24.0143 19.2798C24.0143 17.4635 23.3831 16.0852 22.2624 15.4282Z"/><path id="Vector_66" fill="#5C5F63" d="M22.7777 15.7244L22.1851 15.3766L35.6593 7.58325L36.2647 7.93105L22.7777 15.7244Z"/><path id="Vector_67" fill="#515457" d="M25.8046 17.0381C29.4115 14.9513 33.6882 12.4909 37.295 10.4041C36.5479 11.6665 35.8652 13.9336 35.8781 15.8787C35.8781 16.2394 35.8781 16.6001 35.8781 16.9608C35.8781 18.2103 35.0021 19.7432 33.9072 20.3744C32.3485 21.2761 30.7898 22.165 29.244 23.0667C28.1491 23.6979 27.2602 23.1955 27.2602 21.9331C27.2602 21.5724 27.2602 21.2117 27.2602 20.851C27.2602 18.9059 26.5646 17.4374 25.8175 17.0381H25.8046Z"/><path id="Vector_68" fill="#515457" d="M22.8679 15.7758C23.0482 15.8789 23.19 15.9562 23.4089 16.0721C24.5039 16.6518 25.5086 17.064 25.8178 17.0253C26.5649 17.4247 27.2605 18.8932 27.2605 20.8383C27.1188 20.9285 25.9337 20.3746 24.6198 19.6145C24.6198 17.7982 23.9886 16.4199 22.8679 15.7629V15.7758Z"/><path id="Vector_69" fill="#515457" d="M25.8046 17.0382C25.4439 17.0769 24.0785 16.4972 22.7645 15.7243L36.2516 7.93091C37.5655 8.69092 37.6557 10.0177 37.295 10.4042L25.8046 17.0382Z"/><g id="Vector_70"><path fill="#7FA8E6" d="M15.6539 14.7452C15.7183 14.7065 15.8214 14.655 15.8858 14.6164C16.195 14.4618 16.2336 14.436 16.3495 14.3974C16.5471 14.3115 16.6973 14.2514 16.8004 14.217C17.0194 14.1398 17.174 14.1011 17.2384 14.0882C17.5991 13.9981 17.8825 13.9723 17.8825 13.9723C18.0113 13.9723 18.1659 13.9465 18.2947 13.9465C18.475 13.9465 18.6038 13.9465 18.7069 13.9723C19.016 13.9981 19.2866 14.0753 19.4025 14.114C19.6215 14.1655 19.9178 14.2815 20.0981 14.3587C20.3815 14.4747 21.1157 14.7838 22.2751 15.4537C22.2493 15.4408 22.2107 15.415 22.1849 15.4022C21.1029 14.8354 19.6472 14.9384 18.037 15.8659C16.8133 15.1574 15.8085 14.6808 15.6668 14.7581L15.6539 14.7452Z"/><path fill="#7FA8E6" d="M22.2752 15.428L22.8678 15.7758C22.8678 15.7758 22.8034 15.7372 22.7776 15.7243C21.6955 15.1575 20.2399 15.2605 18.6297 16.188L18.0372 15.8402C19.6474 14.9127 21.1159 14.7968 22.185 15.3765C22.2108 15.3894 22.2495 15.4151 22.2752 15.428Z"/><path fill="#7FA8E6" d="M12.6398 16.4842L12.9361 16.3039L13.2324 16.1364L15.6539 14.7452C15.7828 14.6679 16.8004 15.1445 18.037 15.8659L15.01 17.5919C13.7862 16.8834 12.7689 16.4068 12.6272 16.4841L12.6398 16.4842Z"/><path fill="#7FA8E6" d="M15.59 17.9397L15.01 17.5919L18.0243 15.8529L18.6168 16.1878L15.59 17.9397Z"/><path fill="#7FA8E6" d="M4.18972 46.1763C4.18972 46.318 4.18973 46.4983 4.21549 46.6271C4.24125 46.8847 4.30565 47.2197 4.37006 47.4644C4.39583 47.5804 4.44736 47.7349 4.486 47.8509C4.57617 48.057 4.69211 48.3404 4.80804 48.5336C5.14296 49.1004 5.67111 49.5255 5.83857 49.6672C6.61146 50.2984 7.5647 50.8523 7.91251 51.0584L8.50507 51.4062C7.51319 50.8265 6.90775 49.6157 6.89487 47.8766C6.89487 47.4773 6.92063 47.078 6.98504 46.6658L9.72882 26.9569C10.2312 23.466 12.6658 19.6272 15.59 17.9397L14.9974 17.5919C13.7736 16.8834 12.7689 16.4068 12.6272 16.4841C12.1506 16.7546 11.8028 17.0251 11.7899 17.038C11.6739 17.1282 11.5065 17.257 11.3906 17.3472C11.047 17.6478 10.7894 17.8839 10.6177 18.0557C9.99934 18.674 9.4583 19.3567 8.93016 20.1683C8.69829 20.5161 8.13149 21.4564 7.68064 22.6029C7.61623 22.7575 7.55183 22.9507 7.48742 23.1053C7.4359 23.2599 7.37148 23.466 7.31995 23.6205C7.26843 23.7751 7.2169 23.9812 7.17826 24.1358C7.13961 24.2904 7.10097 24.4965 7.06233 24.6511C7.03656 24.8056 6.99792 24.9989 6.97216 25.1535C6.97216 25.1535 6.97215 25.1792 6.99791 25.1921C6.99791 25.1792 6.97216 25.1535 6.97216 25.1535C6.97216 25.1792 5.61959 34.8533 5.60671 35.0079C5.42636 36.3218 5.24602 37.6357 5.0528 38.9497C4.78228 40.9206 4.49888 42.8914 4.22836 44.8623C4.22836 44.9525 4.78228 45.3647 5.61958 45.88C4.78228 45.3647 4.21548 44.9525 4.22836 44.8623C4.22836 44.8623 4.2026 45.0298 4.18972 45.2101C4.18972 45.2745 4.17684 45.3905 4.16396 45.5579C4.16396 45.5837 4.16396 45.7125 4.15108 45.9057C4.15108 46.0088 4.15108 46.0603 4.15108 46.1763H4.18972ZM7.04944 25.205C7.04944 25.205 7.04944 25.205 7.06233 25.205C7.06233 25.205 7.06232 25.205 7.04944 25.205Z"/><path fill="#7FA8E6" d="M6.99736 46.666L9.74115 26.9571C10.2435 23.4662 12.6782 19.6275 15.6023 17.94L18.6166 16.201C20.2268 15.2735 21.6953 15.1575 22.7645 15.7372C22.7902 15.7501 22.8289 15.7759 22.8546 15.7887C23.2024 15.9949 24.0269 16.4715 24.774 17.0511C25.1347 17.3217 25.3279 17.5149 25.431 17.6179C25.5598 17.7339 25.7401 17.9528 25.8561 18.0945C25.9333 18.1976 26.0235 18.3393 26.0879 18.4424C26.1266 18.5068 26.1781 18.5969 26.2167 18.6742C26.3026 18.846 26.3627 18.9834 26.3971 19.0864C26.4615 19.241 26.4744 19.2797 26.5388 19.5244C26.5903 19.7048 26.6547 20.0526 26.6805 20.2329C26.7191 20.5678 26.732 20.7739 26.7449 21.1346C26.7449 21.1346 26.7449 21.1604 26.732 21.1604C26.732 19.3827 26.0879 18.0301 24.9672 17.4376C23.9367 16.8966 22.5326 16.9996 20.9997 17.8884L17.9854 19.6275C15.1901 21.2505 12.8585 24.9089 12.3819 28.2453L9.6381 47.9541C9.58657 48.3406 9.56081 48.7399 9.54793 49.1135C9.54793 52.437 11.9053 53.7766 14.8036 52.102C16.8776 50.904 18.6681 48.4823 19.5183 45.9704C19.3981 46.3053 19.3036 46.5543 19.2349 46.7175C19.1447 46.9494 19.0159 47.2457 18.9 47.4646C18.8356 47.5677 18.7712 47.7223 18.7196 47.8253C18.6681 47.9284 18.5779 48.083 18.5264 48.186C18.462 48.2891 18.3847 48.4308 18.3203 48.5338C18.2559 48.6369 18.1657 48.7786 18.1013 48.8816C18.1013 48.8945 17.8179 49.3196 17.38 49.8606C17.2769 49.9894 17.1008 50.1913 16.8518 50.4661C16.7745 50.5562 16.6586 50.6593 16.5813 50.7495C16.4782 50.8525 16.182 51.1359 16.0145 51.2776C15.7182 51.5224 15.1901 51.9603 14.3785 52.3597C13.9148 52.5915 13.4511 52.7332 13.1677 52.7848C12.9358 52.8234 12.6395 52.862 12.4076 52.8749C12.2531 52.8749 12.0598 52.8749 11.9181 52.8492C11.8409 52.8363 11.7249 52.8234 11.6476 52.8105C11.5446 52.7848 11.4158 52.759 11.3127 52.7332C11.171 52.6946 10.9263 52.6173 10.514 52.4498C9.65098 52.0892 8.82656 51.6125 8.53028 51.4322C7.53839 50.8525 6.93296 49.6417 6.92008 47.9026C6.92008 47.5033 6.94584 47.104 7.01025 46.6918L6.99736 46.666Z"/></g><path id="Vector_71" fill="#C8E2FF" d="M9.63806 47.9541C10.5527 41.3844 11.4672 34.8148 12.3818 28.2452C12.8585 24.9088 15.1772 21.2376 17.9853 19.6274C18.9901 19.0477 19.9949 18.468 20.9996 17.8884C22.5454 16.9995 23.9367 16.8965 24.9672 17.4375C26.0879 18.0301 26.7191 19.3826 26.732 21.1603C26.732 21.521 26.732 21.8817 26.732 22.2423C26.732 23.8397 27.8656 24.4709 29.2439 23.6722C30.8026 22.7705 32.3612 21.8817 33.907 20.9799C35.2982 20.1813 36.4061 18.249 36.4061 16.6517C36.4061 16.291 36.4061 15.9303 36.4061 15.5697C36.4061 13.792 37.0244 11.7181 38.1322 9.83734C39.1627 8.09833 40.5539 6.59118 42.0997 5.70234C43.1045 5.12267 44.1093 4.543 45.114 3.96333C47.9094 2.34024 50.2538 3.31924 50.7433 6.10167C51.6966 11.5892 52.6369 17.0897 53.5902 22.5773C53.6417 22.8993 53.6674 23.2858 53.6803 23.6336C53.6803 26.957 51.3488 31.0018 48.4633 32.6765C46.3893 33.8744 44.5859 33.5266 43.7357 31.9937C43.0916 30.9246 42.4476 29.8683 41.6618 28.5801C40.7214 29.8812 39.8712 30.6927 38.9566 31.2208C37.6041 31.9937 36.3932 31.9809 35.5172 31.2595C32.825 32.8182 30.2615 34.2995 27.5564 35.8582C26.6933 37.5844 25.4825 39.0013 24.1299 39.7742C23.2539 40.2766 22.4424 40.4441 21.5149 40.2895C20.7549 42.4407 20.1237 44.2055 19.5054 45.9703C18.6552 48.4822 16.8646 50.904 14.7907 52.1019C11.9052 53.7766 9.54789 52.4369 9.535 49.1134C9.535 48.7527 9.56077 48.3534 9.62517 47.9541H9.63806Z"/></g><g id="Group_5"><g id="Group_6"><g id="Group_7"><g id="Clip path group"><mask id="mask0_1246_18494" width="4" height="3" x="27" y="38" maskUnits="userSpaceOnUse" style="mask-type:luminance"><g id="clippath-86"><path id="Vector_72" fill="white" d="M27.2485 40.3666C28.1244 39.8642 28.9102 39.0012 29.477 38.0093C29.7089 38.151 29.9407 38.2798 30.1855 38.4215C29.6187 39.4134 28.82 40.2764 27.957 40.7788C27.7509 40.65 27.4675 40.4954 27.2485 40.3666Z"/></g></mask><g mask="url(#mask0_1246_18494)"><g id="Group_8"><g id="Group_9"><path id="Vector_73" fill="#B2B7BF" d="M27.944 40.7661L27.2355 40.3539C28.9874 39.3491 30.3915 36.9016 30.3915 34.8921C30.3915 33.9002 30.0309 33.1917 29.4641 32.8568L30.1726 33.269C30.7394 33.6039 31.0871 34.2995 31.1 35.3043C31.1 37.3138 29.6959 39.7614 27.944 40.7661Z"/></g></g></g></g></g><g id="Group_10"><g id="Clip path group_2"><mask id="mask1_1246_18494" width="3" height="7" x="29" y="32" maskUnits="userSpaceOnUse" style="mask-type:luminance"><g id="clippath-87"><path id="Vector_74" fill="white" d="M30.4038 34.905C30.4038 33.9132 30.0431 33.2047 29.4763 32.8698L30.1848 33.282C30.7516 33.6169 31.0994 34.3125 31.1122 35.3173C31.1122 36.322 30.7644 37.4299 30.1977 38.4217C29.9658 38.28 29.7339 38.1512 29.4892 38.0095C30.056 37.0176 30.4166 35.9098 30.4038 34.905Z"/></g></mask><g mask="url(#mask1_1246_18494)"><g id="Group_11"><g id="Group_12"><path id="Vector_75" fill="#B2B7BF" d="M27.9441 40.7661L27.2356 40.3539C28.9875 39.3491 30.3916 36.9016 30.3916 34.8921C30.3916 33.9002 30.0309 33.1917 29.4641 32.8568L30.1726 33.269C30.7394 33.6039 31.0872 34.2995 31.1001 35.3043C31.1001 37.3138 29.696 39.7614 27.9441 40.7661Z"/></g></g></g></g></g><g id="Group_13"><g id="Clip path group_3"><mask id="mask2_1246_18494" width="4" height="2" x="24" y="40" maskUnits="userSpaceOnUse" style="mask-type:luminance"><g id="clippath-88"><path id="Vector_76" fill="white" d="M24.9936 40.5856C25.5732 40.9205 26.3719 40.869 27.2479 40.3666L27.9563 40.7788C27.0804 41.2812 26.2817 41.3327 25.7021 40.9978C25.496 40.8818 25.2126 40.7144 24.9936 40.5856Z"/></g></mask><g mask="url(#mask2_1246_18494)"><g id="Group_14"><g id="Group_15"><path id="Vector_77" fill="#B2B7BF" d="M25.6888 40.985L24.9803 40.5727C25.56 40.9077 26.3587 40.8561 27.2346 40.3538L27.9431 40.766C27.0672 41.2684 26.2685 41.3199 25.6888 40.985Z"/></g></g></g></g></g><g id="Group_16"><g id="Clip path group_4"><mask id="mask3_1246_18494" width="4" height="2" x="27" y="32" maskUnits="userSpaceOnUse" style="mask-type:luminance"><g id="clippath-89"><path id="Vector_78" fill="white" d="M29.4769 32.8695L30.1854 33.2817C29.6057 32.9467 28.8071 32.9983 27.9311 33.5007L27.2226 33.0885C28.0986 32.5861 28.8973 32.5345 29.4769 32.8695Z"/></g></mask><g mask="url(#mask3_1246_18494)"><g id="Group_17"><g id="Group_18"><path id="Vector_79" fill="#59504A" d="M27.9311 33.5007L27.2226 33.0885C28.0986 32.5861 28.8973 32.5345 29.4769 32.8695L30.1854 33.2817C29.6057 32.9467 28.8071 32.9983 27.9311 33.5007Z"/></g></g></g></g></g><g id="Group_19"><g id="Clip path group_5"><mask id="mask4_1246_18494" width="5" height="2" x="27" y="30" maskUnits="userSpaceOnUse" style="mask-type:luminance"><g id="clippath-90"><path id="Vector_80" fill="white" d="M30.4817 31.1305L31.1902 31.5427C30.3529 31.0532 29.2064 31.1305 27.9311 31.8647L27.2226 31.4525C28.4979 30.7183 29.6573 30.6539 30.4817 31.1305Z"/></g></mask><g mask="url(#mask4_1246_18494)"><g id="Group_20"><path id="Vector_81" fill="#CDD5DE" d="M27.9177 31.8647L27.2092 31.4525C28.4845 30.7183 29.6439 30.6539 30.4683 31.1305L31.1768 31.5427C30.3395 31.0532 29.193 31.1305 27.9177 31.8647Z"/></g></g></g></g><g id="Group_21"><g id="Clip path group_6"><mask id="mask5_1246_18494" width="4" height="8" x="24" y="33" maskUnits="userSpaceOnUse" style="mask-type:luminance"><g id="clippath-91"><path id="Vector_82" fill="white" d="M25.6896 40.9851L24.9811 40.5729C24.4143 40.238 24.0665 39.5424 24.0536 38.5376C24.0536 36.5281 25.4577 34.0806 27.2096 33.0758L27.9181 33.488C26.1662 34.4928 24.7621 36.9403 24.7621 38.9498C24.7621 39.9417 25.1228 40.6502 25.6896 40.9851Z"/></g></mask><g mask="url(#mask5_1246_18494)"><g id="Group_22"><g id="Group_23"><path id="Vector_83" fill="#59504A" d="M25.6896 40.9851L24.9811 40.5729C24.4143 40.238 24.0665 39.5424 24.0536 38.5376C24.0536 36.5281 25.4577 34.0806 27.2096 33.0758L27.9181 33.488C26.1662 34.4928 24.7621 36.9403 24.7621 38.9498C24.7621 39.9417 25.1228 40.6502 25.6896 40.9851Z"/></g></g></g></g></g><g id="Group_24"><g id="Clip path group_7"><mask id="mask6_1246_18494" width="6" height="12" x="22" y="31" maskUnits="userSpaceOnUse" style="mask-type:luminance"><g id="clippath-92"><path id="Vector_84" fill="white" d="M24.685 42.7238L23.9765 42.3116C23.1521 41.835 22.6368 40.8173 22.6368 39.3746C22.6368 36.4633 24.6721 32.9209 27.2098 31.4524L27.9183 31.8646C25.3806 33.3331 23.3324 36.8756 23.3453 39.7868C23.3453 41.2295 23.8606 42.2472 24.685 42.7238Z"/></g></mask><g mask="url(#mask6_1246_18494)"><g id="Group_25"><path id="Vector_85" fill="#CDD5DE" d="M24.685 42.7238L23.9765 42.3116C23.1521 41.835 22.6368 40.8173 22.6368 39.3746C22.6368 36.4633 24.6721 32.9209 27.2098 31.4524L27.9183 31.8646C25.3806 33.3331 23.3324 36.8756 23.3453 39.7868C23.3453 41.2295 23.8606 42.2472 24.685 42.7238Z"/></g></g></g></g><path id="Vector_86" fill="#E5F0FA" d="M27.9177 31.8649C30.4553 30.3964 32.5164 31.5815 32.5164 34.4927C32.5164 37.404 30.4811 40.9464 27.9434 42.4149C25.4057 43.8834 23.3447 42.6983 23.3447 39.7871C23.3447 36.8758 25.38 33.3334 27.9177 31.8649ZM27.9434 40.7661C29.6953 39.7613 31.0994 37.3138 31.0994 35.3043C31.0994 33.2947 29.6696 32.4832 27.9305 33.5008C26.1786 34.5056 24.7745 36.9531 24.7745 38.9626C24.7745 40.9722 26.2044 41.7837 27.9434 40.7661Z"/><path id="Vector_87" fill="#A2ABB5" d="M27.9301 33.5006C29.682 32.4959 31.099 33.3074 31.099 35.3041C31.099 37.3136 29.6949 39.7611 27.943 40.7659C26.1911 41.7706 24.7742 40.9591 24.7742 38.9624C24.7742 36.9529 26.1782 34.5054 27.9301 33.5006Z"/></g><g id="Group_26"><g id="Group_27"><g id="Clip path group_8"><mask id="mask7_1246_18494" width="2" height="1" x="44" y="29" maskUnits="userSpaceOnUse" style="mask-type:luminance"><g id="clippath-93"><path id="Vector_88" fill="white" d="M44.4708 29.1338L45.1792 29.546C45.1277 29.6491 45.0633 29.765 44.9989 29.8681L44.2904 29.4558C44.3548 29.3528 44.4064 29.2497 44.4708 29.1338Z"/></g></mask><g mask="url(#mask7_1246_18494)"><g id="Group_28"><g id="Group_29"><path id="Vector_89" fill="#B2B7BF" d="M42.7573 32.2255L42.0488 31.8133C43.8007 30.8085 45.2048 28.361 45.2048 26.3515C45.2048 25.3596 44.8441 24.6511 44.2773 24.3162L44.9858 24.7284C45.5526 25.0633 45.9004 25.7589 45.9133 26.7637C45.9133 28.7732 44.5092 31.2207 42.7573 32.2255Z"/></g></g></g></g></g><g id="Group_30"><g id="Clip path group_9"><mask id="mask8_1246_18494" width="2" height="2" x="44" y="28" maskUnits="userSpaceOnUse" style="mask-type:luminance"><g id="clippath-94"><path id="Vector_90" fill="white" d="M44.4708 29.1338C44.5481 28.9921 44.6125 28.8375 44.6769 28.6958C44.9088 28.8375 45.1407 28.9663 45.3854 29.108C45.321 29.2626 45.2437 29.4043 45.1793 29.546L44.4708 29.1338Z"/></g></mask><g mask="url(#mask8_1246_18494)"><g id="Group_31"><g id="Group_32"><path id="Vector_91" fill="#B2B7BF" d="M42.7572 32.2255L42.0487 31.8133C43.8006 30.8085 45.2047 28.361 45.2047 26.3515C45.2047 25.3596 44.8441 24.6511 44.2773 24.3162L44.9858 24.7284C45.5526 25.0633 45.9003 25.7589 45.9132 26.7637C45.9132 28.7732 44.5091 31.2207 42.7572 32.2255Z"/></g></g></g></g></g><g id="Group_33"><g id="Clip path group_10"><mask id="mask9_1246_18494" width="3" height="4" x="42" y="29" maskUnits="userSpaceOnUse" style="mask-type:luminance"><g id="clippath-95"><path id="Vector_92" fill="white" d="M42.0616 31.8131C42.9375 31.3108 43.7233 30.4477 44.2901 29.4558L44.9986 29.868C44.4318 30.8599 43.6332 31.723 42.7701 32.2254C42.564 32.1094 42.2806 31.942 42.0616 31.8131Z"/></g></mask><g mask="url(#mask9_1246_18494)"><g id="Group_34"><g id="Group_35"><path id="Vector_93" fill="#B2B7BF" d="M42.7572 32.2255L42.0487 31.8133C43.8006 30.8085 45.2047 28.361 45.2047 26.3515C45.2047 25.3596 44.844 24.6511 44.2772 24.3162L44.9857 24.7284C45.5525 25.0633 45.9003 25.7589 45.9132 26.7637C45.9132 28.7732 44.5091 31.2207 42.7572 32.2255Z"/></g></g></g></g></g><g id="Group_36"><g id="Clip path group_11"><mask id="mask10_1246_18494" width="2" height="6" x="44" y="24" maskUnits="userSpaceOnUse" style="mask-type:luminance"><g id="clippath-96"><path id="Vector_94" fill="white" d="M45.2047 26.3515C45.2047 25.3596 44.844 24.6511 44.2772 24.3162L44.9857 24.7284C45.5525 25.0633 45.9003 25.7589 45.9132 26.7637C45.9132 27.5108 45.72 28.3352 45.3722 29.1081C45.2434 29.0308 45.1017 28.9535 44.9729 28.8763C44.9471 28.8634 44.9084 28.8376 44.8827 28.8247C44.8569 28.8118 44.8183 28.7861 44.7925 28.7732C44.7667 28.7603 44.7281 28.7346 44.7023 28.7217C44.7023 28.7217 44.6766 28.6959 44.6637 28.6959C44.9986 27.923 45.2047 27.0986 45.1918 26.3515H45.2047Z"/></g></mask><g mask="url(#mask10_1246_18494)"><g id="Group_37"><g id="Group_38"><path id="Vector_95" fill="#B2B7BF" d="M42.7573 32.2255L42.0488 31.8133C43.8007 30.8085 45.2048 28.361 45.2048 26.3515C45.2048 25.3596 44.8441 24.6511 44.2773 24.3162L44.9858 24.7284C45.5526 25.0633 45.9004 25.7589 45.9133 26.7637C45.9133 28.7732 44.5092 31.2207 42.7573 32.2255Z"/></g></g></g></g></g><g id="Group_39"><g id="Clip path group_12"><mask id="mask11_1246_18494" width="4" height="2" x="39" y="31" maskUnits="userSpaceOnUse" style="mask-type:luminance"><g id="clippath-97"><path id="Vector_96" fill="white" d="M39.8077 32.0322C40.3874 32.3671 41.186 32.3156 42.062 31.8132L42.7705 32.2254C41.8945 32.7278 41.0959 32.7794 40.5162 32.4444C40.3101 32.3285 40.0267 32.161 39.8077 32.0322Z"/></g></mask><g mask="url(#mask11_1246_18494)"><g id="Group_40"><g id="Group_41"><path id="Vector_97" fill="#B2B7BF" d="M40.5033 32.4446L39.7948 32.0323C40.3745 32.3673 41.1731 32.3157 42.0491 31.8134L42.7576 32.2256C41.8816 32.7279 41.083 32.7795 40.5033 32.4446Z"/></g></g></g></g></g><g id="Group_42"><g id="Clip path group_13"><mask id="mask12_1246_18494" width="3" height="1" x="42" y="24" maskUnits="userSpaceOnUse" style="mask-type:luminance"><g id="clippath-98"><path id="Vector_98" fill="white" d="M44.29 24.3161L44.9985 24.7283C44.4188 24.3934 43.6202 24.4449 42.7442 24.9473L42.0358 24.5351C42.9117 24.0327 43.7104 23.9812 44.29 24.3161Z"/></g></mask><g mask="url(#mask12_1246_18494)"><g id="Group_43"><g id="Group_44"><path id="Vector_99" fill="#59504A" d="M42.7311 24.9473L42.0226 24.5351C42.8986 24.0327 43.6973 23.9812 44.2769 24.3161L44.9854 24.7283C44.4057 24.3934 43.6071 24.4449 42.7311 24.9473Z"/></g></g></g></g></g><g id="Group_45"><g id="Clip path group_14"><mask id="mask13_1246_18494" width="5" height="2" x="42" y="22" maskUnits="userSpaceOnUse" style="mask-type:luminance"><g id="clippath-99"><path id="Vector_100" fill="white" d="M45.2948 22.5771L46.0033 22.9894C45.166 22.4999 44.0195 22.5771 42.7442 23.3114L42.0358 22.8992C43.311 22.1649 44.4704 22.1005 45.2948 22.5771Z"/></g></mask><g mask="url(#mask13_1246_18494)"><g id="Group_46"><path id="Vector_101" fill="#CDD5DE" d="M42.7311 23.3114L42.0226 22.8992C43.2979 22.1649 44.4573 22.1005 45.2817 22.5771L45.9902 22.9894C45.1529 22.4999 44.0064 22.5771 42.7311 23.3114Z"/></g></g></g></g><g id="Group_47"><g id="Clip path group_15"><mask id="mask14_1246_18494" width="5" height="9" x="38" y="24" maskUnits="userSpaceOnUse" style="mask-type:luminance"><g id="clippath-100"><path id="Vector_102" fill="white" d="M40.5034 32.4444L39.7949 32.0321C39.2281 31.6972 38.8804 31.0016 38.8675 29.9968C38.8675 27.9873 40.2716 25.5398 42.0235 24.535L42.732 24.9472C40.9801 25.952 39.576 28.3995 39.576 30.4091C39.576 31.4009 39.9366 32.1094 40.5034 32.4444Z"/></g></mask><g mask="url(#mask14_1246_18494)"><g id="Group_48"><g id="Group_49"><path id="Vector_103" fill="#59504A" d="M40.5034 32.4444L39.7949 32.0321C39.2281 31.6972 38.8804 31.0016 38.8675 29.9968C38.8675 27.9873 40.2716 25.5398 42.0235 24.535L42.732 24.9472C40.9801 25.952 39.576 28.3995 39.576 30.4091C39.576 31.4009 39.9366 32.1094 40.5034 32.4444Z"/></g></g></g></g></g><g id="Group_50"><g id="Clip path group_16"><mask id="mask15_1246_18494" width="6" height="13" x="37" y="22" maskUnits="userSpaceOnUse" style="mask-type:luminance"><g id="clippath-101"><path id="Vector_104" fill="white" d="M39.4983 34.1707L38.7899 33.7585C37.9654 33.2819 37.4502 32.2642 37.4502 30.8215C37.4502 27.9102 39.4855 24.3678 42.0231 22.8993L42.7316 23.3115C40.194 24.78 38.1458 28.3225 38.1587 31.2337C38.1587 32.6764 38.6739 33.6941 39.4983 34.1707Z"/></g></mask><g mask="url(#mask15_1246_18494)"><g id="Group_51"><path id="Vector_105" fill="#CDD5DE" d="M39.4983 34.1707L38.7899 33.7585C37.9654 33.2819 37.4502 32.2642 37.4502 30.8215C37.4502 27.9102 39.4855 24.3678 42.0231 22.8993L42.7316 23.3115C40.194 24.78 38.1458 28.3225 38.1587 31.2337C38.1587 32.6764 38.6739 33.6941 39.4983 34.1707Z"/></g></g></g></g><path id="Vector_106" fill="#E5F0FA" d="M42.7315 23.3111C45.2692 21.8426 47.3303 23.0278 47.3303 25.939C47.3303 28.8502 45.295 32.3927 42.7573 33.8612C40.2196 35.3297 38.1586 34.1446 38.1586 31.2333C38.1586 28.3221 40.1939 24.7797 42.7315 23.3111ZM42.7573 32.2252C44.5092 31.2205 45.9133 28.773 45.9133 26.7634C45.9133 24.7539 44.4834 23.9423 42.7444 24.96C40.9925 25.9648 39.5884 28.4123 39.5884 30.4218C39.5884 32.4313 41.0183 33.2429 42.7573 32.2252Z"/><path id="Vector_107" fill="#A2ABB5" d="M42.7314 24.9473C44.4833 23.9425 45.9002 24.7541 45.9002 26.7507C45.9002 28.7602 44.4961 31.2078 42.7442 32.2125C40.9923 33.2173 39.5754 32.4058 39.5754 30.4091C39.5754 28.3996 40.9795 25.9521 42.7314 24.9473Z"/></g></g><g id="Group_52"><g id="Group_53"><path id="Vector_108" fill="#515457" d="M31.2151 33.9129L32.2328 34.5055C31.6531 34.1706 30.8545 34.2221 29.9785 34.7245L28.9609 34.1319C29.8368 33.6295 30.6355 33.578 31.2151 33.9129Z"/><path id="Vector_109" fill="#63676B" d="M30.2228 35.3687C31.73 34.5056 32.9537 35.2012 32.9537 36.9273C32.9537 38.6535 31.7428 40.7532 30.2357 41.6291C28.7285 42.4922 27.5048 41.7966 27.5048 40.0705C27.5048 38.3443 28.7157 36.2317 30.2228 35.3687Z"/><path id="Vector_110" fill="#515457" d="M27.7496 42.2217L26.732 41.6292C26.1652 41.2943 25.8174 40.5987 25.8045 39.5939C25.8045 37.5844 27.2086 35.1368 28.9605 34.1321L29.9781 34.7246C28.2262 35.7294 26.8221 38.1769 26.8221 40.1864C26.8221 41.1783 27.1828 41.8868 27.7496 42.2217Z"/><path id="Vector_111" fill="#5A5D61" d="M30.223 35.3687L29.9911 34.7246C31.743 33.7199 33.16 34.5314 33.16 36.5281C33.16 38.5376 31.7559 40.9851 30.004 41.9899C28.2521 42.9946 26.8352 42.1831 26.8352 40.1864C26.8352 38.1769 28.2392 35.7294 29.9911 34.7246L30.223 35.3687C28.7159 36.2318 27.505 38.3444 27.505 40.0705C27.505 41.7966 28.7287 42.4922 30.2359 41.6292C31.743 40.7661 32.9539 38.6535 32.9539 36.9274C32.9539 35.2012 31.7302 34.5056 30.223 35.3687Z"/></g><g id="Group_54"><path id="Vector_112" fill="#515457" d="M46.029 25.3593L47.0467 25.9519C46.467 25.617 45.6683 25.6685 44.7924 26.1709L43.7747 25.5783C44.6507 25.0759 45.4494 25.0244 46.029 25.3593Z"/><path id="Vector_113" fill="#63676B" d="M45.0367 26.8283C46.5438 25.9652 47.7676 26.6608 47.7676 28.3869C47.7676 30.1131 46.5567 32.2128 45.0496 33.0887C43.5424 33.9518 42.3187 33.2562 42.3187 31.5301C42.3187 29.8039 43.5295 27.6913 45.0367 26.8283Z"/><path id="Vector_114" fill="#515457" d="M42.564 33.668L41.5464 33.0755C40.9796 32.7406 40.6318 32.0449 40.6189 31.0402C40.6189 29.0306 42.023 26.5831 43.7749 25.5784L44.7925 26.1709C43.0406 27.1757 41.6365 29.6232 41.6365 31.6327C41.6365 32.6246 41.9972 33.3331 42.564 33.668Z"/><path id="Vector_115" fill="#5A5D61" d="M45.0372 26.8284L44.8053 26.1843C46.5572 25.1796 47.9742 25.9911 47.9742 27.9878C47.9742 29.9973 46.5701 32.4448 44.8182 33.4496C43.0663 34.4543 41.6493 33.6428 41.6493 31.6462C41.6493 29.6366 43.0534 27.1891 44.8053 26.1843L45.0372 26.8284C43.53 27.6915 42.3191 29.8041 42.3191 31.5302C42.3191 33.2564 43.5429 33.952 45.05 33.0889C46.5572 32.2258 47.7681 30.1132 47.7681 28.3871C47.7681 26.661 46.5443 25.9654 45.0372 26.8284Z"/></g></g><g id="Group_55"><path id="Vector_116" fill="#D9E1EB" d="M46.5452 15.1958C46.8414 15.0283 47.0991 14.7321 47.2923 14.41L47.9106 14.7707C47.7174 15.1056 47.4597 15.389 47.1635 15.5565C46.9831 15.4534 46.7384 15.3117 46.5452 15.1958Z"/><path id="Vector_117" fill="#D9E1EB" d="M47.2921 14.3971C47.4853 14.0621 47.6012 13.6886 47.6012 13.3536L48.2195 13.7143C48.2195 14.0493 48.1036 14.4228 47.9104 14.7577L47.2921 14.3971Z"/><path id="Vector_118" fill="#D9E1EB" d="M46.4807 15.9432L45.8753 15.5825L46.5451 15.196L47.1634 15.5567L46.4807 15.9432Z"/><path id="Vector_119" fill="#D9E1EB" d="M48.2192 13.7148L47.6009 13.367V12.5812L48.2192 12.9419V13.7148Z"/><path id="Vector_120" fill="#D9E1EB" d="M45.7338 16.0205L45.1154 15.6598C45.3087 15.7757 45.5792 15.7629 45.8755 15.5825L46.4938 15.9432C46.1975 16.1107 45.927 16.1236 45.7338 16.0205Z"/><path id="Vector_121" fill="#D9E1EB" d="M47.2921 11.8981L47.9104 12.2588C48.1036 12.3747 48.2195 12.6066 48.2195 12.9415L47.6012 12.5808C47.6012 12.2459 47.4853 12.014 47.2921 11.8981Z"/><path id="Vector_122" fill="#70C400" d="M45.7336 16.0202L45.1152 15.6595C44.922 15.5436 44.8061 15.3117 44.8061 14.9768L45.4244 15.3375C45.4244 15.6724 45.5403 15.9043 45.7336 16.0202Z"/><path id="Vector_123" fill="#70C400" d="M47.2923 11.8982L47.9106 12.2588C47.7174 12.1429 47.4469 12.1558 47.1635 12.3361L46.5452 11.9754C46.8414 11.808 47.0991 11.7951 47.2923 11.8982Z"/><path id="Vector_124" fill="#70C400" d="M45.4244 15.3375L44.8061 14.9768V14.191L45.4115 14.5517L45.4244 15.3375Z"/><path id="Vector_125" fill="#70C400" d="M46.4807 12.7227L45.8624 12.362L46.5451 11.9756L47.1505 12.3363L46.4807 12.7227Z"/><path id="Vector_126" fill="#D9E1EB" d="M43.0665 16.7416L43.6848 17.1023C43.6848 17.1023 43.6333 17.2053 43.6075 17.2568L42.9892 16.8962C42.9892 16.8962 43.0408 16.7931 43.0665 16.7416Z"/><path id="Vector_127" fill="#D9E1EB" d="M43.0668 16.7419C43.1312 16.6259 43.1698 16.4971 43.2085 16.3683L43.8268 16.729C43.7881 16.8578 43.7366 16.9737 43.6851 17.1025L43.0668 16.7419Z"/><path id="Vector_128" fill="#70C400" d="M45.4115 14.5519L44.7932 14.1912C44.7932 13.5214 45.2698 12.697 45.8495 12.3621L46.4678 12.7227C45.8881 13.0577 45.4115 13.8821 45.4115 14.5519Z"/><path id="Vector_129" fill="#D9E1EB" d="M46.5317 10.52C46.6734 10.4298 46.8151 10.3268 46.9439 10.1851L47.5623 10.5458C47.4334 10.6746 47.2918 10.7905 47.1501 10.8807C46.9697 10.7776 46.725 10.6359 46.5317 10.52Z"/><path id="Vector_130" fill="#D9E1EB" d="M46.9442 10.1847C47.3178 9.78536 47.5883 9.19281 47.5883 8.69043L48.2066 9.05111C48.2066 9.5535 47.9361 10.1461 47.5625 10.5454L46.9442 10.1847Z"/><path id="Vector_131" fill="#D9E1EB" d="M43.2857 16.0973L43.904 16.458C43.8911 16.5481 43.8654 16.6383 43.8396 16.7285L43.2213 16.3678C43.2471 16.2776 43.2728 16.1875 43.2857 16.0973Z"/><path id="Vector_132" fill="#D9E1EB" d="M42.2428 17.6818C42.5391 17.5143 42.7967 17.218 42.99 16.896L43.6083 17.2567C43.4151 17.5916 43.1574 17.875 42.8612 18.0425C42.6808 17.9394 42.4361 17.7977 42.2428 17.6818Z"/><path id="Vector_133" fill="#D9E1EB" d="M43.2859 16.0974C43.2988 16.0072 43.3117 15.93 43.3117 15.8527L43.93 16.2133C43.93 16.2906 43.93 16.3808 43.9042 16.4581L43.2859 16.0974Z"/><path id="Vector_134" fill="#D9E1EB" d="M46.4678 11.2798L45.8624 10.9191L46.5322 10.5198L47.1505 10.8805L46.4678 11.2798Z"/><path id="Vector_135" fill="#D9E1EB" d="M48.2063 9.05149L47.588 8.69081V7.90503L48.2063 8.26571V9.05149Z"/><path id="Vector_136" fill="#D9E1EB" d="M42.1778 18.429L41.5595 18.0683L42.2422 17.6819L42.8606 18.0426L42.1778 18.429Z"/><path id="Vector_137" fill="#D9E1EB" d="M43.9172 16.2136L43.2988 15.8529V15.0671L43.9172 15.4278V16.2136Z"/><path id="Vector_138" fill="#D9E1EB" d="M45.7208 11.3443L45.1025 10.9837C45.2957 11.0996 45.5663 11.0867 45.8625 10.9064L46.4808 11.2671C46.1846 11.4345 45.9141 11.4474 45.7208 11.3443Z"/><path id="Vector_139" fill="#D9E1EB" d="M47.2794 7.23486L47.8977 7.59556C48.0909 7.71149 48.2069 7.94336 48.2069 8.27828L47.5886 7.9176C47.5886 7.58268 47.4726 7.3508 47.2794 7.23486Z"/><path id="Vector_140" fill="#D9E1EB" d="M41.4182 18.5066L40.7999 18.1459C40.9932 18.2618 41.2637 18.2489 41.5471 18.0686L42.1654 18.4293C41.8691 18.5967 41.6115 18.6096 41.4182 18.5066Z"/><path id="Vector_141" fill="#D9E1EB" d="M42.9892 14.3844L43.6075 14.7451C43.8008 14.861 43.9167 15.0929 43.9167 15.4278L43.2984 15.0671C43.2984 14.7322 43.1825 14.5003 42.9892 14.3844Z"/><path id="Vector_142" fill="#FFED00" d="M45.7206 11.3441L45.1023 10.9834C44.9091 10.8674 44.7932 10.6356 44.7932 10.3007L45.4115 10.6613C45.4115 10.9963 45.5274 11.2281 45.7206 11.3441Z"/><path id="Vector_143" fill="#FFED00" d="M47.2789 7.23495L47.8972 7.59564C47.704 7.47971 47.4334 7.49259 47.1501 7.67293L46.5317 7.31224C46.828 7.14478 47.0856 7.13189 47.2789 7.23495Z"/><path id="Vector_144" fill="#3072FF" d="M41.4183 18.5064L40.8 18.1457C40.6068 18.0298 40.4908 17.7979 40.4908 17.463L41.1092 17.8237C41.1092 18.1586 41.2251 18.3905 41.4183 18.5064Z"/><path id="Vector_145" fill="#3072FF" d="M42.99 14.3844L43.6083 14.745C43.4151 14.6291 43.1445 14.642 42.8612 14.8223L42.2428 14.4617C42.5391 14.2942 42.7967 14.2813 42.99 14.3844Z"/><path id="Vector_146" fill="#FFED00" d="M45.4115 10.6615L44.7932 10.3137V9.52795L45.3986 9.88864L45.4115 10.6615Z"/><path id="Vector_147" fill="#FFED00" d="M46.4677 8.05934L45.8494 7.69864L46.5322 7.29932L47.1376 7.66L46.4677 8.05934Z"/><path id="Vector_148" fill="#3072FF" d="M41.1092 17.8238L40.5037 17.4631L40.4908 16.6902L41.1092 17.038V17.8238Z"/><path id="Vector_149" fill="#3072FF" d="M42.1649 15.2088L41.5466 14.8481L42.2293 14.4617L42.8476 14.8224L42.1649 15.2088Z"/><path id="Vector_150" fill="#D9E1EB" d="M43.1184 11.9498C43.1571 11.8725 43.1828 11.7824 43.2086 11.7051L43.8269 12.0658C43.8012 12.1431 43.7754 12.2332 43.7368 12.3105L43.1184 11.9498Z"/><path id="Vector_151" fill="#D9E1EB" d="M43.2342 11.6147L43.8525 11.9754C43.8525 11.9754 43.8396 12.0398 43.8267 12.0656L43.2084 11.7049C43.2084 11.7049 43.2213 11.6405 43.2342 11.6147Z"/><path id="Vector_152" fill="#FFED00" d="M45.3986 9.88849L44.7802 9.52781C44.7802 8.85796 45.2569 8.03353 45.8365 7.69861L46.4549 8.0593C45.8752 8.39422 45.3986 9.21865 45.3986 9.88849Z"/><path id="Vector_153" fill="#FFED00" d="M47.1377 7.66002C47.7174 7.32509 48.194 7.59561 48.2069 8.26545V9.05123C48.2069 9.72108 47.7303 10.5455 47.1506 10.8804L46.4679 11.2798C45.8882 11.6147 45.4116 11.3442 45.3987 10.6743V9.88854C45.3987 9.2187 45.8753 8.39428 46.455 8.05935L47.1377 7.66002Z"/><path id="Vector_154" fill="#3072FF" d="M41.1092 17.0378L40.4908 16.6771C40.4908 16.0072 40.9674 15.1828 41.5471 14.8479L42.1654 15.2086C41.5858 15.5435 41.1092 16.3679 41.1092 17.0378Z"/><path id="Vector_155" fill="#D9E1EB" d="M43.1187 11.9497L43.7371 12.3104C43.5438 12.7484 43.2218 13.1606 42.8482 13.3796L42.2299 13.0189C42.6035 12.7999 42.9255 12.4006 43.1187 11.9497Z"/><path id="Vector_156" fill="#D9E1EB" d="M43.2342 11.6148C43.2729 11.4731 43.2858 11.3185 43.2858 11.1897L43.9041 11.5504C43.9041 11.6921 43.8783 11.8338 43.8525 11.9755L43.2342 11.6148Z"/><path id="Vector_157" fill="#D9E1EB" d="M42.1649 13.7662L41.5466 13.4056L42.2293 13.0062L42.8476 13.3669L42.1649 13.7662Z"/><path id="Vector_158" fill="#D9E1EB" d="M43.9042 11.5372L43.2859 11.1765V10.3907L43.9042 10.7514V11.5372Z"/><path id="Vector_159" fill="#C1CBD8" d="M40.8256 19.6525L40.2072 19.2918C39.4859 18.8796 39.0479 17.9908 39.035 16.7284L39.6533 17.0891C39.6533 18.3515 40.1042 19.2403 40.8127 19.6525H40.8256Z"/><path id="Vector_160" fill="#D9E1EB" d="M41.4053 13.8303L40.787 13.4696C40.9802 13.5856 41.2508 13.5727 41.5341 13.3923L42.1525 13.753C41.8562 13.9205 41.5985 13.9334 41.4053 13.8303Z"/><path id="Vector_161" fill="#D9E1EB" d="M42.9763 9.72107L43.5946 10.0818C43.7878 10.1977 43.9038 10.4296 43.9038 10.7645L43.2855 10.4038C43.2855 10.0689 43.1695 9.837 42.9763 9.72107Z"/><path id="Vector_162" fill="#FF1515" d="M41.4051 13.8303L40.7868 13.4696C40.5936 13.3537 40.4777 13.1218 40.4777 12.7869L41.096 13.1475C41.096 13.4825 41.2119 13.7143 41.4051 13.8303Z"/><path id="Vector_163" fill="#FF1515" d="M42.977 9.72103L43.5954 10.0817C43.4021 9.96579 43.1316 9.97867 42.8482 10.159L42.2299 9.79833C42.5262 9.63087 42.7838 9.61798 42.977 9.72103Z"/><path id="Vector_164" fill="#FF1515" d="M41.096 13.1476L40.4905 12.7998L40.4777 12.014L41.096 12.3747V13.1476Z"/><path id="Vector_165" fill="#FF1515" d="M42.152 10.5455L41.5337 10.1848L42.2164 9.78552L42.8347 10.1462L42.152 10.5455Z"/><path id="Vector_166" fill="#FF1515" d="M41.096 12.3749L40.4777 12.0143C40.4777 11.3444 40.9543 10.52 41.5339 10.1851L42.1523 10.5458C41.5726 10.8807 41.096 11.7051 41.096 12.3749Z"/><path id="Vector_167" fill="#D9E1EB" d="M45.6554 6.70709C47.8582 5.43181 49.6616 6.46234 49.6616 8.98713V11.3058C49.6745 13.8435 47.8968 16.9351 45.6812 18.2104L43.6716 19.3697C41.4689 20.645 39.6654 19.6274 39.6654 17.0897V14.771C39.6526 12.2333 41.4302 9.14172 43.6459 7.86644L45.6554 6.70709Z"/><path id="Vector_168" fill="#515457" d="M21.0264 20.5933C23.2291 19.318 25.0326 20.3486 25.0326 22.8734V25.1921C25.0454 27.7297 23.2678 30.8213 21.0521 32.0966L19.0426 33.256C16.8398 34.5312 15.0364 33.5136 15.0364 30.9759V28.6572C15.0235 26.1195 16.8012 23.0279 19.0168 21.7527L21.0264 20.5933Z"/><path id="Vector_169" fill="#606469" d="M21.6448 20.8768C23.8476 19.6015 25.651 20.632 25.651 23.1568V25.4755C25.6639 28.0132 23.8862 31.1048 21.6706 32.3801L19.6611 33.5394C17.4583 34.8147 15.6549 33.797 15.6549 31.2594V28.9407C15.642 26.403 17.4197 23.3114 19.6353 22.0361L21.6448 20.8768Z"/><path id="Vector_170" fill="#70C400" d="M47.1506 12.336C47.7303 12.0011 48.2069 12.2716 48.2198 12.9415V13.7273C48.2198 14.3971 47.7432 15.2215 47.1635 15.5564L46.4808 15.9558C45.9011 16.2907 45.4245 16.0202 45.4116 15.3503V14.5646C45.4116 13.8947 45.8882 13.0703 46.4679 12.7354L47.1506 12.336Z"/><path id="Vector_171" fill="#3072FF" d="M42.8478 14.8225C43.4275 14.4876 43.9041 14.7581 43.917 15.4279V16.2137C43.917 16.8835 43.4404 17.708 42.8607 18.0429L42.178 18.4422C41.5983 18.7771 41.1217 18.5066 41.1088 17.8368V17.051C41.1088 16.3812 41.5854 15.5567 42.1651 15.2218L42.8478 14.8225Z"/><path id="Vector_172" fill="#C1CBD8" d="M47.8845 6.07571L48.5028 6.4364C47.7814 6.0113 46.7638 6.07571 45.656 6.71979L45.0377 6.35911C46.1455 5.71503 47.1503 5.6635 47.8845 6.07571Z"/><path id="Vector_173" fill="#C1CBD8" d="M39.6533 17.0895L39.0479 16.7417L39.035 14.423L39.6533 14.7708V17.0895Z"/><path id="Vector_174" fill="#C1CBD8" d="M43.6342 7.87915L43.0158 7.51847L45.0382 6.35913L45.6566 6.70693L43.6342 7.87915Z"/><path id="Vector_175" fill="#FF1515" d="M42.8349 10.1463C43.4145 9.81142 43.8912 10.0819 43.904 10.7518V11.5376C43.904 12.2074 43.4274 13.0318 42.8478 13.3667L42.165 13.7661C41.5854 14.101 41.1087 13.8305 41.0959 13.1606V12.3749C41.0959 11.705 41.5725 10.8806 42.1521 10.5457L42.8349 10.1463Z"/><path id="Vector_176" fill="#C1CBD8" d="M39.6533 14.7708L39.035 14.4102C39.035 11.8725 40.8127 8.7809 43.0154 7.50562L43.6338 7.8663C41.431 9.14158 39.6404 12.2332 39.6533 14.7708Z"/></g><g id="Group_56"><g id="Group_57"><path id="Vector_177" fill="#776A63" d="M19.7249 32.5347C19.7249 32.5347 19.6861 32.5217 19.6731 32.5088L19.7249 32.5347Z"/><path id="Vector_178" fill="#776A63" d="M19.0682 32.1609C19.0682 32.1609 19.1071 32.1738 19.12 32.1868L19.0682 32.1609Z"/></g></g><g id="Group_58"><g id="Group_59"><path id="Vector_179" fill="#515457" d="M32.3879 26.3773L33.0963 26.7895C32.916 26.6865 32.6584 26.6994 32.375 26.8539L31.6665 26.4417C31.9499 26.2743 32.2075 26.2614 32.3879 26.3773Z"/><path id="Vector_180" fill="#515457" d="M31.0864 27.5881L30.3779 27.1888L31.6661 26.4417L32.3745 26.8539L31.0864 27.5881Z"/><path id="Vector_181" fill="#515457" d="M30.3778 29.997L29.6693 29.5848C29.489 29.4818 29.3731 29.2499 29.3731 28.9407C29.3731 28.2967 29.8239 27.5109 30.3778 27.1888L31.0863 27.6011C30.5324 27.9231 30.0687 28.7089 30.0816 29.353C30.0816 29.675 30.1975 29.894 30.3778 29.997Z"/><path id="Vector_182" fill="#63676B" d="M32.3749 26.8539C32.9288 26.5318 33.3925 26.7894 33.3925 27.4335C33.3925 28.0776 32.9417 28.8634 32.3878 29.1854L31.0996 29.9326C30.5457 30.2546 30.082 29.997 30.082 29.3529C30.082 28.7088 30.5328 27.923 31.0867 27.601L32.3749 26.8539Z"/></g><g id="Group_60"><path id="Vector_183" fill="#515457" d="M38.4165 22.8994L39.125 23.3116C38.9447 23.2086 38.687 23.2215 38.4037 23.376L37.6952 22.9638C37.9786 22.7964 38.2362 22.7835 38.4165 22.8994Z"/><path id="Vector_184" fill="#515457" d="M37.1022 24.1227L36.4066 23.7105L37.6947 22.9634L38.3903 23.3756L37.1022 24.1227Z"/><path id="Vector_185" fill="#515457" d="M36.3936 26.5191L35.6851 26.1069C35.5047 26.0039 35.3888 25.772 35.3888 25.4628C35.3888 24.8188 35.8397 24.033 36.3936 23.7109L37.1021 24.1231C36.5482 24.4452 36.0973 25.231 36.0973 25.8751C36.0973 26.1971 36.2132 26.4161 36.3936 26.5191Z"/><path id="Vector_186" fill="#63676B" d="M38.3909 23.3761C38.9448 23.054 39.4085 23.3117 39.4085 23.9557C39.4085 24.5998 38.9577 25.3856 38.4038 25.7076L37.1156 26.4548C36.5617 26.7768 36.098 26.5192 36.098 25.8751C36.098 25.231 36.5488 24.4452 37.1027 24.1232L38.3909 23.3761Z"/></g></g><g id="Group_61"><g id="Group_62"><path id="Vector_187" fill="#4B6EFA" d="M44.2768 16.7932L44.5087 16.5227C44.5087 17.1925 44.0321 18.017 43.4524 18.3519L43.5812 18.017C43.9677 17.798 44.2897 17.2441 44.2897 16.7932H44.2768Z"/><path id="Vector_188" fill="#4B6EFA" d="M43.5685 18.0171L43.4526 18.3391L42.7698 18.7385L42.8987 18.4035L43.5685 18.0171Z"/><path id="Vector_189" fill="#4B6EFA" d="M44.2763 16.0076L44.5082 15.7371V16.51L44.2763 16.7934V16.0076Z"/><path id="Vector_190" fill="#4B6EFA" d="M42.8981 18.4035L42.7693 18.7384C42.1897 19.0733 41.713 18.8028 41.7001 18.133L42.1768 18.0042C42.1768 18.455 42.4988 18.6354 42.8853 18.4035H42.8981Z"/><path id="Vector_191" fill="#4261DE" d="M42.0226 18.8157L41.4816 18.5066C41.2883 18.3906 41.1724 18.1588 41.1724 17.8239L41.7134 18.133C41.7134 18.4679 41.8294 18.6998 42.0226 18.8157Z"/><path id="Vector_192" fill="#4261DE" d="M43.6583 14.7453L44.1993 15.0545C44.0061 14.9386 43.7356 14.9514 43.4393 15.1318L42.8983 14.8226C43.1946 14.6552 43.4651 14.6423 43.6583 14.7453Z"/><path id="Vector_193" fill="#4B6EFA" d="M43.5685 15.6084L43.4397 15.1318C44.0194 14.7969 44.496 15.0674 44.5089 15.7373L44.277 16.0078C44.277 15.5569 43.955 15.3766 43.5685 15.6084Z"/><path id="Vector_194" fill="#4B6EFA" d="M42.1896 18.004L41.7001 18.1329V17.3471L42.1768 17.2183L42.1896 18.004Z"/><path id="Vector_195" fill="#4261DE" d="M41.7008 18.1332L41.1597 17.824V17.0382L41.7008 17.3474V18.1332Z"/><path id="Vector_196" fill="#4261DE" d="M42.757 15.5177L42.216 15.2085L42.8987 14.8092L43.4397 15.1312L42.757 15.5177Z"/><path id="Vector_197" fill="#4B6EFA" d="M42.8855 15.9945L42.7567 15.5179L43.4394 15.1315L43.5682 15.6081L42.8855 15.9945Z"/><path id="Vector_198" fill="#5681FF" d="M43.5684 15.6081C43.9549 15.3891 44.2769 15.5695 44.2769 16.0075V16.7932C44.2769 17.2312 43.9678 17.7851 43.5684 18.017L42.8857 18.4163C42.4993 18.6353 42.1772 18.455 42.1772 18.017V17.2312C42.1772 16.7932 42.4864 16.2393 42.8857 16.0075L43.5684 15.6081Z"/><path id="Vector_199" fill="#4B6EFA" d="M42.1768 17.2184L41.7001 17.3473C41.7001 16.6774 42.1768 15.853 42.7564 15.5181L42.8853 15.9947C42.4988 16.2137 42.1768 16.7676 42.1768 17.2184Z"/><path id="Vector_200" fill="#4261DE" d="M41.7008 17.3472L41.1597 17.038C41.1597 16.3682 41.6363 15.5438 42.216 15.2089L42.757 15.518C42.1774 15.8529 41.7008 16.6774 41.7008 17.3472Z"/></g><g id="Group_63"><path id="Vector_201" fill="#FF3217" d="M44.2642 12.1171L44.496 11.8466C44.496 12.5164 44.0194 13.3408 43.4397 13.6757L43.5686 13.3408C43.955 13.1218 44.2771 12.5679 44.2771 12.1171H44.2642Z"/><path id="Vector_202" fill="#FF3217" d="M43.5553 13.3408L43.4394 13.6757L42.7567 14.0622L42.8855 13.7401L43.5553 13.3408Z"/><path id="Vector_203" fill="#FF3217" d="M44.2634 11.3313L44.4953 11.0608V11.8466L44.2634 12.1171V11.3313Z"/><path id="Vector_204" fill="#FF3217" d="M42.8852 13.7401L42.7564 14.0751C42.1767 14.41 41.7001 14.1395 41.6872 13.4696L42.1639 13.3408C42.1639 13.7917 42.4859 13.972 42.8723 13.7401H42.8852Z"/><path id="Vector_205" fill="#D82417" d="M42.0099 14.1396L41.4689 13.8304C41.2757 13.7145 41.1597 13.4826 41.1597 13.1477L41.7008 13.4569C41.7008 13.7918 41.8167 14.0237 42.0099 14.1396Z"/><path id="Vector_206" fill="#D82417" d="M43.6454 10.0691L44.1864 10.3782C43.9932 10.2623 43.7227 10.2752 43.4264 10.4555L42.8854 10.1463C43.1817 9.97888 43.4522 9.966 43.6454 10.0691Z"/><path id="Vector_207" fill="#FF3217" d="M43.5557 10.9322L43.4268 10.4555C44.0065 10.1206 44.4831 10.3911 44.496 11.061L44.2641 11.3315C44.2641 10.8806 43.9421 10.7003 43.5557 10.9322Z"/><path id="Vector_208" fill="#FF3217" d="M42.1767 13.3279L41.6872 13.4567V12.6838L42.1639 12.5421L42.1767 13.3279Z"/><path id="Vector_209" fill="#D82417" d="M41.6878 13.457L41.1468 13.1478V12.3621L41.6878 12.6841V13.457Z"/><path id="Vector_210" fill="#D82417" d="M42.7441 10.8549L42.2031 10.5328L42.8858 10.1464L43.4268 10.4555L42.7441 10.8549Z"/><path id="Vector_211" fill="#FF3217" d="M42.8726 11.3314L42.7438 10.8548L43.4265 10.4554L43.5553 10.9321L42.8726 11.3314Z"/><path id="Vector_212" fill="#FF4320" d="M43.5555 10.9318C43.942 10.7129 44.264 10.8932 44.264 11.3312V12.117C44.264 12.5549 43.9549 13.1088 43.5555 13.3407L42.8728 13.74C42.4864 13.959 42.1643 13.7787 42.1643 13.3407V12.5549C42.1643 12.117 42.4735 11.563 42.8728 11.3312L43.5555 10.9318Z"/><path id="Vector_213" fill="#FF3217" d="M42.1639 12.5423L41.6872 12.6711C41.6872 12.0013 42.1639 11.1768 42.7435 10.8419L42.8723 11.3185C42.4859 11.5375 42.1639 12.0914 42.1639 12.5423Z"/><path id="Vector_214" fill="#D82417" d="M41.6878 12.684L41.1468 12.3748C41.1468 11.705 41.6234 10.8806 42.2031 10.5457L42.7441 10.8548C42.1645 11.1897 41.6878 12.0142 41.6878 12.684Z"/></g><g id="Group_64"><path id="Vector_215" fill="#7CEF2E" d="M48.5924 14.3069L48.8243 14.0364C48.8243 14.7062 48.3477 15.5306 47.768 15.8656L47.8968 15.5306C48.2833 15.3117 48.6053 14.7577 48.6053 14.3069H48.5924Z"/><path id="Vector_216" fill="#7CEF2E" d="M47.8838 15.5176L47.755 15.8525L47.0723 16.2518L47.2011 15.9169L47.8838 15.5176Z"/><path id="Vector_217" fill="#7CEF2E" d="M48.5795 13.5214L48.8114 13.2509V14.0237L48.5924 14.3071L48.5795 13.5214Z"/><path id="Vector_218" fill="#7CEF2E" d="M47.2013 15.9169L47.0725 16.2518C46.4928 16.5868 46.0162 16.3162 46.0033 15.6464L46.48 15.5176C46.48 15.9684 46.802 16.1488 47.1884 15.9169H47.2013Z"/><path id="Vector_219" fill="#65BA2E" d="M46.3258 16.3294L45.7847 16.0203C45.5915 15.9043 45.4756 15.6724 45.4756 15.3375L46.0166 15.6467C46.0166 15.9816 46.1325 16.2135 46.3258 16.3294Z"/><path id="Vector_220" fill="#65BA2E" d="M47.9613 12.2458L48.5023 12.555C48.3091 12.439 48.0386 12.4519 47.7552 12.6323L47.2141 12.3231C47.5104 12.1556 47.7681 12.1428 47.9613 12.2458Z"/><path id="Vector_221" fill="#7CEF2E" d="M47.871 13.1219L47.7421 12.6452C48.3218 12.3103 48.7984 12.5808 48.8113 13.2507L48.5794 13.5212C48.5794 13.0703 48.2574 12.89 47.871 13.1219Z"/><path id="Vector_222" fill="#7CEF2E" d="M46.4931 15.5179L46.0165 15.6468V14.861L46.4931 14.7322V15.5179Z"/><path id="Vector_223" fill="#65BA2E" d="M46.0166 15.6465L45.4756 15.3244V14.5515L46.0166 14.8607V15.6465Z"/><path id="Vector_224" fill="#65BA2E" d="M47.0724 13.0317L46.5313 12.7226L47.2141 12.3232L47.7551 12.6453L47.0724 13.0317Z"/><path id="Vector_225" fill="#7CEF2E" d="M47.1882 13.5083L47.0723 13.0317L47.755 12.6453L47.8709 13.1219L47.1882 13.5083Z"/><path id="Vector_226" fill="#8DFF2E" d="M47.8706 13.1219C48.2571 12.9029 48.5791 13.0833 48.5791 13.5212V14.307C48.5791 14.745 48.2699 15.2989 47.8706 15.5308L47.1879 15.9301C46.8014 16.1491 46.4794 15.9687 46.4794 15.5308V14.745C46.4794 14.307 46.7886 13.7531 47.1879 13.5212L47.8706 13.1219Z"/><path id="Vector_227" fill="#7CEF2E" d="M46.4931 14.732L46.0165 14.8608C46.0165 14.191 46.4931 13.3665 47.0728 13.0316L47.2016 13.5082C46.8152 13.7272 46.4931 14.2811 46.4931 14.732Z"/><path id="Vector_228" fill="#65BA2E" d="M46.0166 14.861L45.4756 14.5518C45.4756 13.882 45.9522 13.0576 46.5319 12.7227L47.0729 13.0318C46.4932 13.3667 46.0166 14.1912 46.0166 14.861Z"/></g><g id="Group_65"><path id="Vector_229" fill="#FFBB00" d="M48.5795 9.63099L48.8114 9.36047C48.8114 10.0303 48.3348 10.8547 47.7551 11.1897L47.8839 10.8547C48.2704 10.6358 48.5924 10.0818 48.5924 9.63099H48.5795Z"/><path id="Vector_230" fill="#FFBB00" d="M47.8709 10.8547L47.7421 11.1897L47.0594 11.5761L47.1882 11.2412L47.8709 10.8547Z"/><path id="Vector_231" fill="#FFBB00" d="M48.5666 8.8451L48.7985 8.57458V9.36036L48.5795 9.63088L48.5666 8.8451Z"/><path id="Vector_232" fill="#FFBB00" d="M47.1884 11.2412L47.0596 11.5762C46.4799 11.9111 46.0033 11.6406 45.9904 10.9707L46.467 10.8419C46.467 11.2928 46.7891 11.4731 47.1755 11.2412H47.1884Z"/><path id="Vector_233" fill="#F79000" d="M46.3129 11.6535L45.7718 11.3443C45.5786 11.2284 45.4627 10.9965 45.4627 10.6616L46.0037 10.9708C46.0037 11.3057 46.1196 11.5376 46.3129 11.6535Z"/><path id="Vector_234" fill="#F79000" d="M47.9484 7.58285L48.4894 7.89201C48.2962 7.77607 48.0257 7.78896 47.7423 7.9693L47.2012 7.66014C47.4975 7.49268 47.7552 7.4798 47.9484 7.58285Z"/><path id="Vector_235" fill="#FFBB00" d="M47.8581 8.44571L47.7292 7.9691C48.3089 7.63418 48.7855 7.90468 48.7984 8.57453L48.5666 8.84504C48.5666 8.39418 48.2445 8.21384 47.8581 8.44571Z"/><path id="Vector_236" fill="#FFBB00" d="M46.48 10.8418L46.0033 10.9706V10.1977L46.48 10.056V10.8418Z"/><path id="Vector_237" fill="#F79000" d="M46.0037 10.9707L45.4627 10.6615V9.87573L46.0037 10.1978V10.9707Z"/><path id="Vector_238" fill="#F79000" d="M47.0595 8.36877L46.5184 8.04673L47.2012 7.66028L47.7422 7.96944L47.0595 8.36877Z"/><path id="Vector_239" fill="#FFBB00" d="M47.1753 8.84542L47.0594 8.36881L47.7421 7.96948L47.858 8.4461L47.1753 8.84542Z"/><path id="Vector_240" fill="#FCD200" d="M47.858 8.44576C48.2444 8.22678 48.5665 8.40712 48.5665 8.84509V9.63087C48.5665 10.0688 48.2573 10.6228 47.858 10.8546L47.1752 11.254C46.7888 11.4729 46.4667 11.2926 46.4667 10.8546V10.0689C46.4667 9.63088 46.7759 9.07696 47.1752 8.84509L47.858 8.44576Z"/><path id="Vector_241" fill="#FFBB00" d="M46.48 10.0562L46.0033 10.185C46.0033 9.51518 46.48 8.69076 47.0596 8.35583L47.1885 8.83246C46.802 9.05145 46.48 9.60535 46.48 10.0562Z"/><path id="Vector_242" fill="#F79000" d="M46.0037 10.1977L45.4627 9.88851C45.4627 9.21867 45.9393 8.39425 46.519 8.05933L47.06 8.36848C46.4803 8.7034 46.0037 9.52783 46.0037 10.1977Z"/></g></g><g id="Group_66"><g id="Group_67"><path id="Vector_243" fill="#5A5D61" d="M22.0824 31.6584L22.1855 31.7744L22.0309 32.0191L21.9278 31.9032L22.0824 31.6584Z"/><path id="Vector_244" fill="#5A5D61" d="M22.1981 31.3234L22.4299 31.0529C22.4299 31.2847 22.3398 31.5424 22.1852 31.7742L22.0821 31.6583C22.1465 31.5552 22.1981 31.4264 22.1981 31.3234Z"/><path id="Vector_245" fill="#5A5D61" d="M21.9274 31.9033L22.0305 32.0193C21.8115 32.3542 21.541 32.6247 21.2576 32.7793C20.9871 32.9339 20.7166 32.9854 20.4847 32.9081L20.8325 32.5345C20.9871 32.5861 21.1803 32.5603 21.3735 32.4444C21.5668 32.3284 21.76 32.1481 21.9146 31.9033H21.9274Z"/><path id="Vector_246" fill="#5A5D61" d="M22.1989 30.0997L22.4179 29.8292L22.4308 31.053L22.1989 31.3235V30.0997Z"/><path id="Vector_247" fill="#5A5D61" d="M20.8332 32.5345L20.4854 32.9081L20.318 32.8437L20.6658 32.4701L20.8332 32.5345Z"/><path id="Vector_248" fill="#5A5D61" d="M20.6653 32.4701L20.3175 32.8437C20.1629 32.7922 20.0727 32.6247 20.0727 32.3929L20.5494 32.264C20.5494 32.3671 20.588 32.4444 20.6653 32.4701Z"/><path id="Vector_249" fill="#515457" d="M20.2795 32.8177L19.7384 32.5086C19.6225 32.4442 19.5452 32.2896 19.5452 32.0835L20.0863 32.3927C20.0863 32.5988 20.1507 32.7405 20.2795 32.8177Z"/><path id="Vector_250" fill="#515457" d="M21.6832 29.0821L22.2242 29.3913C22.1083 29.3268 21.9408 29.3268 21.7605 29.4428L21.2194 29.1336C21.3998 29.0306 21.5672 29.0177 21.6832 29.0821Z"/><path id="Vector_251" fill="#5A5D61" d="M21.8889 29.9325L21.7601 29.4559C22.1208 29.2498 22.4171 29.4172 22.4171 29.8294L22.1852 30.1C22.1852 29.9067 22.0435 29.8294 21.8761 29.9196L21.8889 29.9325Z"/><path id="Vector_252" fill="#63676B" d="M21.889 29.9324C22.0565 29.8293 22.1982 29.9195 22.1982 30.1127V31.3365C22.1982 31.4396 22.1595 31.5684 22.0951 31.6714L21.9277 31.9162C21.7731 32.1609 21.5799 32.3413 21.3867 32.4572C21.1934 32.5731 21.0002 32.6118 20.8456 32.5474L20.6782 32.483C20.6138 32.4572 20.5622 32.3799 20.5622 32.2769V31.0531C20.5622 30.8599 20.691 30.628 20.8585 30.5249L21.889 29.9324Z"/><path id="Vector_253" fill="#5A5D61" d="M20.5622 32.2638L20.0856 32.4055L20.0727 31.1817L20.5622 31.04V32.2638Z"/><path id="Vector_254" fill="#515457" d="M20.0862 32.4057L19.5452 32.0836L19.5323 30.8599L20.0733 31.1819L20.0862 32.4057Z"/><path id="Vector_255" fill="#515457" d="M20.7298 30.0483L20.1888 29.7262L21.2193 29.1337L21.7603 29.4428L20.7298 30.0483Z"/><path id="Vector_256" fill="#5A5D61" d="M20.8588 30.5249L20.7299 30.0483L21.7605 29.4429L21.8893 29.9324L20.8588 30.5249Z"/><path id="Vector_257" fill="#515457" d="M20.0733 31.1816L19.5323 30.8725C19.5323 30.4603 19.8286 29.945 20.1893 29.7389L20.7303 30.0481C20.3696 30.2542 20.0733 30.7694 20.0733 31.1816Z"/><path id="Vector_258" fill="#5A5D61" d="M20.5623 31.04L20.0856 31.1689C20.0856 30.7566 20.3819 30.2414 20.7426 30.0353L20.8714 30.5119C20.704 30.6021 20.5623 30.8468 20.5751 31.04H20.5623Z"/></g><g id="Group_68"><path id="Vector_259" fill="#5A5D61" d="M25.3291 26.0034L25.4837 26.0292L25.342 26.2997L25.2003 26.2739L25.3291 26.0034Z"/><path id="Vector_260" fill="#5A5D61" d="M25.2 26.2738L25.3546 26.2996C25.2258 26.5443 25.0454 26.7504 24.8522 26.8664L24.981 26.5314C25.0712 26.4799 25.1613 26.3769 25.2129 26.2738H25.2Z"/><path id="Vector_261" fill="#5A5D61" d="M25.3287 24.754L25.4704 24.2645C25.844 24.5608 25.844 25.3079 25.4704 26.0293L25.3158 26.0036C25.5735 25.4883 25.5735 24.9601 25.3158 24.754H25.3287Z"/><path id="Vector_262" fill="#5A5D61" d="M24.9557 26.5319L24.8398 26.8668L23.7706 27.4851L23.8994 27.1502L24.9557 26.5319Z"/><path id="Vector_263" fill="#5A5D61" d="M25.1874 24.6511L25.342 24.1616L25.4708 24.2647L25.3291 24.7542L25.1874 24.6511Z"/><path id="Vector_264" fill="#5A5D61" d="M24.9552 24.6509L24.8263 24.1743C25.0196 24.0584 25.2128 24.0584 25.3287 24.1614L25.1741 24.6509C25.1741 24.6509 25.0324 24.5994 24.9423 24.6509H24.9552Z"/><path id="Vector_265" fill="#515457" d="M24.7491 23.8137L25.2902 24.1228C25.1614 24.0455 24.9939 24.0713 24.8264 24.1743L24.2854 23.8652C24.4658 23.7621 24.6332 23.7493 24.7491 23.8137Z"/><path id="Vector_266" fill="#515457" d="M23.3067 27.5234L22.7657 27.2143C22.6497 27.1499 22.5724 26.9953 22.5724 26.7892L23.1135 27.0984C23.1135 27.3045 23.1908 27.4461 23.3067 27.5234Z"/><path id="Vector_267" fill="#5A5D61" d="M23.8994 27.1498L23.7706 27.4847C23.4099 27.6908 23.1136 27.5233 23.1136 27.1111L23.5902 26.9823C23.5902 27.1755 23.7319 27.2528 23.8994 27.1626V27.1498Z"/><path id="Vector_268" fill="#63676B" d="M24.9554 24.6509C25.0455 24.5994 25.1357 24.5994 25.1872 24.6509L25.316 24.7669C25.5737 24.9859 25.5737 25.5011 25.316 26.0164L25.1872 26.274C25.1357 26.39 25.0455 26.4801 24.9554 26.5317L23.8862 27.15C23.7187 27.253 23.577 27.1629 23.577 26.9696V25.7845C23.577 25.5913 23.7058 25.3594 23.8733 25.2564L24.9425 24.6381L24.9554 24.6509Z"/><path id="Vector_269" fill="#515457" d="M23.1135 27.1114L22.5724 26.7894V25.6042L23.1135 25.9263V27.1114Z"/><path id="Vector_270" fill="#5A5D61" d="M23.5902 26.9696L23.1136 27.1113V25.9262L23.5902 25.7974V26.9696Z"/><path id="Vector_271" fill="#515457" d="M23.7699 24.7927L23.2289 24.4707L24.2852 23.8652L24.8262 24.1744L23.7699 24.7927Z"/><path id="Vector_272" fill="#5A5D61" d="M23.8865 25.2693L23.7706 24.7926L24.8269 24.1743L24.9557 24.6509L23.8865 25.2693Z"/><path id="Vector_273" fill="#515457" d="M23.1135 25.9265L22.5724 25.6173C22.5724 25.2051 22.8687 24.6899 23.2294 24.4838L23.7704 24.7929C23.4097 24.999 23.1135 25.5143 23.1135 25.9265Z"/><path id="Vector_274" fill="#5A5D61" d="M23.5902 25.7974L23.1136 25.9262C23.1136 25.514 23.4099 24.9987 23.7706 24.7926L23.8994 25.2692C23.7319 25.3594 23.5902 25.6041 23.5902 25.7974Z"/></g><g id="Group_69"><path id="Vector_275" fill="#5A5D61" d="M22.289 28.0387L22.5209 27.7682C22.5209 28.0773 22.3019 28.4509 22.0443 28.6055L22.1731 28.2706C22.2375 28.2319 22.3019 28.1289 22.3019 28.0516L22.289 28.0387Z"/><path id="Vector_276" fill="#5A5D61" d="M22.1601 28.2705L22.0313 28.5925L20.4598 29.5071L20.5886 29.1722L22.1601 28.2705Z"/><path id="Vector_277" fill="#5A5D61" d="M22.2764 26.2352L22.5082 25.9647V27.7682L22.2893 28.0387L22.2764 26.2352Z"/><path id="Vector_278" fill="#5A5D61" d="M20.5886 29.1723L20.4598 29.5072C20.1893 29.6618 19.9831 29.533 19.9703 29.2367L20.4469 29.1079C20.4469 29.1852 20.5113 29.2238 20.5757 29.1852L20.5886 29.1723Z"/><path id="Vector_279" fill="#515457" d="M20.1121 29.5331L19.571 29.224C19.4809 29.1724 19.4293 29.0694 19.4293 28.9148L19.9704 29.224C19.9704 29.3785 20.0219 29.4816 20.1121 29.5331Z"/><path id="Vector_280" fill="#515457" d="M21.8253 25.3335L22.3663 25.6427C22.2762 25.5912 22.1602 25.604 22.0185 25.6813L21.4775 25.3722C21.6063 25.2949 21.7351 25.282 21.8253 25.3335Z"/><path id="Vector_281" fill="#5A5D61" d="M22.1473 26.158L22.0184 25.6814C22.289 25.5268 22.4951 25.6556 22.5079 25.9519L22.2761 26.2224C22.2761 26.1451 22.2117 26.1065 22.1473 26.1451V26.158Z"/><path id="Vector_282" fill="#63676B" d="M22.1472 26.1582C22.2245 26.1196 22.276 26.1582 22.276 26.2355V28.0389C22.276 28.1162 22.2245 28.2193 22.1472 28.2579L20.5757 29.1596C20.5112 29.1983 20.4468 29.1597 20.4468 29.0824V27.2789C20.4468 27.2016 20.4984 27.0986 20.5757 27.0599L22.1472 26.1582Z"/><path id="Vector_283" fill="#5A5D61" d="M20.4598 29.095L19.9832 29.2367L19.9703 27.4204L20.4469 27.2916L20.4598 29.095Z"/><path id="Vector_284" fill="#515457" d="M19.9833 29.2368L19.4293 28.9148V27.1113L19.9704 27.4205L19.9833 29.2368Z"/><path id="Vector_285" fill="#515457" d="M20.4472 26.5961L19.9062 26.274L21.4777 25.3723L22.0188 25.6815L20.4472 26.5961Z"/><path id="Vector_286" fill="#5A5D61" d="M20.5757 27.0727L20.4468 26.5961L22.0184 25.6815L22.1472 26.1581L20.5757 27.0727Z"/><path id="Vector_287" fill="#5A5D61" d="M20.4469 27.2917L19.9703 27.4206C19.9703 27.1114 20.1893 26.7378 20.4469 26.5833L20.5757 27.0599C20.4984 27.0985 20.4469 27.2016 20.4469 27.2789V27.2917Z"/><path id="Vector_288" fill="#515457" d="M19.9704 27.4203L19.4293 27.1111C19.4293 26.8019 19.6483 26.4284 19.906 26.2738L20.447 26.583C20.1765 26.7375 19.9704 27.1111 19.9704 27.4203Z"/></g><g id="Group_70"><path id="Vector_289" fill="#5A5D61" d="M22.1728 24.2902L22.4047 24.0197C22.4047 24.4319 22.1084 24.9471 21.7477 25.1532L21.8765 24.8183C22.044 24.7153 22.1857 24.4834 22.1857 24.2902H22.1728Z"/><path id="Vector_290" fill="#5A5D61" d="M21.8764 24.8182L21.7476 25.1532L20.717 25.7457L20.8459 25.4108L21.8764 24.8182Z"/><path id="Vector_291" fill="#5A5D61" d="M22.1726 23.0665L22.4045 22.796V24.0198L22.1726 24.2903V23.0665Z"/><path id="Vector_292" fill="#515457" d="M21.67 22.0618L22.2111 22.3709C22.2111 22.3709 22.1724 22.358 22.1595 22.3452L21.6185 22.036C21.6185 22.036 21.6571 22.0489 21.67 22.0618Z"/><path id="Vector_293" fill="#5A5D61" d="M22.0568 22.8605L22.1599 22.3452C22.3145 22.3967 22.4046 22.5642 22.4046 22.7961L22.1727 23.0666C22.1727 22.9635 22.1341 22.8862 22.0568 22.8605Z"/><path id="Vector_294" fill="#515457" d="M21.9918 22.2808L21.4508 21.9717L21.6182 22.0361L22.1593 22.3452L21.9918 22.2808Z"/><path id="Vector_295" fill="#5A5D61" d="M21.9023 22.8089L21.9924 22.2808L22.1599 22.3452L22.0569 22.8604L21.9023 22.8089Z"/><path id="Vector_296" fill="#5A5D61" d="M20.8456 25.4112L20.7168 25.7462C20.3561 25.9523 20.0598 25.7848 20.0598 25.3726L20.5364 25.2438C20.5364 25.437 20.6781 25.5143 20.8456 25.4241V25.4112Z"/><path id="Vector_297" fill="#515457" d="M20.2537 25.7845L19.7126 25.4754C19.5967 25.411 19.5194 25.2564 19.5194 25.0503L20.0604 25.3595C20.0604 25.5656 20.1377 25.7073 20.2537 25.7845Z"/><path id="Vector_298" fill="#5A5D61" d="M21.3483 22.8991L21.2195 22.4225C21.49 22.2679 21.7605 22.2164 21.9924 22.2937L21.8893 22.809C21.7347 22.7574 21.5415 22.7832 21.3483 22.8991Z"/><path id="Vector_299" fill="#515457" d="M21.2322 22.4098L20.6912 22.1006C20.9617 21.946 21.2322 21.8945 21.4641 21.9718L22.0051 22.2809C21.7861 22.2037 21.5027 22.2552 21.2322 22.4098Z"/><path id="Vector_300" fill="#63676B" d="M21.3479 22.8989C21.5412 22.783 21.7344 22.7443 21.889 22.8087L22.0564 22.8731C22.1208 22.8989 22.1724 22.9762 22.1724 23.0793V24.303C22.1724 24.4962 22.0435 24.7281 21.8761 24.8312L20.8455 25.4237C20.6781 25.5268 20.5364 25.4366 20.5364 25.2434V24.0196C20.5364 23.9166 20.575 23.7877 20.6394 23.6847L20.8069 23.4399C20.9615 23.1952 21.1547 23.0148 21.3479 22.8989Z"/><path id="Vector_301" fill="#515457" d="M20.0604 25.3723L19.5194 25.0503V23.8265L20.0604 24.1486V25.3723Z"/><path id="Vector_302" fill="#5A5D61" d="M20.5364 25.2305L20.0598 25.3722V24.1484L20.5364 24.0067V25.2305Z"/><path id="Vector_303" fill="#515457" d="M20.4597 23.1696L19.9187 22.8605C20.1377 22.5256 20.4082 22.255 20.6916 22.1005L21.2326 22.4096C20.9621 22.5642 20.6916 22.8347 20.4597 23.1696Z"/><path id="Vector_304" fill="#5A5D61" d="M20.8067 23.4273L20.4589 23.1697C20.6778 22.8348 20.9484 22.5642 21.2318 22.4097L21.3606 22.8863C21.1673 23.0022 20.9741 23.1826 20.8195 23.4273H20.8067Z"/><path id="Vector_305" fill="#515457" d="M20.292 23.4273L19.751 23.1052L19.9184 22.8605L20.4595 23.1696L20.292 23.4273Z"/><path id="Vector_306" fill="#5A5D61" d="M20.6528 23.6849L20.2922 23.4273L20.4596 23.1697L20.8074 23.4273L20.6528 23.6849Z"/><path id="Vector_307" fill="#515457" d="M20.0604 24.1487L19.5194 23.8395C19.5194 23.6077 19.6096 23.35 19.7642 23.1182L20.3052 23.4273C20.1506 23.6592 20.0604 23.9168 20.0604 24.1487Z"/><path id="Vector_308" fill="#5A5D61" d="M20.5364 24.007L20.0598 24.1358C20.0598 23.9039 20.15 23.6463 20.3046 23.4144L20.6524 23.6721C20.588 23.7751 20.5364 23.9039 20.5364 24.007Z"/></g><g id="Group_71"><path id="Vector_309" fill="#5A5D61" d="M19.1457 29.5458L19.3775 29.2753C19.3775 29.6875 19.0813 30.2028 18.7206 30.4089L18.8494 30.0739C19.0169 29.9709 19.1586 29.739 19.1586 29.5458H19.1457Z"/><path id="Vector_310" fill="#5A5D61" d="M19.146 28.3608L19.365 28.0903L19.3778 29.2626L19.146 29.546V28.3608Z"/><path id="Vector_311" fill="#5A5D61" d="M18.8368 30.0739L18.7208 30.3959L17.6516 31.0142L17.7805 30.6793L18.8368 30.0739Z"/><path id="Vector_312" fill="#515457" d="M17.1875 31.066L16.6465 30.7568C16.6465 30.7568 16.6207 30.744 16.6078 30.7311L17.1488 31.0402C17.1488 31.0402 17.1746 31.066 17.1875 31.066Z"/><path id="Vector_313" fill="#5A5D61" d="M17.7806 30.6796L17.6518 31.0145C17.4586 31.1304 17.2654 31.1304 17.1366 31.0274L17.5359 30.6796C17.5359 30.6796 17.6776 30.7182 17.7678 30.6796H17.7806Z"/><path id="Vector_314" fill="#515457" d="M17.1494 31.0273L16.6084 30.7182L16.4667 30.6151L17.0077 30.9243L17.1494 31.0273Z"/><path id="Vector_315" fill="#5A5D61" d="M17.5357 30.6924L17.1493 31.0273L17.0076 30.9242L17.4069 30.5764L17.5357 30.6924Z"/><path id="Vector_316" fill="#515457" d="M18.6302 27.3431L19.1712 27.6522C19.0553 27.5878 18.8878 27.5878 18.7075 27.7038L18.1665 27.3946C18.3468 27.2916 18.5143 27.2787 18.6302 27.3431Z"/><path id="Vector_317" fill="#5A5D61" d="M18.8362 28.1935L18.7074 27.7169C19.0681 27.5108 19.3644 27.6782 19.3644 28.0904L19.1325 28.3609C19.1325 28.1677 18.9908 28.0904 18.8233 28.1806L18.8362 28.1935Z"/><path id="Vector_318" fill="#63676B" d="M18.8365 28.1933C19.0039 28.0902 19.1456 28.1804 19.1456 28.3736V29.5587C19.1456 29.7519 19.0168 29.9838 18.8493 30.0869L17.7802 30.7052C17.69 30.7567 17.5998 30.7567 17.5483 30.7052L17.4195 30.5892C17.1618 30.3703 17.1618 29.855 17.4195 29.3397L17.5483 29.0821C17.6127 28.9662 17.69 28.876 17.7802 28.8116L18.8493 28.1933H18.8365Z"/><path id="Vector_319" fill="#5A5D61" d="M17.7676 28.7989L17.6516 28.3223L18.7079 27.704L18.8368 28.1935L17.7676 28.7989Z"/><path id="Vector_320" fill="#515457" d="M17.651 28.3221L17.11 28.013L18.1663 27.3947L18.7073 27.7038L17.651 28.3221Z"/><path id="Vector_321" fill="#5A5D61" d="M17.4064 30.5765L17.0071 30.9243C16.6335 30.6281 16.6335 29.8809 17.0071 29.1595L17.4064 29.327C17.1488 29.8423 17.1488 30.3704 17.4064 30.5765Z"/><path id="Vector_322" fill="#515457" d="M17.0074 30.9243L16.4664 30.6151C16.0928 30.3188 16.0928 29.5717 16.4664 28.8503L17.0074 29.1595C16.6467 29.8809 16.6467 30.628 17.0074 30.9243Z"/><path id="Vector_323" fill="#515457" d="M17.0077 29.1594L16.4667 28.8373L16.5955 28.5797L17.1365 28.8889L17.0077 29.1594Z"/><path id="Vector_324" fill="#5A5D61" d="M17.4069 29.327L17.0076 29.1596L17.1364 28.889L17.5357 29.0694L17.4069 29.327Z"/><path id="Vector_325" fill="#5A5D61" d="M17.5359 29.0692L17.1366 28.9018C17.2654 28.657 17.4457 28.4509 17.6389 28.335L17.7678 28.8116C17.6776 28.8631 17.5874 28.9662 17.5359 29.0821V29.0692Z"/><path id="Vector_326" fill="#515457" d="M17.1359 28.8889L16.5949 28.5797C16.7237 28.335 16.904 28.1289 17.0973 28.0129L17.6383 28.3221C17.4451 28.438 17.2518 28.6441 17.1359 28.8889Z"/></g></g><path id="Vector_327" fill="#46474A" d="M32.0396 13.5728C32.2972 13.4182 32.5162 13.547 32.5162 13.8433C32.5162 14.1396 32.2972 14.5131 32.0396 14.6677C31.6531 14.8996 31.2538 15.1186 30.8673 15.3504C30.6097 15.505 30.3907 15.3762 30.3907 15.0799C30.3907 14.7836 30.6097 14.4101 30.8673 14.2555C31.2538 14.0236 31.6531 13.8046 32.0396 13.5728Z"/><path id="Vector_328" fill="#77E2D8" d="M31.7949 13.779C32.001 13.663 32.1685 13.7532 32.1685 13.9851C32.1685 14.2169 32.001 14.5132 31.7949 14.6292C31.4858 14.8095 31.1895 14.977 30.8803 15.1573C30.6742 15.2732 30.5068 15.1831 30.5068 14.9383C30.5068 14.7064 30.6742 14.4102 30.8803 14.2942C31.1895 14.1139 31.4858 13.9464 31.7949 13.7661V13.779Z"/></g><g id="Group 1989"><path id="Vector_329" fill="#132269" d="M18.4484 70.1048C17.4056 70.9764 12.3083 75.6535 12.3083 75.6535C12.3083 75.6535 15.0321 83.7704 26.5886 84.7353C27.3357 84.5486 32.0517 75.5757 32.0517 75.5757L19.9193 69.7313C19.9193 69.7313 19.499 69.2255 18.4484 70.0971V70.1048Z"/><path id="Vector_330" fill="#FF3333" d="M12.3084 75.1243C1.42115 81.0155 -0.213111 89.6615 0.0203541 90.6109C0.930869 92.7354 14.0283 100.642 16.4407 100.735L26.7521 84.4941C10.1138 79.9571 14.0827 74.1049 12.3162 75.1243H12.3084Z"/><path id="Vector_331" fill="#0C0C0C" d="M52.231 74.6029C50.0987 75.8325 48.371 78.8286 48.371 81.2878C48.371 82.4862 48.7757 83.3345 49.445 83.7469C49.4994 83.7781 51.4061 84.8831 51.4061 84.8831C51.4061 84.8831 49.8496 83.3189 50.8691 82.7275C53.0014 81.4979 54.7291 78.5017 54.7291 76.0426C54.7291 74.8519 56.7836 75.3811 56.7836 75.3811C56.7836 75.3811 54.9392 74.3149 54.9003 74.2916C54.2077 73.9258 53.2738 74.0036 52.2388 74.5951L52.231 74.6029Z"/><path id="Vector_332" fill="#0C0C0C" d="M24.3475 90.6965C22.2152 91.9261 20.4876 94.9222 20.4876 97.3814C20.4876 98.5798 20.8922 99.4281 21.5615 99.8406C21.616 99.8717 23.5226 100.977 23.5226 100.977C23.5226 100.977 21.9662 99.4125 22.9779 98.8211C25.1102 97.5915 26.8378 94.5954 26.8378 92.1362C26.8378 90.9455 28.8923 91.4747 28.8923 91.4747C28.8923 91.4747 27.0479 90.4086 27.009 90.3852C26.3164 90.0194 25.3826 90.0973 24.3475 90.6887V90.6965Z"/><path id="Vector_333" fill="#FF3333" d="M43.7253 59.3421C43.0093 59.4277 41.2895 60.1436 40.5657 60.3149C39.2972 60.6106 37.6785 60.8051 36.5735 61.0931C35.6629 61.3265 33.7952 61.6767 33.6162 61.739C26.7835 64.0192 22.1297 67.3344 19.8885 68.6963C19.8885 68.6963 15.904 71.3422 12.3164 75.1321L12.9779 75.6068C12.9779 75.6068 17.2347 71.4589 19.3748 69.9025L30.9936 76.8053L31.6785 77.2177L32.1687 76.8053L57.204 66.9764C52.6437 62.0503 45.1105 59.3032 43.7253 59.3421Z"/><path id="Vector_334" fill="#202025" d="M25.1568 90.72L30.2852 93.7706L31.0479 92.3854L29.0401 89.5449L25.1568 90.72Z"/><path id="Vector_335" fill="#202025" d="M52.9703 73.9493L58.1065 76.9921L58.8692 75.6147L56.8614 72.7742L52.9703 73.9493Z"/><path id="Vector_336" fill="#C21818" d="M57.2195 66.9919C56.0366 66.0425 55.1805 66.4705 53.6786 67.381C52.1766 68.2915 50.7992 68.6884 49.554 68.9686C45.873 69.7935 45.1182 69.381 44.5579 69.5834C42.0442 70.4939 35.6784 73.0698 30.9857 76.7974C30.9857 76.7974 28.4565 80.1983 26.511 84.1438C26.1141 85.4512 16.6587 90.8209 15.9117 100.198C15.8805 101.047 18.2697 101.233 21.0557 99.3891C21.2269 99.2724 21.5226 99.0856 21.9273 98.8366C21.9273 98.8366 21.1024 94.4163 25.795 91.5758C30.4955 88.7353 30.2776 93.7626 30.2776 93.7626C36.2543 90.1594 43.9197 85.5757 49.6474 82.1516C49.9042 80.2449 50.7758 76.8286 54.0443 75.2799C57.3128 73.7313 58.0988 76.992 58.0988 76.992C58.5191 76.5017 58.9782 76.0037 59.3829 75.4667C60.3012 73.9803 60.2156 70.9764 58.986 69.0386C58.2856 68.0892 57.7486 67.4199 57.2117 66.9841L57.2195 66.9919Z"/><g id="Group_72"><path id="Vector_337" fill="#161B1E" d="M26.1684 91.7551C24.0361 92.9847 22.3085 95.9808 22.3085 98.44C22.3085 100.899 24.0361 101.895 26.1684 100.666C28.3008 99.4361 30.0284 96.4399 30.0284 93.9808C30.0284 91.5216 28.3008 90.5255 26.1684 91.7551Z"/><path id="Vector_338" fill="#C3C3C4" d="M26.168 93.537C24.8917 94.2763 23.8567 96.0662 23.8567 97.5448C23.8567 99.0235 24.8917 99.6149 26.168 98.8834C27.4442 98.1441 28.4793 96.3542 28.4793 94.8756C28.4793 93.3969 27.4442 92.8055 26.168 93.537Z"/><path id="Vector_339" fill="#464646" d="M27.6858 93.3192C27.9737 93.5993 28.1449 94.0507 28.1449 94.6422C28.1449 96.1208 27.1099 97.9107 25.8336 98.65C25.2578 98.9768 24.7519 99.0702 24.355 98.9068C24.7753 99.3192 25.4367 99.3192 26.1916 98.8834C27.4679 98.1441 28.5029 96.3542 28.5029 94.8756C28.5029 94.0585 28.1839 93.5137 27.6858 93.3114V93.3192Z"/><path id="Vector_340" fill="#B2B2B3" d="M26.1682 94.9612C25.569 95.3036 25.0865 96.1441 25.0865 96.8289C25.0865 97.5138 25.569 97.7939 26.1682 97.4515C26.7674 97.1091 27.2499 96.2686 27.2499 95.5838C27.2499 94.8989 26.7674 94.6188 26.1682 94.9612Z"/></g><g id="Group_73"><path id="Vector_341" fill="#161B1E" d="M54.0519 75.6535C51.9196 76.8831 50.1919 79.8792 50.1919 82.3384C50.1919 84.7976 51.9196 85.7937 54.0519 84.5641C56.1842 83.3345 57.9118 80.3384 57.9118 77.8792C57.9118 75.42 56.1842 74.4239 54.0519 75.6535Z"/><path id="Vector_342" fill="#C3C3C4" d="M54.0518 77.4356C52.7755 78.1749 51.7405 79.9648 51.7405 81.4434C51.7405 82.922 52.7755 83.5135 54.0518 82.7819C55.3281 82.0426 56.3631 80.2527 56.3631 78.7741C56.3631 77.2955 55.3281 76.7041 54.0518 77.4356Z"/><path id="Vector_343" fill="#464646" d="M55.5694 77.2177C55.8574 77.4978 56.0286 77.9492 56.0286 78.5406C56.0286 80.0192 54.9935 81.8091 53.7173 82.5484C53.1414 82.8753 52.62 82.9531 52.2153 82.7897C52.6355 83.2021 53.3126 83.2255 54.0752 82.7897C55.3515 82.0504 56.3866 80.2605 56.3866 78.7819C56.3866 77.9647 56.0675 77.42 55.5694 77.2177Z"/><path id="Vector_344" fill="#B2B2B3" d="M54.0518 78.8598C53.4526 79.2022 52.9701 80.0427 52.9701 80.7275C52.9701 81.4123 53.4526 81.6925 54.0518 81.3501C54.651 81.0076 55.1335 80.1672 55.1335 79.4823C55.1335 78.7975 54.651 78.5173 54.0518 78.8598Z"/></g><path id="Vector_345" fill="#132269" d="M33.157 76.8054C31.4917 78.5797 28.9002 84.8833 28.9002 84.8833C28.9002 84.8833 34.2465 82.0039 39.4295 78.8054C39.2505 76.9844 38.8692 75.2178 38.0209 73.5991C35.3905 75.0388 33.4372 76.4396 33.157 76.8054Z"/><path id="Vector_346" fill="#132269" d="M44.1299 70.8909C42.3322 71.4746 40.5267 72.2839 38.9158 73.1166C39.7563 74.7119 40.1688 76.4318 40.3711 78.2139C45.196 75.1866 49.5696 72.0115 48.9626 70.8053C48.6435 70.2061 46.7058 70.2683 44.1299 70.8987V70.8909Z"/><path id="Vector_347" fill="#132269" d="M41.7173 60.5482C41.0869 60.4315 37.1414 60.8439 34.4954 61.8167C34.4954 61.8167 42.1297 64.4159 46.1531 68.8596C46.1531 68.8596 48.3088 68.5327 50.1921 67.8012C52.0754 67.0697 52.5812 66.7895 52.5812 66.7895C52.5812 66.7895 48.5189 61.84 41.7251 60.5404L41.7173 60.5482Z"/><path id="Vector_348" fill="#FFFFD3" d="M13.4993 94.8523C12.7211 94.4009 12.0985 94.7355 12.0985 95.5838C12.0985 96.432 12.7289 97.4904 13.4993 97.9418C14.2775 98.3854 14.9001 98.0585 14.9001 97.2103C14.9001 96.362 14.2697 95.3036 13.4993 94.8523Z"/><path id="Vector_349" fill="#FFFFD3" d="M2.37044 88.463C1.6467 88.0272 1.05525 88.3463 1.05525 89.179C1.05525 90.0117 1.6467 91.0311 2.37044 91.4669C3.09418 91.9027 3.68563 91.5837 3.68563 90.751C3.68563 89.9183 3.09418 88.8988 2.37044 88.463Z"/></g><g id="Group 1992"><circle id="Ellipse 9" cx="32.171" cy="45.2559" r="1.25589" fill="#132269"/><circle id="Ellipse 10" cx="32.171" cy="50.2793" r="1.25589" fill="#132269"/><circle id="Ellipse 11" cx="32.171" cy="55.303" r="1.25589" fill="#132269"/><circle id="Ellipse 12" cx="32.171" cy="60.3267" r="1.25589" fill="#132269"/><circle id="Ellipse 13" cx="32.171" cy="65.3503" r="1.25589" fill="#132269"/></g></g></svg>